<svg width="1120" height="94" viewBox="0 0 1120 94" fill="none" xmlns="http://www.w3.org/2000/svg">
<rect width="1120" height="94" rx="12" fill="#F5F5F5"/>
<rect x="72.5883" y="23.5883" width="974.823" height="46.9298" rx="10.2969" fill="white"/>
<rect x="72.5883" y="23.5883" width="974.823" height="46.9298" rx="10.2969" stroke="#EEEEEE" stroke-width="0.82333"/>
<rect x="921.365" y="34.2945" width="112.05" height="25.5232" rx="6.17498" fill="#FAFAFA"/>
<rect x="921.365" y="34.2945" width="112.05" height="25.5232" rx="6.17498" stroke="#EEEEEE" stroke-width="0.82333"/>
<path d="M938.818 52.365C941.173 51.7447 942.907 49.6041 942.907 47.0572C942.907 44.0274 940.47 41.5684 937.419 41.5684C933.757 41.5684 931.93 44.6202 931.93 44.6202M931.93 44.6202V42.1172M931.93 44.6202H933.033H934.367" stroke="#0D0D0D" stroke-width="1.235" stroke-linecap="round" stroke-linejoin="round"/>
<path d="M931.93 47.0566C931.93 50.0865 934.389 52.5455 937.419 52.5455" stroke="#0D0D0D" stroke-width="1.235" stroke-linecap="round" stroke-linejoin="round" stroke-dasharray="2.47 2.47"/>
<path d="M949.937 51.0557V42.8718H953.199C953.783 42.8718 954.286 42.9717 954.709 43.1715C955.131 43.3712 955.458 43.6556 955.688 44.0244C955.919 44.3933 956.034 44.8313 956.034 45.3385C956.034 45.7073 955.95 46.0377 955.781 46.3297C955.619 46.6218 955.4 46.8561 955.124 47.0329C954.855 47.2019 954.566 47.298 954.259 47.321L954.201 47.2173C954.716 47.2173 955.116 47.3364 955.4 47.5746C955.685 47.8052 955.85 48.1702 955.896 48.6697L956.115 51.0557H954.858L954.663 48.831C954.639 48.5006 954.528 48.2585 954.328 48.1048C954.128 47.9435 953.802 47.8628 953.348 47.8628H951.181V51.0557H949.937ZM951.181 46.7217H953.222C953.69 46.7217 954.059 46.6064 954.328 46.3759C954.605 46.1376 954.743 45.8034 954.743 45.373C954.743 44.935 954.605 44.6008 954.328 44.3702C954.052 44.132 953.648 44.0129 953.118 44.0129H951.181V46.7217ZM960.011 51.194C959.412 51.194 958.893 51.0633 958.455 50.8021C958.025 50.5408 957.69 50.1681 957.452 49.684C957.222 49.1999 957.106 48.6351 957.106 47.9896C957.106 47.3441 957.222 46.7831 957.452 46.3067C957.69 45.8226 958.025 45.4499 958.455 45.1886C958.885 44.9197 959.392 44.7852 959.976 44.7852C960.53 44.7852 961.018 44.9158 961.44 45.1771C961.863 45.4307 962.19 45.7995 962.42 46.2836C962.658 46.7678 962.777 47.3518 962.777 48.0357V48.3469H958.374C958.405 48.9463 958.563 49.3958 958.847 49.6955C959.139 49.9952 959.531 50.1451 960.023 50.1451C960.384 50.1451 960.683 50.0605 960.922 49.8915C961.16 49.7224 961.325 49.4957 961.417 49.2114L962.685 49.2921C962.524 49.8607 962.205 50.3218 961.729 50.6753C961.26 51.0211 960.687 51.194 960.011 51.194ZM958.374 47.4248H961.486C961.448 46.8792 961.291 46.4758 961.014 46.2145C960.745 45.9532 960.399 45.8226 959.976 45.8226C959.538 45.8226 959.177 45.9609 958.893 46.2375C958.616 46.5065 958.443 46.9022 958.374 47.4248ZM967.07 51.194C966.647 51.194 966.271 51.1018 965.94 50.9173C965.618 50.7252 965.368 50.464 965.191 50.1335L965.157 51.0557H964.015V42.8718H965.237V45.788C965.399 45.519 965.637 45.2847 965.952 45.0849C966.275 44.8851 966.647 44.7852 967.07 44.7852C967.6 44.7852 968.061 44.9158 968.453 45.1771C968.845 45.4384 969.145 45.811 969.352 46.2952C969.567 46.7716 969.675 47.3364 969.675 47.9896C969.675 48.6428 969.567 49.2114 969.352 49.6955C969.145 50.172 968.845 50.5408 968.453 50.8021C968.061 51.0633 967.6 51.194 967.07 51.194ZM966.874 50.1335C967.343 50.1335 967.716 49.9453 967.992 49.5687C968.269 49.1845 968.407 48.6581 968.407 47.9896C968.407 47.321 968.269 46.7985 967.992 46.422C967.716 46.0377 967.347 45.8456 966.886 45.8456C966.54 45.8456 966.244 45.9302 965.998 46.0992C965.752 46.2683 965.564 46.5142 965.433 46.8369C965.303 47.152 965.237 47.5362 965.237 47.9896C965.237 48.4276 965.303 48.808 965.433 49.1307C965.564 49.4535 965.752 49.7032 965.998 49.8799C966.244 50.049 966.536 50.1335 966.874 50.1335ZM973.44 51.194C972.856 51.194 972.345 51.0633 971.907 50.8021C971.469 50.5408 971.131 50.1681 970.893 49.684C970.654 49.1999 970.535 48.6351 970.535 47.9896C970.535 47.3364 970.654 46.7716 970.893 46.2952C971.131 45.8187 971.469 45.4499 971.907 45.1886C972.345 44.9197 972.856 44.7852 973.44 44.7852C974.024 44.7852 974.535 44.9197 974.973 45.1886C975.411 45.4499 975.749 45.8187 975.987 46.2952C976.226 46.7716 976.345 47.3364 976.345 47.9896C976.345 48.6351 976.226 49.1999 975.987 49.684C975.749 50.1681 975.411 50.5408 974.973 50.8021C974.535 51.0633 974.024 51.194 973.44 51.194ZM973.44 50.1335C973.963 50.1335 974.366 49.9453 974.65 49.5687C974.935 49.1845 975.077 48.6581 975.077 47.9896C975.077 47.321 974.935 46.7985 974.65 46.422C974.366 46.0377 973.963 45.8456 973.44 45.8456C972.925 45.8456 972.522 46.0377 972.23 46.422C971.945 46.7985 971.803 47.321 971.803 47.9896C971.803 48.6581 971.945 49.1845 972.23 49.5687C972.522 49.9453 972.925 50.1335 973.44 50.1335ZM980.104 51.194C979.52 51.194 979.009 51.0633 978.571 50.8021C978.133 50.5408 977.795 50.1681 977.556 49.684C977.318 49.1999 977.199 48.6351 977.199 47.9896C977.199 47.3364 977.318 46.7716 977.556 46.2952C977.795 45.8187 978.133 45.4499 978.571 45.1886C979.009 44.9197 979.52 44.7852 980.104 44.7852C980.688 44.7852 981.199 44.9197 981.637 45.1886C982.075 45.4499 982.413 45.8187 982.651 46.2952C982.889 46.7716 983.009 47.3364 983.009 47.9896C983.009 48.6351 982.889 49.1999 982.651 49.684C982.413 50.1681 982.075 50.5408 981.637 50.8021C981.199 51.0633 980.688 51.194 980.104 51.194ZM980.104 50.1335C980.626 50.1335 981.03 49.9453 981.314 49.5687C981.598 49.1845 981.741 48.6581 981.741 47.9896C981.741 47.321 981.598 46.7985 981.314 46.422C981.03 46.0377 980.626 45.8456 980.104 45.8456C979.589 45.8456 979.186 46.0377 978.894 46.422C978.609 46.7985 978.467 47.321 978.467 47.9896C978.467 48.6581 978.609 49.1845 978.894 49.5687C979.186 49.9453 979.589 50.1335 980.104 50.1335ZM986.37 51.0557C985.786 51.0557 985.355 50.9212 985.079 50.6522C984.802 50.3833 984.664 49.9645 984.664 49.3958V43.4827H985.886V49.3036C985.886 49.5879 985.947 49.7839 986.07 49.8915C986.193 49.9991 986.381 50.0528 986.635 50.0528H987.511V51.0557H986.37ZM983.73 45.9263V44.9235H987.511V45.9263H983.73ZM991.549 51.0557V44.9235H992.667L992.713 46.5488L992.609 46.5142C992.694 45.9609 992.863 45.5575 993.116 45.3039C993.378 45.0503 993.727 44.9235 994.165 44.9235H994.753V46.0185H994.165C993.858 46.0185 993.601 46.0685 993.393 46.1684C993.186 46.2683 993.028 46.422 992.92 46.6294C992.821 46.8369 992.771 47.1059 992.771 47.4363V51.0557H991.549ZM998.148 51.194C997.564 51.194 997.053 51.0633 996.615 50.8021C996.177 50.5408 995.839 50.1681 995.601 49.684C995.362 49.1999 995.243 48.6351 995.243 47.9896C995.243 47.3364 995.362 46.7716 995.601 46.2952C995.839 45.8187 996.177 45.4499 996.615 45.1886C997.053 44.9197 997.564 44.7852 998.148 44.7852C998.732 44.7852 999.243 44.9197 999.681 45.1886C1000.12 45.4499 1000.46 45.8187 1000.7 46.2952C1000.93 46.7716 1001.05 47.3364 1001.05 47.9896C1001.05 48.6351 1000.93 49.1999 1000.7 49.684C1000.46 50.1681 1000.12 50.5408 999.681 50.8021C999.243 51.0633 998.732 51.194 998.148 51.194ZM998.148 50.1335C998.671 50.1335 999.074 49.9453 999.358 49.5687C999.643 49.1845 999.785 48.6581 999.785 47.9896C999.785 47.321 999.643 46.7985 999.358 46.422C999.074 46.0377 998.671 45.8456 998.148 45.8456C997.633 45.8456 997.23 46.0377 996.938 46.422C996.653 46.7985 996.511 47.321 996.511 47.9896C996.511 48.6581 996.653 49.1845 996.938 49.5687C997.23 49.9453 997.633 50.1335 998.148 50.1335ZM1004.3 51.194C1003.69 51.194 1003.2 50.9903 1002.83 50.5831C1002.47 50.1681 1002.29 49.5956 1002.29 48.8656V44.9235H1003.51V48.5544C1003.51 49.1077 1003.61 49.5149 1003.8 49.7762C1003.99 50.0375 1004.28 50.1681 1004.67 50.1681C1005.12 50.1681 1005.46 50.026 1005.71 49.7416C1005.96 49.4496 1006.09 49.0423 1006.09 48.5198V44.9235H1007.31V51.0557H1006.17L1006.15 49.4535L1006.32 49.5226C1006.21 50.0605 1005.99 50.4755 1005.64 50.7675C1005.3 51.0518 1004.85 51.194 1004.3 51.194ZM1011.09 51.0557C1010.5 51.0557 1010.07 50.9212 1009.8 50.6522C1009.52 50.3833 1009.38 49.9645 1009.38 49.3958V43.4827H1010.6V49.3036C1010.6 49.5879 1010.67 49.7839 1010.79 49.8915C1010.91 49.9991 1011.1 50.0528 1011.35 50.0528H1012.23V51.0557H1011.09ZM1008.45 45.9263V44.9235H1012.23V45.9263H1008.45ZM1015.82 51.194C1015.22 51.194 1014.7 51.0633 1014.26 50.8021C1013.83 50.5408 1013.5 50.1681 1013.26 49.684C1013.03 49.1999 1012.92 48.6351 1012.92 47.9896C1012.92 47.3441 1013.03 46.7831 1013.26 46.3067C1013.5 45.8226 1013.83 45.4499 1014.26 45.1886C1014.69 44.9197 1015.2 44.7852 1015.79 44.7852C1016.34 44.7852 1016.83 44.9158 1017.25 45.1771C1017.67 45.4307 1018 45.7995 1018.23 46.2836C1018.47 46.7678 1018.59 47.3518 1018.59 48.0357V48.3469H1014.18C1014.21 48.9463 1014.37 49.3958 1014.66 49.6955C1014.95 49.9952 1015.34 50.1451 1015.83 50.1451C1016.19 50.1451 1016.49 50.0605 1016.73 49.8915C1016.97 49.7224 1017.13 49.4957 1017.23 49.2114L1018.49 49.2921C1018.33 49.8607 1018.01 50.3218 1017.54 50.6753C1017.07 51.0211 1016.5 51.194 1015.82 51.194ZM1014.18 47.4248H1017.3C1017.26 46.8792 1017.1 46.4758 1016.82 46.2145C1016.55 45.9532 1016.21 45.8226 1015.79 45.8226C1015.35 45.8226 1014.99 45.9609 1014.7 46.2375C1014.43 46.5065 1014.25 46.9022 1014.18 47.4248ZM1019.83 51.0557V44.9235H1020.94L1020.99 46.5488L1020.89 46.5142C1020.97 45.9609 1021.14 45.5575 1021.39 45.3039C1021.65 45.0503 1022 44.9235 1022.44 44.9235H1023.03V46.0185H1022.44C1022.13 46.0185 1021.88 46.0685 1021.67 46.1684C1021.46 46.2683 1021.3 46.422 1021.2 46.6294C1021.1 46.8369 1021.05 47.1059 1021.05 47.4363V51.0557H1019.83Z" fill="#0D0D0D"/>
<rect x="86.1719" y="43.7695" width="6.58664" height="6.58664" rx="3.29332" fill="#58CCD2"/>
<path d="M100.335 50.5625V42.3786H101.58V50.5625H100.335ZM103.54 50.5625V44.4303H104.658L104.704 46.0671L104.555 45.9864C104.624 45.5868 104.754 45.2641 104.946 45.0182C105.139 44.7723 105.373 44.5917 105.65 44.4764C105.926 44.3535 106.226 44.292 106.549 44.292C107.01 44.292 107.39 44.3958 107.69 44.6032C107.997 44.803 108.228 45.0797 108.381 45.4332C108.543 45.7789 108.623 46.1747 108.623 46.6204V50.5625H107.402V46.9892C107.402 46.6281 107.363 46.3245 107.286 46.0786C107.209 45.8327 107.083 45.6445 106.906 45.5138C106.729 45.3832 106.499 45.3179 106.214 45.3179C105.784 45.3179 105.434 45.46 105.165 45.7444C104.896 46.0287 104.762 46.4437 104.762 46.9892V50.5625H103.54ZM112.263 50.5625C111.679 50.5625 111.248 50.428 110.972 50.1591C110.695 49.8901 110.557 49.4713 110.557 48.9027V42.9895H111.779V48.8105C111.779 49.0948 111.84 49.2907 111.963 49.3983C112.086 49.5059 112.274 49.5597 112.528 49.5597H113.404V50.5625H112.263ZM109.623 45.4332V44.4303H113.404V45.4332H109.623ZM116.995 50.7008C116.395 50.7008 115.876 50.5702 115.438 50.3089C115.008 50.0476 114.674 49.6749 114.436 49.1908C114.205 48.7067 114.09 48.1419 114.09 47.4964C114.09 46.8509 114.205 46.29 114.436 45.8135C114.674 45.3294 115.008 44.9567 115.438 44.6954C115.869 44.4265 116.376 44.292 116.96 44.292C117.513 44.292 118.001 44.4226 118.424 44.6839C118.846 44.9375 119.173 45.3064 119.404 45.7905C119.642 46.2746 119.761 46.8586 119.761 47.5425V47.8537H115.358C115.388 48.4531 115.546 48.9027 115.83 49.2024C116.122 49.5021 116.514 49.6519 117.006 49.6519C117.367 49.6519 117.667 49.5674 117.905 49.3983C118.143 49.2293 118.309 49.0026 118.401 48.7182L119.669 48.7989C119.507 49.3676 119.188 49.8286 118.712 50.1821C118.243 50.5279 117.671 50.7008 116.995 50.7008ZM115.358 46.9316H118.47C118.432 46.386 118.274 45.9826 117.997 45.7213C117.728 45.46 117.383 45.3294 116.96 45.3294C116.522 45.3294 116.161 45.4677 115.876 45.7444C115.6 46.0133 115.427 46.4091 115.358 46.9316ZM120.999 50.5625V44.4303H122.117L122.163 46.0556L122.059 46.021C122.144 45.4677 122.313 45.0643 122.567 44.8107C122.828 44.5571 123.177 44.4303 123.615 44.4303H124.203V45.5254H123.615C123.308 45.5254 123.051 45.5753 122.843 45.6752C122.636 45.7751 122.478 45.9288 122.371 46.1363C122.271 46.3438 122.221 46.6127 122.221 46.9431V50.5625H120.999ZM125.119 50.5625V44.4303H126.237L126.283 46.0671L126.133 45.9864C126.202 45.5868 126.333 45.2641 126.525 45.0182C126.717 44.7723 126.952 44.5917 127.228 44.4764C127.505 44.3535 127.805 44.292 128.127 44.292C128.588 44.292 128.969 44.3958 129.268 44.6032C129.576 44.803 129.806 45.0797 129.96 45.4332C130.121 45.7789 130.202 46.1747 130.202 46.6204V50.5625H128.98V46.9892C128.98 46.6281 128.942 46.3245 128.865 46.0786C128.788 45.8327 128.661 45.6445 128.485 45.5138C128.308 45.3832 128.077 45.3179 127.793 45.3179C127.363 45.3179 127.013 45.46 126.744 45.7444C126.475 46.0287 126.341 46.4437 126.341 46.9892V50.5625H125.119ZM134.318 50.7008C133.719 50.7008 133.2 50.5702 132.762 50.3089C132.332 50.0476 131.998 49.6749 131.759 49.1908C131.529 48.7067 131.414 48.1419 131.414 47.4964C131.414 46.8509 131.529 46.29 131.759 45.8135C131.998 45.3294 132.332 44.9567 132.762 44.6954C133.192 44.4265 133.7 44.292 134.284 44.292C134.837 44.292 135.325 44.4226 135.748 44.6839C136.17 44.9375 136.497 45.3064 136.727 45.7905C136.966 46.2746 137.085 46.8586 137.085 47.5425V47.8537H132.681C132.712 48.4531 132.87 48.9027 133.154 49.2024C133.446 49.5021 133.838 49.6519 134.33 49.6519C134.691 49.6519 134.991 49.5674 135.229 49.3983C135.467 49.2293 135.632 49.0026 135.724 48.7182L136.992 48.7989C136.831 49.3676 136.512 49.8286 136.036 50.1821C135.567 50.5279 134.994 50.7008 134.318 50.7008ZM132.681 46.9316H135.794C135.755 46.386 135.598 45.9826 135.321 45.7213C135.052 45.46 134.706 45.3294 134.284 45.3294C133.846 45.3294 133.484 45.4677 133.2 45.7444C132.924 46.0133 132.751 46.4091 132.681 46.9316ZM140.449 50.5625C139.865 50.5625 139.435 50.428 139.158 50.1591C138.881 49.8901 138.743 49.4713 138.743 48.9027V42.9895H139.965V48.8105C139.965 49.0948 140.026 49.2907 140.149 49.3983C140.272 49.5059 140.46 49.5597 140.714 49.5597H141.59V50.5625H140.449ZM137.809 45.4332V44.4303H141.59V45.4332H137.809ZM147.991 50.7008C147.415 50.7008 146.927 50.6124 146.527 50.4357C146.135 50.259 145.832 50.0169 145.617 49.7095C145.401 49.3945 145.278 49.0333 145.248 48.626L146.504 48.5684C146.566 48.9065 146.712 49.1755 146.942 49.3753C147.173 49.5751 147.522 49.6749 147.991 49.6749C148.375 49.6749 148.679 49.6135 148.902 49.4905C149.125 49.3676 149.236 49.1716 149.236 48.9027C149.236 48.7567 149.198 48.6337 149.121 48.5338C149.052 48.4262 148.913 48.3379 148.706 48.2687C148.498 48.1919 148.191 48.1189 147.784 48.0497C147.177 47.9344 146.7 47.8 146.354 47.6463C146.008 47.4926 145.763 47.2966 145.617 47.0584C145.471 46.8202 145.398 46.532 145.398 46.1939C145.398 45.6329 145.605 45.1757 146.02 44.8222C146.443 44.4688 147.05 44.292 147.841 44.292C148.371 44.292 148.817 44.3842 149.178 44.5687C149.539 44.7454 149.82 44.9875 150.02 45.2948C150.227 45.5945 150.358 45.9326 150.412 46.3092L149.155 46.3783C149.117 46.1632 149.04 45.9787 148.925 45.8251C148.817 45.6637 148.671 45.5407 148.487 45.4562C148.302 45.364 148.083 45.3179 147.83 45.3179C147.438 45.3179 147.146 45.3947 146.954 45.5484C146.762 45.7021 146.666 45.9019 146.666 46.1478C146.666 46.3322 146.708 46.4821 146.792 46.5973C146.885 46.7126 147.031 46.8087 147.23 46.8855C147.43 46.9547 147.695 47.0161 148.026 47.0699C148.663 47.1775 149.163 47.312 149.524 47.4734C149.885 47.6271 150.139 47.8192 150.285 48.0497C150.431 48.2802 150.504 48.5607 150.504 48.8911C150.504 49.2754 150.396 49.6019 150.181 49.8709C149.966 50.1399 149.67 50.3473 149.294 50.4933C148.917 50.6317 148.483 50.7008 147.991 50.7008ZM153.867 50.5625C153.283 50.5625 152.852 50.428 152.576 50.1591C152.299 49.8901 152.161 49.4713 152.161 48.9027V42.9895H153.383V48.8105C153.383 49.0948 153.444 49.2907 153.567 49.3983C153.69 49.5059 153.878 49.5597 154.132 49.5597H155.008V50.5625H153.867ZM151.227 45.4332V44.4303H155.008V45.4332H151.227ZM157.859 50.7008C157.221 50.7008 156.71 50.5548 156.326 50.2628C155.95 49.9708 155.761 49.5597 155.761 49.0295C155.761 48.4992 155.919 48.0881 156.234 47.7961C156.557 47.4964 157.052 47.2813 157.721 47.1506L159.83 46.7472C159.83 46.2708 159.719 45.9173 159.496 45.6867C159.273 45.4485 158.943 45.3294 158.505 45.3294C158.113 45.3294 157.805 45.4178 157.582 45.5945C157.36 45.7636 157.206 46.0172 157.121 46.3553L155.865 46.2746C155.98 45.6598 156.265 45.1757 156.718 44.8222C157.179 44.4688 157.775 44.292 158.505 44.292C159.335 44.292 159.965 44.5149 160.395 44.9606C160.833 45.3986 161.052 46.0172 161.052 46.8163V49.2024C161.052 49.3484 161.075 49.4521 161.121 49.5136C161.175 49.5674 161.259 49.5943 161.375 49.5943H161.594V50.5625C161.555 50.5702 161.494 50.5779 161.409 50.5856C161.325 50.5932 161.236 50.5971 161.144 50.5971C160.883 50.5971 160.656 50.5548 160.464 50.4703C160.28 50.3858 160.141 50.2474 160.049 50.0553C159.957 49.8555 159.911 49.5904 159.911 49.26L160.038 49.3176C159.976 49.5866 159.842 49.8248 159.634 50.0323C159.434 50.2398 159.177 50.405 158.862 50.5279C158.555 50.6432 158.22 50.7008 157.859 50.7008ZM158.055 49.7326C158.424 49.7326 158.739 49.6634 159 49.5251C159.262 49.3791 159.465 49.1793 159.611 48.9257C159.757 48.6721 159.83 48.384 159.83 48.0612V47.6693L158.032 48.0151C157.663 48.0843 157.402 48.1957 157.248 48.3494C157.102 48.4954 157.029 48.6837 157.029 48.9142C157.029 49.1755 157.118 49.3791 157.294 49.5251C157.479 49.6634 157.732 49.7326 158.055 49.7326ZM164.662 50.5625C164.078 50.5625 163.647 50.428 163.371 50.1591C163.094 49.8901 162.956 49.4713 162.956 48.9027V42.9895H164.178V48.8105C164.178 49.0948 164.239 49.2907 164.362 49.3983C164.485 49.5059 164.673 49.5597 164.927 49.5597H165.803V50.5625H164.662ZM162.022 45.4332V44.4303H165.803V45.4332H162.022ZM169.01 50.7008C168.395 50.7008 167.904 50.4972 167.535 50.0899C167.173 49.6749 166.993 49.1025 166.993 48.3724V44.4303H168.215V48.0612C168.215 48.6145 168.311 49.0218 168.503 49.283C168.695 49.5443 168.987 49.6749 169.379 49.6749C169.825 49.6749 170.17 49.5328 170.416 49.2485C170.67 48.9565 170.797 48.5492 170.797 48.0266V44.4303H172.019V50.5625H170.877L170.854 48.9603L171.027 49.0295C170.92 49.5674 170.693 49.9823 170.347 50.2743C170.001 50.5587 169.556 50.7008 169.01 50.7008ZM175.997 50.7008C175.421 50.7008 174.933 50.6124 174.533 50.4357C174.141 50.259 173.838 50.0169 173.623 49.7095C173.408 49.3945 173.285 49.0333 173.254 48.626L174.51 48.5684C174.572 48.9065 174.718 49.1755 174.948 49.3753C175.179 49.5751 175.528 49.6749 175.997 49.6749C176.381 49.6749 176.685 49.6135 176.908 49.4905C177.131 49.3676 177.242 49.1716 177.242 48.9027C177.242 48.7567 177.204 48.6337 177.127 48.5338C177.058 48.4262 176.919 48.3379 176.712 48.2687C176.504 48.1919 176.197 48.1189 175.79 48.0497C175.183 47.9344 174.706 47.8 174.36 47.6463C174.015 47.4926 173.769 47.2966 173.623 47.0584C173.477 46.8202 173.404 46.532 173.404 46.1939C173.404 45.6329 173.611 45.1757 174.026 44.8222C174.449 44.4688 175.056 44.292 175.847 44.292C176.378 44.292 176.823 44.3842 177.184 44.5687C177.546 44.7454 177.826 44.9875 178.026 45.2948C178.233 45.5945 178.364 45.9326 178.418 46.3092L177.161 46.3783C177.123 46.1632 177.046 45.9787 176.931 45.8251C176.823 45.6637 176.677 45.5407 176.493 45.4562C176.308 45.364 176.089 45.3179 175.836 45.3179C175.444 45.3179 175.152 45.3947 174.96 45.5484C174.768 45.7021 174.672 45.9019 174.672 46.1478C174.672 46.3322 174.714 46.4821 174.798 46.5973C174.891 46.7126 175.037 46.8087 175.236 46.8855C175.436 46.9547 175.701 47.0161 176.032 47.0699C176.67 47.1775 177.169 47.312 177.53 47.4734C177.891 47.6271 178.145 47.8192 178.291 48.0497C178.437 48.2802 178.51 48.5607 178.51 48.8911C178.51 49.2754 178.402 49.6019 178.187 49.8709C177.972 50.1399 177.676 50.3473 177.3 50.4933C176.923 50.6317 176.489 50.7008 175.997 50.7008Z" fill="#0D0D0D"/>
<rect x="186.139" y="42.3279" width="0.411665" height="9.4683" rx="0.205833" stroke="#EEEEEE" stroke-width="0.411665"/>
<path d="M197.282 50.7469C196.629 50.7469 196.06 50.6278 195.576 50.3896C195.1 50.1514 194.723 49.821 194.446 49.3983C194.17 48.9757 194.008 48.4839 193.962 47.9229L195.242 47.8422C195.296 48.2264 195.407 48.553 195.576 48.822C195.745 49.0832 195.972 49.283 196.256 49.4214C196.548 49.552 196.898 49.6173 197.305 49.6173C197.658 49.6173 197.958 49.5751 198.204 49.4905C198.458 49.3983 198.65 49.2638 198.78 49.0871C198.911 48.9103 198.976 48.6952 198.976 48.4416C198.976 48.2111 198.919 48.0074 198.803 47.8307C198.696 47.6463 198.485 47.481 198.17 47.335C197.862 47.1814 197.409 47.0315 196.809 46.8855C196.156 46.7241 195.634 46.5474 195.242 46.3553C194.85 46.1632 194.566 45.925 194.389 45.6406C194.22 45.3486 194.135 44.9913 194.135 44.5687C194.135 44.0999 194.247 43.6888 194.469 43.3353C194.7 42.9741 195.027 42.6937 195.449 42.4939C195.872 42.2941 196.379 42.1942 196.971 42.1942C197.593 42.1942 198.123 42.3094 198.561 42.54C199.007 42.7705 199.357 43.0856 199.61 43.4852C199.872 43.8847 200.033 44.342 200.094 44.8568L198.815 44.926C198.777 44.6109 198.681 44.3343 198.527 44.0961C198.373 43.8502 198.166 43.6619 197.904 43.5313C197.643 43.3929 197.324 43.3238 196.948 43.3238C196.471 43.3238 196.095 43.4352 195.818 43.658C195.549 43.8732 195.415 44.1614 195.415 44.5225C195.415 44.7531 195.468 44.949 195.576 45.1104C195.691 45.2641 195.891 45.3986 196.175 45.5138C196.467 45.6291 196.879 45.7521 197.409 45.8827C198.116 46.0441 198.677 46.2439 199.092 46.4821C199.514 46.7126 199.814 46.9854 199.991 47.3005C200.167 47.6155 200.256 47.9729 200.256 48.3724C200.256 48.8566 200.129 49.2792 199.875 49.6404C199.63 49.9939 199.284 50.2666 198.838 50.4588C198.392 50.6509 197.874 50.7469 197.282 50.7469ZM201.746 52.2915V44.4303H202.899L202.933 45.7444L202.795 45.6752C202.949 45.2218 203.202 44.8799 203.556 44.6493C203.909 44.4111 204.317 44.292 204.778 44.292C205.377 44.292 205.869 44.4419 206.253 44.7416C206.645 45.0336 206.933 45.4216 207.118 45.9057C207.31 46.3899 207.406 46.9201 207.406 47.4964C207.406 48.0727 207.31 48.603 207.118 49.0871C206.933 49.5712 206.645 49.9631 206.253 50.2628C205.869 50.5548 205.377 50.7008 204.778 50.7008C204.47 50.7008 204.182 50.647 203.913 50.5394C203.644 50.4319 203.414 50.282 203.222 50.0899C203.037 49.8901 202.907 49.6557 202.83 49.3868L202.968 49.2485V52.2915H201.746ZM204.559 49.6404C205.05 49.6404 205.435 49.4521 205.711 49.0756C205.996 48.699 206.138 48.1726 206.138 47.4964C206.138 46.8202 205.996 46.2938 205.711 45.9173C205.435 45.5407 205.05 45.3525 204.559 45.3525C204.236 45.3525 203.955 45.4332 203.717 45.5945C203.479 45.7482 203.295 45.9864 203.164 46.3092C203.033 46.6319 202.968 47.0277 202.968 47.4964C202.968 47.9652 203.029 48.3609 203.152 48.6837C203.283 49.0064 203.467 49.2485 203.706 49.4098C203.952 49.5635 204.236 49.6404 204.559 49.6404ZM210.488 50.7008C209.85 50.7008 209.339 50.5548 208.955 50.2628C208.578 49.9708 208.39 49.5597 208.39 49.0295C208.39 48.4992 208.547 48.0881 208.862 47.7961C209.185 47.4964 209.681 47.2813 210.349 47.1506L212.459 46.7472C212.459 46.2708 212.347 45.9173 212.124 45.6867C211.902 45.4485 211.571 45.3294 211.133 45.3294C210.741 45.3294 210.434 45.4178 210.211 45.5945C209.988 45.7636 209.835 46.0172 209.75 46.3553L208.494 46.2746C208.609 45.6598 208.893 45.1757 209.347 44.8222C209.808 44.4688 210.403 44.292 211.133 44.292C211.963 44.292 212.593 44.5149 213.024 44.9606C213.462 45.3986 213.681 46.0172 213.681 46.8163V49.2024C213.681 49.3484 213.704 49.4521 213.75 49.5136C213.804 49.5674 213.888 49.5943 214.003 49.5943H214.222V50.5625C214.184 50.5702 214.122 50.5779 214.038 50.5856C213.953 50.5932 213.865 50.5971 213.773 50.5971C213.512 50.5971 213.285 50.5548 213.093 50.4703C212.908 50.3858 212.77 50.2474 212.678 50.0553C212.586 49.8555 212.539 49.5904 212.539 49.26L212.666 49.3176C212.605 49.5866 212.47 49.8248 212.263 50.0323C212.063 50.2398 211.806 50.405 211.491 50.5279C211.183 50.6432 210.849 50.7008 210.488 50.7008ZM210.684 49.7326C211.052 49.7326 211.368 49.6634 211.629 49.5251C211.89 49.3791 212.094 49.1793 212.24 48.9257C212.386 48.6721 212.459 48.384 212.459 48.0612V47.6693L210.661 48.0151C210.292 48.0843 210.03 48.1957 209.877 48.3494C209.731 48.4954 209.658 48.6837 209.658 48.9142C209.658 49.1755 209.746 49.3791 209.923 49.5251C210.107 49.6634 210.361 49.7326 210.684 49.7326ZM217.733 50.7008C217.149 50.7008 216.638 50.5702 216.2 50.3089C215.762 50.0476 215.424 49.6749 215.186 49.1908C214.948 48.7067 214.829 48.1419 214.829 47.4964C214.829 46.8509 214.948 46.29 215.186 45.8135C215.424 45.3294 215.762 44.9567 216.2 44.6954C216.638 44.4265 217.149 44.292 217.733 44.292C218.233 44.292 218.675 44.3804 219.059 44.5571C219.451 44.7262 219.766 44.9759 220.004 45.3064C220.25 45.6368 220.407 46.0402 220.477 46.5167L219.197 46.5858C219.136 46.1862 218.974 45.8827 218.713 45.6752C218.452 45.46 218.125 45.3525 217.733 45.3525C217.218 45.3525 216.815 45.5446 216.523 45.9288C216.239 46.3053 216.096 46.8279 216.096 47.4964C216.096 48.165 216.239 48.6913 216.523 49.0756C216.815 49.4521 217.218 49.6404 217.733 49.6404C218.125 49.6404 218.452 49.5328 218.713 49.3176C218.974 49.0948 219.136 48.7605 219.197 48.3148L220.477 48.384C220.407 48.8527 220.25 49.26 220.004 49.6058C219.766 49.9516 219.451 50.2205 219.059 50.4127C218.675 50.6048 218.233 50.7008 217.733 50.7008ZM224.116 50.7008C223.516 50.7008 222.998 50.5702 222.56 50.3089C222.129 50.0476 221.795 49.6749 221.557 49.1908C221.326 48.7067 221.211 48.1419 221.211 47.4964C221.211 46.8509 221.326 46.29 221.557 45.8135C221.795 45.3294 222.129 44.9567 222.56 44.6954C222.99 44.4265 223.497 44.292 224.081 44.292C224.634 44.292 225.122 44.4226 225.545 44.6839C225.968 44.9375 226.294 45.3064 226.525 45.7905C226.763 46.2746 226.882 46.8586 226.882 47.5425V47.8537H222.479C222.51 48.4531 222.667 48.9027 222.951 49.2024C223.243 49.5021 223.635 49.6519 224.127 49.6519C224.488 49.6519 224.788 49.5674 225.026 49.3983C225.264 49.2293 225.43 49.0026 225.522 48.7182L226.79 48.7989C226.628 49.3676 226.31 49.8286 225.833 50.1821C225.364 50.5279 224.792 50.7008 224.116 50.7008ZM222.479 46.9316H225.591C225.553 46.386 225.395 45.9826 225.118 45.7213C224.85 45.46 224.504 45.3294 224.081 45.3294C223.643 45.3294 223.282 45.4677 222.998 45.7444C222.721 46.0133 222.548 46.4091 222.479 46.9316ZM232.822 50.5625V43.5197H230.309V42.3786H236.58V43.5197H234.067V50.5625H232.822ZM239.188 50.7008C238.589 50.7008 238.07 50.5702 237.632 50.3089C237.202 50.0476 236.867 49.6749 236.629 49.1908C236.399 48.7067 236.283 48.1419 236.283 47.4964C236.283 46.8509 236.399 46.29 236.629 45.8135C236.867 45.3294 237.202 44.9567 237.632 44.6954C238.062 44.4265 238.569 44.292 239.154 44.292C239.707 44.292 240.195 44.4226 240.617 44.6839C241.04 44.9375 241.367 45.3064 241.597 45.7905C241.835 46.2746 241.954 46.8586 241.954 47.5425V47.8537H237.551C237.582 48.4531 237.74 48.9027 238.024 49.2024C238.316 49.5021 238.708 49.6519 239.2 49.6519C239.561 49.6519 239.86 49.5674 240.099 49.3983C240.337 49.2293 240.502 49.0026 240.594 48.7182L241.862 48.7989C241.701 49.3676 241.382 49.8286 240.906 50.1821C240.437 50.5279 239.864 50.7008 239.188 50.7008ZM237.551 46.9316H240.663C240.625 46.386 240.468 45.9826 240.191 45.7213C239.922 45.46 239.576 45.3294 239.154 45.3294C238.715 45.3294 238.354 45.4677 238.07 45.7444C237.793 46.0133 237.62 46.4091 237.551 46.9316ZM244.586 50.5625C244.186 50.5625 243.864 50.4588 243.618 50.2513C243.372 50.0438 243.249 49.7134 243.249 49.26V42.3786H244.471V49.1447C244.471 49.283 244.505 49.3868 244.574 49.4559C244.651 49.5251 244.759 49.5597 244.897 49.5597H245.381V50.5625H244.586ZM248.947 50.7008C248.348 50.7008 247.829 50.5702 247.391 50.3089C246.961 50.0476 246.627 49.6749 246.389 49.1908C246.158 48.7067 246.043 48.1419 246.043 47.4964C246.043 46.8509 246.158 46.29 246.389 45.8135C246.627 45.3294 246.961 44.9567 247.391 44.6954C247.822 44.4265 248.329 44.292 248.913 44.292C249.466 44.292 249.954 44.4226 250.377 44.6839C250.799 44.9375 251.126 45.3064 251.357 45.7905C251.595 46.2746 251.714 46.8586 251.714 47.5425V47.8537H247.311C247.341 48.4531 247.499 48.9027 247.783 49.2024C248.075 49.5021 248.467 49.6519 248.959 49.6519C249.32 49.6519 249.62 49.5674 249.858 49.3983C250.096 49.2293 250.261 49.0026 250.354 48.7182L251.622 48.7989C251.46 49.3676 251.141 49.8286 250.665 50.1821C250.196 50.5279 249.624 50.7008 248.947 50.7008ZM247.311 46.9316H250.423C250.384 46.386 250.227 45.9826 249.95 45.7213C249.681 45.46 249.336 45.3294 248.913 45.3294C248.475 45.3294 248.114 45.4677 247.829 45.7444C247.553 46.0133 247.38 46.4091 247.311 46.9316ZM255.476 50.7008C254.892 50.7008 254.381 50.5702 253.943 50.3089C253.505 50.0476 253.167 49.6749 252.929 49.1908C252.691 48.7067 252.571 48.1419 252.571 47.4964C252.571 46.8509 252.691 46.29 252.929 45.8135C253.167 45.3294 253.505 44.9567 253.943 44.6954C254.381 44.4265 254.892 44.292 255.476 44.292C255.976 44.292 256.418 44.3804 256.802 44.5571C257.194 44.7262 257.509 44.9759 257.747 45.3064C257.993 45.6368 258.15 46.0402 258.22 46.5167L256.94 46.5858C256.879 46.1862 256.717 45.8827 256.456 45.6752C256.195 45.46 255.868 45.3525 255.476 45.3525C254.961 45.3525 254.558 45.5446 254.266 45.9288C253.982 46.3053 253.839 46.8279 253.839 47.4964C253.839 48.165 253.982 48.6913 254.266 49.0756C254.558 49.4521 254.961 49.6404 255.476 49.6404C255.868 49.6404 256.195 49.5328 256.456 49.3176C256.717 49.0948 256.879 48.7605 256.94 48.3148L258.22 48.384C258.15 48.8527 257.993 49.26 257.747 49.6058C257.509 49.9516 257.194 50.2205 256.802 50.4127C256.418 50.6048 255.976 50.7008 255.476 50.7008ZM261.859 50.7008C261.275 50.7008 260.764 50.5702 260.326 50.3089C259.888 50.0476 259.549 49.6749 259.311 49.1908C259.073 48.7067 258.954 48.1419 258.954 47.4964C258.954 46.8432 259.073 46.2784 259.311 45.802C259.549 45.3256 259.888 44.9567 260.326 44.6954C260.764 44.4265 261.275 44.292 261.859 44.292C262.443 44.292 262.954 44.4265 263.392 44.6954C263.83 44.9567 264.168 45.3256 264.406 45.802C264.644 46.2784 264.763 46.8432 264.763 47.4964C264.763 48.1419 264.644 48.7067 264.406 49.1908C264.168 49.6749 263.83 50.0476 263.392 50.3089C262.954 50.5702 262.443 50.7008 261.859 50.7008ZM261.859 49.6404C262.381 49.6404 262.785 49.4521 263.069 49.0756C263.353 48.6913 263.495 48.165 263.495 47.4964C263.495 46.8279 263.353 46.3053 263.069 45.9288C262.785 45.5446 262.381 45.3525 261.859 45.3525C261.344 45.3525 260.94 45.5446 260.648 45.9288C260.364 46.3053 260.222 46.8279 260.222 47.4964C260.222 48.165 260.364 48.6913 260.648 49.0756C260.94 49.4521 261.344 49.6404 261.859 49.6404ZM265.998 50.5625V44.4303H267.116L267.151 45.9518L267.012 45.9057C267.082 45.5676 267.201 45.2795 267.37 45.0412C267.547 44.803 267.762 44.6186 268.015 44.488C268.269 44.3573 268.546 44.292 268.845 44.292C269.368 44.292 269.794 44.4419 270.125 44.7416C270.455 45.0336 270.663 45.437 270.747 45.9518H270.551C270.62 45.5907 270.736 45.291 270.897 45.0528C271.066 44.8069 271.281 44.6186 271.542 44.488C271.804 44.3573 272.1 44.292 272.43 44.292C272.86 44.292 273.225 44.3842 273.525 44.5687C273.832 44.7454 274.063 45.0067 274.217 45.3525C274.378 45.6983 274.459 46.1209 274.459 46.6204V50.5625H273.237V46.9201C273.237 46.3899 273.141 45.9903 272.949 45.7213C272.757 45.4524 272.465 45.3179 272.073 45.3179C271.819 45.3179 271.596 45.3832 271.404 45.5138C271.212 45.6445 271.062 45.8327 270.955 46.0786C270.855 46.3245 270.805 46.6204 270.805 46.9662V50.5625H269.641V46.9662C269.641 46.4437 269.552 46.0402 269.375 45.7559C269.206 45.4639 268.914 45.3179 268.499 45.3179C268.238 45.3179 268.011 45.3832 267.819 45.5138C267.635 45.6445 267.489 45.8366 267.381 46.0902C267.274 46.3361 267.22 46.6281 267.22 46.9662V50.5625H265.998Z" fill="#616161"/>
<rect x="781.887" y="33.8828" width="128.46" height="26.3466" rx="6.58664" fill="#FAFAFA"/>
<g filter="url(#filter0_di_885_6320)">
<rect x="784.355" y="36.3525" width="49.7599" height="21.4066" rx="4.11665" fill="white" shape-rendering="crispEdges"/>
<path d="M795.226 51.0557V42.8718H798.165C799.149 42.8718 799.89 43.0485 800.39 43.402C800.889 43.7555 801.139 44.3164 801.139 45.0849C801.139 45.4307 801.066 45.7342 800.92 45.9955C800.774 46.2567 800.559 46.4642 800.274 46.6179C799.998 46.7639 799.667 46.8408 799.283 46.8484L799.272 46.8023C799.971 46.8177 800.513 47.0098 800.897 47.3787C801.289 47.7398 801.485 48.2163 801.485 48.808C801.485 49.5534 801.235 50.1143 800.735 50.4909C800.236 50.8674 799.525 51.0557 798.603 51.0557H795.226ZM796.471 49.9376H798.568C799.083 49.9376 799.483 49.8338 799.767 49.6264C800.059 49.4112 800.205 49.1 800.205 48.6927C800.205 48.2931 800.059 47.9819 799.767 47.759C799.483 47.5362 799.083 47.4248 798.568 47.4248H796.471V49.9376ZM796.471 46.3643H798.142C798.687 46.3643 799.11 46.2606 799.41 46.0531C799.71 45.8456 799.859 45.5536 799.859 45.1771C799.859 44.7775 799.713 44.4816 799.421 44.2895C799.137 44.0897 798.711 43.9898 798.142 43.9898H796.471V46.3643ZM804.662 51.194C804.024 51.194 803.513 51.048 803.129 50.756C802.753 50.464 802.564 50.0528 802.564 49.5226C802.564 48.9924 802.722 48.5813 803.037 48.2893C803.36 47.9896 803.855 47.7744 804.524 47.6438L806.633 47.2404C806.633 46.7639 806.522 46.4104 806.299 46.1799C806.076 45.9417 805.746 45.8226 805.308 45.8226C804.916 45.8226 804.608 45.9109 804.385 46.0877C804.163 46.2567 804.009 46.5103 803.924 46.8484L802.668 46.7678C802.783 46.153 803.068 45.6689 803.521 45.3154C803.982 44.9619 804.578 44.7852 805.308 44.7852C806.138 44.7852 806.768 45.008 807.198 45.4537C807.636 45.8917 807.855 46.5103 807.855 47.3095V49.6955C807.855 49.8415 807.878 49.9453 807.924 50.0067C807.978 50.0605 808.062 50.0874 808.178 50.0874H808.397V51.0557C808.358 51.0633 808.297 51.071 808.212 51.0787C808.128 51.0864 808.039 51.0902 807.947 51.0902C807.686 51.0902 807.459 51.048 807.267 50.9635C807.083 50.8789 806.944 50.7406 806.852 50.5485C806.76 50.3487 806.714 50.0836 806.714 49.7532L806.841 49.8108C806.779 50.0797 806.645 50.318 806.437 50.5254C806.237 50.7329 805.98 50.8981 805.665 51.0211C805.358 51.1364 805.023 51.194 804.662 51.194ZM804.858 50.2257C805.227 50.2257 805.542 50.1566 805.803 50.0183C806.065 49.8723 806.268 49.6725 806.414 49.4189C806.56 49.1653 806.633 48.8771 806.633 48.5544V48.1625L804.835 48.5083C804.466 48.5774 804.205 48.6889 804.051 48.8426C803.905 48.9886 803.832 49.1768 803.832 49.4074C803.832 49.6686 803.921 49.8723 804.097 50.0183C804.282 50.1566 804.535 50.2257 804.858 50.2257ZM811.746 51.194C811.17 51.194 810.682 51.1056 810.282 50.9289C809.891 50.7521 809.587 50.5101 809.372 50.2027C809.157 49.8876 809.034 49.5265 809.003 49.1192L810.259 49.0616C810.321 49.3997 810.467 49.6686 810.697 49.8684C810.928 50.0682 811.278 50.1681 811.746 50.1681C812.131 50.1681 812.434 50.1066 812.657 49.9837C812.88 49.8607 812.991 49.6648 812.991 49.3958C812.991 49.2498 812.953 49.1269 812.876 49.027C812.807 48.9194 812.668 48.831 812.461 48.7619C812.253 48.685 811.946 48.612 811.539 48.5429C810.932 48.4276 810.455 48.2931 810.11 48.1394C809.764 47.9857 809.518 47.7898 809.372 47.5516C809.226 47.3134 809.153 47.0252 809.153 46.6871C809.153 46.1261 809.36 45.6689 809.775 45.3154C810.198 44.9619 810.805 44.7852 811.596 44.7852C812.127 44.7852 812.572 44.8774 812.934 45.0618C813.295 45.2386 813.575 45.4806 813.775 45.788C813.982 46.0877 814.113 46.4258 814.167 46.8023L812.91 46.8715C812.872 46.6563 812.795 46.4719 812.68 46.3182C812.572 46.1568 812.426 46.0339 812.242 45.9494C812.058 45.8572 811.839 45.811 811.585 45.811C811.193 45.811 810.901 45.8879 810.709 46.0416C810.517 46.1953 810.421 46.3951 810.421 46.641C810.421 46.8254 810.463 46.9752 810.548 47.0905C810.64 47.2058 810.786 47.3018 810.986 47.3787C811.185 47.4478 811.45 47.5093 811.781 47.5631C812.419 47.6707 812.918 47.8052 813.279 47.9665C813.641 48.1202 813.894 48.3123 814.04 48.5429C814.186 48.7734 814.259 49.0539 814.259 49.3843C814.259 49.7685 814.152 50.0951 813.936 50.3641C813.721 50.633 813.425 50.8405 813.049 50.9865C812.672 51.1248 812.238 51.194 811.746 51.194ZM815.496 51.0557V44.9235H816.717V51.0557H815.496ZM815.473 44.0359V42.8141H816.74V44.0359H815.473ZM820.857 51.194C820.273 51.194 819.762 51.0633 819.324 50.8021C818.886 50.5408 818.547 50.1681 818.309 49.684C818.071 49.1999 817.952 48.6351 817.952 47.9896C817.952 47.3441 818.071 46.7831 818.309 46.3067C818.547 45.8226 818.886 45.4499 819.324 45.1886C819.762 44.9197 820.273 44.7852 820.857 44.7852C821.356 44.7852 821.798 44.8735 822.182 45.0503C822.574 45.2193 822.889 45.4691 823.127 45.7995C823.373 46.13 823.531 46.5334 823.6 47.0098L822.32 47.079C822.259 46.6794 822.098 46.3759 821.836 46.1684C821.575 45.9532 821.248 45.8456 820.857 45.8456C820.342 45.8456 819.938 46.0377 819.646 46.422C819.362 46.7985 819.22 47.321 819.22 47.9896C819.22 48.6581 819.362 49.1845 819.646 49.5687C819.938 49.9453 820.342 50.1335 820.857 50.1335C821.248 50.1335 821.575 50.026 821.836 49.8108C822.098 49.5879 822.259 49.2537 822.32 48.808L823.6 48.8771C823.531 49.3459 823.373 49.7532 823.127 50.099C822.889 50.4448 822.574 50.7137 822.182 50.9058C821.798 51.0979 821.356 51.194 820.857 51.194Z" fill="#0D0D0D"/>
</g>
<path d="M844.227 51.0557L847.177 42.8718H848.757L851.707 51.0557H850.382L849.633 48.9232H846.29L845.552 51.0557H844.227ZM846.682 47.7936H849.252L847.961 44.059L846.682 47.7936ZM854.761 51.194C854.239 51.194 853.781 51.0633 853.389 50.8021C853.005 50.5408 852.709 50.172 852.502 49.6955C852.302 49.2114 852.202 48.6428 852.202 47.9896C852.202 47.3364 852.306 46.7716 852.513 46.2952C852.721 45.811 853.017 45.4384 853.401 45.1771C853.785 44.9158 854.239 44.7852 854.761 44.7852C855.184 44.7852 855.56 44.8735 855.891 45.0503C856.221 45.227 856.471 45.4729 856.64 45.788V42.8718H857.862V51.0557H856.721L856.686 50.1335C856.517 50.464 856.26 50.7252 855.914 50.9173C855.576 51.1018 855.191 51.194 854.761 51.194ZM855.084 50.1335C855.414 50.1335 855.695 50.049 855.925 49.8799C856.156 49.7109 856.333 49.465 856.455 49.1422C856.578 48.8195 856.64 48.4353 856.64 47.9896C856.64 47.5285 856.578 47.1405 856.455 46.8254C856.333 46.5026 856.156 46.2606 855.925 46.0992C855.695 45.9302 855.414 45.8456 855.084 45.8456C854.592 45.8456 854.2 46.0377 853.908 46.422C853.616 46.7985 853.47 47.321 853.47 47.9896C853.47 48.6504 853.616 49.173 853.908 49.5572C854.2 49.9414 854.592 50.1335 855.084 50.1335ZM861.108 51.0557L858.872 44.9235H860.174L861.846 49.8108L863.517 44.9235H864.831L862.583 51.0557H861.108ZM867.369 51.194C866.731 51.194 866.22 51.048 865.836 50.756C865.459 50.464 865.271 50.0528 865.271 49.5226C865.271 48.9924 865.428 48.5813 865.744 48.2893C866.066 47.9896 866.562 47.7744 867.23 47.6438L869.34 47.2404C869.34 46.7639 869.228 46.4104 869.006 46.1799C868.783 45.9417 868.452 45.8226 868.014 45.8226C867.622 45.8226 867.315 45.9109 867.092 46.0877C866.869 46.2567 866.716 46.5103 866.631 46.8484L865.375 46.7678C865.49 46.153 865.774 45.6689 866.228 45.3154C866.689 44.9619 867.284 44.7852 868.014 44.7852C868.844 44.7852 869.474 45.008 869.905 45.4537C870.343 45.8917 870.562 46.5103 870.562 47.3095V49.6955C870.562 49.8415 870.585 49.9453 870.631 50.0067C870.685 50.0605 870.769 50.0874 870.884 50.0874H871.103V51.0557C871.065 51.0633 871.003 51.071 870.919 51.0787C870.834 51.0864 870.746 51.0902 870.654 51.0902C870.393 51.0902 870.166 51.048 869.974 50.9635C869.789 50.8789 869.651 50.7406 869.559 50.5485C869.467 50.3487 869.421 50.0836 869.421 49.7532L869.547 49.8108C869.486 50.0797 869.351 50.318 869.144 50.5254C868.944 50.7329 868.687 50.8981 868.372 51.0211C868.064 51.1364 867.73 51.194 867.369 51.194ZM867.565 50.2257C867.934 50.2257 868.249 50.1566 868.51 50.0183C868.771 49.8723 868.975 49.6725 869.121 49.4189C869.267 49.1653 869.34 48.8771 869.34 48.5544V48.1625L867.542 48.5083C867.173 48.5774 866.912 48.6889 866.758 48.8426C866.612 48.9886 866.539 49.1768 866.539 49.4074C866.539 49.6686 866.627 49.8723 866.804 50.0183C866.988 50.1566 867.242 50.2257 867.565 50.2257ZM872.135 51.0557V44.9235H873.253L873.299 46.5603L873.149 46.4796C873.219 46.08 873.349 45.7573 873.541 45.5114C873.733 45.2655 873.968 45.0849 874.244 44.9696C874.521 44.8467 874.821 44.7852 875.143 44.7852C875.605 44.7852 875.985 44.8889 876.285 45.0964C876.592 45.2962 876.823 45.5728 876.976 45.9263C877.138 46.2721 877.218 46.6679 877.218 47.1136V51.0557H875.996V47.4824C875.996 47.1212 875.958 46.8177 875.881 46.5718C875.804 46.3259 875.678 46.1376 875.501 46.007C875.324 45.8764 875.094 45.811 874.809 45.811C874.379 45.811 874.029 45.9532 873.76 46.2375C873.491 46.5219 873.357 46.9368 873.357 47.4824V51.0557H872.135ZM881.334 51.194C880.75 51.194 880.239 51.0633 879.801 50.8021C879.363 50.5408 879.025 50.1681 878.787 49.684C878.549 49.1999 878.43 48.6351 878.43 47.9896C878.43 47.3441 878.549 46.7831 878.787 46.3067C879.025 45.8226 879.363 45.4499 879.801 45.1886C880.239 44.9197 880.75 44.7852 881.334 44.7852C881.834 44.7852 882.276 44.8735 882.66 45.0503C883.052 45.2193 883.367 45.4691 883.605 45.7995C883.851 46.13 884.009 46.5334 884.078 47.0098L882.798 47.079C882.737 46.6794 882.575 46.3759 882.314 46.1684C882.053 45.9532 881.726 45.8456 881.334 45.8456C880.82 45.8456 880.416 46.0377 880.124 46.422C879.84 46.7985 879.698 47.321 879.698 47.9896C879.698 48.6581 879.84 49.1845 880.124 49.5687C880.416 49.9453 880.82 50.1335 881.334 50.1335C881.726 50.1335 882.053 50.026 882.314 49.8108C882.575 49.5879 882.737 49.2537 882.798 48.808L884.078 48.8771C884.009 49.3459 883.851 49.7532 883.605 50.099C883.367 50.4448 883.052 50.7137 882.66 50.9058C882.276 51.0979 881.834 51.194 881.334 51.194ZM887.717 51.194C887.117 51.194 886.599 51.0633 886.161 50.8021C885.73 50.5408 885.396 50.1681 885.158 49.684C884.927 49.1999 884.812 48.6351 884.812 47.9896C884.812 47.3441 884.927 46.7831 885.158 46.3067C885.396 45.8226 885.73 45.4499 886.161 45.1886C886.591 44.9197 887.098 44.7852 887.682 44.7852C888.236 44.7852 888.724 44.9158 889.146 45.1771C889.569 45.4307 889.895 45.7995 890.126 46.2836C890.364 46.7678 890.483 47.3518 890.483 48.0357V48.3469H886.08C886.111 48.9463 886.268 49.3958 886.553 49.6955C886.845 49.9952 887.237 50.1451 887.728 50.1451C888.09 50.1451 888.389 50.0605 888.627 49.8915C888.866 49.7224 889.031 49.4957 889.123 49.2114L890.391 49.2921C890.23 49.8607 889.911 50.3218 889.434 50.6753C888.966 51.0211 888.393 51.194 887.717 51.194ZM886.08 47.4248H889.192C889.154 46.8792 888.996 46.4758 888.72 46.2145C888.451 45.9532 888.105 45.8226 887.682 45.8226C887.244 45.8226 886.883 45.9609 886.599 46.2375C886.322 46.5065 886.149 46.9022 886.08 47.4248ZM893.9 51.194C893.377 51.194 892.92 51.0633 892.528 50.8021C892.144 50.5408 891.848 50.172 891.641 49.6955C891.441 49.2114 891.341 48.6428 891.341 47.9896C891.341 47.3364 891.445 46.7716 891.652 46.2952C891.86 45.811 892.155 45.4384 892.54 45.1771C892.924 44.9158 893.377 44.7852 893.9 44.7852C894.322 44.7852 894.699 44.8735 895.029 45.0503C895.36 45.227 895.61 45.4729 895.779 45.788V42.8718H897V51.0557H895.859L895.825 50.1335C895.656 50.464 895.398 50.7252 895.052 50.9173C894.714 51.1018 894.33 51.194 893.9 51.194ZM894.223 50.1335C894.553 50.1335 894.833 50.049 895.064 49.8799C895.295 49.7109 895.471 49.465 895.594 49.1422C895.717 48.8195 895.779 48.4353 895.779 47.9896C895.779 47.5285 895.717 47.1405 895.594 46.8254C895.471 46.5026 895.295 46.2606 895.064 46.0992C894.833 45.9302 894.553 45.8456 894.223 45.8456C893.731 45.8456 893.339 46.0377 893.047 46.422C892.755 46.7985 892.609 47.321 892.609 47.9896C892.609 48.6504 892.755 49.173 893.047 49.5572C893.339 49.9414 893.731 50.1335 894.223 50.1335Z" fill="#9E9E9E"/>
<defs>
<filter id="filter0_di_885_6320" x="783.532" y="35.5292" width="51.4084" height="23.0529" filterUnits="userSpaceOnUse" color-interpolation-filters="sRGB">
<feFlood flood-opacity="0" result="BackgroundImageFix"/>
<feColorMatrix in="SourceAlpha" type="matrix" values="0 0 0 0 0 0 0 0 0 0 0 0 0 0 0 0 0 0 127 0" result="hardAlpha"/>
<feOffset/>
<feGaussianBlur stdDeviation="0.411665"/>
<feComposite in2="hardAlpha" operator="out"/>
<feColorMatrix type="matrix" values="0 0 0 0 0 0 0 0 0 0 0 0 0 0 0 0 0 0 0.2 0"/>
<feBlend mode="normal" in2="BackgroundImageFix" result="effect1_dropShadow_885_6320"/>
<feBlend mode="normal" in="SourceGraphic" in2="effect1_dropShadow_885_6320" result="shape"/>
<feColorMatrix in="SourceAlpha" type="matrix" values="0 0 0 0 0 0 0 0 0 0 0 0 0 0 0 0 0 0 127 0" result="hardAlpha"/>
<feOffset dy="0.82333"/>
<feGaussianBlur stdDeviation="0.411665"/>
<feComposite in2="hardAlpha" operator="arithmetic" k2="-1" k3="1"/>
<feColorMatrix type="matrix" values="0 0 0 0 1 0 0 0 0 1 0 0 0 0 1 0 0 0 0.12 0"/>
<feBlend mode="normal" in2="shape" result="effect2_innerShadow_885_6320"/>
</filter>
</defs>
</svg>
