<svg width="552" height="428" viewBox="0 0 552 428" fill="none" xmlns="http://www.w3.org/2000/svg">
<rect width="552" height="428" rx="12" fill="#F5F5F5"/>
<g filter="url(#filter0_d_885_6393)">
<g clip-path="url(#clip0_885_6393)">
<rect x="73" y="57" width="405.641" height="313.026" rx="8.61538" fill="#FAFAFA"/>
<path d="M86.9652 74.0234V67.4434H84.6175V66.3773H90.476V67.4434H88.1283V74.0234H86.9652ZM90.9014 74.0234V68.2942H91.9461L91.9891 69.8127L91.8922 69.7804C91.9712 69.2634 92.1291 68.8865 92.3661 68.6496C92.6102 68.4127 92.9368 68.2942 93.3461 68.2942H93.8953V69.3173H93.3461C93.0589 69.3173 92.8184 69.364 92.6245 69.4573C92.4307 69.5506 92.2835 69.6942 92.183 69.8881C92.0896 70.0819 92.043 70.3332 92.043 70.6419V74.0234H90.9014ZM96.3342 74.1527C95.7383 74.1527 95.2608 74.0163 94.9019 73.7434C94.5501 73.4706 94.3742 73.0865 94.3742 72.5911C94.3742 72.0957 94.5214 71.7116 94.8157 71.4388C95.1173 71.1588 95.5803 70.9578 96.205 70.8357L98.1757 70.4588C98.1757 70.0137 98.0716 69.6834 97.8634 69.4681C97.6552 69.2455 97.3465 69.1342 96.9373 69.1342C96.5711 69.1342 96.2839 69.2168 96.0757 69.3819C95.8675 69.5398 95.7239 69.7768 95.645 70.0927L94.4711 70.0173C94.5788 69.4429 94.8444 68.9906 95.268 68.6604C95.6988 68.3301 96.2552 68.165 96.9373 68.165C97.7126 68.165 98.3014 68.3732 98.7034 68.7896C99.1126 69.1988 99.3173 69.7768 99.3173 70.5234V72.7527C99.3173 72.8891 99.3388 72.986 99.3819 73.0434C99.4321 73.0937 99.5111 73.1188 99.6188 73.1188H99.8234V74.0234C99.7875 74.0306 99.7301 74.0378 99.6511 74.045C99.5721 74.0522 99.4896 74.0557 99.4034 74.0557C99.1593 74.0557 98.9475 74.0163 98.768 73.9373C98.5957 73.8583 98.4665 73.7291 98.3803 73.5496C98.2942 73.3629 98.2511 73.1152 98.2511 72.8065L98.3696 72.8604C98.3121 73.1116 98.1865 73.3342 97.9926 73.5281C97.806 73.7219 97.5655 73.8763 97.2711 73.9911C96.9839 74.0988 96.6716 74.1527 96.3342 74.1527ZM96.5173 73.2481C96.8619 73.2481 97.1562 73.1834 97.4003 73.0542C97.6444 72.9178 97.8347 72.7311 97.9711 72.4942C98.1075 72.2573 98.1757 71.9881 98.1757 71.6865V71.3204L96.4957 71.6434C96.1511 71.7081 95.907 71.8122 95.7634 71.9557C95.627 72.0922 95.5588 72.2681 95.5588 72.4834C95.5588 72.7275 95.6414 72.9178 95.8065 73.0542C95.9788 73.1834 96.2157 73.2481 96.5173 73.2481ZM101.074 74.0234V67.9281C101.074 67.4542 101.207 67.0773 101.473 66.7973C101.738 66.5173 102.155 66.3773 102.722 66.3773H103.734V67.3142H102.873C102.65 67.3142 102.485 67.3752 102.377 67.4973C102.27 67.6122 102.216 67.7773 102.216 67.9927V74.0234H101.074ZM100.277 69.2957V68.3696H103.648V69.2957H100.277ZM104.391 74.0234V67.9281C104.391 67.4542 104.524 67.0773 104.79 66.7973C105.055 66.5173 105.472 66.3773 106.039 66.3773H107.051V67.3142H106.19C105.967 67.3142 105.802 67.3752 105.694 67.4973C105.587 67.6122 105.533 67.7773 105.533 67.9927V74.0234H104.391ZM103.594 69.2957V68.3696H106.965V69.2957H103.594ZM108.086 74.0234V68.2942H109.227V74.0234H108.086ZM108.064 67.465V66.3234H109.249V67.465H108.064ZM113.095 74.1527C112.549 74.1527 112.072 74.0306 111.662 73.7865C111.253 73.5424 110.937 73.1942 110.715 72.7419C110.492 72.2896 110.381 71.7619 110.381 71.1588C110.381 70.5557 110.492 70.0316 110.715 69.5865C110.937 69.1342 111.253 68.786 111.662 68.5419C112.072 68.2906 112.549 68.165 113.095 68.165C113.561 68.165 113.974 68.2475 114.333 68.4127C114.699 68.5706 114.994 68.804 115.216 69.1127C115.446 69.4214 115.593 69.7983 115.658 70.2434L114.462 70.3081C114.405 69.9347 114.254 69.6511 114.01 69.4573C113.766 69.2563 113.461 69.1557 113.095 69.1557C112.614 69.1557 112.237 69.3352 111.964 69.6942C111.698 70.046 111.565 70.5342 111.565 71.1588C111.565 71.7834 111.698 72.2752 111.964 72.6342C112.237 72.986 112.614 73.1619 113.095 73.1619C113.461 73.1619 113.766 73.0614 114.01 72.8604C114.254 72.6522 114.405 72.3398 114.462 71.9234L115.658 71.9881C115.593 72.426 115.446 72.8065 115.216 73.1296C114.994 73.4527 114.699 73.704 114.333 73.8834C113.974 74.0629 113.561 74.1527 113.095 74.1527ZM121.308 74.1527C120.733 74.1527 120.274 73.9624 119.929 73.5819C119.592 73.1942 119.423 72.6593 119.423 71.9773V68.2942H120.565V71.6865C120.565 72.2034 120.654 72.584 120.834 72.8281C121.013 73.0722 121.286 73.1942 121.652 73.1942C122.069 73.1942 122.392 73.0614 122.622 72.7957C122.858 72.5229 122.977 72.1424 122.977 71.6542V68.2942H124.118V74.0234H123.052L123.031 72.5265L123.192 72.5911C123.092 73.0937 122.88 73.4814 122.557 73.7542C122.234 74.0198 121.817 74.1527 121.308 74.1527ZM127.836 74.1527C127.297 74.1527 126.841 74.0701 126.468 73.905C126.102 73.7398 125.818 73.5137 125.617 73.2265C125.416 72.9322 125.301 72.5947 125.273 72.2142L126.446 72.1604C126.504 72.4763 126.64 72.7275 126.856 72.9142C127.071 73.1009 127.398 73.1942 127.836 73.1942C128.195 73.1942 128.478 73.1368 128.686 73.0219C128.895 72.907 128.999 72.724 128.999 72.4727C128.999 72.3363 128.963 72.2214 128.891 72.1281C128.826 72.0275 128.697 71.945 128.503 71.8804C128.31 71.8086 128.022 71.7404 127.642 71.6757C127.075 71.5681 126.63 71.4424 126.306 71.2988C125.983 71.1552 125.754 70.9722 125.617 70.7496C125.481 70.527 125.413 70.2578 125.413 69.9419C125.413 69.4178 125.606 68.9906 125.994 68.6604C126.389 68.3301 126.956 68.165 127.696 68.165C128.191 68.165 128.607 68.2511 128.945 68.4234C129.282 68.5886 129.544 68.8147 129.731 69.1019C129.925 69.3819 130.047 69.6978 130.097 70.0496L128.923 70.1142C128.887 69.9132 128.816 69.7409 128.708 69.5973C128.607 69.4465 128.471 69.3316 128.299 69.2527C128.126 69.1665 127.922 69.1234 127.685 69.1234C127.319 69.1234 127.046 69.1952 126.866 69.3388C126.687 69.4824 126.597 69.6691 126.597 69.8988C126.597 70.0711 126.637 70.2111 126.716 70.3188C126.802 70.4265 126.938 70.5163 127.125 70.5881C127.312 70.6527 127.559 70.7101 127.868 70.7604C128.464 70.8609 128.931 70.9865 129.268 71.1373C129.605 71.2809 129.842 71.4604 129.979 71.6757C130.115 71.8911 130.183 72.1532 130.183 72.4619C130.183 72.8209 130.083 73.126 129.882 73.3773C129.681 73.6286 129.404 73.8224 129.053 73.9588C128.701 74.0881 128.295 74.1527 127.836 74.1527ZM133.059 74.1527C132.463 74.1527 131.986 74.0163 131.627 73.7434C131.275 73.4706 131.099 73.0865 131.099 72.5911C131.099 72.0957 131.246 71.7116 131.54 71.4388C131.842 71.1588 132.305 70.9578 132.93 70.8357L134.9 70.4588C134.9 70.0137 134.796 69.6834 134.588 69.4681C134.38 69.2455 134.071 69.1342 133.662 69.1342C133.296 69.1342 133.009 69.2168 132.8 69.3819C132.592 69.5398 132.449 69.7768 132.37 70.0927L131.196 70.0173C131.304 69.4429 131.569 68.9906 131.993 68.6604C132.424 68.3301 132.98 68.165 133.662 68.165C134.437 68.165 135.026 68.3732 135.428 68.7896C135.837 69.1988 136.042 69.7768 136.042 70.5234V72.7527C136.042 72.8891 136.064 72.986 136.107 73.0434C136.157 73.0937 136.236 73.1188 136.344 73.1188H136.548V74.0234C136.512 74.0306 136.455 74.0378 136.376 74.045C136.297 74.0522 136.214 74.0557 136.128 74.0557C135.884 74.0557 135.672 74.0163 135.493 73.9373C135.32 73.8583 135.191 73.7291 135.105 73.5496C135.019 73.3629 134.976 73.1152 134.976 72.8065L135.094 72.8604C135.037 73.1116 134.911 73.3342 134.717 73.5281C134.531 73.7219 134.29 73.8763 133.996 73.9911C133.709 74.0988 133.396 74.1527 133.059 74.1527ZM133.242 73.2481C133.587 73.2481 133.881 73.1834 134.125 73.0542C134.369 72.9178 134.559 72.7311 134.696 72.4942C134.832 72.2573 134.9 71.9881 134.9 71.6865V71.3204L133.22 71.6434C132.876 71.7081 132.632 71.8122 132.488 71.9557C132.352 72.0922 132.284 72.2681 132.284 72.4834C132.284 72.7275 132.366 72.9178 132.531 73.0542C132.704 73.1834 132.94 73.2481 133.242 73.2481ZM139.775 75.7681C139.322 75.7681 138.924 75.6998 138.579 75.5634C138.235 75.427 137.951 75.2332 137.728 74.9819C137.506 74.7378 137.355 74.4506 137.276 74.1204L138.461 74.045C138.54 74.2819 138.676 74.4686 138.87 74.605C139.071 74.7486 139.373 74.8204 139.775 74.8204C140.248 74.8204 140.611 74.7198 140.862 74.5188C141.121 74.3178 141.25 74.0127 141.25 73.6034V72.7742C141.114 73.0686 140.895 73.3019 140.593 73.4742C140.291 73.6465 139.954 73.7327 139.581 73.7327C139.1 73.7327 138.673 73.6142 138.299 73.3773C137.926 73.1404 137.635 72.8137 137.427 72.3973C137.219 71.9809 137.115 71.4998 137.115 70.9542C137.115 70.4014 137.215 69.9168 137.416 69.5004C137.624 69.084 137.911 68.7573 138.278 68.5204C138.651 68.2834 139.071 68.165 139.538 68.165C139.947 68.165 140.306 68.2583 140.615 68.445C140.93 68.6316 141.157 68.8829 141.293 69.1988V68.2942H142.391V73.5711C142.391 74.045 142.284 74.4434 142.068 74.7665C141.86 75.0968 141.559 75.3445 141.164 75.5096C140.776 75.6819 140.313 75.7681 139.775 75.7681ZM139.764 72.7634C140.209 72.7634 140.564 72.6019 140.83 72.2788C141.103 71.9557 141.243 71.5106 141.25 70.9434C141.257 70.5701 141.2 70.2506 141.078 69.985C140.956 69.7122 140.78 69.504 140.55 69.3604C140.327 69.2096 140.065 69.1342 139.764 69.1342C139.297 69.1342 138.935 69.2993 138.676 69.6296C138.425 69.9527 138.299 70.3906 138.299 70.9434C138.299 71.5034 138.428 71.9486 138.687 72.2788C138.953 72.6019 139.311 72.7634 139.764 72.7634ZM146.265 74.1527C145.705 74.1527 145.22 74.0306 144.811 73.7865C144.409 73.5424 144.097 73.1942 143.874 72.7419C143.659 72.2896 143.551 71.7619 143.551 71.1588C143.551 70.5557 143.659 70.0316 143.874 69.5865C144.097 69.1342 144.409 68.786 144.811 68.5419C145.213 68.2906 145.687 68.165 146.232 68.165C146.749 68.165 147.205 68.287 147.6 68.5311C147.995 68.7681 148.3 69.1127 148.515 69.565C148.738 70.0173 148.849 70.5629 148.849 71.2019V71.4927H144.735C144.764 72.0527 144.911 72.4727 145.177 72.7527C145.45 73.0327 145.816 73.1727 146.275 73.1727C146.613 73.1727 146.893 73.0937 147.115 72.9357C147.338 72.7778 147.492 72.566 147.579 72.3004L148.763 72.3757C148.612 72.907 148.314 73.3378 147.869 73.6681C147.431 73.9911 146.897 74.1527 146.265 74.1527ZM144.735 70.6311H147.643C147.607 70.1214 147.46 69.7445 147.202 69.5004C146.95 69.2563 146.627 69.1342 146.232 69.1342C145.823 69.1342 145.486 69.2634 145.22 69.5219C144.962 69.7732 144.8 70.1429 144.735 70.6311Z" fill="#1E1E1E"/>
<rect x="79.1012" y="84.6402" width="393.436" height="279.282" rx="5.38461" fill="white" stroke="#EEEEEE" stroke-width="0.717949"/>
<rect x="328.41" y="95.7656" width="133" height="22.9744" rx="5.74359" fill="#FAFAFA"/>
<path d="M340.044 110.253V103.117H342.336C343.455 103.117 344.316 103.428 344.919 104.051C345.522 104.668 345.824 105.549 345.824 106.695C345.824 107.834 345.525 108.712 344.929 109.328C344.339 109.945 343.495 110.253 342.396 110.253H340.044ZM341.13 109.258H342.336C343.126 109.258 343.716 109.047 344.105 108.625C344.5 108.196 344.698 107.552 344.698 106.695C344.698 105.824 344.5 105.177 344.105 104.755C343.716 104.326 343.126 104.112 342.336 104.112H341.13V109.258ZM348.597 110.374C348.04 110.374 347.595 110.246 347.26 109.992C346.931 109.737 346.767 109.378 346.767 108.916C346.767 108.454 346.905 108.095 347.179 107.841C347.461 107.579 347.893 107.392 348.476 107.278L350.315 106.926C350.315 106.511 350.218 106.202 350.024 106.001C349.83 105.794 349.541 105.69 349.16 105.69C348.818 105.69 348.55 105.767 348.355 105.921C348.161 106.068 348.027 106.289 347.953 106.584L346.858 106.514C346.958 105.978 347.206 105.556 347.602 105.247C348.004 104.939 348.523 104.785 349.16 104.785C349.883 104.785 350.433 104.979 350.808 105.368C351.19 105.75 351.381 106.289 351.381 106.986V109.067C351.381 109.194 351.401 109.285 351.441 109.338C351.488 109.385 351.562 109.409 351.662 109.409H351.853V110.253C351.82 110.26 351.766 110.266 351.692 110.273C351.619 110.28 351.542 110.283 351.461 110.283C351.233 110.283 351.036 110.246 350.868 110.173C350.707 110.099 350.587 109.978 350.506 109.811C350.426 109.636 350.386 109.405 350.386 109.117L350.496 109.167C350.443 109.402 350.325 109.61 350.145 109.791C349.97 109.971 349.746 110.116 349.471 110.223C349.203 110.323 348.912 110.374 348.597 110.374ZM348.768 109.529C349.089 109.529 349.364 109.469 349.592 109.348C349.82 109.221 349.997 109.047 350.124 108.826C350.252 108.605 350.315 108.353 350.315 108.072V107.73L348.747 108.032C348.426 108.092 348.198 108.189 348.064 108.323C347.937 108.45 347.873 108.615 347.873 108.816C347.873 109.043 347.95 109.221 348.104 109.348C348.265 109.469 348.486 109.529 348.768 109.529ZM352.809 111.761V110.886H353.462C353.643 110.886 353.777 110.859 353.864 110.806C353.951 110.752 354.018 110.662 354.065 110.534L354.236 110.092H353.905L351.975 104.906H353.1L354.568 109.107L355.965 104.906H357.101L354.97 110.876C354.863 111.184 354.702 111.409 354.488 111.55C354.28 111.69 353.988 111.761 353.613 111.761H352.809Z" fill="#616161"/>
<g filter="url(#filter1_di_885_6393)">
<rect x="366.793" y="97.9199" width="44.2308" height="18.6667" rx="3.58974" fill="white" shape-rendering="crispEdges"/>
<path d="M377.682 110.253L375.792 103.117H376.948L378.335 108.755L379.722 103.117H380.828L382.215 108.755L383.592 103.117H384.768L382.868 110.253H381.602L380.275 105.046L378.948 110.253H377.682ZM387.651 110.374C387.128 110.374 386.676 110.26 386.294 110.032C385.919 109.804 385.627 109.479 385.42 109.057C385.218 108.635 385.118 108.142 385.118 107.579C385.118 107.016 385.218 106.527 385.42 106.112C385.627 105.69 385.919 105.365 386.294 105.137C386.669 104.902 387.111 104.785 387.621 104.785C388.103 104.785 388.529 104.899 388.897 105.127C389.266 105.348 389.551 105.67 389.752 106.092C389.959 106.514 390.063 107.023 390.063 107.619V107.891H386.224C386.25 108.414 386.388 108.806 386.636 109.067C386.89 109.328 387.232 109.459 387.661 109.459C387.976 109.459 388.237 109.385 388.445 109.238C388.653 109.09 388.797 108.893 388.877 108.645L389.983 108.715C389.842 109.211 389.564 109.613 389.149 109.921C388.74 110.223 388.241 110.374 387.651 110.374ZM386.224 107.087H388.937C388.904 106.611 388.767 106.259 388.525 106.031C388.291 105.804 387.989 105.69 387.621 105.69C387.239 105.69 386.924 105.81 386.676 106.051C386.435 106.286 386.284 106.631 386.224 107.087ZM393.344 110.374C392.821 110.374 392.369 110.26 391.987 110.032C391.612 109.804 391.32 109.479 391.113 109.057C390.912 108.635 390.811 108.142 390.811 107.579C390.811 107.016 390.912 106.527 391.113 106.112C391.32 105.69 391.612 105.365 391.987 105.137C392.362 104.902 392.805 104.785 393.314 104.785C393.796 104.785 394.222 104.899 394.59 105.127C394.959 105.348 395.244 105.67 395.445 106.092C395.652 106.514 395.756 107.023 395.756 107.619V107.891H391.917C391.944 108.414 392.081 108.806 392.329 109.067C392.583 109.328 392.925 109.459 393.354 109.459C393.669 109.459 393.93 109.385 394.138 109.238C394.346 109.09 394.49 108.893 394.57 108.645L395.676 108.715C395.535 109.211 395.257 109.613 394.842 109.921C394.433 110.223 393.934 110.374 393.344 110.374ZM391.917 107.087H394.631C394.597 106.611 394.46 106.259 394.218 106.031C393.984 105.804 393.682 105.69 393.314 105.69C392.932 105.69 392.617 105.81 392.369 106.051C392.128 106.286 391.977 106.631 391.917 107.087ZM396.836 110.253V103.117H397.901V107.549L400.304 104.906H401.65L399.56 107.157L401.731 110.253H400.505L398.846 107.821L397.901 108.826V110.253H396.836Z" fill="#0D0D0D"/>
</g>
<path d="M420.509 110.253V103.117H421.997L424.117 108.976L426.238 103.117H427.726V110.253H426.64V105.026L424.72 110.243H423.514L421.594 105.026V110.253H420.509ZM431.444 110.374C430.934 110.374 430.489 110.26 430.107 110.032C429.725 109.804 429.43 109.479 429.222 109.057C429.014 108.635 428.911 108.142 428.911 107.579C428.911 107.01 429.014 106.517 429.222 106.102C429.43 105.686 429.725 105.365 430.107 105.137C430.489 104.902 430.934 104.785 431.444 104.785C431.953 104.785 432.398 104.902 432.78 105.137C433.162 105.365 433.457 105.686 433.665 106.102C433.873 106.517 433.976 107.01 433.976 107.579C433.976 108.142 433.873 108.635 433.665 109.057C433.457 109.479 433.162 109.804 432.78 110.032C432.398 110.26 431.953 110.374 431.444 110.374ZM431.444 109.449C431.899 109.449 432.251 109.285 432.499 108.956C432.747 108.621 432.871 108.162 432.871 107.579C432.871 106.996 432.747 106.541 432.499 106.212C432.251 105.877 431.899 105.71 431.444 105.71C430.995 105.71 430.643 105.877 430.388 106.212C430.14 106.541 430.016 106.996 430.016 107.579C430.016 108.162 430.14 108.621 430.388 108.956C430.643 109.285 430.995 109.449 431.444 109.449ZM435.053 110.253V104.906H436.028L436.068 106.333L435.938 106.263C435.998 105.914 436.112 105.633 436.279 105.418C436.447 105.204 436.651 105.046 436.893 104.946C437.134 104.839 437.395 104.785 437.677 104.785C438.079 104.785 438.41 104.875 438.672 105.056C438.94 105.231 439.141 105.472 439.275 105.78C439.415 106.082 439.486 106.427 439.486 106.815V110.253H438.42V107.137C438.42 106.822 438.387 106.557 438.32 106.343C438.253 106.129 438.142 105.964 437.988 105.85C437.834 105.737 437.633 105.68 437.385 105.68C437.01 105.68 436.705 105.804 436.47 106.051C436.236 106.299 436.119 106.661 436.119 107.137V110.253H435.053ZM442.659 110.253C442.15 110.253 441.775 110.136 441.534 109.901C441.292 109.667 441.172 109.301 441.172 108.806V103.649H442.237V108.725C442.237 108.973 442.291 109.144 442.398 109.238C442.505 109.332 442.669 109.378 442.891 109.378H443.654V110.253H442.659ZM440.358 105.78V104.906H443.654V105.78H440.358ZM444.673 110.253V103.117H445.738V106.112L445.607 106.092C445.668 105.79 445.778 105.546 445.939 105.358C446.1 105.164 446.298 105.02 446.532 104.926C446.767 104.832 447.025 104.785 447.306 104.785C447.695 104.785 448.023 104.872 448.291 105.046C448.559 105.214 448.76 105.452 448.894 105.76C449.035 106.068 449.105 106.42 449.105 106.815V110.253H448.04V107.097C448.04 106.614 447.956 106.259 447.789 106.031C447.628 105.797 447.373 105.68 447.025 105.68C446.636 105.68 446.324 105.804 446.09 106.051C445.855 106.293 445.738 106.648 445.738 107.117V110.253H444.673Z" fill="#616161"/>
<path d="M91.4204 114.766C91.4204 113.693 91.5812 112.735 91.9029 111.891C92.2245 111.047 92.774 110.263 93.5513 109.539C94.3286 108.815 95.4007 108.092 96.7677 107.368C97.4244 107.033 97.9471 106.725 98.3357 106.443C98.7378 106.148 99.0259 105.847 99.2001 105.539C99.3743 105.23 99.4615 104.855 99.4615 104.413C99.4615 103.957 99.3609 103.568 99.1599 103.247C98.9723 102.912 98.6909 102.65 98.3156 102.463C97.9404 102.262 97.4646 102.161 96.8883 102.161C95.977 102.161 95.2533 102.409 94.7172 102.905C94.1946 103.388 93.8662 104.084 93.7322 104.996L91.4807 104.855C91.6416 103.421 92.1843 102.282 93.109 101.438C94.0472 100.593 95.3069 100.171 96.8883 100.171C97.9069 100.171 98.7713 100.352 99.4816 100.714C100.205 101.062 100.755 101.552 101.13 102.181C101.519 102.811 101.713 103.542 101.713 104.373C101.713 105.096 101.592 105.719 101.351 106.242C101.11 106.765 100.708 107.254 100.145 107.71C99.5821 108.152 98.8182 108.628 97.8532 109.137C96.6203 109.794 95.6889 110.444 95.059 111.087C94.4291 111.717 94.0941 112.28 94.0539 112.775H101.713V114.766H91.4204ZM106.696 114.766V104.594H103.681V102.845H104.907C105.443 102.845 105.879 102.778 106.214 102.644C106.549 102.496 106.79 102.255 106.937 101.92C107.085 101.572 107.158 101.096 107.158 100.493H108.867V114.766H106.696ZM114.502 114.766C114.502 113.291 114.696 111.837 115.085 110.403C115.487 108.956 116.05 107.569 116.773 106.242C117.51 104.902 118.388 103.649 119.407 102.483H111.426V100.493H121.699V102.342C120.573 103.629 119.635 104.915 118.884 106.202C118.147 107.475 117.598 108.815 117.236 110.222C116.887 111.616 116.713 113.131 116.713 114.766H114.502Z" fill="#1E1E1E"/>
<path d="M373.817 139.227V133.11H375.307C375.847 133.11 376.315 133.23 376.711 133.471C377.113 133.707 377.421 134.054 377.633 134.514C377.852 134.968 377.961 135.522 377.961 136.177C377.961 136.831 377.852 137.386 377.633 137.839C377.421 138.293 377.113 138.638 376.711 138.873C376.315 139.109 375.847 139.227 375.307 139.227H373.817ZM374.721 138.374H375.281C375.838 138.374 376.266 138.193 376.565 137.831C376.869 137.463 377.022 136.912 377.022 136.177C377.022 135.442 376.869 134.89 376.565 134.523C376.266 134.149 375.838 133.963 375.281 133.963H374.721V138.374ZM378.474 139.227L380.266 133.11H381.438L383.23 139.227H382.291L380.852 134.049L379.413 139.227H378.474ZM379.474 137.633L379.749 136.797H381.955L382.231 137.633H379.474ZM385.57 139.227V133.963H383.778V133.11H388.258V133.963H386.466V139.227H385.57ZM388.806 139.227L390.598 133.11H391.77L393.562 139.227H392.623L391.184 134.049L389.745 139.227H388.806ZM389.805 137.633L390.081 136.797H392.287L392.562 137.633H389.805ZM399.775 139.227V133.11H403.6V133.945H400.163L400.68 133.454V136.263L400.163 135.823H403.445V136.651H400.163L400.68 136.211V139.227H399.775ZM404.674 139.227V133.11H406.578C407.227 133.11 407.735 133.273 408.103 133.601C408.476 133.928 408.663 134.373 408.663 134.936C408.663 135.229 408.597 135.487 408.465 135.711C408.338 135.935 408.169 136.111 407.956 136.237C407.75 136.363 407.529 136.435 407.293 136.452L407.259 136.349C407.684 136.366 408 136.464 408.206 136.642C408.419 136.814 408.542 137.096 408.577 137.486L408.732 139.227H407.827L407.689 137.659C407.672 137.458 407.629 137.297 407.56 137.176C407.491 137.055 407.385 136.969 407.241 136.918C407.098 136.866 406.9 136.84 406.647 136.84H405.579V139.227H404.674ZM405.579 135.996H406.561C406.94 135.996 407.23 135.907 407.431 135.729C407.632 135.551 407.732 135.301 407.732 134.979C407.732 134.652 407.632 134.402 407.431 134.23C407.23 134.052 406.94 133.963 406.561 133.963H405.579V135.996ZM411.847 139.364C411.359 139.364 410.945 139.241 410.607 138.994C410.273 138.747 410.018 138.385 409.84 137.908C409.662 137.432 409.573 136.854 409.573 136.177C409.573 135.487 409.662 134.905 409.84 134.428C410.018 133.951 410.273 133.589 410.607 133.342C410.945 133.095 411.359 132.972 411.847 132.972C412.335 132.972 412.749 133.095 413.088 133.342C413.427 133.589 413.682 133.951 413.855 134.428C414.033 134.905 414.122 135.487 414.122 136.177C414.122 136.854 414.033 137.432 413.855 137.908C413.682 138.385 413.427 138.747 413.088 138.994C412.749 139.241 412.335 139.364 411.847 139.364ZM411.847 138.52C412.134 138.52 412.376 138.434 412.571 138.262C412.772 138.089 412.924 137.828 413.028 137.478C413.131 137.127 413.183 136.694 413.183 136.177C413.183 135.66 413.131 135.226 413.028 134.876C412.924 134.52 412.772 134.255 412.571 134.083C412.376 133.905 412.134 133.816 411.847 133.816C411.56 133.816 411.316 133.905 411.115 134.083C410.92 134.255 410.77 134.52 410.667 134.876C410.564 135.226 410.512 135.66 410.512 136.177C410.512 136.694 410.564 137.127 410.667 137.478C410.77 137.828 410.92 138.089 411.115 138.262C411.316 138.434 411.56 138.52 411.847 138.52ZM416.668 138.486L415.617 134.109L415.712 134.1V139.227H414.842V133.11H416.048L417.185 137.753H416.841L417.978 133.11H419.184V139.227H418.314V134.1L418.409 134.109L417.358 138.486H416.668ZM427.112 139.227V134.867H425.544V134.1H426.32C426.544 134.1 426.725 134.069 426.862 134.006C427 133.937 427.101 133.83 427.164 133.687C427.227 133.543 427.259 133.351 427.259 133.11H428.017V139.227H427.112ZM425.243 139.227V138.374H429.447V139.227H425.243ZM431.115 137.116V136.315H433.906V137.116H431.115ZM436.677 139.227C436.677 138.601 436.76 137.983 436.927 137.374C437.099 136.76 437.346 136.165 437.668 135.591C437.99 135.017 438.372 134.474 438.814 133.963H435.592V133.11H439.761V133.902C439.388 134.327 439.067 134.749 438.797 135.169C438.527 135.582 438.305 136.002 438.133 136.427C437.961 136.852 437.835 137.297 437.754 137.762C437.674 138.221 437.633 138.71 437.633 139.227H436.677ZM448.008 139.364C447.52 139.364 447.107 139.241 446.768 138.994C446.435 138.747 446.179 138.385 446.001 137.908C445.823 137.432 445.734 136.854 445.734 136.177C445.734 135.487 445.823 134.905 446.001 134.428C446.179 133.951 446.435 133.589 446.768 133.342C447.107 133.095 447.52 132.972 448.008 132.972C448.496 132.972 448.91 133.095 449.249 133.342C449.588 133.589 449.843 133.951 450.016 134.428C450.194 134.905 450.283 135.487 450.283 136.177C450.283 136.854 450.194 137.432 450.016 137.908C449.843 138.385 449.588 138.747 449.249 138.994C448.91 139.241 448.496 139.364 448.008 139.364ZM448.008 138.52C448.295 138.52 448.537 138.434 448.732 138.262C448.933 138.089 449.085 137.828 449.189 137.478C449.292 137.127 449.344 136.694 449.344 136.177C449.344 135.66 449.292 135.226 449.189 134.876C449.085 134.52 448.933 134.255 448.732 134.083C448.537 133.905 448.295 133.816 448.008 133.816C447.721 133.816 447.477 133.905 447.276 134.083C447.081 134.255 446.931 134.52 446.828 134.876C446.725 135.226 446.673 135.66 446.673 136.177C446.673 136.694 446.725 137.127 446.828 137.478C446.931 137.828 447.081 138.089 447.276 138.262C447.477 138.434 447.721 138.52 448.008 138.52ZM453.2 139.364C452.706 139.364 452.287 139.235 451.942 138.977C451.603 138.718 451.345 138.351 451.167 137.874C450.989 137.397 450.9 136.831 450.9 136.177C450.9 135.516 450.989 134.948 451.167 134.471C451.345 133.994 451.603 133.627 451.942 133.368C452.287 133.104 452.706 132.972 453.2 132.972C453.757 132.972 454.225 133.156 454.604 133.523C454.989 133.891 455.242 134.405 455.362 135.065L454.415 135.117C454.329 134.692 454.176 134.37 453.958 134.152C453.746 133.928 453.493 133.816 453.2 133.816C452.901 133.816 452.651 133.908 452.45 134.092C452.249 134.276 452.097 134.543 451.994 134.893C451.89 135.243 451.839 135.671 451.839 136.177C451.839 136.676 451.89 137.101 451.994 137.452C452.097 137.796 452.249 138.061 452.45 138.244C452.651 138.428 452.901 138.52 453.2 138.52C453.516 138.52 453.786 138.399 454.01 138.158C454.234 137.917 454.383 137.564 454.458 137.099L455.397 137.142C455.294 137.842 455.049 138.388 454.665 138.779C454.28 139.169 453.792 139.364 453.2 139.364ZM457.892 139.227V133.963H456.1V133.11H460.58V133.963H458.788V139.227H457.892Z" fill="#9E9E9E"/>
<path d="M93.4565 167.945V166.653H90.5445V165.869L93.3618 161.828H94.3611V165.817H95.0935V166.653H94.3611V167.945H93.4565ZM91.4319 165.817H93.4565V163.035L91.4319 165.817ZM96.4685 167.032L98.8119 162.699L99.5012 162.742L97.1578 167.075L96.4685 167.032ZM97.9849 168.083C97.5369 168.083 97.1492 167.954 96.8218 167.695C96.4944 167.437 96.2445 167.069 96.0722 166.593C95.8999 166.116 95.8138 165.55 95.8138 164.895C95.8138 164.235 95.8999 163.666 96.0722 163.19C96.2445 162.713 96.4944 162.345 96.8218 162.087C97.1492 161.823 97.5369 161.691 97.9849 161.691C98.4386 161.691 98.8263 161.823 99.1479 162.087C99.4753 162.345 99.7252 162.713 99.8975 163.19C100.07 163.666 100.156 164.235 100.156 164.895C100.156 165.55 100.07 166.116 99.8975 166.593C99.7252 167.069 99.4753 167.437 99.1479 167.695C98.8263 167.954 98.4386 168.083 97.9849 168.083ZM97.9849 167.239C98.2433 167.239 98.4616 167.147 98.6396 166.963C98.8234 166.774 98.9641 166.504 99.0618 166.153C99.1652 165.803 99.2169 165.384 99.2169 164.895C99.2169 164.396 99.1652 163.971 99.0618 163.62C98.9641 163.27 98.8234 163.003 98.6396 162.819C98.4616 162.63 98.2433 162.535 97.9849 162.535C97.7321 162.535 97.5139 162.63 97.3301 162.819C97.1463 163.003 97.0027 163.27 96.8993 163.62C96.8017 163.971 96.7529 164.396 96.7529 164.895C96.7529 165.384 96.8017 165.803 96.8993 166.153C97.0027 166.504 97.1463 166.774 97.3301 166.963C97.5139 167.147 97.7321 167.239 97.9849 167.239Z" fill="#9E9E9E"/>
<path d="M92.7673 208.519C92.0953 208.519 91.5812 208.358 91.2251 208.036C90.869 207.715 90.6766 207.292 90.6479 206.77L91.5698 206.709C91.6042 207.06 91.7306 207.31 91.9488 207.459C92.1728 207.603 92.4485 207.674 92.7759 207.674C92.9999 207.674 93.2096 207.64 93.4048 207.571C93.6001 207.502 93.7552 207.393 93.8701 207.244C93.9907 207.094 94.051 206.893 94.051 206.641C94.051 206.394 93.9964 206.19 93.8873 206.029C93.7839 205.868 93.6346 205.75 93.4393 205.676C93.2498 205.595 93.0315 205.555 92.7845 205.555H92.3107V204.745H92.7845C92.9798 204.745 93.1579 204.716 93.3187 204.659C93.4795 204.602 93.6059 204.507 93.6978 204.375C93.7954 204.243 93.8442 204.073 93.8442 203.866C93.8442 203.568 93.7523 203.344 93.5685 203.194C93.3905 203.045 93.1349 202.97 92.8018 202.97C92.4571 202.97 92.1958 203.042 92.0178 203.186C91.8455 203.329 91.7392 203.528 91.699 203.78L90.7685 203.72C90.8317 203.243 91.0356 202.858 91.3802 202.565C91.7306 202.273 92.2073 202.126 92.8104 202.126C93.2124 202.126 93.5599 202.195 93.8528 202.333C94.1515 202.465 94.3812 202.655 94.5421 202.901C94.7029 203.148 94.7833 203.444 94.7833 203.789C94.7833 204.168 94.6627 204.475 94.4215 204.711C94.186 204.94 93.8413 205.098 93.3876 205.185V205.021C93.8816 205.078 94.2721 205.256 94.5593 205.555C94.8465 205.848 94.9901 206.218 94.9901 206.666C94.9901 207.057 94.8953 207.39 94.7058 207.666C94.522 207.941 94.2606 208.154 93.9218 208.303C93.5886 208.447 93.2038 208.519 92.7673 208.519ZM96.4685 207.468L98.8119 203.134L99.5012 203.177L97.1578 207.511L96.4685 207.468ZM97.9849 208.519C97.5369 208.519 97.1492 208.389 96.8218 208.131C96.4944 207.873 96.2445 207.505 96.0722 207.028C95.8999 206.552 95.8138 205.986 95.8138 205.331C95.8138 204.671 95.8999 204.102 96.0722 203.625C96.2445 203.148 96.4944 202.781 96.8218 202.522C97.1492 202.258 97.5369 202.126 97.9849 202.126C98.4386 202.126 98.8263 202.258 99.1479 202.522C99.4753 202.781 99.7252 203.148 99.8975 203.625C100.07 204.102 100.156 204.671 100.156 205.331C100.156 205.986 100.07 206.552 99.8975 207.028C99.7252 207.505 99.4753 207.873 99.1479 208.131C98.8263 208.389 98.4386 208.519 97.9849 208.519ZM97.9849 207.674C98.2433 207.674 98.4616 207.583 98.6396 207.399C98.8234 207.209 98.9641 206.939 99.0618 206.589C99.1652 206.239 99.2169 205.819 99.2169 205.331C99.2169 204.831 99.1652 204.406 99.0618 204.056C98.9641 203.706 98.8234 203.439 98.6396 203.255C98.4616 203.065 98.2433 202.97 97.9849 202.97C97.7321 202.97 97.5139 203.065 97.3301 203.255C97.1463 203.439 97.0027 203.706 96.8993 204.056C96.8017 204.406 96.7529 204.831 96.7529 205.331C96.7529 205.819 96.8017 206.239 96.8993 206.589C97.0027 206.939 97.1463 207.209 97.3301 207.399C97.5139 207.583 97.7321 207.674 97.9849 207.674Z" fill="#9E9E9E"/>
<path d="M90.6479 248.817C90.6479 248.364 90.714 247.959 90.8461 247.603C90.9782 247.247 91.2108 246.913 91.5439 246.603C91.8828 246.287 92.3509 245.971 92.9482 245.656C93.2067 245.523 93.4163 245.397 93.5771 245.276C93.738 245.156 93.8557 245.027 93.9304 244.889C94.005 244.751 94.0424 244.584 94.0424 244.389C94.0424 244.188 94.0022 244.016 93.9218 243.872C93.8413 243.729 93.7207 243.617 93.5599 243.536C93.3991 243.45 93.1981 243.407 92.9568 243.407C92.5663 243.407 92.259 243.51 92.035 243.717C91.8167 243.924 91.6789 244.22 91.6215 244.604L90.6824 244.544C90.7456 243.941 90.9724 243.461 91.363 243.105C91.7536 242.744 92.2848 242.563 92.9568 242.563C93.3933 242.563 93.7609 242.637 94.0596 242.787C94.364 242.936 94.5938 243.146 94.7488 243.416C94.9039 243.685 94.9815 243.999 94.9815 244.355C94.9815 244.671 94.9298 244.943 94.8264 245.173C94.723 245.403 94.5507 245.615 94.3095 245.811C94.0682 246.006 93.738 246.216 93.3187 246.44C92.9683 246.629 92.6754 246.816 92.4399 247C92.2102 247.178 92.035 247.35 91.9144 247.516C91.7995 247.677 91.7363 247.827 91.7248 247.964H94.9901V248.817H90.6479ZM96.4685 247.904L98.8119 243.571L99.5012 243.614L97.1578 247.947L96.4685 247.904ZM97.9849 248.955C97.5369 248.955 97.1492 248.826 96.8218 248.568C96.4944 248.309 96.2445 247.941 96.0722 247.465C95.8999 246.988 95.8138 246.422 95.8138 245.768C95.8138 245.107 95.8999 244.538 96.0722 244.062C96.2445 243.585 96.4944 243.217 96.8218 242.959C97.1492 242.695 97.5369 242.563 97.9849 242.563C98.4386 242.563 98.8263 242.695 99.1479 242.959C99.4753 243.217 99.7252 243.585 99.8975 244.062C100.07 244.538 100.156 245.107 100.156 245.768C100.156 246.422 100.07 246.988 99.8975 247.465C99.7252 247.941 99.4753 248.309 99.1479 248.568C98.8263 248.826 98.4386 248.955 97.9849 248.955ZM97.9849 248.111C98.2433 248.111 98.4616 248.019 98.6396 247.835C98.8234 247.646 98.9641 247.376 99.0618 247.025C99.1652 246.675 99.2169 246.256 99.2169 245.768C99.2169 245.268 99.1652 244.843 99.0618 244.492C98.9641 244.142 98.8234 243.875 98.6396 243.691C98.4616 243.502 98.2433 243.407 97.9849 243.407C97.7321 243.407 97.5139 243.502 97.3301 243.691C97.1463 243.875 97.0027 244.142 96.8993 244.492C96.8017 244.843 96.7529 245.268 96.7529 245.768C96.7529 246.256 96.8017 246.675 96.8993 247.025C97.0027 247.376 97.1463 247.646 97.3301 247.835C97.5139 248.019 97.7321 248.111 97.9849 248.111Z" fill="#9E9E9E"/>
<path d="M92.5864 289.253V284.894H91.0184V284.127H91.7938C92.0178 284.127 92.1987 284.095 92.3365 284.032C92.4744 283.963 92.5749 283.857 92.6381 283.713C92.7012 283.57 92.7328 283.377 92.7328 283.136H93.491V289.253H92.5864ZM90.7168 289.253V288.4H94.9211V289.253H90.7168ZM96.4685 288.34L98.8119 284.006L99.5012 284.049L97.1578 288.383L96.4685 288.34ZM97.9849 289.391C97.5369 289.391 97.1492 289.262 96.8218 289.003C96.4944 288.745 96.2445 288.377 96.0722 287.9C95.8999 287.424 95.8138 286.858 95.8138 286.203C95.8138 285.543 95.8999 284.974 96.0722 284.497C96.2445 284.021 96.4944 283.653 96.8218 283.394C97.1492 283.13 97.5369 282.998 97.9849 282.998C98.4386 282.998 98.8263 283.13 99.1479 283.394C99.4753 283.653 99.7252 284.021 99.8975 284.497C100.07 284.974 100.156 285.543 100.156 286.203C100.156 286.858 100.07 287.424 99.8975 287.9C99.7252 288.377 99.4753 288.745 99.1479 289.003C98.8263 289.262 98.4386 289.391 97.9849 289.391ZM97.9849 288.546C98.2433 288.546 98.4616 288.455 98.6396 288.271C98.8234 288.081 98.9641 287.811 99.0618 287.461C99.1652 287.111 99.2169 286.691 99.2169 286.203C99.2169 285.703 99.1652 285.278 99.0618 284.928C98.9641 284.578 98.8234 284.311 98.6396 284.127C98.4616 283.937 98.2433 283.842 97.9849 283.842C97.7321 283.842 97.5139 283.937 97.3301 284.127C97.1463 284.311 97.0027 284.578 96.8993 284.928C96.8017 285.278 96.7529 285.703 96.7529 286.203C96.7529 286.691 96.8017 287.111 96.8993 287.461C97.0027 287.811 97.1463 288.081 97.3301 288.271C97.5139 288.455 97.7321 288.546 97.9849 288.546Z" fill="#9E9E9E"/>
<path d="M91.3027 328.775L93.6461 324.442L94.3353 324.485L91.9919 328.818L91.3027 328.775ZM92.819 329.826C92.371 329.826 91.9833 329.697 91.6559 329.439C91.3285 329.18 91.0787 328.813 90.9064 328.336C90.7341 327.859 90.6479 327.293 90.6479 326.639C90.6479 325.978 90.7341 325.41 90.9064 324.933C91.0787 324.456 91.3285 324.088 91.6559 323.83C91.9833 323.566 92.371 323.434 92.819 323.434C93.2727 323.434 93.6604 323.566 93.9821 323.83C94.3095 324.088 94.5593 324.456 94.7316 324.933C94.9039 325.41 94.9901 325.978 94.9901 326.639C94.9901 327.293 94.9039 327.859 94.7316 328.336C94.5593 328.813 94.3095 329.18 93.9821 329.439C93.6604 329.697 93.2727 329.826 92.819 329.826ZM92.819 328.982C93.0775 328.982 93.2957 328.89 93.4738 328.706C93.6576 328.517 93.7983 328.247 93.8959 327.896C93.9993 327.546 94.051 327.127 94.051 326.639C94.051 326.139 93.9993 325.714 93.8959 325.364C93.7983 325.013 93.6576 324.746 93.4738 324.562C93.2957 324.373 93.0775 324.278 92.819 324.278C92.5663 324.278 92.348 324.373 92.1642 324.562C91.9804 324.746 91.8368 325.013 91.7335 325.364C91.6358 325.714 91.587 326.139 91.587 326.639C91.587 327.127 91.6358 327.546 91.7335 327.896C91.8368 328.247 91.9804 328.517 92.1642 328.706C92.348 328.89 92.5663 328.982 92.819 328.982Z" fill="#9E9E9E"/>
<path d="M124.06 349.564L123.009 345.187L123.104 345.179V350.305H122.234V344.188H123.44L124.577 348.831H124.233L125.37 344.188H126.576V350.305H125.706V345.179L125.801 345.187L124.75 349.564H124.06ZM129.571 350.443C129.083 350.443 128.669 350.319 128.33 350.072C127.997 349.825 127.741 349.463 127.563 348.987C127.385 348.51 127.296 347.933 127.296 347.255C127.296 346.566 127.385 345.983 127.563 345.506C127.741 345.029 127.997 344.667 128.33 344.42C128.669 344.173 129.083 344.05 129.571 344.05C130.059 344.05 130.473 344.173 130.811 344.42C131.15 344.667 131.406 345.029 131.578 345.506C131.756 345.983 131.845 346.566 131.845 347.255C131.845 347.933 131.756 348.51 131.578 348.987C131.406 349.463 131.15 349.825 130.811 350.072C130.473 350.319 130.059 350.443 129.571 350.443ZM129.571 349.598C129.858 349.598 130.099 349.512 130.294 349.34C130.496 349.167 130.648 348.906 130.751 348.556C130.854 348.205 130.906 347.772 130.906 347.255C130.906 346.738 130.854 346.304 130.751 345.954C130.648 345.598 130.496 345.334 130.294 345.161C130.099 344.983 129.858 344.894 129.571 344.894C129.284 344.894 129.04 344.983 128.838 345.161C128.643 345.334 128.494 345.598 128.39 345.954C128.287 346.304 128.235 346.738 128.235 347.255C128.235 347.772 128.287 348.205 128.39 348.556C128.494 348.906 128.643 349.167 128.838 349.34C129.04 349.512 129.284 349.598 129.571 349.598ZM132.738 350.305V344.188H133.841L135.848 349.021V344.188H136.735V350.305H135.633L133.625 345.471V350.305H132.738Z" fill="#9E9E9E"/>
<path d="M175.973 350.305V345.041H174.181V344.188H178.661V345.041H176.869V350.305H175.973ZM181.586 350.443C180.932 350.443 180.42 350.242 180.053 349.839C179.685 349.437 179.501 348.883 179.501 348.177V344.188H180.406V348.211C180.406 348.659 180.507 349.004 180.708 349.245C180.909 349.48 181.202 349.598 181.586 349.598C181.971 349.598 182.264 349.48 182.465 349.245C182.666 349.004 182.767 348.659 182.767 348.211V344.188H183.671V348.177C183.671 348.883 183.488 349.437 183.12 349.839C182.752 350.242 182.241 350.443 181.586 350.443ZM184.926 350.305V344.188H188.682V345.041H185.83V346.824H188.579V347.651H185.83V349.452H188.751V350.305H184.926Z" fill="#9E9E9E"/>
<path d="M226.751 350.305L226.097 344.188H227.001L227.51 349.564H227.406L228.044 344.877H228.836L229.474 349.564H229.371L229.879 344.188H230.783L230.129 350.305H228.948L228.337 345.825H228.543L227.932 350.305H226.751ZM231.779 350.305V344.188H235.536V345.041H232.684V346.824H235.432V347.651H232.684V349.452H235.605V350.305H231.779ZM236.902 350.305V344.188H238.393C238.933 344.188 239.401 344.308 239.797 344.55C240.199 344.785 240.506 345.133 240.719 345.592C240.937 346.046 241.046 346.6 241.046 347.255C241.046 347.91 240.937 348.464 240.719 348.918C240.506 349.371 240.199 349.716 239.797 349.951C239.401 350.187 238.933 350.305 238.393 350.305H236.902ZM237.807 349.452H238.367C238.924 349.452 239.352 349.271 239.651 348.909C239.955 348.541 240.107 347.99 240.107 347.255C240.107 346.52 239.955 345.968 239.651 345.601C239.352 345.227 238.924 345.041 238.367 345.041H237.807V349.452Z" fill="#9E9E9E"/>
<path d="M280.008 350.305V345.041H278.216V344.188H282.696V345.041H280.904V350.305H280.008ZM283.519 350.305V344.188H284.424V347.134L284.019 346.807H287.224L286.819 347.134V344.188H287.724V350.305H286.819V347.324L287.224 347.651H284.019L284.424 347.324V350.305H283.519ZM290.787 350.443C290.133 350.443 289.621 350.242 289.254 349.839C288.886 349.437 288.703 348.883 288.703 348.177V344.188H289.607V348.211C289.607 348.659 289.708 349.004 289.909 349.245C290.11 349.48 290.403 349.598 290.787 349.598C291.172 349.598 291.465 349.48 291.666 349.245C291.867 349.004 291.968 348.659 291.968 348.211V344.188H292.872V348.177C292.872 348.883 292.689 349.437 292.321 349.839C291.953 350.242 291.442 350.443 290.787 350.443Z" fill="#9E9E9E"/>
<path d="M330.735 350.305V344.188H334.56V345.023H331.123L331.64 344.532V347.341L331.123 346.902H334.405V347.729H331.123L331.64 347.289V350.305H330.735ZM335.634 350.305V344.188H337.538C338.187 344.188 338.695 344.351 339.063 344.679C339.436 345.006 339.623 345.451 339.623 346.014C339.623 346.307 339.557 346.566 339.424 346.79C339.298 347.014 339.129 347.189 338.916 347.315C338.709 347.442 338.488 347.513 338.253 347.531L338.218 347.427C338.643 347.444 338.959 347.542 339.166 347.72C339.379 347.892 339.502 348.174 339.536 348.564L339.692 350.305H338.787L338.649 348.737C338.632 348.536 338.589 348.375 338.52 348.254C338.451 348.134 338.345 348.047 338.201 347.996C338.058 347.944 337.859 347.918 337.607 347.918H336.538V350.305H335.634ZM336.538 347.074H337.52C337.9 347.074 338.19 346.985 338.391 346.807C338.592 346.629 338.692 346.379 338.692 346.057C338.692 345.73 338.592 345.48 338.391 345.308C338.19 345.13 337.9 345.041 337.52 345.041H336.538V347.074ZM340.894 350.305V349.452H342.359V345.041H340.894V344.188H344.72V345.041H343.255V349.452H344.72V350.305H340.894Z" fill="#9E9E9E"/>
<path d="M384.568 350.443C384.126 350.443 383.738 350.354 383.405 350.175C383.078 349.997 382.817 349.75 382.621 349.435C382.426 349.113 382.311 348.74 382.277 348.315L383.207 348.254C383.247 348.547 383.328 348.794 383.448 348.995C383.569 349.196 383.727 349.348 383.922 349.452C384.118 349.549 384.344 349.598 384.603 349.598C384.856 349.598 385.068 349.567 385.24 349.503C385.413 349.435 385.545 349.337 385.637 349.211C385.729 349.084 385.775 348.932 385.775 348.754C385.775 348.57 385.731 348.409 385.645 348.271C385.559 348.134 385.404 348.007 385.18 347.892C384.956 347.778 384.629 347.66 384.198 347.539C383.779 347.424 383.437 347.295 383.173 347.151C382.909 347.008 382.716 346.83 382.595 346.617C382.475 346.405 382.415 346.141 382.415 345.825C382.415 345.474 382.495 345.167 382.656 344.903C382.822 344.633 383.058 344.423 383.362 344.274C383.672 344.125 384.043 344.05 384.474 344.05C384.899 344.05 385.261 344.133 385.559 344.3C385.864 344.466 386.102 344.699 386.274 344.998C386.452 345.291 386.561 345.635 386.602 346.031L385.671 346.083C385.642 345.848 385.576 345.641 385.473 345.463C385.375 345.285 385.24 345.147 385.068 345.049C384.896 344.946 384.689 344.894 384.448 344.894C384.109 344.894 383.839 344.978 383.638 345.144C383.443 345.305 383.345 345.517 383.345 345.782C383.345 345.96 383.385 346.106 383.466 346.221C383.546 346.336 383.687 346.439 383.888 346.531C384.089 346.623 384.37 346.718 384.732 346.815C385.22 346.948 385.608 347.1 385.895 347.272C386.182 347.444 386.389 347.651 386.515 347.892C386.642 348.134 386.705 348.421 386.705 348.754C386.705 349.087 386.616 349.383 386.438 349.641C386.26 349.894 386.01 350.092 385.688 350.236C385.373 350.374 384.999 350.443 384.568 350.443ZM387.279 350.305L389.071 344.188H390.243L392.035 350.305H391.095L389.657 345.127L388.218 350.305H387.279ZM388.278 348.711L388.554 347.875H390.759L391.035 348.711H388.278ZM394.375 350.305V345.041H392.583V344.188H397.063V345.041H395.271V350.305H394.375Z" fill="#9E9E9E"/>
<path d="M436.584 350.443C436.142 350.443 435.754 350.354 435.421 350.175C435.094 349.997 434.832 349.75 434.637 349.435C434.442 349.113 434.327 348.74 434.292 348.315L435.223 348.254C435.263 348.547 435.343 348.794 435.464 348.995C435.585 349.196 435.743 349.348 435.938 349.452C436.133 349.549 436.36 349.598 436.618 349.598C436.871 349.598 437.084 349.567 437.256 349.503C437.428 349.435 437.56 349.337 437.652 349.211C437.744 349.084 437.79 348.932 437.79 348.754C437.79 348.57 437.747 348.409 437.661 348.271C437.575 348.134 437.42 348.007 437.196 347.892C436.972 347.778 436.644 347.66 436.214 347.539C435.794 347.424 435.453 347.295 435.188 347.151C434.924 347.008 434.732 346.83 434.611 346.617C434.49 346.405 434.43 346.141 434.43 345.825C434.43 345.474 434.511 345.167 434.671 344.903C434.838 344.633 435.073 344.423 435.378 344.274C435.688 344.125 436.058 344.05 436.489 344.05C436.914 344.05 437.276 344.133 437.575 344.3C437.879 344.466 438.118 344.699 438.29 344.998C438.468 345.291 438.577 345.635 438.617 346.031L437.687 346.083C437.658 345.848 437.592 345.641 437.489 345.463C437.391 345.285 437.256 345.147 437.084 345.049C436.911 344.946 436.705 344.894 436.463 344.894C436.125 344.894 435.855 344.978 435.654 345.144C435.458 345.305 435.361 345.517 435.361 345.782C435.361 345.96 435.401 346.106 435.481 346.221C435.562 346.336 435.702 346.439 435.903 346.531C436.104 346.623 436.386 346.718 436.748 346.815C437.236 346.948 437.624 347.1 437.911 347.272C438.198 347.444 438.405 347.651 438.531 347.892C438.657 348.134 438.721 348.421 438.721 348.754C438.721 349.087 438.632 349.383 438.454 349.641C438.276 349.894 438.026 350.092 437.704 350.236C437.388 350.374 437.015 350.443 436.584 350.443ZM441.672 350.443C441.018 350.443 440.506 350.242 440.139 349.839C439.771 349.437 439.587 348.883 439.587 348.177V344.188H440.492V348.211C440.492 348.659 440.593 349.004 440.794 349.245C440.995 349.48 441.288 349.598 441.672 349.598C442.057 349.598 442.35 349.48 442.551 349.245C442.752 349.004 442.853 348.659 442.853 348.211V344.188H443.757V348.177C443.757 348.883 443.573 349.437 443.206 349.839C442.838 350.242 442.327 350.443 441.672 350.443ZM444.839 350.305V344.188H445.942L447.95 349.021V344.188H448.837V350.305H447.734L445.727 345.471V350.305H444.839Z" fill="#9E9E9E"/>
<rect x="90.2344" y="131.919" width="8.61538" height="8.61538" rx="1.4359" fill="#58CCD2"/>
<path d="M104.208 139.227V133.11H105.698C106.238 133.11 106.706 133.23 107.103 133.471C107.505 133.707 107.812 134.054 108.024 134.514C108.243 134.968 108.352 135.522 108.352 136.177C108.352 136.831 108.243 137.386 108.024 137.839C107.812 138.293 107.505 138.638 107.103 138.873C106.706 139.109 106.238 139.227 105.698 139.227H104.208ZM105.112 138.374H105.672C106.23 138.374 106.658 138.193 106.956 137.831C107.261 137.463 107.413 136.912 107.413 136.177C107.413 135.442 107.261 134.89 106.956 134.523C106.658 134.149 106.23 133.963 105.672 133.963H105.112V138.374ZM111.243 139.364C110.755 139.364 110.342 139.241 110.003 138.994C109.67 138.747 109.414 138.385 109.236 137.908C109.058 137.432 108.969 136.854 108.969 136.177C108.969 135.487 109.058 134.905 109.236 134.428C109.414 133.951 109.67 133.589 110.003 133.342C110.342 133.095 110.755 132.972 111.243 132.972C111.731 132.972 112.145 133.095 112.484 133.342C112.823 133.589 113.078 133.951 113.251 134.428C113.429 134.905 113.518 135.487 113.518 136.177C113.518 136.854 113.429 137.432 113.251 137.908C113.078 138.385 112.823 138.747 112.484 138.994C112.145 139.241 111.731 139.364 111.243 139.364ZM111.243 138.52C111.53 138.52 111.772 138.434 111.967 138.262C112.168 138.089 112.32 137.828 112.424 137.478C112.527 137.127 112.579 136.694 112.579 136.177C112.579 135.66 112.527 135.226 112.424 134.876C112.32 134.52 112.168 134.255 111.967 134.083C111.772 133.905 111.53 133.816 111.243 133.816C110.956 133.816 110.712 133.905 110.511 134.083C110.316 134.255 110.166 134.52 110.063 134.876C109.96 135.226 109.908 135.66 109.908 136.177C109.908 136.694 109.96 137.127 110.063 137.478C110.166 137.828 110.316 138.089 110.511 138.262C110.712 138.434 110.956 138.52 111.243 138.52ZM114.721 139.227L114.066 133.11H114.97L115.479 138.486H115.375L116.013 133.799H116.805L117.443 138.486H117.34L117.848 133.11H118.753L118.098 139.227H116.917L116.306 134.747H116.513L115.901 139.227H114.721ZM119.576 139.227V133.11H120.679L122.686 137.943V133.11H123.574V139.227H122.471L120.464 134.393V139.227H119.576ZM125.001 139.227V133.11H125.905V138.882L125.354 138.374H128.826V139.227H125.001ZM131.907 139.364C131.419 139.364 131.005 139.241 130.666 138.994C130.333 138.747 130.077 138.385 129.899 137.908C129.721 137.432 129.632 136.854 129.632 136.177C129.632 135.487 129.721 134.905 129.899 134.428C130.077 133.951 130.333 133.589 130.666 133.342C131.005 133.095 131.419 132.972 131.907 132.972C132.395 132.972 132.808 133.095 133.147 133.342C133.486 133.589 133.742 133.951 133.914 134.428C134.092 134.905 134.181 135.487 134.181 136.177C134.181 136.854 134.092 137.432 133.914 137.908C133.742 138.385 133.486 138.747 133.147 138.994C132.808 139.241 132.395 139.364 131.907 139.364ZM131.907 138.52C132.194 138.52 132.435 138.434 132.63 138.262C132.831 138.089 132.984 137.828 133.087 137.478C133.19 137.127 133.242 136.694 133.242 136.177C133.242 135.66 133.19 135.226 133.087 134.876C132.984 134.52 132.831 134.255 132.63 134.083C132.435 133.905 132.194 133.816 131.907 133.816C131.62 133.816 131.375 133.905 131.174 134.083C130.979 134.255 130.83 134.52 130.726 134.876C130.623 135.226 130.571 135.66 130.571 136.177C130.571 136.694 130.623 137.127 130.726 137.478C130.83 137.828 130.979 138.089 131.174 138.262C131.375 138.434 131.62 138.52 131.907 138.52ZM134.695 139.227L136.487 133.11H137.658L139.45 139.227H138.511L137.073 134.049L135.634 139.227H134.695ZM135.694 137.633L135.97 136.797H138.175L138.451 137.633H135.694ZM140.369 139.227V133.11H141.859C142.399 133.11 142.867 133.23 143.264 133.471C143.666 133.707 143.973 134.054 144.186 134.514C144.404 134.968 144.513 135.522 144.513 136.177C144.513 136.831 144.404 137.386 144.186 137.839C143.973 138.293 143.666 138.638 143.264 138.873C142.867 139.109 142.399 139.227 141.859 139.227H140.369ZM141.274 138.374H141.834C142.391 138.374 142.819 138.193 143.117 137.831C143.422 137.463 143.574 136.912 143.574 136.177C143.574 135.442 143.422 134.89 143.117 134.523C142.819 134.149 142.391 133.963 141.834 133.963H141.274V138.374Z" fill="#9E9E9E"/>
<rect x="162.387" y="131.919" width="8.61538" height="8.61538" rx="1.4359" fill="#9E7DFF"/>
<path d="M177.896 139.364C177.241 139.364 176.73 139.163 176.362 138.761C175.994 138.359 175.811 137.805 175.811 137.099V133.11H176.715V137.133C176.715 137.581 176.816 137.926 177.017 138.167C177.218 138.402 177.511 138.52 177.896 138.52C178.28 138.52 178.573 138.402 178.774 138.167C178.975 137.926 179.076 137.581 179.076 137.133V133.11H179.981V137.099C179.981 137.805 179.797 138.359 179.429 138.761C179.062 139.163 178.55 139.364 177.896 139.364ZM181.218 139.227V133.11H183.113C183.538 133.11 183.909 133.187 184.225 133.342C184.546 133.497 184.793 133.718 184.965 134.006C185.144 134.287 185.233 134.623 185.233 135.014C185.233 135.404 185.144 135.743 184.965 136.03C184.793 136.312 184.546 136.53 184.225 136.685C183.909 136.834 183.538 136.909 183.113 136.909H182.122V139.227H181.218ZM182.122 136.056H183.018C183.455 136.056 183.777 135.967 183.983 135.789C184.19 135.611 184.293 135.353 184.293 135.014C184.293 134.669 184.19 134.408 183.983 134.23C183.777 134.052 183.455 133.963 183.018 133.963H182.122V136.056ZM186.487 139.227V133.11H187.392V138.882L186.84 138.374H190.312V139.227H186.487ZM193.393 139.364C192.905 139.364 192.491 139.241 192.153 138.994C191.819 138.747 191.564 138.385 191.386 137.908C191.208 137.432 191.119 136.854 191.119 136.177C191.119 135.487 191.208 134.905 191.386 134.428C191.564 133.951 191.819 133.589 192.153 133.342C192.491 133.095 192.905 132.972 193.393 132.972C193.881 132.972 194.295 133.095 194.634 133.342C194.973 133.589 195.228 133.951 195.401 134.428C195.579 134.905 195.668 135.487 195.668 136.177C195.668 136.854 195.579 137.432 195.401 137.908C195.228 138.385 194.973 138.747 194.634 138.994C194.295 139.241 193.881 139.364 193.393 139.364ZM193.393 138.52C193.68 138.52 193.922 138.434 194.117 138.262C194.318 138.089 194.47 137.828 194.574 137.478C194.677 137.127 194.729 136.694 194.729 136.177C194.729 135.66 194.677 135.226 194.574 134.876C194.47 134.52 194.318 134.255 194.117 134.083C193.922 133.905 193.68 133.816 193.393 133.816C193.106 133.816 192.862 133.905 192.661 134.083C192.466 134.255 192.316 134.52 192.213 134.876C192.11 135.226 192.058 135.66 192.058 136.177C192.058 136.694 192.11 137.127 192.213 137.478C192.316 137.828 192.466 138.089 192.661 138.262C192.862 138.434 193.106 138.52 193.393 138.52ZM196.181 139.227L197.973 133.11H199.145L200.937 139.227H199.998L198.559 134.049L197.12 139.227H196.181ZM197.181 137.633L197.456 136.797H199.662L199.938 137.633H197.181ZM201.855 139.227V133.11H203.346C203.886 133.11 204.354 133.23 204.75 133.471C205.152 133.707 205.46 134.054 205.672 134.514C205.89 134.968 205.999 135.522 205.999 136.177C205.999 136.831 205.89 137.386 205.672 137.839C205.46 138.293 205.152 138.638 204.75 138.873C204.354 139.109 203.886 139.227 203.346 139.227H201.855ZM202.76 138.374H203.32C203.877 138.374 204.305 138.193 204.604 137.831C204.908 137.463 205.06 136.912 205.06 136.177C205.06 135.442 204.908 134.89 204.604 134.523C204.305 134.149 203.877 133.963 203.32 133.963H202.76V138.374Z" fill="#9E9E9E"/>
<line x1="109.617" y1="332.329" x2="461.412" y2="332.329" stroke="#EEEEEE" stroke-width="0.717949" stroke-dasharray="1.44 1.44"/>
<line x1="109.617" y1="286.383" x2="461.412" y2="286.383" stroke="#EEEEEE" stroke-width="0.717949" stroke-dasharray="1.44 1.44"/>
<line x1="109.617" y1="245.461" x2="461.412" y2="245.461" stroke="#EEEEEE" stroke-width="0.717949" stroke-dasharray="1.44 1.44"/>
<line x1="109.617" y1="205.25" x2="461.412" y2="205.25" stroke="#EEEEEE" stroke-width="0.717949" stroke-dasharray="1.44 1.44"/>
<line x1="109.617" y1="164.336" x2="461.412" y2="164.336" stroke="#EEEEEE" stroke-width="0.717949" stroke-dasharray="1.44 1.44"/>
<g clip-path="url(#clip1_885_6393)">
<rect x="109.617" y="200.586" width="40.4103" height="71.0769" rx="5.74359" fill="#58CCD2"/>
<rect x="109.617" y="273.099" width="40.4103" height="59.5897" rx="5.74359" fill="#9E7DFF"/>
</g>
<g clip-path="url(#clip2_885_6393)">
<rect x="161.516" y="222.125" width="40.4103" height="61.7436" rx="5.74359" fill="#58CCD2"/>
<rect x="161.516" y="285.305" width="40.4103" height="59.5897" rx="5.74359" fill="#9E7DFF"/>
</g>
<g clip-path="url(#clip3_885_6393)">
<rect x="213.41" y="185.51" width="40.4103" height="61.7436" rx="5.74359" fill="#58CCD2"/>
<rect x="213.41" y="248.689" width="40.4103" height="84" rx="5.74359" fill="#9E7DFF"/>
</g>
<g clip-path="url(#clip4_885_6393)">
<rect x="265.309" y="200.586" width="40.4103" height="68.9231" rx="5.74359" fill="#58CCD2"/>
<rect x="265.309" y="270.945" width="40.4103" height="84" rx="5.74359" fill="#9E7DFF"/>
</g>
<g clip-path="url(#clip5_885_6393)">
<rect x="317.207" y="164.688" width="40.4103" height="68.9231" rx="5.74359" fill="#58CCD2"/>
<rect x="317.207" y="235.048" width="40.4103" height="97.641" rx="5.74359" fill="#9E7DFF"/>
</g>
<g clip-path="url(#clip6_885_6393)">
<rect x="369.105" y="224.996" width="40.4103" height="45.2308" rx="5.74359" fill="#58CCD2"/>
<rect x="369.105" y="271.663" width="40.4103" height="97.641" rx="5.74359" fill="#9E7DFF"/>
</g>
<g clip-path="url(#clip7_885_6393)">
<rect x="421" y="210.638" width="40.4103" height="50.2564" rx="5.74359" fill="#58CCD2"/>
<rect x="421" y="262.33" width="40.4103" height="97.641" rx="5.74359" fill="#9E7DFF"/>
</g>
<path d="M128.364 114.825C127.687 114.825 127.108 114.667 126.625 114.352C126.143 114.031 125.774 113.592 125.52 113.036C125.265 112.473 125.138 111.83 125.138 111.106C125.138 110.389 125.265 109.749 125.52 109.186C125.781 108.623 126.156 108.181 126.645 107.859C127.134 107.531 127.721 107.367 128.404 107.367C128.987 107.367 129.48 107.471 129.882 107.678C130.291 107.886 130.612 108.171 130.847 108.533C131.088 108.895 131.255 109.307 131.349 109.769L130.213 109.829C130.133 109.394 129.952 109.042 129.671 108.774C129.389 108.499 128.967 108.362 128.404 108.362C127.908 108.362 127.503 108.486 127.188 108.734C126.873 108.982 126.639 109.313 126.484 109.729C126.337 110.144 126.263 110.603 126.263 111.106C126.263 111.629 126.337 112.094 126.484 112.503C126.639 112.912 126.873 113.237 127.188 113.478C127.51 113.713 127.918 113.83 128.414 113.83C128.803 113.83 129.138 113.746 129.419 113.579C129.701 113.411 129.919 113.183 130.073 112.895C130.234 112.607 130.321 112.289 130.334 111.94H128.424V111.025H131.369V114.664H130.626L130.555 113.056L130.696 113.176C130.622 113.498 130.471 113.783 130.244 114.031C130.016 114.279 129.738 114.473 129.409 114.614C129.088 114.755 128.739 114.825 128.364 114.825ZM132.725 114.664V107.528H135.288C136.146 107.528 136.793 107.682 137.228 107.99C137.664 108.298 137.881 108.787 137.881 109.457C137.881 109.759 137.818 110.024 137.691 110.252C137.563 110.479 137.376 110.66 137.128 110.794C136.886 110.922 136.598 110.989 136.263 110.995L136.253 110.955C136.863 110.969 137.335 111.136 137.67 111.458C138.012 111.773 138.183 112.188 138.183 112.704C138.183 113.354 137.965 113.843 137.53 114.172C137.094 114.5 136.474 114.664 135.67 114.664H132.725ZM133.811 113.689H135.64C136.089 113.689 136.437 113.599 136.685 113.418C136.94 113.23 137.067 112.959 137.067 112.604C137.067 112.255 136.94 111.984 136.685 111.789C136.437 111.595 136.089 111.498 135.64 111.498H133.811V113.689ZM133.811 110.573H135.268C135.744 110.573 136.112 110.483 136.374 110.302C136.635 110.121 136.766 109.866 136.766 109.538C136.766 109.189 136.638 108.931 136.384 108.764C136.136 108.59 135.764 108.503 135.268 108.503H133.811V110.573Z" fill="#9E9E9E"/>
</g>
<rect x="72.641" y="56.641" width="406.359" height="313.744" rx="8.97436" stroke="#EEEEEE" stroke-width="0.717949"/>
</g>
<defs>
<filter id="filter0_d_885_6393" x="70.2812" y="54.2822" width="411.078" height="318.461" filterUnits="userSpaceOnUse" color-interpolation-filters="sRGB">
<feFlood flood-opacity="0" result="BackgroundImageFix"/>
<feColorMatrix in="SourceAlpha" type="matrix" values="0 0 0 0 0 0 0 0 0 0 0 0 0 0 0 0 0 0 127 0" result="hardAlpha"/>
<feOffset/>
<feGaussianBlur stdDeviation="1"/>
<feComposite in2="hardAlpha" operator="out"/>
<feColorMatrix type="matrix" values="0 0 0 0 0 0 0 0 0 0 0 0 0 0 0 0 0 0 0.05 0"/>
<feBlend mode="normal" in2="BackgroundImageFix" result="effect1_dropShadow_885_6393"/>
<feBlend mode="normal" in="SourceGraphic" in2="effect1_dropShadow_885_6393" result="shape"/>
</filter>
<filter id="filter1_di_885_6393" x="366.075" y="97.202" width="45.6664" height="20.1029" filterUnits="userSpaceOnUse" color-interpolation-filters="sRGB">
<feFlood flood-opacity="0" result="BackgroundImageFix"/>
<feColorMatrix in="SourceAlpha" type="matrix" values="0 0 0 0 0 0 0 0 0 0 0 0 0 0 0 0 0 0 127 0" result="hardAlpha"/>
<feOffset/>
<feGaussianBlur stdDeviation="0.358974"/>
<feComposite in2="hardAlpha" operator="out"/>
<feColorMatrix type="matrix" values="0 0 0 0 0 0 0 0 0 0 0 0 0 0 0 0 0 0 0.2 0"/>
<feBlend mode="normal" in2="BackgroundImageFix" result="effect1_dropShadow_885_6393"/>
<feBlend mode="normal" in="SourceGraphic" in2="effect1_dropShadow_885_6393" result="shape"/>
<feColorMatrix in="SourceAlpha" type="matrix" values="0 0 0 0 0 0 0 0 0 0 0 0 0 0 0 0 0 0 127 0" result="hardAlpha"/>
<feOffset dy="0.717949"/>
<feGaussianBlur stdDeviation="0.358974"/>
<feComposite in2="hardAlpha" operator="arithmetic" k2="-1" k3="1"/>
<feColorMatrix type="matrix" values="0 0 0 0 1 0 0 0 0 1 0 0 0 0 1 0 0 0 0.12 0"/>
<feBlend mode="normal" in2="shape" result="effect2_innerShadow_885_6393"/>
</filter>
<clipPath id="clip0_885_6393">
<rect x="73" y="57" width="405.641" height="313.026" rx="8.61538" fill="white"/>
</clipPath>
<clipPath id="clip1_885_6393">
<rect x="109.617" y="200.586" width="40.4103" height="132.103" rx="5.74359" fill="white"/>
</clipPath>
<clipPath id="clip2_885_6393">
<rect x="161.516" y="222.125" width="40.4103" height="110.564" rx="5.74359" fill="white"/>
</clipPath>
<clipPath id="clip3_885_6393">
<rect x="213.41" y="185.51" width="40.4103" height="147.179" rx="5.74359" fill="white"/>
</clipPath>
<clipPath id="clip4_885_6393">
<rect x="265.309" y="200.586" width="40.4103" height="132.103" rx="5.74359" fill="white"/>
</clipPath>
<clipPath id="clip5_885_6393">
<rect x="317.207" y="164.688" width="40.4103" height="168" rx="5.74359" fill="white"/>
</clipPath>
<clipPath id="clip6_885_6393">
<rect x="369.105" y="224.996" width="40.4103" height="107.692" rx="5.74359" fill="white"/>
</clipPath>
<clipPath id="clip7_885_6393">
<rect x="421" y="210.638" width="40.4103" height="122.051" rx="5.74359" fill="white"/>
</clipPath>
</defs>
</svg>
