<svg width="552" height="428" viewBox="0 0 552 428" fill="none" xmlns="http://www.w3.org/2000/svg">
<rect width="552" height="428" rx="12" fill="#F5F5F5"/>
<g filter="url(#filter0_d_885_6338)">
<g clip-path="url(#clip0_885_6338)">
<rect x="73" y="57" width="406.359" height="313.026" rx="8.61538" fill="#FAFAFA"/>
<rect x="79.1012" y="84.6402" width="394.154" height="279.282" rx="5.38461" fill="white" stroke="#EEEEEE" stroke-width="0.717949"/>
<rect x="90.5894" y="249.046" width="371.179" height="50.9744" rx="5.38461" fill="#FAFAFA"/>
<rect x="90.5894" y="249.046" width="371.179" height="50.9744" rx="5.38461" stroke="#EEEEEE" stroke-width="0.717949"/>
<g filter="url(#filter1_i_885_6338)">
<g clip-path="url(#clip1_885_6338)">
<g clip-path="url(#clip2_885_6338)">
<path d="M123.155 265.586H103.975C102.729 265.586 101.719 266.615 101.719 267.883V280.519C101.719 281.788 102.729 282.817 103.975 282.817H123.155C124.401 282.817 125.411 281.788 125.411 280.519V267.883C125.411 266.615 124.401 265.586 123.155 265.586Z" fill="white"/>
<path fill-rule="evenodd" clip-rule="evenodd" d="M101.719 265.586H109.257V282.817H101.719V265.586Z" fill="#249F58"/>
<path fill-rule="evenodd" clip-rule="evenodd" d="M117.871 265.586H125.41V282.817H117.871V265.586Z" fill="#FF6C2D"/>
</g>
</g>
</g>
<path d="M135.307 272.18V264.534H137.763C138.962 264.534 139.884 264.867 140.53 265.535C141.176 266.196 141.499 267.14 141.499 268.367C141.499 269.588 141.18 270.528 140.541 271.189C139.909 271.849 139.005 272.18 137.827 272.18H135.307ZM136.47 271.114H137.763C138.61 271.114 139.242 270.887 139.658 270.435C140.082 269.976 140.293 269.286 140.293 268.367C140.293 267.434 140.082 266.741 139.658 266.289C139.242 265.829 138.61 265.6 137.763 265.6H136.47V271.114ZM144.666 272.309C144.092 272.309 143.633 272.119 143.288 271.738C142.951 271.35 142.782 270.816 142.782 270.134V266.45H143.923V269.843C143.923 270.36 144.013 270.74 144.193 270.984C144.372 271.228 144.645 271.35 145.011 271.35C145.427 271.35 145.751 271.218 145.98 270.952C146.217 270.679 146.336 270.299 146.336 269.81V266.45H147.477V272.18H146.411L146.39 270.683L146.551 270.747C146.451 271.25 146.239 271.638 145.916 271.91C145.593 272.176 145.176 272.309 144.666 272.309ZM151.809 272.309C151.414 272.309 151.062 272.223 150.754 272.05C150.452 271.871 150.219 271.627 150.054 271.318L150.021 272.18H148.955V264.534H150.097V267.258C150.248 267.007 150.47 266.788 150.764 266.601C151.066 266.415 151.414 266.321 151.809 266.321C152.304 266.321 152.735 266.443 153.101 266.687C153.468 266.931 153.748 267.28 153.941 267.732C154.142 268.177 154.243 268.705 154.243 269.315C154.243 269.925 154.142 270.457 153.941 270.909C153.748 271.354 153.468 271.699 153.101 271.943C152.735 272.187 152.304 272.309 151.809 272.309ZM151.626 271.318C152.064 271.318 152.412 271.142 152.671 270.79C152.929 270.431 153.058 269.94 153.058 269.315C153.058 268.69 152.929 268.202 152.671 267.85C152.412 267.491 152.068 267.312 151.637 267.312C151.314 267.312 151.037 267.391 150.808 267.549C150.578 267.707 150.402 267.937 150.28 268.238C150.158 268.533 150.097 268.891 150.097 269.315C150.097 269.724 150.158 270.08 150.28 270.381C150.402 270.683 150.578 270.916 150.808 271.081C151.037 271.239 151.31 271.318 151.626 271.318ZM156.704 272.18C156.331 272.18 156.029 272.083 155.799 271.889C155.57 271.695 155.455 271.386 155.455 270.963V264.534H156.596V270.855C156.596 270.984 156.628 271.081 156.693 271.146C156.765 271.21 156.865 271.243 156.995 271.243H157.447V272.18H156.704ZM158.41 272.18V266.45H159.551V272.18H158.41ZM158.388 265.621V264.48H159.573V265.621H158.388ZM161.26 272.18V266.45H162.305L162.348 267.98L162.208 267.904C162.272 267.531 162.394 267.229 162.574 267C162.753 266.77 162.972 266.601 163.231 266.494C163.489 266.379 163.769 266.321 164.071 266.321C164.501 266.321 164.857 266.418 165.137 266.612C165.424 266.799 165.639 267.057 165.783 267.387C165.934 267.71 166.009 268.08 166.009 268.497V272.18H164.868V268.841C164.868 268.504 164.832 268.22 164.76 267.99C164.688 267.761 164.57 267.585 164.405 267.463C164.239 267.341 164.024 267.28 163.758 267.28C163.356 267.28 163.03 267.413 162.778 267.678C162.527 267.944 162.401 268.331 162.401 268.841V272.18H161.26ZM167.321 273.87L167.86 272.18H167.267V270.823H168.656V272.018L167.978 273.87H167.321ZM172.652 272.18V264.534H173.815V272.18H172.652ZM175.647 272.18V266.45H176.692L176.735 267.969L176.638 267.937C176.717 267.42 176.875 267.043 177.112 266.806C177.356 266.569 177.682 266.45 178.092 266.45H178.641V267.474H178.092C177.804 267.474 177.564 267.52 177.37 267.614C177.176 267.707 177.029 267.85 176.928 268.044C176.835 268.238 176.788 268.489 176.788 268.798V272.18H175.647ZM181.812 272.309C181.252 272.309 180.768 272.187 180.359 271.943C179.957 271.699 179.644 271.35 179.422 270.898C179.206 270.446 179.099 269.918 179.099 269.315C179.099 268.712 179.206 268.188 179.422 267.743C179.644 267.29 179.957 266.942 180.359 266.698C180.761 266.447 181.235 266.321 181.78 266.321C182.297 266.321 182.753 266.443 183.148 266.687C183.543 266.924 183.848 267.269 184.063 267.721C184.286 268.174 184.397 268.719 184.397 269.358V269.649H180.283C180.312 270.209 180.459 270.629 180.725 270.909C180.998 271.189 181.364 271.329 181.823 271.329C182.161 271.329 182.441 271.25 182.663 271.092C182.886 270.934 183.04 270.722 183.126 270.457L184.311 270.532C184.16 271.063 183.862 271.494 183.417 271.824C182.979 272.147 182.444 272.309 181.812 272.309ZM180.283 268.787H183.191C183.155 268.278 183.008 267.901 182.749 267.657C182.498 267.413 182.175 267.29 181.78 267.29C181.371 267.29 181.034 267.42 180.768 267.678C180.509 267.929 180.348 268.299 180.283 268.787ZM186.856 272.18C186.482 272.18 186.181 272.083 185.951 271.889C185.721 271.695 185.606 271.386 185.606 270.963V264.534H186.748V270.855C186.748 270.984 186.78 271.081 186.845 271.146C186.917 271.21 187.017 271.243 187.146 271.243H187.599V272.18H186.856ZM190.24 272.309C189.644 272.309 189.166 272.173 188.808 271.9C188.456 271.627 188.28 271.243 188.28 270.747C188.28 270.252 188.427 269.868 188.721 269.595C189.023 269.315 189.486 269.114 190.111 268.992L192.081 268.615C192.081 268.17 191.977 267.84 191.769 267.624C191.561 267.402 191.252 267.29 190.843 267.29C190.477 267.29 190.19 267.373 189.981 267.538C189.773 267.696 189.63 267.933 189.551 268.249L188.377 268.174C188.484 267.599 188.75 267.147 189.174 266.817C189.604 266.486 190.161 266.321 190.843 266.321C191.618 266.321 192.207 266.529 192.609 266.946C193.018 267.355 193.223 267.933 193.223 268.68V270.909C193.223 271.045 193.244 271.142 193.288 271.2C193.338 271.25 193.417 271.275 193.524 271.275H193.729V272.18C193.693 272.187 193.636 272.194 193.557 272.201C193.478 272.208 193.395 272.212 193.309 272.212C193.065 272.212 192.853 272.173 192.674 272.094C192.501 272.015 192.372 271.885 192.286 271.706C192.2 271.519 192.157 271.271 192.157 270.963L192.275 271.017C192.218 271.268 192.092 271.49 191.898 271.684C191.712 271.878 191.471 272.033 191.177 272.147C190.89 272.255 190.577 272.309 190.24 272.309ZM190.423 271.404C190.768 271.404 191.062 271.34 191.306 271.21C191.55 271.074 191.74 270.887 191.877 270.65C192.013 270.414 192.081 270.144 192.081 269.843V269.477L190.401 269.8C190.057 269.864 189.813 269.968 189.669 270.112C189.533 270.248 189.464 270.424 189.464 270.64C189.464 270.884 189.547 271.074 189.712 271.21C189.884 271.34 190.121 271.404 190.423 271.404ZM194.693 272.18V266.45H195.738L195.781 267.98L195.641 267.904C195.705 267.531 195.827 267.229 196.007 267C196.186 266.77 196.405 266.601 196.664 266.494C196.922 266.379 197.202 266.321 197.504 266.321C197.934 266.321 198.29 266.418 198.57 266.612C198.857 266.799 199.072 267.057 199.216 267.387C199.367 267.71 199.442 268.08 199.442 268.497V272.18H198.301V268.841C198.301 268.504 198.265 268.22 198.193 267.99C198.121 267.761 198.003 267.585 197.838 267.463C197.672 267.341 197.457 267.28 197.191 267.28C196.789 267.28 196.463 267.413 196.211 267.678C195.96 267.944 195.834 268.331 195.834 268.841V272.18H194.693ZM202.965 272.309C202.477 272.309 202.049 272.187 201.683 271.943C201.324 271.699 201.048 271.354 200.854 270.909C200.667 270.457 200.574 269.925 200.574 269.315C200.574 268.705 200.671 268.177 200.865 267.732C201.059 267.28 201.335 266.931 201.694 266.687C202.053 266.443 202.477 266.321 202.965 266.321C203.36 266.321 203.711 266.404 204.02 266.569C204.329 266.734 204.562 266.964 204.72 267.258V264.534H205.862V272.18H204.796L204.763 271.318C204.605 271.627 204.365 271.871 204.042 272.05C203.726 272.223 203.367 272.309 202.965 272.309ZM203.266 271.318C203.575 271.318 203.837 271.239 204.052 271.081C204.268 270.923 204.433 270.694 204.548 270.392C204.663 270.09 204.72 269.731 204.72 269.315C204.72 268.884 204.663 268.522 204.548 268.227C204.433 267.926 204.268 267.7 204.052 267.549C203.837 267.391 203.575 267.312 203.266 267.312C202.807 267.312 202.441 267.491 202.168 267.85C201.895 268.202 201.759 268.69 201.759 269.315C201.759 269.933 201.895 270.421 202.168 270.78C202.441 271.139 202.807 271.318 203.266 271.318Z" fill="#1E1E1E"/>
<path d="M134.699 286.406V285.553H136.164V281.142H134.699V280.289H138.525V281.142H137.06V285.553H138.525V286.406H134.699ZM139.934 286.406V280.289H141.83C142.255 280.289 142.625 280.367 142.941 280.522C143.263 280.677 143.51 280.898 143.682 281.185C143.86 281.467 143.949 281.803 143.949 282.193C143.949 282.584 143.86 282.923 143.682 283.21C143.51 283.491 143.263 283.71 142.941 283.865C142.625 284.014 142.255 284.089 141.83 284.089H140.839V286.406H139.934ZM140.839 283.236H141.735C142.171 283.236 142.493 283.147 142.7 282.969C142.906 282.791 143.01 282.532 143.01 282.193C143.01 281.849 142.906 281.587 142.7 281.409C142.493 281.231 142.171 281.142 141.735 281.142H140.839V283.236ZM152.092 286.544C151.685 286.544 151.328 286.472 151.024 286.329C150.725 286.179 150.487 285.975 150.309 285.717C150.137 285.453 150.036 285.151 150.007 284.812L150.946 284.752C150.987 285.068 151.107 285.306 151.308 285.467C151.509 285.622 151.771 285.7 152.092 285.7C152.454 285.7 152.741 285.591 152.954 285.372C153.166 285.148 153.273 284.833 153.273 284.425C153.273 284.161 153.224 283.931 153.126 283.735C153.034 283.54 152.902 283.394 152.73 283.296C152.558 283.193 152.351 283.141 152.11 283.141C151.886 283.141 151.673 283.198 151.472 283.313C151.277 283.422 151.139 283.575 151.058 283.77L150.102 283.753L150.498 280.289H153.867V281.142H151.282L151.033 283.253L150.852 283.124C150.944 282.951 151.061 282.808 151.205 282.693C151.354 282.578 151.518 282.492 151.696 282.435C151.88 282.371 152.064 282.34 152.247 282.34C152.644 282.34 152.988 282.429 153.281 282.607C153.58 282.785 153.81 283.032 153.97 283.348C154.131 283.664 154.212 284.026 154.212 284.433C154.212 284.841 154.123 285.206 153.945 285.527C153.767 285.849 153.517 286.099 153.195 286.277C152.879 286.455 152.512 286.544 152.092 286.544ZM157.913 286.406V285.114H155.001V284.33L157.818 280.289H158.818V284.278H159.55V285.114H158.818V286.406H157.913ZM155.888 284.278H157.913V281.495L155.888 284.278ZM161.855 286.406V285.269H163.027V286.406H161.855ZM166.608 286.406C166.608 285.78 166.691 285.163 166.858 284.554C167.03 283.939 167.277 283.345 167.599 282.771C167.92 282.196 168.302 281.653 168.744 281.142H165.522V280.289H169.692V281.082C169.319 281.507 168.997 281.929 168.727 282.348C168.457 282.762 168.236 283.181 168.064 283.606C167.891 284.031 167.765 284.476 167.685 284.942C167.604 285.401 167.564 285.889 167.564 286.406H166.608ZM170.602 286.406C170.602 285.953 170.668 285.548 170.8 285.191C170.932 284.835 171.165 284.502 171.498 284.192C171.837 283.876 172.305 283.56 172.902 283.244C173.161 283.112 173.37 282.986 173.531 282.865C173.692 282.745 173.81 282.615 173.884 282.478C173.959 282.34 173.996 282.173 173.996 281.978C173.996 281.777 173.956 281.605 173.876 281.461C173.795 281.317 173.675 281.205 173.514 281.125C173.353 281.039 173.152 280.996 172.911 280.996C172.52 280.996 172.213 281.099 171.989 281.306C171.771 281.513 171.633 281.809 171.575 282.193L170.636 282.133C170.7 281.53 170.926 281.05 171.317 280.694C171.708 280.332 172.239 280.151 172.911 280.151C173.347 280.151 173.715 280.226 174.014 280.375C174.318 280.525 174.548 280.734 174.703 281.004C174.858 281.274 174.935 281.587 174.935 281.943C174.935 282.259 174.884 282.532 174.78 282.762C174.677 282.992 174.505 283.204 174.263 283.399C174.022 283.595 173.692 283.804 173.273 284.028C172.922 284.218 172.629 284.405 172.394 284.588C172.164 284.766 171.989 284.939 171.868 285.105C171.754 285.266 171.69 285.415 171.679 285.553H174.944V286.406H170.602ZM177.353 286.406V285.269H178.525V286.406H177.353ZM182.872 286.406V282.047H181.304V281.28H182.08C182.304 281.28 182.484 281.249 182.622 281.185C182.76 281.116 182.861 281.01 182.924 280.867C182.987 280.723 183.019 280.531 183.019 280.289H183.777V286.406H182.872ZM181.003 286.406V285.553H185.207V286.406H181.003ZM188.271 286.544C187.851 286.544 187.475 286.475 187.142 286.337C186.815 286.199 186.556 285.996 186.367 285.726C186.177 285.456 186.082 285.123 186.082 284.726C186.082 284.284 186.214 283.916 186.479 283.623C186.749 283.331 187.108 283.135 187.556 283.038L187.573 283.21C187.211 283.118 186.918 282.96 186.694 282.736C186.47 282.512 186.358 282.211 186.358 281.831C186.358 281.51 186.438 281.223 186.599 280.97C186.766 280.717 186.993 280.519 187.28 280.375C187.567 280.226 187.897 280.151 188.271 280.151C188.644 280.151 188.974 280.226 189.261 280.375C189.554 280.519 189.781 280.717 189.942 280.97C190.103 281.223 190.183 281.51 190.183 281.831C190.183 282.211 190.071 282.512 189.847 282.736C189.629 282.96 189.336 283.118 188.968 283.21L188.986 283.038C189.434 283.141 189.79 283.339 190.054 283.632C190.324 283.919 190.459 284.284 190.459 284.726C190.459 285.123 190.364 285.456 190.175 285.726C189.985 285.996 189.727 286.199 189.399 286.337C189.072 286.475 188.696 286.544 188.271 286.544ZM188.271 285.7C188.632 285.7 188.931 285.617 189.167 285.45C189.402 285.278 189.52 285.013 189.52 284.657C189.52 284.324 189.414 284.06 189.201 283.865C188.994 283.664 188.684 283.563 188.271 283.563C187.863 283.563 187.553 283.664 187.34 283.865C187.128 284.06 187.021 284.324 187.021 284.657C187.021 285.013 187.139 285.278 187.375 285.45C187.61 285.617 187.909 285.7 188.271 285.7ZM188.271 282.753C188.564 282.753 188.799 282.679 188.977 282.529C189.155 282.38 189.244 282.156 189.244 281.857C189.244 281.593 189.155 281.383 188.977 281.228C188.805 281.073 188.569 280.996 188.271 280.996C187.972 280.996 187.734 281.073 187.556 281.228C187.383 281.383 187.297 281.593 187.297 281.857C187.297 282.156 187.386 282.38 187.564 282.529C187.742 282.679 187.978 282.753 188.271 282.753ZM193.385 286.544C192.713 286.544 192.199 286.383 191.843 286.062C191.487 285.74 191.294 285.318 191.265 284.795L192.187 284.735C192.222 285.085 192.348 285.335 192.566 285.484C192.79 285.628 193.066 285.7 193.393 285.7C193.617 285.7 193.827 285.665 194.022 285.596C194.218 285.527 194.373 285.418 194.488 285.269C194.608 285.12 194.668 284.919 194.668 284.666C194.668 284.419 194.614 284.215 194.505 284.054C194.401 283.893 194.252 283.776 194.057 283.701C193.867 283.621 193.649 283.58 193.402 283.58H192.928V282.771H193.402C193.597 282.771 193.775 282.742 193.936 282.684C194.097 282.627 194.223 282.532 194.315 282.4C194.413 282.268 194.462 282.099 194.462 281.892C194.462 281.593 194.37 281.369 194.186 281.22C194.008 281.07 193.752 280.996 193.419 280.996C193.075 280.996 192.813 281.068 192.635 281.211C192.463 281.355 192.357 281.553 192.316 281.806L191.386 281.745C191.449 281.269 191.653 280.884 191.998 280.591C192.348 280.298 192.825 280.151 193.428 280.151C193.83 280.151 194.177 280.22 194.47 280.358C194.769 280.49 194.999 280.68 195.16 280.927C195.32 281.174 195.401 281.47 195.401 281.814C195.401 282.193 195.28 282.501 195.039 282.736C194.803 282.966 194.459 283.124 194.005 283.21V283.046C194.499 283.104 194.89 283.282 195.177 283.58C195.464 283.873 195.608 284.244 195.608 284.692C195.608 285.082 195.513 285.415 195.323 285.691C195.139 285.967 194.878 286.179 194.539 286.329C194.206 286.472 193.821 286.544 193.385 286.544ZM198.016 286.406V285.269H199.188V286.406H198.016ZM203.751 280.151C204.222 280.151 204.621 280.258 204.949 280.47C205.282 280.683 205.531 280.993 205.698 281.401C205.87 281.809 205.957 282.305 205.957 282.891C205.957 283.397 205.913 283.87 205.827 284.313C205.741 284.755 205.603 285.143 205.414 285.476C205.224 285.809 204.974 286.07 204.664 286.26C204.354 286.449 203.972 286.544 203.518 286.544C203.139 286.544 202.821 286.484 202.562 286.363C202.309 286.237 202.103 286.062 201.942 285.838C201.787 285.614 201.669 285.358 201.589 285.071L202.519 284.993C202.582 285.206 202.688 285.378 202.838 285.51C202.993 285.637 203.22 285.7 203.518 285.7C203.829 285.7 204.096 285.611 204.32 285.433C204.544 285.255 204.716 284.985 204.837 284.623C204.963 284.261 205.032 283.799 205.043 283.236L205.267 283.27C205.21 283.471 205.104 283.658 204.949 283.83C204.793 284.003 204.601 284.143 204.371 284.252C204.142 284.356 203.877 284.407 203.579 284.407C203.177 284.407 202.826 284.324 202.528 284.158C202.229 283.985 201.996 283.744 201.83 283.434C201.663 283.118 201.58 282.753 201.58 282.34C201.58 281.886 201.672 281.498 201.856 281.177C202.039 280.849 202.292 280.597 202.614 280.419C202.941 280.241 203.32 280.151 203.751 280.151ZM203.751 281.004C203.372 281.004 203.07 281.119 202.846 281.349C202.628 281.579 202.519 281.903 202.519 282.323C202.519 282.707 202.622 283.015 202.829 283.244C203.042 283.474 203.326 283.589 203.682 283.589C203.941 283.589 204.167 283.537 204.363 283.434C204.564 283.331 204.719 283.184 204.828 282.995C204.943 282.805 205 282.581 205 282.323C205 282.07 204.949 281.843 204.845 281.642C204.747 281.441 204.604 281.286 204.414 281.177C204.231 281.062 204.009 281.004 203.751 281.004ZM206.763 286.406C206.763 285.953 206.829 285.548 206.961 285.191C207.093 284.835 207.326 284.502 207.659 284.192C207.998 283.876 208.466 283.56 209.063 283.244C209.322 283.112 209.531 282.986 209.692 282.865C209.853 282.745 209.971 282.615 210.045 282.478C210.12 282.34 210.157 282.173 210.157 281.978C210.157 281.777 210.117 281.605 210.037 281.461C209.956 281.317 209.836 281.205 209.675 281.125C209.514 281.039 209.313 280.996 209.072 280.996C208.681 280.996 208.374 281.099 208.15 281.306C207.932 281.513 207.794 281.809 207.737 282.193L206.797 282.133C206.861 281.53 207.088 281.05 207.478 280.694C207.869 280.332 208.4 280.151 209.072 280.151C209.508 280.151 209.876 280.226 210.175 280.375C210.479 280.525 210.709 280.734 210.864 281.004C211.019 281.274 211.097 281.587 211.097 281.943C211.097 282.259 211.045 282.532 210.941 282.762C210.838 282.992 210.666 283.204 210.425 283.399C210.183 283.595 209.853 283.804 209.434 284.028C209.083 284.218 208.79 284.405 208.555 284.588C208.325 284.766 208.15 284.939 208.029 285.105C207.915 285.266 207.851 285.415 207.84 285.553H211.105V286.406H206.763Z" fill="#9E9E9E"/>
<path d="M445.113 278.138L447.088 276.409L448.301 275.354C448.811 274.907 448.811 274.18 448.301 273.733L445.113 270.944C444.694 270.578 443.981 270.842 443.981 271.353L443.981 274.374L443.981 277.729C443.981 278.245 444.694 278.504 445.113 278.138Z" fill="#BDBDBD"/>
<rect x="90.2305" y="311.867" width="371.897" height="0.717949" rx="0.358974" fill="#EEEEEE"/>
<path d="M126.989 335.797V328.66H128.075V332.098L127.552 331.716H131.894L131.372 332.098V328.66H132.457V335.797H131.372V332.319L131.894 332.701H127.552L128.075 332.319V335.797H126.989ZM134.277 337.305V336.43H134.93C135.111 336.43 135.245 336.403 135.333 336.35C135.42 336.296 135.487 336.206 135.534 336.078L135.704 335.636H135.373L133.443 330.45H134.569L136.036 334.651L137.433 330.45H138.569L136.438 336.42C136.331 336.728 136.17 336.953 135.956 337.093C135.748 337.234 135.456 337.305 135.081 337.305H134.277ZM142.097 335.917C141.728 335.917 141.4 335.837 141.112 335.676C140.83 335.509 140.612 335.281 140.458 334.993L140.428 335.797H139.433V328.66H140.499V331.203C140.639 330.969 140.847 330.765 141.122 330.59C141.403 330.416 141.728 330.329 142.097 330.329C142.559 330.329 142.961 330.443 143.303 330.671C143.645 330.899 143.906 331.224 144.087 331.646C144.275 332.061 144.368 332.554 144.368 333.123C144.368 333.693 144.275 334.189 144.087 334.611C143.906 335.026 143.645 335.348 143.303 335.576C142.961 335.804 142.559 335.917 142.097 335.917ZM141.926 334.993C142.335 334.993 142.66 334.829 142.901 334.5C143.142 334.165 143.263 333.706 143.263 333.123C143.263 332.54 143.142 332.085 142.901 331.756C142.66 331.421 142.338 331.254 141.936 331.254C141.634 331.254 141.376 331.327 141.162 331.475C140.948 331.622 140.783 331.837 140.669 332.118C140.556 332.393 140.499 332.728 140.499 333.123C140.499 333.505 140.556 333.837 140.669 334.118C140.783 334.4 140.948 334.618 141.162 334.772C141.376 334.919 141.631 334.993 141.926 334.993ZM145.45 335.797V330.45H146.425L146.465 331.867L146.375 331.837C146.449 331.354 146.596 331.002 146.817 330.781C147.045 330.56 147.35 330.45 147.732 330.45H148.244V331.404H147.732C147.464 331.404 147.239 331.448 147.058 331.535C146.877 331.622 146.74 331.756 146.646 331.937C146.559 332.118 146.516 332.353 146.516 332.641V335.797H145.45ZM149.121 335.797V330.45H150.187V335.797H149.121ZM149.101 329.676V328.61H150.207V329.676H149.101ZM153.494 335.917C153.039 335.917 152.64 335.804 152.298 335.576C151.963 335.348 151.705 335.026 151.524 334.611C151.35 334.189 151.263 333.693 151.263 333.123C151.263 332.554 151.354 332.061 151.534 331.646C151.715 331.224 151.973 330.899 152.308 330.671C152.643 330.443 153.039 330.329 153.494 330.329C153.863 330.329 154.191 330.406 154.48 330.56C154.768 330.714 154.985 330.929 155.133 331.203V328.66H156.198V335.797H155.203L155.173 334.993C155.026 335.281 154.801 335.509 154.5 335.676C154.205 335.837 153.87 335.917 153.494 335.917ZM153.776 334.993C154.064 334.993 154.309 334.919 154.51 334.772C154.711 334.624 154.865 334.41 154.972 334.128C155.079 333.847 155.133 333.512 155.133 333.123C155.133 332.721 155.079 332.383 154.972 332.108C154.865 331.827 154.711 331.616 154.51 331.475C154.309 331.327 154.064 331.254 153.776 331.254C153.347 331.254 153.005 331.421 152.751 331.756C152.496 332.085 152.369 332.54 152.369 333.123C152.369 333.7 152.496 334.155 152.751 334.49C153.005 334.825 153.347 334.993 153.776 334.993ZM162.174 335.797L159.601 328.66H160.757L162.858 334.591L164.959 328.66H166.114L163.531 335.797H162.174ZM166.939 335.797V328.66H169.603C170.42 328.66 171.057 328.858 171.513 329.253C171.968 329.642 172.196 330.185 172.196 330.882C172.196 331.344 172.092 331.746 171.885 332.088C171.677 332.423 171.379 332.681 170.99 332.862C170.608 333.036 170.146 333.123 169.603 333.123H168.025V335.797H166.939ZM168.025 332.138H169.573C170.062 332.138 170.434 332.034 170.688 331.827C170.943 331.612 171.07 331.297 171.07 330.882C171.07 330.473 170.943 330.168 170.688 329.967C170.434 329.759 170.062 329.656 169.573 329.656H168.025V332.138ZM173.349 335.797V328.66H174.726L178.023 334.48V328.66H179.108V335.797H177.681L174.435 330.108V335.797H173.349Z" fill="#0D0D0D"/>
<path d="M126.332 349.586L128.124 343.469H129.295L131.087 349.586H130.148L128.71 344.408L127.271 349.586H126.332ZM127.331 347.992L127.607 347.156H129.812L130.088 347.992H127.331ZM132.135 349.586V343.469H133.04V349.241L132.488 348.733H135.96V349.586H132.135ZM137.301 349.586V343.469H138.206V349.241L137.654 348.733H141.126V349.586H137.301ZM144.207 349.724C143.719 349.724 143.305 349.6 142.967 349.353C142.633 349.106 142.378 348.745 142.2 348.268C142.022 347.791 141.933 347.214 141.933 346.536C141.933 345.847 142.022 345.264 142.2 344.787C142.378 344.31 142.633 343.949 142.967 343.702C143.305 343.455 143.719 343.331 144.207 343.331C144.695 343.331 145.109 343.455 145.448 343.702C145.787 343.949 146.042 344.31 146.215 344.787C146.393 345.264 146.482 345.847 146.482 346.536C146.482 347.214 146.393 347.791 146.215 348.268C146.042 348.745 145.787 349.106 145.448 349.353C145.109 349.6 144.695 349.724 144.207 349.724ZM144.207 348.879C144.494 348.879 144.736 348.793 144.931 348.621C145.132 348.449 145.284 348.187 145.388 347.837C145.491 347.487 145.543 347.053 145.543 346.536C145.543 346.019 145.491 345.586 145.388 345.235C145.284 344.879 145.132 344.615 144.931 344.443C144.736 344.265 144.494 344.175 144.207 344.175C143.92 344.175 143.676 344.265 143.475 344.443C143.28 344.615 143.13 344.879 143.027 345.235C142.924 345.586 142.872 346.019 142.872 346.536C142.872 347.053 142.924 347.487 143.027 347.837C143.13 348.187 143.28 348.449 143.475 348.621C143.676 348.793 143.92 348.879 144.207 348.879ZM147.684 349.586L147.03 343.469H147.934L148.443 348.845H148.339L148.977 344.158H149.769L150.407 348.845H150.304L150.812 343.469H151.716L151.062 349.586H149.881L149.27 345.106H149.476L148.865 349.586H147.684ZM152.799 349.586V343.469H153.703V349.241L153.152 348.733H156.624V349.586H152.799ZM157.792 349.586V348.733H159.257V344.322H157.792V343.469H161.617V344.322H160.153V348.733H161.617V349.586H157.792ZM164.948 349.724C164.506 349.724 164.118 349.635 163.785 349.457C163.458 349.279 163.196 349.032 163.001 348.716C162.806 348.394 162.691 348.021 162.657 347.596L163.587 347.535C163.627 347.828 163.708 348.075 163.828 348.276C163.949 348.477 164.107 348.63 164.302 348.733C164.497 348.831 164.724 348.879 164.983 348.879C165.235 348.879 165.448 348.848 165.62 348.785C165.793 348.716 165.925 348.618 166.017 348.492C166.108 348.365 166.154 348.213 166.154 348.035C166.154 347.851 166.111 347.691 166.025 347.553C165.939 347.415 165.784 347.289 165.56 347.174C165.336 347.059 165.009 346.941 164.578 346.82C164.158 346.706 163.817 346.576 163.553 346.433C163.288 346.289 163.096 346.111 162.975 345.899C162.855 345.686 162.794 345.422 162.794 345.106C162.794 344.756 162.875 344.448 163.036 344.184C163.202 343.914 163.438 343.705 163.742 343.555C164.052 343.406 164.423 343.331 164.853 343.331C165.278 343.331 165.64 343.414 165.939 343.581C166.243 343.748 166.482 343.98 166.654 344.279C166.832 344.572 166.941 344.916 166.981 345.313L166.051 345.364C166.022 345.129 165.956 344.922 165.853 344.744C165.755 344.566 165.62 344.428 165.448 344.331C165.276 344.227 165.069 344.175 164.828 344.175C164.489 344.175 164.219 344.259 164.018 344.425C163.822 344.586 163.725 344.799 163.725 345.063C163.725 345.241 163.765 345.387 163.845 345.502C163.926 345.617 164.067 345.721 164.268 345.812C164.469 345.904 164.75 345.999 165.112 346.097C165.6 346.229 165.988 346.381 166.275 346.553C166.562 346.726 166.769 346.932 166.895 347.174C167.022 347.415 167.085 347.702 167.085 348.035C167.085 348.368 166.996 348.664 166.818 348.923C166.64 349.175 166.39 349.373 166.068 349.517C165.752 349.655 165.379 349.724 164.948 349.724ZM169.589 349.586V344.322H167.797V343.469H172.277V344.322H170.485V349.586H169.589Z" fill="#9E9E9E"/>
<rect x="90.2305" y="324.078" width="28.7179" height="28.7179" rx="5.74359" fill="#9E7DFF" fill-opacity="0.2"/>
<rect x="90.5894" y="324.437" width="28" height="28" rx="5.38461" stroke="#9E7DFF" stroke-opacity="0.5" stroke-width="0.717949"/>
<path d="M108.378 334.65L101.354 341.674C101.091 341.937 100.648 341.901 100.433 341.59C99.6907 340.507 99.2539 339.227 99.2539 337.911V335.284C99.2539 334.793 99.6248 334.237 100.08 334.052L103.412 332.687C104.166 332.376 105.003 332.376 105.757 332.687L108.18 333.675C108.575 333.836 108.677 334.351 108.378 334.65Z" fill="#9E7DFF"/>
<path d="M108.939 335.47C109.328 335.141 109.92 335.422 109.92 335.931V337.911C109.92 340.837 107.796 343.577 104.895 344.378C104.697 344.432 104.482 344.432 104.278 344.378C103.429 344.139 102.639 343.738 101.963 343.212C101.676 342.99 101.646 342.572 101.897 342.314C103.201 340.98 107.019 337.091 108.939 335.47Z" fill="#9E7DFF" fill-opacity="0.5"/>
<rect x="388.359" y="326.945" width="73.7692" height="22.9744" rx="5.74359" fill="#FAFAFA"/>
<path d="M402.898 341.593C402.208 341.593 401.615 341.446 401.119 341.151C400.623 340.85 400.241 340.421 399.973 339.865C399.705 339.308 399.571 338.645 399.571 337.874C399.571 337.104 399.705 336.44 399.973 335.884C400.241 335.321 400.623 334.889 401.119 334.588C401.615 334.286 402.208 334.135 402.898 334.135C403.595 334.135 404.191 334.286 404.687 334.588C405.19 334.889 405.572 335.321 405.833 335.884C406.101 336.44 406.235 337.104 406.235 337.874C406.235 338.645 406.101 339.308 405.833 339.865C405.572 340.421 405.19 340.85 404.687 341.151C404.191 341.446 403.595 341.593 402.898 341.593ZM402.898 340.598C403.36 340.598 403.756 340.491 404.084 340.277C404.419 340.062 404.674 339.754 404.848 339.352C405.022 338.943 405.109 338.451 405.109 337.874C405.109 337.298 405.022 336.806 404.848 336.397C404.674 335.988 404.419 335.677 404.084 335.462C403.756 335.241 403.36 335.13 402.898 335.13C402.442 335.13 402.05 335.241 401.722 335.462C401.394 335.677 401.139 335.988 400.958 336.397C400.784 336.806 400.697 337.298 400.697 337.874C400.697 338.451 400.784 338.943 400.958 339.352C401.139 339.754 401.394 340.062 401.722 340.277C402.05 340.491 402.442 340.598 402.898 340.598ZM407.394 341.433V334.296H412.028V335.291H407.907L408.48 334.698V337.975L407.907 337.462H411.847V338.427H407.907L408.48 337.915V341.433H407.394ZM413.195 341.433V334.296H417.829V335.291H413.708L414.281 334.698V337.975L413.708 337.462H417.648V338.427H413.708L414.281 337.915V341.433H413.195Z" fill="#9E9E9E"/>
<g filter="url(#filter2_di_885_6338)">
<path d="M427.742 332.689C427.742 330.707 429.349 329.1 431.332 329.1H456.383C458.366 329.1 459.973 330.707 459.973 332.689V344.177C459.973 346.159 458.366 347.766 456.383 347.766H431.332C429.349 347.766 427.742 346.159 427.742 344.177V332.689Z" fill="white" shape-rendering="crispEdges"/>
<path d="M440.129 341.593C439.438 341.593 438.845 341.446 438.35 341.151C437.854 340.85 437.472 340.421 437.204 339.865C436.936 339.308 436.802 338.645 436.802 337.874C436.802 337.104 436.936 336.44 437.204 335.884C437.472 335.321 437.854 334.889 438.35 334.588C438.845 334.286 439.438 334.135 440.129 334.135C440.825 334.135 441.422 334.286 441.918 334.588C442.42 334.889 442.802 335.321 443.064 335.884C443.332 336.44 443.466 337.104 443.466 337.874C443.466 338.645 443.332 339.308 443.064 339.865C442.802 340.421 442.42 340.85 441.918 341.151C441.422 341.446 440.825 341.593 440.129 341.593ZM440.129 340.598C440.591 340.598 440.986 340.491 441.315 340.277C441.65 340.062 441.904 339.754 442.079 339.352C442.253 338.943 442.34 338.451 442.34 337.874C442.34 337.298 442.253 336.806 442.079 336.397C441.904 335.988 441.65 335.677 441.315 335.462C440.986 335.241 440.591 335.13 440.129 335.13C439.673 335.13 439.281 335.241 438.953 335.462C438.624 335.677 438.37 335.988 438.189 336.397C438.014 336.806 437.927 337.298 437.927 337.874C437.927 338.451 438.014 338.943 438.189 339.352C438.37 339.754 438.624 340.062 438.953 340.277C439.281 340.491 439.673 340.598 440.129 340.598ZM444.625 341.433V334.296H446.002L449.299 340.116V334.296H450.384V341.433H448.957L445.71 335.744V341.433H444.625Z" fill="#0D0D0D"/>
</g>
<rect x="323.41" y="327.304" width="56.5128" height="22.2564" rx="5.38461" fill="#FAFAFA"/>
<rect x="323.41" y="327.304" width="56.5128" height="22.2564" rx="5.38461" stroke="#EEEEEE" stroke-width="0.717949"/>
<path d="M335.106 341.593C334.536 341.593 334.04 341.49 333.618 341.282C333.202 341.074 332.874 340.786 332.633 340.417C332.392 340.049 332.251 339.62 332.211 339.131L333.326 339.061C333.373 339.396 333.47 339.68 333.618 339.915C333.765 340.143 333.963 340.317 334.211 340.438C334.466 340.551 334.77 340.608 335.126 340.608C335.434 340.608 335.695 340.572 335.91 340.498C336.131 340.417 336.298 340.3 336.412 340.146C336.526 339.992 336.583 339.804 336.583 339.583C336.583 339.382 336.533 339.205 336.432 339.05C336.338 338.89 336.154 338.746 335.879 338.618C335.611 338.484 335.216 338.354 334.693 338.226C334.124 338.086 333.668 337.931 333.326 337.764C332.985 337.596 332.737 337.389 332.583 337.141C332.435 336.886 332.362 336.574 332.362 336.206C332.362 335.797 332.459 335.439 332.653 335.13C332.854 334.816 333.139 334.571 333.507 334.397C333.876 334.222 334.318 334.135 334.834 334.135C335.377 334.135 335.839 334.236 336.221 334.437C336.61 334.638 336.915 334.913 337.136 335.261C337.364 335.61 337.504 336.008 337.558 336.457L336.442 336.518C336.409 336.243 336.325 336.002 336.191 335.794C336.057 335.579 335.876 335.415 335.648 335.301C335.42 335.181 335.142 335.12 334.814 335.12C334.399 335.12 334.07 335.218 333.829 335.412C333.594 335.6 333.477 335.851 333.477 336.166C333.477 336.367 333.524 336.538 333.618 336.678C333.718 336.812 333.893 336.93 334.141 337.03C334.395 337.131 334.754 337.238 335.216 337.352C335.833 337.493 336.322 337.667 336.684 337.874C337.052 338.075 337.313 338.313 337.468 338.588C337.622 338.863 337.699 339.174 337.699 339.523C337.699 339.945 337.588 340.314 337.367 340.629C337.153 340.937 336.851 341.175 336.462 341.342C336.074 341.51 335.621 341.593 335.106 341.593ZM341.317 341.553C340.795 341.553 340.342 341.439 339.96 341.211C339.585 340.984 339.294 340.659 339.086 340.237C338.885 339.814 338.784 339.322 338.784 338.759C338.784 338.196 338.885 337.707 339.086 337.291C339.294 336.869 339.585 336.544 339.96 336.317C340.336 336.082 340.778 335.965 341.287 335.965C341.77 335.965 342.195 336.079 342.564 336.306C342.932 336.528 343.217 336.849 343.418 337.271C343.626 337.694 343.73 338.203 343.73 338.799V339.071H339.89C339.917 339.593 340.054 339.985 340.302 340.247C340.557 340.508 340.899 340.639 341.327 340.639C341.642 340.639 341.904 340.565 342.111 340.417C342.319 340.27 342.463 340.072 342.544 339.824L343.649 339.895C343.509 340.391 343.23 340.793 342.815 341.101C342.406 341.402 341.907 341.553 341.317 341.553ZM339.89 338.266H342.604C342.57 337.791 342.433 337.439 342.192 337.211C341.957 336.983 341.656 336.869 341.287 336.869C340.905 336.869 340.59 336.99 340.342 337.231C340.101 337.466 339.95 337.811 339.89 338.266ZM346.663 341.433C346.154 341.433 345.779 341.315 345.538 341.081C345.296 340.846 345.176 340.481 345.176 339.985V334.829H346.241V339.905C346.241 340.153 346.295 340.324 346.402 340.417C346.509 340.511 346.673 340.558 346.895 340.558H347.658V341.433H346.663ZM344.362 336.96V336.085H347.658V336.96H344.362ZM349.91 341.433C349.401 341.433 349.025 341.315 348.784 341.081C348.543 340.846 348.422 340.481 348.422 339.985V334.829H349.488V339.905C349.488 340.153 349.541 340.324 349.649 340.417C349.756 340.511 349.92 340.558 350.141 340.558H350.905V341.433H349.91ZM347.608 336.96V336.085H350.905V336.96H347.608ZM351.916 341.433V336.085H352.981V341.433H351.916ZM351.896 335.311V334.246H353.001V335.311H351.896ZM354.576 341.433V336.085H355.551L355.591 337.513L355.46 337.442C355.521 337.094 355.635 336.812 355.802 336.598C355.97 336.384 356.174 336.226 356.415 336.126C356.656 336.018 356.918 335.965 357.199 335.965C357.601 335.965 357.933 336.055 358.194 336.236C358.462 336.41 358.663 336.652 358.797 336.96C358.938 337.261 359.008 337.606 359.008 337.995V341.433H357.943V338.317C357.943 338.002 357.91 337.737 357.843 337.523C357.776 337.308 357.665 337.144 357.511 337.03C357.357 336.916 357.156 336.859 356.908 336.859C356.533 336.859 356.228 336.983 355.993 337.231C355.759 337.479 355.641 337.841 355.641 338.317V341.433H354.576ZM362.548 343.061C362.125 343.061 361.753 342.997 361.432 342.87C361.11 342.743 360.846 342.562 360.638 342.327C360.43 342.099 360.289 341.831 360.216 341.523L361.321 341.453C361.395 341.674 361.522 341.848 361.703 341.975C361.891 342.109 362.172 342.176 362.548 342.176C362.99 342.176 363.328 342.083 363.563 341.895C363.804 341.707 363.925 341.423 363.925 341.041V340.267C363.797 340.541 363.593 340.759 363.311 340.92C363.03 341.081 362.715 341.161 362.367 341.161C361.918 341.161 361.519 341.051 361.171 340.83C360.822 340.608 360.551 340.304 360.356 339.915C360.162 339.526 360.065 339.077 360.065 338.568C360.065 338.052 360.159 337.6 360.346 337.211C360.541 336.822 360.809 336.518 361.15 336.296C361.499 336.075 361.891 335.965 362.326 335.965C362.708 335.965 363.043 336.052 363.332 336.226C363.626 336.4 363.837 336.635 363.965 336.93V336.085H364.99V341.01C364.99 341.453 364.889 341.825 364.688 342.126C364.494 342.434 364.213 342.666 363.844 342.82C363.482 342.981 363.05 343.061 362.548 343.061ZM362.537 340.257C362.953 340.257 363.285 340.106 363.533 339.804C363.787 339.503 363.918 339.087 363.925 338.558C363.931 338.21 363.878 337.911 363.764 337.663C363.65 337.409 363.486 337.214 363.271 337.08C363.064 336.94 362.819 336.869 362.537 336.869C362.102 336.869 361.764 337.023 361.522 337.332C361.288 337.633 361.171 338.042 361.171 338.558C361.171 339.081 361.291 339.496 361.532 339.804C361.78 340.106 362.115 340.257 362.537 340.257ZM368.464 341.553C367.962 341.553 367.536 341.476 367.188 341.322C366.846 341.168 366.581 340.957 366.394 340.689C366.206 340.414 366.099 340.099 366.072 339.744L367.168 339.694C367.221 339.989 367.349 340.223 367.55 340.397C367.751 340.572 368.056 340.659 368.464 340.659C368.799 340.659 369.064 340.605 369.258 340.498C369.453 340.391 369.55 340.22 369.55 339.985C369.55 339.858 369.516 339.751 369.449 339.664C369.389 339.57 369.268 339.493 369.087 339.432C368.907 339.365 368.639 339.302 368.283 339.241C367.754 339.141 367.339 339.024 367.037 338.89C366.735 338.756 366.521 338.585 366.394 338.377C366.266 338.169 366.203 337.918 366.203 337.623C366.203 337.134 366.384 336.735 366.746 336.427C367.114 336.119 367.643 335.965 368.334 335.965C368.796 335.965 369.185 336.045 369.5 336.206C369.815 336.36 370.059 336.571 370.233 336.839C370.414 337.101 370.528 337.395 370.575 337.724L369.479 337.784C369.446 337.596 369.379 337.436 369.278 337.302C369.185 337.161 369.057 337.054 368.897 336.98C368.736 336.899 368.545 336.859 368.324 336.859C367.982 336.859 367.727 336.926 367.56 337.06C367.392 337.194 367.308 337.369 367.308 337.583C367.308 337.744 367.345 337.874 367.419 337.975C367.499 338.075 367.627 338.159 367.801 338.226C367.975 338.287 368.206 338.34 368.494 338.387C369.051 338.481 369.486 338.598 369.801 338.739C370.116 338.873 370.337 339.04 370.465 339.241C370.592 339.442 370.655 339.687 370.655 339.975C370.655 340.31 370.562 340.595 370.374 340.83C370.186 341.064 369.928 341.245 369.6 341.372C369.272 341.493 368.893 341.553 368.464 341.553Z" fill="#0D0D0D"/>
<path d="M139.857 209.005C139.415 209.005 139.028 208.916 138.694 208.738C138.367 208.56 138.106 208.313 137.91 207.997C137.715 207.675 137.6 207.302 137.566 206.877L138.496 206.817C138.536 207.11 138.617 207.357 138.737 207.558C138.858 207.759 139.016 207.911 139.211 208.014C139.407 208.112 139.633 208.161 139.892 208.161C140.145 208.161 140.357 208.129 140.529 208.066C140.702 207.997 140.834 207.899 140.926 207.773C141.018 207.647 141.064 207.494 141.064 207.316C141.064 207.133 141.021 206.972 140.934 206.834C140.848 206.696 140.693 206.57 140.469 206.455C140.245 206.34 139.918 206.222 139.487 206.102C139.068 205.987 138.726 205.858 138.462 205.714C138.198 205.57 138.005 205.392 137.885 205.18C137.764 204.967 137.704 204.703 137.704 204.387C137.704 204.037 137.784 203.73 137.945 203.465C138.111 203.195 138.347 202.986 138.651 202.836C138.961 202.687 139.332 202.612 139.763 202.612C140.188 202.612 140.55 202.696 140.848 202.862C141.153 203.029 141.391 203.261 141.563 203.56C141.741 203.853 141.85 204.198 141.891 204.594L140.96 204.646C140.932 204.41 140.865 204.203 140.762 204.025C140.664 203.847 140.529 203.709 140.357 203.612C140.185 203.508 139.978 203.457 139.737 203.457C139.398 203.457 139.128 203.54 138.927 203.707C138.732 203.867 138.634 204.08 138.634 204.344C138.634 204.522 138.674 204.669 138.755 204.783C138.835 204.898 138.976 205.002 139.177 205.094C139.378 205.186 139.659 205.28 140.021 205.378C140.509 205.51 140.897 205.662 141.184 205.835C141.471 206.007 141.678 206.214 141.805 206.455C141.931 206.696 141.994 206.983 141.994 207.316C141.994 207.65 141.905 207.945 141.727 208.204C141.549 208.457 141.299 208.655 140.977 208.798C140.662 208.936 140.288 209.005 139.857 209.005ZM143.119 208.867V202.75H146.876V203.603H144.024V205.387H146.772V206.214H144.024V208.014H146.945V208.867H143.119ZM150.138 209.005C149.644 209.005 149.224 208.876 148.88 208.617C148.541 208.359 148.282 207.991 148.104 207.515C147.926 207.038 147.837 206.472 147.837 205.817C147.837 205.157 147.926 204.588 148.104 204.111C148.282 203.635 148.541 203.267 148.88 203.009C149.224 202.745 149.644 202.612 150.138 202.612C150.695 202.612 151.163 202.796 151.542 203.164C151.927 203.531 152.179 204.045 152.3 204.706L151.352 204.758C151.266 204.333 151.114 204.011 150.896 203.793C150.683 203.569 150.43 203.457 150.138 203.457C149.839 203.457 149.589 203.549 149.388 203.732C149.187 203.916 149.035 204.183 148.931 204.534C148.828 204.884 148.776 205.312 148.776 205.817C148.776 206.317 148.828 206.742 148.931 207.092C149.035 207.437 149.187 207.701 149.388 207.885C149.589 208.069 149.839 208.161 150.138 208.161C150.453 208.161 150.723 208.04 150.947 207.799C151.171 207.558 151.321 207.204 151.395 206.739L152.334 206.782C152.231 207.483 151.987 208.029 151.602 208.419C151.217 208.81 150.729 209.005 150.138 209.005ZM155.278 209.005C154.623 209.005 154.112 208.804 153.744 208.402C153.376 208 153.193 207.446 153.193 206.739V202.75H154.097V206.774C154.097 207.222 154.198 207.566 154.399 207.807C154.6 208.043 154.893 208.161 155.278 208.161C155.662 208.161 155.955 208.043 156.156 207.807C156.357 207.566 156.458 207.222 156.458 206.774V202.75H157.362V206.739C157.362 207.446 157.179 208 156.811 208.402C156.443 208.804 155.932 209.005 155.278 209.005ZM158.436 208.867V202.75H160.34C160.989 202.75 161.497 202.914 161.865 203.241C162.238 203.569 162.425 204.014 162.425 204.577C162.425 204.87 162.359 205.128 162.227 205.352C162.1 205.576 161.931 205.751 161.718 205.878C161.512 206.004 161.291 206.076 161.055 206.093L161.021 205.99C161.446 206.007 161.762 206.105 161.968 206.283C162.181 206.455 162.304 206.736 162.339 207.127L162.494 208.867H161.589L161.451 207.299C161.434 207.098 161.391 206.937 161.322 206.817C161.253 206.696 161.147 206.61 161.003 206.558C160.86 206.507 160.662 206.481 160.409 206.481H159.341V208.867H158.436ZM159.341 205.636H160.323C160.702 205.636 160.992 205.547 161.193 205.369C161.394 205.191 161.494 204.941 161.494 204.62C161.494 204.292 161.394 204.043 161.193 203.87C160.992 203.692 160.702 203.603 160.323 203.603H159.341V205.636ZM163.783 208.867V202.75H167.539V203.603H164.687V205.387H167.436V206.214H164.687V208.014H167.608V208.867H163.783ZM175.493 208.867V203.603H173.701V202.75H178.181V203.603H176.389V208.867H175.493ZM179.099 208.867V202.75H181.003C181.652 202.75 182.161 202.914 182.528 203.241C182.902 203.569 183.088 204.014 183.088 204.577C183.088 204.87 183.022 205.128 182.89 205.352C182.764 205.576 182.594 205.751 182.382 205.878C182.175 206.004 181.954 206.076 181.719 206.093L181.684 205.99C182.109 206.007 182.425 206.105 182.632 206.283C182.844 206.455 182.968 206.736 183.002 207.127L183.157 208.867H182.253L182.115 207.299C182.098 207.098 182.055 206.937 181.986 206.817C181.917 206.696 181.81 206.61 181.667 206.558C181.523 206.507 181.325 206.481 181.072 206.481H180.004V208.867H179.099ZM180.004 205.636H180.986C181.365 205.636 181.655 205.547 181.856 205.369C182.057 205.191 182.158 204.941 182.158 204.62C182.158 204.292 182.057 204.043 181.856 203.87C181.655 203.692 181.365 203.603 180.986 203.603H180.004V205.636ZM183.895 208.867L185.687 202.75H186.859L188.651 208.867H187.711L186.273 203.689L184.834 208.867H183.895ZM184.894 207.273L185.17 206.438H187.375L187.651 207.273H184.894ZM189.698 208.867V202.75H193.524V203.586H190.086L190.603 203.095V205.903L190.086 205.464H193.368V206.291H190.086L190.603 205.852V208.867H189.698ZM194.864 208.867V202.75H198.689V203.586H195.252L195.769 203.095V205.903L195.252 205.464H198.534V206.291H195.252L195.769 205.852V208.867H194.864ZM199.858 208.867V208.014H201.322V203.603H199.858V202.75H203.683V203.603H202.218V208.014H203.683V208.867H199.858ZM206.962 209.005C206.468 209.005 206.049 208.876 205.704 208.617C205.365 208.359 205.107 207.991 204.929 207.515C204.751 207.038 204.662 206.472 204.662 205.817C204.662 205.157 204.751 204.588 204.929 204.111C205.107 203.635 205.365 203.267 205.704 203.009C206.049 202.745 206.468 202.612 206.962 202.612C207.519 202.612 207.987 202.796 208.366 203.164C208.751 203.531 209.004 204.045 209.124 204.706L208.177 204.758C208.091 204.333 207.938 204.011 207.72 203.793C207.508 203.569 207.255 203.457 206.962 203.457C206.663 203.457 206.414 203.549 206.212 203.732C206.011 203.916 205.859 204.183 205.756 204.534C205.652 204.884 205.601 205.312 205.601 205.817C205.601 206.317 205.652 206.742 205.756 207.092C205.859 207.437 206.011 207.701 206.212 207.885C206.414 208.069 206.663 208.161 206.962 208.161C207.278 208.161 207.548 208.04 207.772 207.799C207.996 207.558 208.145 207.204 208.22 206.739L209.159 206.782C209.056 207.483 208.811 208.029 208.427 208.419C208.042 208.81 207.554 209.005 206.962 209.005Z" fill="#9E9E9E"/>
<path d="M149.259 226.867V220.328H147.321V219.204H148.109C148.454 219.204 148.734 219.161 148.949 219.075C149.164 218.98 149.32 218.825 149.414 218.609C149.509 218.385 149.556 218.079 149.556 217.692H150.655V226.867H149.259ZM156.038 227.074C155.314 227.074 154.702 226.915 154.203 226.596C153.703 226.268 153.324 225.799 153.066 225.187C152.807 224.567 152.678 223.817 152.678 222.939C152.678 222.172 152.742 221.461 152.872 220.806C153.01 220.143 153.225 219.566 153.518 219.075C153.811 218.575 154.19 218.187 154.655 217.911C155.129 217.627 155.702 217.485 156.374 217.485C157.218 217.485 157.877 217.692 158.351 218.105C158.825 218.51 159.152 219.053 159.333 219.734L157.95 219.85C157.847 219.514 157.675 219.247 157.434 219.049C157.201 218.851 156.848 218.751 156.374 218.751C155.667 218.751 155.112 219.053 154.707 219.656C154.302 220.259 154.086 221.181 154.061 222.422L153.815 222.37C153.91 222.077 154.069 221.81 154.293 221.569C154.517 221.319 154.797 221.121 155.133 220.974C155.478 220.819 155.87 220.742 156.309 220.742C156.921 220.742 157.455 220.871 157.912 221.129C158.377 221.379 158.734 221.737 158.984 222.202C159.243 222.667 159.372 223.21 159.372 223.83C159.372 224.502 159.23 225.084 158.946 225.575C158.661 226.057 158.269 226.428 157.77 226.686C157.27 226.945 156.693 227.074 156.038 227.074ZM156.051 225.833C156.611 225.833 157.063 225.657 157.408 225.303C157.761 224.942 157.938 224.451 157.938 223.83C157.938 223.443 157.86 223.107 157.705 222.822C157.558 222.529 157.347 222.305 157.072 222.15C156.805 221.995 156.494 221.918 156.141 221.918C155.754 221.918 155.409 221.995 155.107 222.15C154.806 222.305 154.569 222.529 154.397 222.822C154.224 223.107 154.138 223.443 154.138 223.83C154.138 224.218 154.216 224.563 154.371 224.864C154.526 225.166 154.746 225.403 155.03 225.575C155.323 225.747 155.663 225.833 156.051 225.833ZM160.674 226.867V225.239H162.341V226.867H160.674ZM163.645 226.867C163.645 226.178 163.748 225.562 163.955 225.019C164.162 224.476 164.515 223.972 165.015 223.507C165.514 223.042 166.204 222.577 167.082 222.111C167.504 221.896 167.84 221.698 168.09 221.517C168.349 221.327 168.534 221.134 168.646 220.935C168.758 220.737 168.814 220.496 168.814 220.212C168.814 219.919 168.749 219.669 168.62 219.462C168.5 219.247 168.319 219.079 168.077 218.958C167.836 218.829 167.53 218.764 167.16 218.764C166.574 218.764 166.109 218.924 165.764 219.243C165.428 219.553 165.217 220.001 165.131 220.587L163.684 220.496C163.787 219.574 164.136 218.842 164.73 218.299C165.333 217.756 166.143 217.485 167.16 217.485C167.815 217.485 168.37 217.601 168.827 217.834C169.292 218.058 169.645 218.372 169.887 218.777C170.136 219.182 170.261 219.652 170.261 220.186C170.261 220.651 170.184 221.052 170.029 221.388C169.874 221.724 169.615 222.038 169.253 222.331C168.892 222.615 168.4 222.921 167.78 223.249C166.988 223.671 166.389 224.089 165.984 224.502C165.579 224.907 165.364 225.269 165.338 225.588H170.261V226.867H163.645ZM175.695 226.867V224.955H171.069V223.766L175.527 217.692H177.091V223.688H178.215V224.955H177.091V226.867H175.695ZM172.658 223.688H175.695V219.63L172.658 223.688ZM186.694 227.074C185.823 227.074 185.078 226.871 184.458 226.467C183.838 226.053 183.364 225.489 183.036 224.774C182.709 224.05 182.545 223.223 182.545 222.292C182.545 221.371 182.709 220.548 183.036 219.824C183.372 219.1 183.855 218.532 184.484 218.118C185.113 217.696 185.867 217.485 186.745 217.485C187.495 217.485 188.128 217.619 188.645 217.886C189.171 218.153 189.584 218.519 189.886 218.984C190.196 219.449 190.411 219.979 190.532 220.574L189.071 220.651C188.968 220.091 188.735 219.639 188.374 219.294C188.012 218.941 187.469 218.764 186.745 218.764C186.108 218.764 185.587 218.924 185.182 219.243C184.777 219.561 184.475 219.988 184.277 220.522C184.087 221.056 183.993 221.646 183.993 222.292C183.993 222.964 184.087 223.563 184.277 224.089C184.475 224.614 184.777 225.032 185.182 225.342C185.595 225.644 186.121 225.795 186.758 225.795C187.258 225.795 187.689 225.687 188.051 225.471C188.412 225.256 188.692 224.963 188.891 224.593C189.097 224.222 189.209 223.813 189.227 223.365H186.771V222.189H190.558V226.867H189.601L189.511 224.799L189.692 224.955C189.597 225.368 189.403 225.734 189.11 226.053C188.817 226.372 188.46 226.622 188.038 226.803C187.624 226.983 187.176 227.074 186.694 227.074ZM192.301 226.867V217.692H195.596C196.699 217.692 197.53 217.89 198.09 218.286C198.65 218.683 198.93 219.311 198.93 220.173C198.93 220.561 198.848 220.901 198.685 221.194C198.521 221.487 198.28 221.719 197.961 221.892C197.651 222.055 197.28 222.142 196.85 222.15L196.837 222.099C197.621 222.116 198.228 222.331 198.659 222.745C199.098 223.15 199.318 223.684 199.318 224.347C199.318 225.183 199.038 225.812 198.478 226.234C197.918 226.656 197.121 226.867 196.087 226.867H192.301ZM193.696 225.614H196.048C196.626 225.614 197.074 225.497 197.392 225.265C197.72 225.023 197.884 224.675 197.884 224.218C197.884 223.77 197.72 223.421 197.392 223.171C197.074 222.921 196.626 222.796 196.048 222.796H193.696V225.614ZM193.696 221.607H195.57C196.182 221.607 196.656 221.491 196.992 221.259C197.328 221.026 197.496 220.699 197.496 220.276C197.496 219.828 197.332 219.497 197.005 219.281C196.686 219.057 196.208 218.945 195.57 218.945H193.696V221.607Z" fill="#1E1E1E"/>
<rect x="232.863" y="205.059" width="0.358974" height="22.6154" rx="0.179487" stroke="#EEEEEE" stroke-width="0.358974"/>
<path d="M263.35 208.867V202.75H264.84C265.38 202.75 265.848 202.871 266.244 203.112C266.647 203.348 266.954 203.695 267.166 204.155C267.385 204.608 267.494 205.163 267.494 205.817C267.494 206.472 267.385 207.026 267.166 207.48C266.954 207.934 266.647 208.278 266.244 208.514C265.848 208.749 265.38 208.867 264.84 208.867H263.35ZM264.254 208.014H264.814C265.371 208.014 265.799 207.833 266.098 207.471C266.402 207.104 266.555 206.553 266.555 205.817C266.555 205.082 266.402 204.531 266.098 204.163C265.799 203.79 265.371 203.603 264.814 203.603H264.254V208.014ZM270.385 209.005C269.73 209.005 269.219 208.804 268.852 208.402C268.484 208 268.3 207.446 268.3 206.739V202.75H269.205V206.774C269.205 207.222 269.305 207.566 269.506 207.807C269.707 208.043 270 208.161 270.385 208.161C270.77 208.161 271.063 208.043 271.264 207.807C271.465 207.566 271.565 207.222 271.565 206.774V202.75H272.47V206.739C272.47 207.446 272.286 208 271.919 208.402C271.551 208.804 271.04 209.005 270.385 209.005ZM273.544 208.867V202.75H275.448C276.097 202.75 276.605 202.914 276.973 203.241C277.346 203.569 277.533 204.014 277.533 204.577C277.533 204.87 277.466 205.128 277.334 205.352C277.208 205.576 277.039 205.751 276.826 205.878C276.619 206.004 276.398 206.076 276.163 206.093L276.128 205.99C276.553 206.007 276.869 206.105 277.076 206.283C277.288 206.455 277.412 206.736 277.446 207.127L277.601 208.867H276.697L276.559 207.299C276.542 207.098 276.499 206.937 276.43 206.817C276.361 206.696 276.255 206.61 276.111 206.558C275.967 206.507 275.769 206.481 275.517 206.481H274.448V208.867H273.544ZM274.448 205.636H275.43C275.809 205.636 276.099 205.547 276.301 205.369C276.502 205.191 276.602 204.941 276.602 204.62C276.602 204.292 276.502 204.043 276.301 203.87C276.099 203.692 275.809 203.603 275.43 203.603H274.448V205.636ZM278.339 208.867L280.131 202.75H281.303L283.095 208.867H282.156L280.717 203.689L279.278 208.867H278.339ZM279.338 207.273L279.614 206.438H281.82L282.095 207.273H279.338ZM285.435 208.867V203.603H283.643V202.75H288.123V203.603H286.331V208.867H285.435ZM289.136 208.867V208.014H290.601V203.603H289.136V202.75H292.961V203.603H291.497V208.014H292.961V208.867H289.136ZM296.214 209.005C295.726 209.005 295.313 208.882 294.974 208.635C294.641 208.388 294.385 208.026 294.207 207.549C294.029 207.072 293.94 206.495 293.94 205.817C293.94 205.128 294.029 204.545 294.207 204.068C294.385 203.592 294.641 203.23 294.974 202.983C295.313 202.736 295.726 202.612 296.214 202.612C296.703 202.612 297.116 202.736 297.455 202.983C297.794 203.23 298.049 203.592 298.222 204.068C298.4 204.545 298.489 205.128 298.489 205.817C298.489 206.495 298.4 207.072 298.222 207.549C298.049 208.026 297.794 208.388 297.455 208.635C297.116 208.882 296.703 209.005 296.214 209.005ZM296.214 208.161C296.502 208.161 296.743 208.075 296.938 207.902C297.139 207.73 297.291 207.469 297.395 207.118C297.498 206.768 297.55 206.334 297.55 205.817C297.55 205.3 297.498 204.867 297.395 204.516C297.291 204.16 297.139 203.896 296.938 203.724C296.743 203.546 296.502 203.457 296.214 203.457C295.927 203.457 295.683 203.546 295.482 203.724C295.287 203.896 295.137 204.16 295.034 204.516C294.931 204.867 294.879 205.3 294.879 205.817C294.879 206.334 294.931 206.768 295.034 207.118C295.137 207.469 295.287 207.73 295.482 207.902C295.683 208.075 295.927 208.161 296.214 208.161ZM299.382 208.867V202.75H300.484L302.492 207.583V202.75H303.379V208.867H302.276L300.269 204.034V208.867H299.382Z" fill="#9E9E9E"/>
<path d="M258.817 226.867V220.328H256.879V219.204H257.667C258.012 219.204 258.292 219.161 258.507 219.075C258.723 218.98 258.878 218.825 258.973 218.609C259.067 218.385 259.115 218.079 259.115 217.692H260.213V226.867H258.817ZM262.261 226.867C262.261 226.178 262.365 225.562 262.571 225.019C262.778 224.476 263.131 223.972 263.631 223.507C264.131 223.042 264.82 222.577 265.699 222.111C266.121 221.896 266.457 221.698 266.707 221.517C266.965 221.327 267.15 221.134 267.262 220.935C267.374 220.737 267.43 220.496 267.43 220.212C267.43 219.919 267.366 219.669 267.237 219.462C267.116 219.247 266.935 219.079 266.694 218.958C266.453 218.829 266.147 218.764 265.776 218.764C265.19 218.764 264.725 218.924 264.381 219.243C264.045 219.553 263.834 220.001 263.747 220.587L262.3 220.496C262.403 219.574 262.752 218.842 263.347 218.299C263.95 217.756 264.76 217.485 265.776 217.485C266.431 217.485 266.987 217.601 267.443 217.834C267.909 218.058 268.262 218.372 268.503 218.777C268.753 219.182 268.878 219.652 268.878 220.186C268.878 220.651 268.8 221.052 268.645 221.388C268.49 221.724 268.232 222.038 267.87 222.331C267.508 222.615 267.017 222.921 266.397 223.249C265.604 223.671 265.005 224.089 264.6 224.502C264.195 224.907 263.98 225.269 263.954 225.588H268.878V226.867H262.261ZM270.75 226.867V225.239H272.417V226.867H270.75ZM270.75 221.943V220.315H272.417V221.943H270.75ZM277.532 227.074C276.472 227.074 275.654 226.828 275.076 226.337C274.508 225.846 274.202 225.2 274.159 224.399L275.593 224.321C275.645 224.847 275.843 225.226 276.188 225.459C276.541 225.683 276.989 225.795 277.532 225.795C277.894 225.795 278.225 225.747 278.527 225.652C278.837 225.549 279.082 225.385 279.263 225.161C279.453 224.929 279.548 224.627 279.548 224.257C279.548 223.705 279.362 223.3 278.992 223.042C278.622 222.775 278.13 222.641 277.519 222.641H276.756V221.427H277.519C278.01 221.427 278.419 221.327 278.746 221.129C279.074 220.931 279.238 220.587 279.238 220.095C279.238 219.665 279.1 219.337 278.824 219.113C278.548 218.881 278.126 218.764 277.558 218.764C277.006 218.764 276.588 218.872 276.304 219.087C276.02 219.303 275.852 219.596 275.8 219.966L274.366 219.889C274.452 219.165 274.766 218.583 275.309 218.144C275.86 217.705 276.61 217.485 277.558 217.485C278.212 217.485 278.772 217.588 279.238 217.795C279.703 217.993 280.06 218.282 280.31 218.661C280.56 219.04 280.685 219.484 280.685 219.992C280.685 220.552 280.504 221.009 280.142 221.362C279.789 221.715 279.268 221.956 278.578 222.086V221.853C279.328 221.948 279.918 222.215 280.349 222.654C280.78 223.085 280.995 223.636 280.995 224.308C280.995 224.886 280.849 225.385 280.556 225.807C280.263 226.221 279.858 226.535 279.341 226.751C278.824 226.966 278.221 227.074 277.532 227.074ZM282.378 226.867C282.378 226.178 282.481 225.562 282.688 225.019C282.895 224.476 283.248 223.972 283.748 223.507C284.247 223.042 284.937 222.577 285.815 222.111C286.238 221.896 286.574 221.698 286.823 221.517C287.082 221.327 287.267 221.134 287.379 220.935C287.491 220.737 287.547 220.496 287.547 220.212C287.547 219.919 287.482 219.669 287.353 219.462C287.233 219.247 287.052 219.079 286.81 218.958C286.569 218.829 286.263 218.764 285.893 218.764C285.307 218.764 284.842 218.924 284.497 219.243C284.161 219.553 283.95 220.001 283.864 220.587L282.417 220.496C282.52 219.574 282.869 218.842 283.463 218.299C284.066 217.756 284.876 217.485 285.893 217.485C286.548 217.485 287.103 217.601 287.56 217.834C288.025 218.058 288.378 218.372 288.62 218.777C288.87 219.182 288.994 219.652 288.994 220.186C288.994 220.651 288.917 221.052 288.762 221.388C288.607 221.724 288.348 222.038 287.986 222.331C287.625 222.615 287.134 222.921 286.513 223.249C285.721 223.671 285.122 224.089 284.717 224.502C284.312 224.907 284.097 225.269 284.071 225.588H288.994V226.867H282.378ZM290.867 226.867V225.239H292.534V226.867H290.867ZM290.867 221.943V220.315H292.534V221.943H290.867ZM298.391 226.867V224.955H293.764V223.766L298.223 217.692H299.787V223.688H300.911V224.955H299.787V226.867H298.391ZM295.354 223.688H298.391V219.63L295.354 223.688ZM306.518 226.867V224.955H301.892V223.766L306.35 217.692H307.914V223.688H309.038V224.955H307.914V226.867H306.518ZM303.481 223.688H306.518V219.63L303.481 223.688Z" fill="#1E1E1E"/>
<rect x="333.375" y="205.059" width="0.358974" height="22.6154" rx="0.179487" stroke="#EEEEEE" stroke-width="0.358974"/>
<path d="M376.134 209.005C375.692 209.005 375.304 208.916 374.971 208.738C374.644 208.56 374.382 208.313 374.187 207.997C373.992 207.675 373.877 207.302 373.843 206.877L374.773 206.817C374.813 207.11 374.894 207.357 375.014 207.558C375.135 207.759 375.293 207.911 375.488 208.014C375.683 208.112 375.91 208.161 376.169 208.161C376.421 208.161 376.634 208.129 376.806 208.066C376.979 207.997 377.111 207.899 377.203 207.773C377.294 207.647 377.34 207.494 377.34 207.316C377.34 207.133 377.297 206.972 377.211 206.834C377.125 206.696 376.97 206.57 376.746 206.455C376.522 206.34 376.195 206.222 375.764 206.102C375.344 205.987 375.003 205.858 374.739 205.714C374.474 205.57 374.282 205.392 374.161 205.18C374.041 204.967 373.98 204.703 373.98 204.387C373.98 204.037 374.061 203.73 374.222 203.465C374.388 203.195 374.624 202.986 374.928 202.836C375.238 202.687 375.609 202.612 376.039 202.612C376.464 202.612 376.826 202.696 377.125 202.862C377.429 203.029 377.668 203.261 377.84 203.56C378.018 203.853 378.127 204.198 378.167 204.594L377.237 204.646C377.208 204.41 377.142 204.203 377.039 204.025C376.941 203.847 376.806 203.709 376.634 203.612C376.462 203.508 376.255 203.457 376.014 203.457C375.675 203.457 375.405 203.54 375.204 203.707C375.008 203.867 374.911 204.08 374.911 204.344C374.911 204.522 374.951 204.669 375.031 204.783C375.112 204.898 375.253 205.002 375.454 205.094C375.655 205.186 375.936 205.28 376.298 205.378C376.786 205.51 377.174 205.662 377.461 205.835C377.748 206.007 377.955 206.214 378.081 206.455C378.208 206.696 378.271 206.983 378.271 207.316C378.271 207.65 378.182 207.945 378.004 208.204C377.826 208.457 377.576 208.655 377.254 208.798C376.938 208.936 376.565 209.005 376.134 209.005ZM379.379 208.867V202.75H381.274C381.699 202.75 382.07 202.828 382.386 202.983C382.707 203.138 382.954 203.359 383.127 203.646C383.305 203.928 383.394 204.264 383.394 204.654C383.394 205.045 383.305 205.384 383.127 205.671C382.954 205.952 382.707 206.171 382.386 206.326C382.07 206.475 381.699 206.55 381.274 206.55H380.283V208.867H379.379ZM380.283 205.697H381.179C381.616 205.697 381.938 205.608 382.144 205.43C382.351 205.252 382.455 204.993 382.455 204.654C382.455 204.31 382.351 204.048 382.144 203.87C381.938 203.692 381.616 203.603 381.179 203.603H380.283V205.697ZM384.562 208.867V202.75H388.318V203.603H385.467V205.387H388.215V206.214H385.467V208.014H388.387V208.867H384.562ZM389.728 208.867V202.75H393.484V203.603H390.632V205.387H393.381V206.214H390.632V208.014H393.553V208.867H389.728ZM394.851 208.867V202.75H396.341C396.881 202.75 397.349 202.871 397.745 203.112C398.147 203.348 398.455 203.695 398.667 204.155C398.885 204.608 398.995 205.163 398.995 205.817C398.995 206.472 398.885 207.026 398.667 207.48C398.455 207.934 398.147 208.278 397.745 208.514C397.349 208.749 396.881 208.867 396.341 208.867H394.851ZM395.755 208.014H396.315C396.872 208.014 397.3 207.833 397.599 207.471C397.903 207.104 398.056 206.553 398.056 205.817C398.056 205.082 397.903 204.531 397.599 204.163C397.3 203.79 396.872 203.603 396.315 203.603H395.755V208.014Z" fill="#9E9E9E"/>
<path d="M359.5 226.867V220.328H357.561V219.204H358.35C358.694 219.204 358.974 219.161 359.19 219.075C359.405 218.98 359.56 218.825 359.655 218.609C359.75 218.385 359.797 218.079 359.797 217.692H360.896V226.867H359.5ZM366.1 227.074C365.402 227.074 364.786 226.971 364.252 226.764C363.718 226.557 363.3 226.251 362.998 225.846C362.705 225.441 362.559 224.946 362.559 224.36C362.559 223.688 362.761 223.132 363.166 222.693C363.571 222.254 364.114 221.961 364.795 221.814L364.821 222.073C364.269 221.943 363.825 221.707 363.489 221.362C363.162 221.017 362.998 220.565 362.998 220.005C362.998 219.514 363.123 219.079 363.373 218.7C363.623 218.321 363.976 218.023 364.433 217.808C364.898 217.593 365.454 217.485 366.1 217.485C366.737 217.485 367.289 217.593 367.754 217.808C368.219 218.023 368.573 218.321 368.814 218.7C369.064 219.079 369.189 219.514 369.189 220.005C369.189 220.565 369.025 221.017 368.697 221.362C368.37 221.698 367.926 221.935 367.366 222.073L367.392 221.814C368.081 221.961 368.629 222.254 369.033 222.693C369.438 223.132 369.641 223.688 369.641 224.36C369.641 224.946 369.49 225.441 369.189 225.846C368.896 226.251 368.482 226.557 367.948 226.764C367.414 226.971 366.798 227.074 366.1 227.074ZM366.1 225.795C366.737 225.795 367.241 225.665 367.612 225.407C367.991 225.14 368.181 224.743 368.181 224.218C368.181 223.718 368.008 223.318 367.664 223.016C367.328 222.715 366.806 222.564 366.1 222.564C365.393 222.564 364.868 222.715 364.523 223.016C364.179 223.318 364.006 223.718 364.006 224.218C364.006 224.743 364.196 225.14 364.575 225.407C364.954 225.665 365.462 225.795 366.1 225.795ZM366.1 221.414C366.625 221.414 367.03 221.306 367.315 221.091C367.608 220.867 367.754 220.526 367.754 220.07C367.754 219.673 367.612 219.355 367.328 219.113C367.052 218.872 366.643 218.751 366.1 218.751C365.557 218.751 365.144 218.872 364.859 219.113C364.575 219.355 364.433 219.673 364.433 220.07C364.433 220.526 364.579 220.867 364.872 221.091C365.165 221.306 365.574 221.414 366.1 221.414ZM374.487 227.074C373.729 227.074 373.07 226.88 372.51 226.492C371.95 226.105 371.519 225.553 371.217 224.838C370.916 224.123 370.765 223.275 370.765 222.292C370.765 221.31 370.916 220.462 371.217 219.747C371.528 219.023 371.958 218.467 372.51 218.079C373.07 217.683 373.729 217.485 374.487 217.485C375.254 217.485 375.913 217.683 376.464 218.079C377.024 218.467 377.455 219.019 377.757 219.734C378.067 220.449 378.222 221.302 378.222 222.292C378.222 223.275 378.071 224.123 377.769 224.838C377.468 225.553 377.037 226.105 376.477 226.492C375.917 226.88 375.254 227.074 374.487 227.074ZM374.487 225.795C375.219 225.795 375.784 225.493 376.18 224.89C376.576 224.287 376.774 223.421 376.774 222.292C376.774 221.534 376.684 220.892 376.503 220.367C376.331 219.841 376.072 219.445 375.728 219.178C375.392 218.902 374.978 218.764 374.487 218.764C374.005 218.764 373.591 218.902 373.246 219.178C372.91 219.445 372.652 219.841 372.471 220.367C372.299 220.892 372.213 221.534 372.213 222.292C372.213 223.421 372.411 224.287 372.807 224.89C373.203 225.493 373.763 225.795 374.487 225.795ZM383.106 226.867V217.692H385.019L387.746 225.226L390.472 217.692H392.385V226.867H390.989V220.147L388.521 226.854H386.97L384.502 220.147V226.867H383.106ZM397.659 227.022C397.185 227.022 396.763 226.919 396.392 226.712C396.03 226.497 395.75 226.204 395.552 225.833L395.513 226.867H394.234V217.692H395.604V220.961C395.785 220.66 396.052 220.397 396.405 220.173C396.767 219.949 397.185 219.837 397.659 219.837C398.253 219.837 398.77 219.983 399.209 220.276C399.649 220.569 399.985 220.987 400.217 221.53C400.459 222.064 400.579 222.697 400.579 223.43C400.579 224.162 400.459 224.799 400.217 225.342C399.985 225.876 399.649 226.29 399.209 226.583C398.77 226.876 398.253 227.022 397.659 227.022ZM397.439 225.833C397.964 225.833 398.382 225.622 398.692 225.2C399.003 224.769 399.158 224.179 399.158 223.43C399.158 222.68 399.003 222.094 398.692 221.672C398.382 221.241 397.969 221.026 397.452 221.026C397.064 221.026 396.732 221.121 396.457 221.31C396.181 221.5 395.97 221.775 395.823 222.137C395.677 222.491 395.604 222.921 395.604 223.43C395.604 223.921 395.677 224.347 395.823 224.709C395.97 225.071 396.181 225.351 396.457 225.549C396.732 225.739 397.06 225.833 397.439 225.833ZM401.97 228.806V219.992H403.262L403.301 221.465L403.146 221.388C403.318 220.879 403.603 220.496 403.999 220.238C404.395 219.971 404.852 219.837 405.369 219.837C406.041 219.837 406.592 220.005 407.023 220.341C407.462 220.668 407.786 221.103 407.992 221.646C408.208 222.189 408.315 222.783 408.315 223.43C408.315 224.076 408.208 224.67 407.992 225.213C407.786 225.756 407.462 226.195 407.023 226.531C406.592 226.859 406.041 227.022 405.369 227.022C405.024 227.022 404.701 226.962 404.4 226.841C404.098 226.721 403.84 226.553 403.624 226.337C403.418 226.113 403.271 225.851 403.185 225.549L403.34 225.394V228.806H401.97ZM405.123 225.833C405.675 225.833 406.106 225.622 406.416 225.2C406.734 224.778 406.894 224.188 406.894 223.43C406.894 222.671 406.734 222.081 406.416 221.659C406.106 221.237 405.675 221.026 405.123 221.026C404.762 221.026 404.447 221.116 404.18 221.297C403.913 221.47 403.706 221.737 403.56 222.099C403.413 222.46 403.34 222.904 403.34 223.43C403.34 223.955 403.409 224.399 403.547 224.761C403.693 225.123 403.9 225.394 404.167 225.575C404.443 225.747 404.762 225.833 405.123 225.833ZM412.356 227.022C411.709 227.022 411.162 226.923 410.714 226.725C410.275 226.527 409.935 226.255 409.693 225.911C409.452 225.558 409.314 225.153 409.28 224.696L410.688 224.631C410.757 225.011 410.921 225.312 411.18 225.536C411.438 225.76 411.83 225.872 412.356 225.872C412.786 225.872 413.127 225.803 413.376 225.665C413.626 225.527 413.751 225.308 413.751 225.006C413.751 224.843 413.708 224.705 413.622 224.593C413.544 224.472 413.389 224.373 413.157 224.295C412.924 224.209 412.58 224.127 412.123 224.05C411.442 223.921 410.908 223.77 410.52 223.598C410.133 223.425 409.857 223.206 409.693 222.939C409.53 222.671 409.448 222.348 409.448 221.969C409.448 221.34 409.68 220.828 410.146 220.431C410.62 220.035 411.3 219.837 412.188 219.837C412.782 219.837 413.282 219.94 413.687 220.147C414.092 220.345 414.406 220.617 414.63 220.961C414.863 221.297 415.009 221.676 415.069 222.099L413.661 222.176C413.618 221.935 413.532 221.728 413.402 221.556C413.282 221.375 413.118 221.237 412.911 221.142C412.704 221.039 412.459 220.987 412.175 220.987C411.735 220.987 411.408 221.073 411.192 221.246C410.977 221.418 410.869 221.642 410.869 221.918C410.869 222.124 410.917 222.292 411.012 222.422C411.115 222.551 411.279 222.659 411.503 222.745C411.727 222.822 412.024 222.891 412.394 222.951C413.109 223.072 413.669 223.223 414.074 223.404C414.479 223.576 414.764 223.791 414.927 224.05C415.091 224.308 415.173 224.623 415.173 224.993C415.173 225.424 415.052 225.79 414.811 226.092C414.57 226.393 414.238 226.626 413.816 226.79C413.394 226.945 412.907 227.022 412.356 227.022Z" fill="#1E1E1E"/>
<rect width="407.077" height="27.2821" transform="translate(73 57)" fill="#FAFAFA"/>
<path d="M87.4567 74.0234L84.6998 66.3773H85.9382L88.189 72.7311L90.4398 66.3773H91.6782L88.9105 74.0234H87.4567ZM92.562 74.0234V66.3773H95.4158C96.2917 66.3773 96.9738 66.5891 97.462 67.0127C97.9502 67.4291 98.1943 68.0106 98.1943 68.7573C98.1943 69.2527 98.083 69.6834 97.8604 70.0496C97.6379 70.4086 97.3184 70.685 96.902 70.8788C96.4927 71.0655 95.9974 71.1588 95.4158 71.1588H93.725V74.0234H92.562ZM93.725 70.1034H95.3835C95.9076 70.1034 96.3061 69.9922 96.5789 69.7696C96.8517 69.5398 96.9881 69.2024 96.9881 68.7573C96.9881 68.3193 96.8517 67.9927 96.5789 67.7773C96.3061 67.5547 95.9076 67.4434 95.3835 67.4434H93.725V70.1034ZM99.4295 74.0234V66.3773H100.905L104.437 72.6127V66.3773H105.6V74.0234H104.071L100.593 67.9281V74.0234H99.4295ZM112.312 74.1527C111.767 74.1527 111.289 74.0306 110.88 73.7865C110.471 73.5424 110.155 73.1942 109.932 72.7419C109.71 72.2896 109.599 71.7619 109.599 71.1588C109.599 70.5557 109.71 70.0316 109.932 69.5865C110.155 69.1342 110.471 68.786 110.88 68.5419C111.289 68.2906 111.767 68.165 112.312 68.165C112.779 68.165 113.192 68.2475 113.551 68.4127C113.917 68.5706 114.211 68.804 114.434 69.1127C114.664 69.4214 114.811 69.7983 114.876 70.2434L113.68 70.3081C113.623 69.9347 113.472 69.6511 113.228 69.4573C112.984 69.2563 112.679 69.1557 112.312 69.1557C111.831 69.1557 111.455 69.3352 111.182 69.6942C110.916 70.046 110.783 70.5342 110.783 71.1588C110.783 71.7834 110.916 72.2752 111.182 72.6342C111.455 72.986 111.831 73.1619 112.312 73.1619C112.679 73.1619 112.984 73.0614 113.228 72.8604C113.472 72.6522 113.623 72.3398 113.68 71.9234L114.876 71.9881C114.811 72.426 114.664 72.8065 114.434 73.1296C114.211 73.4527 113.917 73.704 113.551 73.8834C113.192 74.0629 112.779 74.1527 112.312 74.1527ZM118.276 74.1527C117.73 74.1527 117.252 74.0306 116.843 73.7865C116.434 73.5424 116.118 73.1942 115.896 72.7419C115.673 72.2896 115.562 71.7619 115.562 71.1588C115.562 70.5486 115.673 70.0209 115.896 69.5757C116.118 69.1306 116.434 68.786 116.843 68.5419C117.252 68.2906 117.73 68.165 118.276 68.165C118.821 68.165 119.299 68.2906 119.708 68.5419C120.117 68.786 120.433 69.1306 120.656 69.5757C120.878 70.0209 120.989 70.5486 120.989 71.1588C120.989 71.7619 120.878 72.2896 120.656 72.7419C120.433 73.1942 120.117 73.5424 119.708 73.7865C119.299 74.0306 118.821 74.1527 118.276 74.1527ZM118.276 73.1619C118.764 73.1619 119.141 72.986 119.406 72.6342C119.672 72.2752 119.805 71.7834 119.805 71.1588C119.805 70.5342 119.672 70.046 119.406 69.6942C119.141 69.3352 118.764 69.1557 118.276 69.1557C117.795 69.1557 117.418 69.3352 117.145 69.6942C116.879 70.046 116.746 70.5342 116.746 71.1588C116.746 71.7834 116.879 72.2752 117.145 72.6342C117.418 72.986 117.795 73.1619 118.276 73.1619ZM122.143 74.0234V68.2942H123.188L123.231 69.8234L123.091 69.7481C123.155 69.3747 123.277 69.0732 123.457 68.8434C123.636 68.6137 123.855 68.445 124.114 68.3373C124.372 68.2224 124.652 68.165 124.954 68.165C125.385 68.165 125.74 68.2619 126.02 68.4557C126.307 68.6424 126.523 68.9009 126.666 69.2311C126.817 69.5542 126.892 69.924 126.892 70.3404V74.0234H125.751V70.685C125.751 70.3475 125.715 70.064 125.643 69.8342C125.571 69.6045 125.453 69.4286 125.288 69.3065C125.123 69.1845 124.907 69.1234 124.641 69.1234C124.239 69.1234 123.913 69.2563 123.661 69.5219C123.41 69.7875 123.285 70.1752 123.285 70.685V74.0234H122.143ZM130.292 74.0234C129.747 74.0234 129.345 73.8978 129.086 73.6465C128.828 73.3952 128.699 73.004 128.699 72.4727V66.9481H129.84V72.3865C129.84 72.6522 129.898 72.8352 130.012 72.9357C130.127 73.0363 130.303 73.0865 130.54 73.0865H131.359V74.0234H130.292ZM127.826 69.2311V68.2942H131.359V69.2311H127.826ZM132.565 74.0234V68.2942H133.61L133.653 69.8127L133.556 69.7804C133.635 69.2634 133.793 68.8865 134.03 68.6496C134.274 68.4127 134.601 68.2942 135.01 68.2942H135.559V69.3173H135.01C134.723 69.3173 134.482 69.364 134.288 69.4573C134.094 69.5506 133.947 69.6942 133.847 69.8881C133.753 70.0819 133.707 70.3332 133.707 70.6419V74.0234H132.565ZM138.731 74.1527C138.185 74.1527 137.708 74.0306 137.298 73.7865C136.889 73.5424 136.573 73.1942 136.351 72.7419C136.128 72.2896 136.017 71.7619 136.017 71.1588C136.017 70.5486 136.128 70.0209 136.351 69.5757C136.573 69.1306 136.889 68.786 137.298 68.5419C137.708 68.2906 138.185 68.165 138.731 68.165C139.276 68.165 139.754 68.2906 140.163 68.5419C140.572 68.786 140.888 69.1306 141.111 69.5757C141.333 70.0209 141.445 70.5486 141.445 71.1588C141.445 71.7619 141.333 72.2896 141.111 72.7419C140.888 73.1942 140.572 73.5424 140.163 73.7865C139.754 74.0306 139.276 74.1527 138.731 74.1527ZM138.731 73.1619C139.219 73.1619 139.596 72.986 139.862 72.6342C140.127 72.2752 140.26 71.7834 140.26 71.1588C140.26 70.5342 140.127 70.046 139.862 69.6942C139.596 69.3352 139.219 69.1557 138.731 69.1557C138.25 69.1557 137.873 69.3352 137.6 69.6942C137.334 70.046 137.202 70.5342 137.202 71.1588C137.202 71.7834 137.334 72.2752 137.6 72.6342C137.873 72.986 138.25 73.1619 138.731 73.1619ZM143.9 74.0234C143.527 74.0234 143.225 73.9265 142.995 73.7327C142.766 73.5388 142.651 73.2301 142.651 72.8065V66.3773H143.792V72.6988C143.792 72.8281 143.825 72.925 143.889 72.9896C143.961 73.0542 144.062 73.0865 144.191 73.0865H144.643V74.0234H143.9Z" fill="#1E1E1E"/>
<g filter="url(#filter3_d_885_6338)">
<rect x="210.129" y="109.414" width="132.103" height="66.0513" rx="33.0256" fill="#9E7DFF"/>
<rect x="210.488" y="109.773" width="131.385" height="65.3333" rx="32.6667" stroke="#9072E8" stroke-width="0.717949"/>
<g filter="url(#filter4_dii_885_6338)">
<rect x="279.051" y="112.281" width="60.3077" height="60.3077" rx="30.1538" fill="white"/>
<path d="M309.206 131.662V142.431M316.055 136.659C317.41 138.015 318.333 139.742 318.706 141.622C319.08 143.502 318.888 145.45 318.154 147.221C317.421 148.992 316.178 150.506 314.585 151.57C312.991 152.635 311.117 153.204 309.2 153.204C307.283 153.204 305.41 152.635 303.816 151.57C302.222 150.506 300.98 148.992 300.246 147.221C299.512 145.45 299.32 143.502 299.694 141.622C300.068 139.742 300.99 138.015 302.346 136.659" stroke="#9E7DFF" stroke-width="2.87179" stroke-linecap="round" stroke-linejoin="round"/>
</g>
</g>
<rect x="389.64" y="96.1246" width="72.1282" height="16.5128" rx="2.51282" fill="#58CCD2" fill-opacity="0.12"/>
<rect x="389.64" y="96.1246" width="72.1282" height="16.5128" rx="2.51282" stroke="#58CCD2" stroke-width="0.717949"/>
<path d="M400.045 99.6943L397.657 100.594C397.106 100.8 396.656 101.451 396.656 102.035V105.591C396.656 106.156 397.03 106.898 397.484 107.238L399.542 108.774C400.217 109.281 401.328 109.281 402.003 108.774L404.061 107.238C404.515 106.898 404.889 106.156 404.889 105.591V102.035C404.889 101.446 404.439 100.795 403.888 100.589L401.5 99.6943C401.093 99.5459 400.442 99.5459 400.045 99.6943Z" stroke="#58CCD2" stroke-width="0.861538" stroke-linecap="round" stroke-linejoin="round"/>
<path d="M412.247 107.519C411.753 107.519 411.334 107.389 410.989 107.131C410.65 106.873 410.392 106.505 410.214 106.028C410.036 105.552 409.947 104.986 409.947 104.331C409.947 103.671 410.036 103.102 410.214 102.625C410.392 102.148 410.65 101.781 410.989 101.522C411.334 101.258 411.753 101.126 412.247 101.126C412.804 101.126 413.272 101.31 413.651 101.677C414.036 102.045 414.289 102.559 414.409 103.22L413.462 103.271C413.375 102.846 413.223 102.525 413.005 102.306C412.793 102.082 412.54 101.97 412.247 101.97C411.948 101.97 411.698 102.062 411.497 102.246C411.296 102.43 411.144 102.697 411.041 103.047C410.937 103.398 410.886 103.826 410.886 104.331C410.886 104.831 410.937 105.256 411.041 105.606C411.144 105.951 411.296 106.215 411.497 106.399C411.698 106.583 411.948 106.674 412.247 106.674C412.563 106.674 412.833 106.554 413.057 106.313C413.281 106.071 413.43 105.718 413.505 105.253L414.444 105.296C414.34 105.997 414.096 106.542 413.711 106.933C413.327 107.323 412.838 107.519 412.247 107.519ZM417.387 107.519C416.899 107.519 416.485 107.395 416.146 107.148C415.813 106.901 415.558 106.539 415.38 106.063C415.201 105.586 415.112 105.009 415.112 104.331C415.112 103.642 415.201 103.059 415.38 102.582C415.558 102.105 415.813 101.744 416.146 101.497C416.485 101.25 416.899 101.126 417.387 101.126C417.875 101.126 418.289 101.25 418.628 101.497C418.966 101.744 419.222 102.105 419.394 102.582C419.572 103.059 419.661 103.642 419.661 104.331C419.661 105.009 419.572 105.586 419.394 106.063C419.222 106.539 418.966 106.901 418.628 107.148C418.289 107.395 417.875 107.519 417.387 107.519ZM417.387 106.674C417.674 106.674 417.915 106.588 418.111 106.416C418.312 106.244 418.464 105.982 418.567 105.632C418.671 105.282 418.722 104.848 418.722 104.331C418.722 103.814 418.671 103.38 418.567 103.03C418.464 102.674 418.312 102.41 418.111 102.237C417.915 102.059 417.674 101.97 417.387 101.97C417.1 101.97 416.856 102.059 416.655 102.237C416.459 102.41 416.31 102.674 416.207 103.03C416.103 103.38 416.052 103.814 416.052 104.331C416.052 104.848 416.103 105.282 416.207 105.632C416.31 105.982 416.459 106.244 416.655 106.416C416.856 106.588 417.1 106.674 417.387 106.674ZM420.554 107.381V101.264H421.657L423.664 106.097V101.264H424.552V107.381H423.449L421.441 102.548V107.381H420.554ZM425.72 107.381V101.264H426.823L428.83 106.097V101.264H429.717V107.381H428.615L426.607 102.548V107.381H425.72ZM431.058 107.381V101.264H434.814V102.117H431.963V103.9H434.711V104.727H431.963V106.528H434.883V107.381H431.058ZM438.076 107.519C437.582 107.519 437.163 107.389 436.818 107.131C436.479 106.873 436.221 106.505 436.043 106.028C435.865 105.552 435.776 104.986 435.776 104.331C435.776 103.671 435.865 103.102 436.043 102.625C436.221 102.148 436.479 101.781 436.818 101.522C437.163 101.258 437.582 101.126 438.076 101.126C438.633 101.126 439.101 101.31 439.481 101.677C439.865 102.045 440.118 102.559 440.239 103.22L439.291 103.271C439.205 102.846 439.053 102.525 438.834 102.306C438.622 102.082 438.369 101.97 438.076 101.97C437.778 101.97 437.528 102.062 437.327 102.246C437.126 102.43 436.973 102.697 436.87 103.047C436.767 103.398 436.715 103.826 436.715 104.331C436.715 104.831 436.767 105.256 436.87 105.606C436.973 105.951 437.126 106.215 437.327 106.399C437.528 106.583 437.778 106.674 438.076 106.674C438.392 106.674 438.662 106.554 438.886 106.313C439.11 106.071 439.259 105.718 439.334 105.253L440.273 105.296C440.17 105.997 439.926 106.542 439.541 106.933C439.156 107.323 438.668 107.519 438.076 107.519ZM442.768 107.381V102.117H440.976V101.264H445.456V102.117H443.664V107.381H442.768ZM446.556 107.381V101.264H450.312V102.117H447.46V103.9H450.209V104.727H447.46V106.528H450.381V107.381H446.556ZM451.678 107.381V101.264H453.169C453.709 101.264 454.177 101.385 454.573 101.626C454.975 101.861 455.283 102.209 455.495 102.668C455.713 103.122 455.822 103.676 455.822 104.331C455.822 104.986 455.713 105.54 455.495 105.994C455.283 106.448 454.975 106.792 454.573 107.028C454.177 107.263 453.709 107.381 453.169 107.381H451.678ZM452.583 106.528H453.143C453.7 106.528 454.128 106.347 454.427 105.985C454.731 105.618 454.883 105.066 454.883 104.331C454.883 103.596 454.731 103.044 454.427 102.677C454.128 102.304 453.7 102.117 453.143 102.117H452.583V106.528Z" fill="#58CCD2"/>
<rect x="90.2305" y="95.7656" width="79.4872" height="17.2308" rx="2.87179" fill="#FAFAFA"/>
<path d="M96.8081 107.381C96.8081 106.927 96.8741 106.522 97.0062 106.166C97.1383 105.81 97.3709 105.477 97.7041 105.167C98.0429 104.851 98.511 104.535 99.1084 104.219C99.3668 104.087 99.5765 103.961 99.7373 103.84C99.8981 103.719 100.016 103.59 100.091 103.452C100.165 103.314 100.203 103.148 100.203 102.953C100.203 102.752 100.162 102.579 100.082 102.436C100.002 102.292 99.8809 102.18 99.7201 102.1C99.5593 102.013 99.3582 101.97 99.117 101.97C98.7264 101.97 98.4192 102.074 98.1952 102.281C97.9769 102.487 97.839 102.783 97.7816 103.168L96.8425 103.108C96.9057 102.505 97.1326 102.025 97.5232 101.669C97.9137 101.307 98.445 101.126 99.117 101.126C99.5535 101.126 99.9211 101.201 100.22 101.35C100.524 101.499 100.754 101.709 100.909 101.979C101.064 102.249 101.142 102.562 101.142 102.918C101.142 103.234 101.09 103.507 100.987 103.737C100.883 103.966 100.711 104.179 100.47 104.374C100.228 104.569 99.8981 104.779 99.4788 105.003C99.1285 105.193 98.8356 105.379 98.6001 105.563C98.3703 105.741 98.1952 105.913 98.0745 106.08C97.9597 106.241 97.8965 106.39 97.885 106.528H101.15V107.381H96.8081ZM104.783 107.381V106.089H101.871V105.305L104.688 101.264H105.687V105.253H106.419V106.089H105.687V107.381H104.783ZM102.758 105.253H104.783V102.47L102.758 105.253ZM107.14 107.381C107.14 106.927 107.206 106.522 107.338 106.166C107.47 105.81 107.703 105.477 108.036 105.167C108.375 104.851 108.843 104.535 109.44 104.219C109.699 104.087 109.908 103.961 110.069 103.84C110.23 103.719 110.348 103.59 110.422 103.452C110.497 103.314 110.534 103.148 110.534 102.953C110.534 102.752 110.494 102.579 110.414 102.436C110.333 102.292 110.213 102.18 110.052 102.1C109.891 102.013 109.69 101.97 109.449 101.97C109.058 101.97 108.751 102.074 108.527 102.281C108.309 102.487 108.171 102.783 108.113 103.168L107.174 103.108C107.237 102.505 107.464 102.025 107.855 101.669C108.245 101.307 108.777 101.126 109.449 101.126C109.885 101.126 110.253 101.201 110.551 101.35C110.856 101.499 111.086 101.709 111.241 101.979C111.396 102.249 111.473 102.562 111.473 102.918C111.473 103.234 111.422 103.507 111.318 103.737C111.215 103.966 111.043 104.179 110.801 104.374C110.56 104.569 110.23 104.779 109.811 105.003C109.46 105.193 109.167 105.379 108.932 105.563C108.702 105.741 108.527 105.913 108.406 106.08C108.291 106.241 108.228 106.39 108.217 106.528H111.482V107.381H107.14ZM117.773 107.381V101.264H119.264C119.803 101.264 120.272 101.385 120.668 101.626C121.07 101.861 121.377 102.209 121.59 102.668C121.808 103.122 121.917 103.676 121.917 104.331C121.917 104.986 121.808 105.54 121.59 105.994C121.377 106.448 121.07 106.792 120.668 107.028C120.272 107.263 119.803 107.381 119.264 107.381H117.773ZM118.678 106.528H119.238C119.795 106.528 120.223 106.347 120.521 105.985C120.826 105.618 120.978 105.066 120.978 104.331C120.978 103.596 120.826 103.044 120.521 102.677C120.223 102.304 119.795 102.117 119.238 102.117H118.678V106.528ZM122.431 107.381L124.223 101.264H125.394L127.186 107.381H126.247L124.808 102.203L123.37 107.381H122.431ZM123.43 105.787L123.706 104.951H125.911L126.187 105.787H123.43ZM129.526 107.381V104.865L127.708 101.264H128.708L129.974 103.935L131.241 101.264H132.24L130.431 104.865V107.381H129.526ZM135.218 107.519C134.775 107.519 134.388 107.43 134.055 107.252C133.727 107.074 133.466 106.827 133.271 106.511C133.075 106.189 132.961 105.816 132.926 105.391L133.857 105.33C133.897 105.623 133.977 105.87 134.098 106.071C134.218 106.272 134.376 106.425 134.572 106.528C134.767 106.626 134.994 106.674 135.252 106.674C135.505 106.674 135.717 106.643 135.89 106.58C136.062 106.511 136.194 106.413 136.286 106.287C136.378 106.16 136.424 106.008 136.424 105.83C136.424 105.646 136.381 105.485 136.295 105.348C136.209 105.21 136.053 105.083 135.829 104.969C135.605 104.854 135.278 104.736 134.847 104.615C134.428 104.5 134.086 104.371 133.822 104.228C133.558 104.084 133.365 103.906 133.245 103.693C133.124 103.481 133.064 103.217 133.064 102.901C133.064 102.551 133.144 102.243 133.305 101.979C133.472 101.709 133.707 101.499 134.012 101.35C134.322 101.201 134.692 101.126 135.123 101.126C135.548 101.126 135.91 101.209 136.209 101.376C136.513 101.543 136.751 101.775 136.924 102.074C137.102 102.367 137.211 102.711 137.251 103.108L136.321 103.159C136.292 102.924 136.226 102.717 136.122 102.539C136.025 102.361 135.89 102.223 135.717 102.125C135.545 102.022 135.338 101.97 135.097 101.97C134.758 101.97 134.488 102.054 134.287 102.22C134.092 102.381 133.994 102.594 133.994 102.858C133.994 103.036 134.035 103.182 134.115 103.297C134.195 103.412 134.336 103.515 134.537 103.607C134.738 103.699 135.02 103.794 135.381 103.892C135.87 104.024 136.257 104.176 136.545 104.348C136.832 104.521 137.038 104.727 137.165 104.969C137.291 105.21 137.354 105.497 137.354 105.83C137.354 106.163 137.265 106.459 137.087 106.717C136.909 106.97 136.659 107.168 136.338 107.312C136.022 107.45 135.649 107.519 135.218 107.519ZM143.732 107.381V101.264H144.636V107.036L144.085 106.528H147.557V107.381H143.732ZM148.811 107.381V101.264H152.568V102.117H149.716V103.9H152.464V104.727H149.716V106.528H152.637V107.381H148.811ZM154.063 107.381V101.264H157.889V102.1H154.451L154.968 101.609V104.417L154.451 103.978H157.734V104.805H154.451L154.968 104.365V107.381H154.063ZM160.522 107.381V102.117H158.73V101.264H163.21V102.117H161.418V107.381H160.522Z" fill="#9E9E9E"/>
</g>
<rect x="72.641" y="56.641" width="407.077" height="313.744" rx="8.97436" stroke="#EEEEEE" stroke-width="0.717949"/>
</g>
<defs>
<filter id="filter0_d_885_6338" x="70.2812" y="54.2822" width="411.797" height="318.461" filterUnits="userSpaceOnUse" color-interpolation-filters="sRGB">
<feFlood flood-opacity="0" result="BackgroundImageFix"/>
<feColorMatrix in="SourceAlpha" type="matrix" values="0 0 0 0 0 0 0 0 0 0 0 0 0 0 0 0 0 0 127 0" result="hardAlpha"/>
<feOffset/>
<feGaussianBlur stdDeviation="1"/>
<feComposite in2="hardAlpha" operator="out"/>
<feColorMatrix type="matrix" values="0 0 0 0 0 0 0 0 0 0 0 0 0 0 0 0 0 0 0.05 0"/>
<feBlend mode="normal" in2="BackgroundImageFix" result="effect1_dropShadow_885_6338"/>
<feBlend mode="normal" in="SourceGraphic" in2="effect1_dropShadow_885_6338" result="shape"/>
</filter>
<filter id="filter1_i_885_6338" x="101.719" y="265.586" width="23.6914" height="17.2305" filterUnits="userSpaceOnUse" color-interpolation-filters="sRGB">
<feFlood flood-opacity="0" result="BackgroundImageFix"/>
<feBlend mode="normal" in="SourceGraphic" in2="BackgroundImageFix" result="shape"/>
<feColorMatrix in="SourceAlpha" type="matrix" values="0 0 0 0 0 0 0 0 0 0 0 0 0 0 0 0 0 0 127 0" result="hardAlpha"/>
<feOffset/>
<feGaussianBlur stdDeviation="0.717949"/>
<feComposite in2="hardAlpha" operator="arithmetic" k2="-1" k3="1"/>
<feColorMatrix type="matrix" values="0 0 0 0 0 0 0 0 0 0 0 0 0 0 0 0 0 0 0.6 0"/>
<feBlend mode="normal" in2="shape" result="effect1_innerShadow_885_6338"/>
</filter>
<filter id="filter2_di_885_6338" x="427.024" y="328.382" width="33.6664" height="20.1029" filterUnits="userSpaceOnUse" color-interpolation-filters="sRGB">
<feFlood flood-opacity="0" result="BackgroundImageFix"/>
<feColorMatrix in="SourceAlpha" type="matrix" values="0 0 0 0 0 0 0 0 0 0 0 0 0 0 0 0 0 0 127 0" result="hardAlpha"/>
<feOffset/>
<feGaussianBlur stdDeviation="0.358974"/>
<feComposite in2="hardAlpha" operator="out"/>
<feColorMatrix type="matrix" values="0 0 0 0 0 0 0 0 0 0 0 0 0 0 0 0 0 0 0.2 0"/>
<feBlend mode="normal" in2="BackgroundImageFix" result="effect1_dropShadow_885_6338"/>
<feBlend mode="normal" in="SourceGraphic" in2="effect1_dropShadow_885_6338" result="shape"/>
<feColorMatrix in="SourceAlpha" type="matrix" values="0 0 0 0 0 0 0 0 0 0 0 0 0 0 0 0 0 0 127 0" result="hardAlpha"/>
<feOffset dy="0.717949"/>
<feGaussianBlur stdDeviation="0.358974"/>
<feComposite in2="hardAlpha" operator="arithmetic" k2="-1" k3="1"/>
<feColorMatrix type="matrix" values="0 0 0 0 1 0 0 0 0 1 0 0 0 0 1 0 0 0 0.12 0"/>
<feBlend mode="normal" in2="shape" result="effect2_innerShadow_885_6338"/>
</filter>
<filter id="filter3_d_885_6338" x="209.411" y="108.696" width="133.537" height="67.4877" filterUnits="userSpaceOnUse" color-interpolation-filters="sRGB">
<feFlood flood-opacity="0" result="BackgroundImageFix"/>
<feColorMatrix in="SourceAlpha" type="matrix" values="0 0 0 0 0 0 0 0 0 0 0 0 0 0 0 0 0 0 127 0" result="hardAlpha"/>
<feOffset/>
<feGaussianBlur stdDeviation="0.358974"/>
<feComposite in2="hardAlpha" operator="out"/>
<feColorMatrix type="matrix" values="0 0 0 0 0 0 0 0 0 0 0 0 0 0 0 0 0 0 0.2 0"/>
<feBlend mode="normal" in2="BackgroundImageFix" result="effect1_dropShadow_885_6338"/>
<feBlend mode="normal" in="SourceGraphic" in2="effect1_dropShadow_885_6338" result="shape"/>
</filter>
<filter id="filter4_dii_885_6338" x="278.333" y="111.563" width="61.7445" height="61.7435" filterUnits="userSpaceOnUse" color-interpolation-filters="sRGB">
<feFlood flood-opacity="0" result="BackgroundImageFix"/>
<feColorMatrix in="SourceAlpha" type="matrix" values="0 0 0 0 0 0 0 0 0 0 0 0 0 0 0 0 0 0 127 0" result="hardAlpha"/>
<feOffset/>
<feGaussianBlur stdDeviation="0.358974"/>
<feComposite in2="hardAlpha" operator="out"/>
<feColorMatrix type="matrix" values="0 0 0 0 0 0 0 0 0 0 0 0 0 0 0 0 0 0 0.2 0"/>
<feBlend mode="normal" in2="BackgroundImageFix" result="effect1_dropShadow_885_6338"/>
<feBlend mode="normal" in="SourceGraphic" in2="effect1_dropShadow_885_6338" result="shape"/>
<feColorMatrix in="SourceAlpha" type="matrix" values="0 0 0 0 0 0 0 0 0 0 0 0 0 0 0 0 0 0 127 0" result="hardAlpha"/>
<feOffset dy="0.717949"/>
<feGaussianBlur stdDeviation="0.358974"/>
<feComposite in2="hardAlpha" operator="arithmetic" k2="-1" k3="1"/>
<feColorMatrix type="matrix" values="0 0 0 0 1 0 0 0 0 1 0 0 0 0 1 0 0 0 0.12 0"/>
<feBlend mode="normal" in2="shape" result="effect2_innerShadow_885_6338"/>
<feColorMatrix in="SourceAlpha" type="matrix" values="0 0 0 0 0 0 0 0 0 0 0 0 0 0 0 0 0 0 127 0" result="hardAlpha"/>
<feOffset/>
<feGaussianBlur stdDeviation="1.86667"/>
<feComposite in2="hardAlpha" operator="arithmetic" k2="-1" k3="1"/>
<feColorMatrix type="matrix" values="0 0 0 0 0.619608 0 0 0 0 0.490196 0 0 0 0 1 0 0 0 0.1 0"/>
<feBlend mode="normal" in2="effect2_innerShadow_885_6338" result="effect3_innerShadow_885_6338"/>
</filter>
<clipPath id="clip0_885_6338">
<rect x="73" y="57" width="406.359" height="313.026" rx="8.61538" fill="white"/>
</clipPath>
<clipPath id="clip1_885_6338">
<rect width="23.6923" height="17.2308" fill="white" transform="translate(101.719 265.586)"/>
</clipPath>
<clipPath id="clip2_885_6338">
<rect x="101.719" y="265.586" width="23.6923" height="17.2308" rx="2.15385" fill="white"/>
</clipPath>
</defs>
</svg>
