<svg width="122" height="32" viewBox="0 0 122 32" fill="none" xmlns="http://www.w3.org/2000/svg">
<mask id="mask0_865_3375" style="mask-type:luminance" maskUnits="userSpaceOnUse" x="0" y="6" width="122" height="20">
<path d="M0 6.25H122V25.75H0V6.25Z" fill="white"/>
</mask>
<g mask="url(#mask0_865_3375)">
<path d="M21.457 14.6563L17.2114 7.32751C17.0214 6.99899 16.748 6.72637 16.4188 6.53718C16.0896 6.34799 15.7162 6.24893 15.3364 6.25001H6.85458C6.38452 6.25124 5.92299 6.37549 5.51596 6.61038C5.10893 6.84527 4.77061 7.18259 4.53471 7.58876L0.289731 14.9169C0.100402 15.2446 0.000732422 15.6163 0.000732422 15.9947C0.000732422 16.3731 0.100402 16.7448 0.289731 17.0725L4.53471 24.4113C4.77082 24.8178 5.10954 25.1554 5.51704 25.3903C5.92455 25.6252 6.3866 25.7492 6.85708 25.75H15.3364C15.7146 25.7489 16.0859 25.6489 16.4133 25.4598C16.7408 25.2708 17.0129 24.9993 17.2027 24.6725L21.4483 17.3438C21.6864 16.9362 21.8125 16.4731 21.8141 16.0012C21.8156 15.5293 21.6924 15.0654 21.457 14.6563ZM1.49409 16.025L1.97396 15.2038L5.76534 8.64063L8.14153 12.7531C8.25181 12.9273 8.42527 13.0521 8.62559 13.1014C8.8259 13.1507 9.03755 13.1207 9.21621 13.0177C9.39487 12.9146 9.52671 12.7465 9.58412 12.5486C9.64152 12.3506 9.62005 12.1381 9.52419 11.9556L7.61036 8.64063C7.45149 8.40591 7.23974 8.21167 6.99212 8.07349C6.7445 7.93532 6.4679 7.85706 6.18452 7.84501H14.7433L10.7192 14.8006C10.6478 14.9229 10.5456 15.0245 10.4228 15.0952C10.3 15.1659 10.1608 15.2033 10.0191 15.2038H2.94057C2.64875 15.202 2.3616 15.277 2.10793 15.4212C1.85427 15.5653 1.64301 15.7736 1.49534 16.025M14.7452 24.1575H7.15114L9.52732 20.0406C9.58576 19.9499 9.62512 19.8483 9.643 19.7419C9.66088 19.6355 9.65692 19.5265 9.63134 19.4217C9.60577 19.3169 9.55912 19.2184 9.49424 19.1321C9.42936 19.0459 9.34759 18.9737 9.25392 18.92C9.16037 18.8662 9.05691 18.8319 8.94976 18.8191C8.8426 18.8063 8.73396 18.8152 8.63035 18.8454C8.52674 18.8756 8.43031 18.9264 8.34684 18.9947C8.26338 19.0631 8.19461 19.1476 8.14465 19.2431L5.76847 23.36L5.29486 24.1831C5.42564 23.9553 5.50031 23.6997 5.51271 23.4374C5.52511 23.175 5.47489 22.9135 5.36618 22.6744L1.97083 16.7963H10.0203C10.1621 16.7967 10.3012 16.8341 10.424 16.9048C10.5468 16.9755 10.649 17.0771 10.7204 17.1994L14.296 23.3769C14.4537 23.6085 14.6638 23.7998 14.9092 23.9354C15.1546 24.071 15.4284 24.1471 15.7087 24.1575H14.7452ZM19.9255 16.7988L16.1291 23.36L12.0962 16.4038C12.026 16.281 11.989 16.142 11.989 16.0006C11.989 15.8592 12.026 15.7203 12.0962 15.5975L16.1291 8.64126L16.6021 7.82001C16.4442 8.09666 16.3688 8.41268 16.3849 8.73075C16.4009 9.04882 16.5078 9.35565 16.6928 9.61501C16.8292 9.80501 19.9336 15.2025 19.9336 15.2025H15.1568C14.9453 15.203 14.7426 15.2871 14.5929 15.4364C14.4432 15.5857 14.3587 15.7881 14.3579 15.9994C14.3578 16.1042 14.3784 16.208 14.4186 16.3048C14.4587 16.4017 14.5175 16.4896 14.5918 16.5637C14.666 16.6378 14.7541 16.6965 14.851 16.7365C14.948 16.7765 15.0519 16.797 15.1568 16.7969H18.9808H18.9595C19.2513 16.7986 19.5385 16.7236 19.7921 16.5795C20.0458 16.4353 20.257 16.2271 20.4047 15.9756L19.923 16.8013L19.9255 16.7988ZM67.732 11.675C67.2389 11.6646 66.7528 11.7916 66.328 12.0419C65.9187 12.2944 65.552 12.61 65.2413 12.9769L65.1981 13.0288H64.9454L64.682 11.8694H61.9335C61.8318 11.8693 61.7325 11.9002 61.6487 11.9579C61.565 12.0156 61.5009 12.0975 61.4649 12.1925L60.9682 13.5138H64.1483C64.1483 13.5138 63.1523 13.5138 63.1523 14.32V18.7256H61.9316C61.8298 18.7254 61.7303 18.7562 61.6465 18.814C61.5627 18.8717 61.4984 18.9536 61.4624 19.0488L60.9657 20.37H68.011C68.1133 20.3703 68.2132 20.3394 68.2973 20.2813C68.3814 20.2232 68.4457 20.1407 68.4815 20.045L68.9789 18.7231H65.1549V14.7919L65.1787 14.755C65.3871 14.4369 65.6436 14.1531 65.9389 13.9125C66.2913 13.6452 66.7262 13.5094 67.1683 13.5288C67.3082 13.5197 67.448 13.5482 67.5732 13.6111C67.6985 13.6741 67.8047 13.7693 67.8809 13.8869C68.0235 14.1513 68.0942 14.4488 68.0867 14.7494H69.8598C69.8448 13.6556 69.6439 12.865 69.2835 12.3975C69.1022 12.1612 68.8665 11.9722 68.5963 11.8464C68.3262 11.7206 68.0297 11.6618 67.732 11.675ZM78.5255 15.9494C78.088 15.7405 77.6307 15.5759 77.1604 15.4581L75.7671 15.0981C75.3971 15.004 75.0369 14.8811 74.6866 14.7294C74.3431 14.5763 74.1686 14.3606 74.1686 14.0825C74.1716 13.9212 74.2254 13.7649 74.3223 13.6357C74.4192 13.5066 74.5543 13.4113 74.7085 13.3631C75.1093 13.213 75.5357 13.1433 75.9635 13.1581C76.2488 13.1588 76.5335 13.1894 76.8125 13.2488C77.0899 13.3071 77.3614 13.3854 77.6271 13.4838C78.0516 13.641 78.4627 13.832 78.8565 14.055L79.6792 12.725L79.2062 12.41C78.9546 12.2543 78.6867 12.1264 78.4073 12.0288C78.0437 11.9024 77.671 11.8042 77.2924 11.735C76.801 11.6495 76.3027 11.6093 75.804 11.615C75.3082 11.6116 74.814 11.6696 74.3325 11.7875C73.9227 11.8853 73.5332 12.0537 73.1813 12.285C72.8763 12.4897 72.6202 12.759 72.4312 13.0738C72.2442 13.4017 72.1509 13.7746 72.1615 14.1519C72.1427 14.5863 72.2841 15.0125 72.5588 15.35C72.8452 15.677 73.1921 15.9457 73.5805 16.1413C74.0134 16.36 74.4701 16.5269 74.9418 16.6394C75.443 16.7619 75.9116 16.8831 76.3377 17.0013C76.7123 17.1003 77.0773 17.2329 77.4281 17.3975C77.5728 17.449 77.6989 17.5423 77.7904 17.6655C77.882 17.7886 77.9349 17.9362 77.9424 18.0894C77.9496 18.2535 77.9069 18.416 77.8197 18.5554C77.7326 18.6947 77.6052 18.8044 77.4544 18.87C76.9014 19.1325 76.093 19.1306 75.3222 18.9413C74.9704 18.8557 74.6251 18.7448 74.2893 18.6094C73.9846 18.4879 73.6911 18.34 73.4122 18.1675C73.2417 18.0619 73.076 17.9489 72.9154 17.8288L72.0126 19.2413C72.506 19.6368 73.0576 19.9537 73.648 20.1806C74.4664 20.4869 75.336 20.6338 76.21 20.6119C77.4519 20.6119 78.396 20.3638 79.0185 19.8763C79.3194 19.6427 79.5596 19.3401 79.7186 18.9941C79.8776 18.6481 79.9508 18.269 79.932 17.8888C79.9494 17.4635 79.8088 17.0467 79.5372 16.7188C79.255 16.3971 78.911 16.1354 78.5255 15.9494ZM89.7745 18.0594C89.5912 18.2097 89.3953 18.3439 89.1889 18.4606C88.9579 18.5898 88.7151 18.6911 88.4607 18.7644C88.1665 18.8477 87.8618 18.8883 87.556 18.885C87.2665 18.8989 86.9776 18.847 86.7111 18.7331C86.4446 18.6192 86.2074 18.4463 86.0176 18.2275C85.6566 17.7963 85.4733 17.1069 85.4733 16.1738V13.5138H89.4724L90.0855 11.8694H85.4751V9.26751L83.8378 9.73313C83.7334 9.7634 83.6416 9.82664 83.5762 9.9134C83.5108 10.0002 83.4753 10.1058 83.475 10.2144V11.875H82.6948C82.5931 11.8749 82.4937 11.9058 82.41 11.9635C82.3263 12.0212 82.2622 12.1031 82.2262 12.1981L81.7294 13.5194H84.5486C84.5486 13.5194 83.4687 13.5194 83.4687 14.3669V16.1644C83.4687 17.7144 83.7903 18.8563 84.4278 19.5569C85.0653 20.2575 86.0219 20.6088 87.2901 20.6088C87.6534 20.6078 88.0155 20.5674 88.37 20.4881C89.0824 20.3317 89.7614 20.05 90.3752 19.6563C90.6129 19.5063 90.8306 19.3275 91.0233 19.1238L90.118 17.7675L89.7745 18.0594ZM100.106 18.5919C100.093 18.4362 100.076 18.281 100.054 18.1263C100.032 17.8445 100.019 17.562 100.018 17.2794C100.018 16.9475 100.039 16.5638 100.08 16.1388C100.121 15.7144 100.141 15.2163 100.141 14.63C100.145 14.2165 100.088 13.8046 99.97 13.4081C99.8651 13.0673 99.6807 12.7563 99.4319 12.5006C99.1542 12.2313 98.8178 12.03 98.449 11.9125C97.9599 11.7597 97.4493 11.6869 96.9369 11.6969C96.2107 11.6827 95.4855 11.7551 94.7765 11.9125C94.2673 12.0346 93.7711 12.1961 93.2881 12.3969L93.7461 13.9063C94.099 13.7563 94.4589 13.6246 94.826 13.5113C95.3616 13.3487 95.9191 13.2696 96.4789 13.2769C96.9109 13.2489 97.3405 13.3607 97.7039 13.5956C97.9973 13.8113 98.1356 14.1775 98.1356 14.6731V15.0006C98.136 15.1306 98.1239 15.2594 98.0993 15.3869L98.0818 15.5181H97.9542C97.6658 15.4995 97.3777 15.4757 97.0902 15.4469C96.3426 15.372 95.588 15.4156 94.8541 15.5763C94.4299 15.6668 94.0254 15.8325 93.6598 16.0656C93.3451 16.2701 93.0902 16.5541 92.9209 16.8888C92.7429 17.2666 92.6555 17.6807 92.6656 18.0981C92.6508 18.4259 92.7079 18.7529 92.833 19.0563C92.958 19.3597 93.148 19.6321 93.3895 19.8544C93.8737 20.2856 94.5413 20.5206 95.3772 20.5206C95.9596 20.5498 96.5389 20.4201 97.0533 20.1456C97.4346 19.9238 97.7605 19.6181 98.0061 19.2519L98.0493 19.1844H98.3371L98.5679 20.3806H100.536C100.653 20.3808 100.766 20.3402 100.856 20.2659C100.946 20.1916 101.007 20.0883 101.029 19.9738L101.262 18.7363H100.128L100.106 18.5919ZM98.1231 17.8438L98.1056 17.8763C97.9437 18.1563 97.7224 18.3975 97.4574 18.5831C97.0564 18.8331 96.5871 18.9506 96.116 18.9194C95.6318 18.9194 95.2883 18.8181 95.0662 18.6069C94.9534 18.4944 94.8655 18.3595 94.8081 18.2109C94.7508 18.0624 94.7253 17.9034 94.7334 17.7444C94.7286 17.5313 94.7939 17.3225 94.9192 17.15C95.0431 16.9863 95.2032 16.8544 95.3878 16.7644C95.5868 16.6633 95.7991 16.5907 96.0184 16.5488C96.5001 16.4686 96.9913 16.4621 97.4749 16.5294C97.7127 16.5594 97.8872 16.5856 98.0086 16.6088L98.125 16.6325V17.8419L98.1231 17.8438ZM108.2 15.7338L111.628 11.8731H109.315L106.432 15.3669H105.689V8.35188H103.209C103.107 8.35184 103.008 8.3828 102.924 8.44065C102.84 8.49849 102.776 8.58047 102.74 8.67563L102.244 9.99688H104.659C104.659 9.99688 103.689 9.99688 103.689 10.7031V20.3706H105.689V16.73H106.519L109.544 20.3706H111.22C111.322 20.3711 111.422 20.3402 111.506 20.2821C111.591 20.224 111.655 20.1414 111.691 20.0456L112.188 18.7238H110.623L108.2 15.7338ZM47.3761 11.8688C47.2699 11.8686 47.1664 11.9022 47.0806 11.9647C46.9948 12.0271 46.9311 12.1152 46.8987 12.2163L45.0819 17.2644H44.7534L42.3297 11.875H40.5666C40.4649 11.8749 40.3656 11.9058 40.2818 11.9635C40.1981 12.0212 40.134 12.1031 40.098 12.1981L39.6013 13.5194H42.0619C42.0619 13.5194 40.8863 13.5194 41.3337 14.5975L43.8206 20.3694H45.9027L49.1586 11.8663L47.3761 11.8688ZM37.1006 12.3781C36.721 12.1037 36.2919 11.9052 35.8368 11.7938C34.7904 11.5315 33.6911 11.5696 32.6654 11.9038C32.1275 12.0812 31.632 12.3674 31.2095 12.7444C30.7895 13.1354 30.46 13.6135 30.2442 14.145C29.9937 14.7728 29.8716 15.4443 29.8851 16.12C29.8748 16.7639 29.9819 17.4043 30.201 18.01C30.3962 18.5446 30.7091 19.0286 31.1165 19.4263C31.524 19.8239 32.0157 20.1251 32.5553 20.3075C33.1891 20.5213 33.8547 20.6255 34.5236 20.6156C34.9553 20.6156 36.926 20.5425 38.4363 19.465L38.1573 18.0594C37.1114 18.7188 35.9011 19.0713 34.6643 19.0769C34.3183 19.0809 33.9731 19.044 33.6358 18.9669C33.3236 18.893 33.0272 18.7638 32.7605 18.5856C32.5021 18.4097 32.2878 18.1766 32.1342 17.9044C31.9671 17.5911 31.8789 17.2419 31.8771 16.8869V16.7381H38.2374C38.3336 16.2474 38.3843 15.7488 38.3888 15.2488C38.41 14.6414 38.2856 14.0377 38.0259 13.4881C37.8085 13.0508 37.4916 12.671 37.1006 12.3781ZM36.5563 15.3494H31.9184L31.9309 15.1944C31.9528 14.8906 32.0435 14.5956 32.1968 14.3319C32.3434 14.0797 32.5396 13.8599 32.7736 13.6856C33.0082 13.5125 33.2705 13.3806 33.5494 13.2956C33.8435 13.2067 34.1493 13.1625 34.4566 13.1644C35.1523 13.1644 35.6835 13.3519 36.0332 13.72C36.3974 14.1281 36.5857 14.6619 36.5588 15.2075L36.5563 15.3494ZM57.616 12.3775C57.2364 12.1033 56.8072 11.905 56.3522 11.7938C55.3058 11.5315 54.2065 11.5696 53.1808 11.9038C52.6429 12.0812 52.1474 12.3674 51.7249 12.7444C51.301 13.1338 50.9677 13.6112 50.7483 14.1431C50.4981 14.7708 50.3762 15.4421 50.3898 16.1175C50.3794 16.7614 50.4862 17.4018 50.7051 18.0075C50.9012 18.5432 51.2155 19.028 51.6247 19.4258C52.0338 19.8236 52.5274 20.1244 53.0688 20.3056C53.7024 20.5193 54.3678 20.6236 55.0365 20.6138C55.4681 20.6138 57.4389 20.54 58.9492 19.4625L58.6771 18.0613C57.6311 18.7211 56.4205 19.0737 55.1835 19.0788C54.8365 19.0801 54.4906 19.0402 54.153 18.96C53.8411 18.886 53.5449 18.7569 53.2784 18.5788C53.0181 18.4008 52.8029 18.1648 52.6496 17.8894C52.4825 17.5761 52.3943 17.2269 52.3925 16.8719V16.7231H58.7634C58.8597 16.2325 58.9098 15.7338 58.9148 15.2338C58.9335 14.6281 58.8074 14.0267 58.5469 13.4794C58.3268 13.0446 58.008 12.6673 57.616 12.3775ZM57.0717 15.35H52.4332L52.4463 15.195C52.4682 14.8913 52.5589 14.5963 52.7122 14.3325C52.8588 14.0803 53.055 13.8605 53.289 13.6863C53.5236 13.5132 53.7859 13.3813 54.0648 13.2963C54.3589 13.2073 54.6647 13.1631 54.972 13.165C55.6677 13.165 56.1989 13.3525 56.5486 13.7206C56.9121 14.1288 57.1011 14.6625 57.0742 15.2081L57.0717 15.35ZM120.664 12.3775C120.285 12.1033 119.856 11.905 119.401 11.7938C118.354 11.5315 117.255 11.5696 116.229 11.9038C115.691 12.0812 115.195 12.3673 114.773 12.7444C114.349 13.1338 114.015 13.6112 113.796 14.1431C113.546 14.7708 113.424 15.4421 113.438 16.1175C113.427 16.7614 113.534 17.4018 113.753 18.0075C113.949 18.5438 114.263 19.029 114.673 19.4272C115.082 19.8254 115.576 20.1263 116.118 20.3075C116.752 20.5213 117.418 20.6255 118.087 20.6156C118.519 20.6156 120.489 20.5425 121.999 19.465L121.72 18.0594C120.675 18.7191 119.464 19.0717 118.227 19.0769C117.88 19.0783 117.534 19.0384 117.196 18.9581C116.884 18.8841 116.588 18.755 116.322 18.5769C116.063 18.4009 115.849 18.1678 115.695 17.8956C115.528 17.5823 115.44 17.2331 115.438 16.8781V16.7294H121.814C121.91 16.2386 121.96 15.74 121.964 15.24C121.986 14.6326 121.861 14.029 121.602 13.4794C121.38 13.0439 121.059 12.6666 120.664 12.3775ZM120.116 15.35H115.482L115.495 15.195C115.516 14.8913 115.607 14.5963 115.76 14.3325C115.906 14.0803 116.103 13.8605 116.337 13.6863C116.571 13.5132 116.834 13.3813 117.113 13.2963C117.407 13.2069 117.713 13.1625 118.02 13.165C118.715 13.165 119.247 13.3525 119.597 13.7206C119.96 14.1288 120.149 14.6625 120.122 15.2081L120.116 15.35Z" fill="black"/>
</g>
</svg>
