<svg width="32" height="32" viewBox="0 0 32 32" fill="none" xmlns="http://www.w3.org/2000/svg">
<g clip-path="url(#clip0_865_3371)">
<path d="M0 12.8C0 8.31958 0 6.07937 0.871948 4.36808C1.63893 2.86278 2.86278 1.63893 4.36808 0.871948C6.07937 0 8.31958 0 12.8 0H19.2C23.6804 0 25.9206 0 27.6319 0.871948C29.1372 1.63893 30.3611 2.86278 31.1281 4.36808C32 6.07937 32 8.31958 32 12.8V19.2C32 23.6804 32 25.9206 31.1281 27.6319C30.3611 29.1372 29.1372 30.3611 27.6319 31.1281C25.9206 32 23.6804 32 19.2 32H12.8C8.31958 32 6.07937 32 4.36808 31.1281C2.86278 30.3611 1.63893 29.1372 0.871948 27.6319C0 25.9206 0 23.6804 0 19.2V12.8Z" fill="#0C9790"/>
<path d="M27.9994 12.0595C27.9994 9.66916 25.9476 8 23.0105 8C20.6224 8 18.9764 9.16883 17.0703 10.5224C16.7514 10.7486 16.4217 10.9831 16.0818 11.2163C15.1012 11.889 14.0822 12.545 13.1525 13.1247C13.0596 13.1827 12.9439 13.1904 12.8444 13.1454C12.1047 12.8121 10.6397 12.278 8.83848 12.278C4.83918 12.278 4 14.4552 4 16.2818C4 17.7325 4.87934 18.9404 6.54212 19.7747C7.05342 20.0311 7.56233 20.2135 7.97712 20.3378C8.29961 20.4349 8.55556 20.6771 8.66405 20.9921C8.77255 21.3071 8.90082 21.6446 9.05967 21.9916C9.2353 22.3753 9.44509 22.7962 9.68186 23.2433C9.93541 23.7205 10.4371 24 10.9556 24C11.1426 24 11.3321 23.9639 11.5125 23.8875C14.1703 22.7643 18.3368 21.3651 23.095 21.0773C23.9216 21.027 24.5486 20.3467 24.5228 19.5278C24.5108 19.1447 24.491 18.7877 24.4646 18.4673C24.4449 18.2269 24.4185 17.9895 24.3909 17.7704C24.3388 17.3547 24.5054 16.942 24.8339 16.6774C25.1624 16.4127 25.5394 16.0906 25.923 15.7187C27.3011 14.3835 27.9994 13.1525 27.9994 12.0595ZM11.6336 22.4285C11.5059 22.4789 11.3692 22.5079 11.2319 22.4978C10.8981 22.4729 10.5942 22.2675 10.4575 21.9489C10.385 21.7796 10.3166 21.6162 10.2453 21.4616C10.0949 21.133 9.96958 20.7961 9.87367 20.5107C9.78136 20.2354 9.90664 19.9346 10.1698 19.8067C10.7572 19.5207 11.7127 19.1737 12.637 18.9321C12.7263 18.909 12.8042 18.8516 12.8456 18.7705C13.1842 18.1097 12.6406 17.5934 12.1239 17.7355C12.0909 17.7444 11.3045 17.9599 10.4851 18.2713C9.99895 18.4561 9.60873 18.6307 9.30183 18.8048C8.85407 19.0588 8.31819 19.1121 7.83446 18.9327C6.72374 18.5206 5.30133 17.713 5.30133 16.283C5.30133 15.0183 5.70294 13.567 8.83608 13.567C9.61053 13.567 10.3172 13.6843 10.9089 13.8364C11.1936 13.9099 11.2475 14.2864 10.9946 14.4362C10.1908 14.9129 9.67287 15.206 9.65968 15.2137C9.34739 15.3901 9.23889 15.7839 9.41752 16.0924C9.59614 16.4009 9.99476 16.508 10.3071 16.3316C10.328 16.3197 11.6378 15.5778 13.3563 14.5185C13.3653 14.5132 13.3743 14.5073 13.3833 14.502C14.4448 13.8477 15.6592 13.0732 16.8221 12.2762C17.171 12.037 17.5054 11.7996 17.8285 11.5704C19.6226 10.2968 21.0396 9.29021 23.0081 9.29021C25.2127 9.29021 26.6939 10.404 26.6939 12.0619C26.6939 13.265 25.0749 14.8253 23.9539 15.7247C23.647 15.971 23.2502 16.0764 22.8576 16.0266C22.7449 16.0124 22.6316 16 22.5183 15.9893C22.2792 15.9674 22.1413 15.7105 22.257 15.502C22.8169 14.4972 23.0518 13.8785 23.065 13.8435C23.1897 13.5102 23.0183 13.1407 22.6808 13.017C22.3439 12.8926 21.9687 13.0625 21.8428 13.3953C21.8392 13.4054 21.4718 14.3634 20.5517 15.8324C20.4959 15.9212 20.4 15.9787 20.2939 15.987C20.0655 16.0047 19.8899 15.7922 19.951 15.5749C20.1117 15.0047 20.1393 14.7435 20.1429 14.7015C20.1734 14.3474 19.9085 14.0312 19.5494 14.001C19.1892 13.9714 18.8751 14.229 18.8445 14.5837C18.8445 14.5884 18.7936 15.0118 18.4333 16.0574C18.3944 16.1711 18.2955 16.2564 18.1762 16.2801C17.3364 16.4435 16.7747 16.6087 16.7154 16.6265C16.3707 16.7295 16.1759 17.0883 16.2802 17.4288C16.3839 17.7686 16.7472 17.9623 17.0924 17.8592C17.108 17.8545 17.7764 17.6591 18.748 17.4874L18.778 17.4832C18.8349 17.4785 19.1298 17.424 19.143 17.4217C20.0739 17.2778 21.2092 17.1747 22.3056 17.2642C22.7197 17.2979 23.0548 17.6111 23.1046 18.0185C23.1262 18.1973 23.1459 18.3856 23.1621 18.5751C23.1765 18.748 23.1885 18.9327 23.1987 19.1275C23.2089 19.3223 23.1543 19.7486 22.709 19.7694C22.3151 19.7877 20.5912 19.7966 17.141 20.6131C14.5084 21.236 12.1604 22.2225 11.6318 22.4315L11.6336 22.4285Z" fill="white"/>
</g>
<defs>
<clipPath id="clip0_865_3371">
<rect width="32" height="32" fill="white"/>
</clipPath>
</defs>
</svg>
