<svg width="494" height="179" viewBox="0 0 494 179" fill="none" xmlns="http://www.w3.org/2000/svg">
<rect width="494" height="179" rx="12" fill="#F5F5F5"/>
<g filter="url(#filter0_dii_844_13336)">
<rect x="70" y="46" width="354" height="88" rx="12" fill="#252526" shape-rendering="crispEdges"/>
<path d="M83.4403 71H82.8864C82.5447 71 82.397 70.7876 82.5124 70.4691L85.5916 61.9148C85.6839 61.6655 85.8501 61.5455 86.1179 61.5455H86.9812C87.2489 61.5455 87.4151 61.6655 87.5075 61.9148L90.5866 70.4691C90.7021 70.7876 90.5543 71 90.2127 71H89.6587C89.391 71 89.2202 70.8846 89.1325 70.6261L88.3984 68.4979H84.7053L83.9666 70.6261C83.8789 70.88 83.7081 71 83.4403 71ZM85.1207 67.2976H87.983L86.5888 63.2628H86.5149L85.1207 67.2976ZM96.5223 68.0593V64.3707C96.5223 64.0707 96.6839 63.9091 96.9839 63.9091H97.4456C97.7457 63.9091 97.9072 64.0707 97.9072 64.3707V70.5384C97.9072 70.8384 97.7457 71 97.4456 71H97.0116C96.7116 71 96.55 70.8384 96.55 70.5384V69.772H96.4761C96.1483 70.5291 95.4236 71.0923 94.3572 71.0923C92.9953 71.0923 92.0305 70.1783 92.0305 68.4194V64.3707C92.0305 64.0707 92.192 63.9091 92.4921 63.9091H92.9491C93.2492 63.9091 93.4108 64.0707 93.4108 64.3707V68.2532C93.4108 69.218 94.0017 69.8366 94.8557 69.8366C95.6313 69.8366 96.5269 69.2642 96.5223 68.0593ZM103.072 64.3707V64.5554C103.072 64.8555 102.91 65.017 102.61 65.017H101.618V68.918C101.618 69.7166 102.019 69.8643 102.467 69.8643H102.513C102.804 69.8551 102.984 69.9521 103.044 70.2383L103.104 70.5014C103.169 70.7876 103.058 71.0092 102.763 71.0554C102.633 71.0739 102.481 71.0923 102.306 71.0923C101.216 71.1154 100.233 70.4922 100.237 69.2042V65.017H99.6603C99.3603 65.017 99.1987 64.8555 99.1987 64.5554V64.3707C99.1987 64.0707 99.3603 63.9091 99.6603 63.9091H100.237V62.6719C100.237 62.3718 100.399 62.2102 100.699 62.2102H101.156C101.456 62.2102 101.618 62.3718 101.618 62.6719V63.9091H102.61C102.91 63.9091 103.072 64.0707 103.072 64.3707ZM107.509 71.1431C105.511 71.1431 104.204 69.6797 104.204 67.4869C104.204 65.2802 105.511 63.8168 107.509 63.8168C109.508 63.8168 110.815 65.2802 110.815 67.4869C110.815 69.6797 109.508 71.1431 107.509 71.1431ZM107.514 69.9844C108.811 69.9844 109.421 68.8441 109.421 67.4822C109.421 66.125 108.811 64.9709 107.514 64.9709C106.208 64.9709 105.598 66.125 105.598 67.4822C105.598 68.8441 106.208 69.9844 107.514 69.9844ZM116.534 66.8683V67.1406C116.534 67.4407 116.372 67.6023 116.072 67.6023H112.803C112.503 67.6023 112.342 67.4407 112.342 67.1406V66.8683C112.342 66.5682 112.503 66.4066 112.803 66.4066H116.072C116.372 66.4066 116.534 66.5682 116.534 66.8683ZM121.36 71.1431C119.301 71.1431 118.055 69.6243 118.055 67.4869C118.055 65.3217 119.347 63.8168 121.346 63.8168C122.759 63.8168 123.835 64.5508 124.176 65.6957C124.264 66.005 124.079 66.1989 123.761 66.1989H123.327C123.059 66.1989 122.916 66.0742 122.8 65.8249C122.56 65.3402 122.076 64.9801 121.369 64.9801C120.215 64.9801 119.449 65.9357 119.449 67.4545C119.449 69.0011 120.201 69.9751 121.369 69.9751C122.02 69.9751 122.537 69.6705 122.8 69.1303C122.916 68.8857 123.059 68.7564 123.327 68.7564H123.761C124.079 68.7564 124.264 68.918 124.19 69.1857C123.881 70.3398 122.856 71.1431 121.36 71.1431ZM128.736 71.1431C126.737 71.1431 125.431 69.6797 125.431 67.4869C125.431 65.2802 126.737 63.8168 128.736 63.8168C130.735 63.8168 132.041 65.2802 132.041 67.4869C132.041 69.6797 130.735 71.1431 128.736 71.1431ZM128.741 69.9844C130.038 69.9844 130.647 68.8441 130.647 67.4822C130.647 66.125 130.038 64.9709 128.741 64.9709C127.434 64.9709 126.825 66.125 126.825 67.4822C126.825 68.8441 127.434 69.9844 128.741 69.9844ZM133.582 70.5384V64.3707C133.582 64.0707 133.744 63.9091 134.044 63.9091H134.445C134.746 63.9091 134.907 64.0707 134.907 64.3707V65.0632H134.995C135.29 64.283 135.987 63.8168 136.925 63.8168C137.871 63.8168 138.522 64.2876 138.831 65.0632H138.905C139.247 64.3061 140.013 63.8168 141.033 63.8168C142.317 63.8168 143.221 64.6246 143.221 66.245V70.5384C143.221 70.8384 143.06 71 142.76 71H142.303C142.003 71 141.841 70.8384 141.841 70.5384V66.3743C141.841 65.4141 141.241 65.0078 140.512 65.0078C139.611 65.0078 139.09 65.6264 139.09 66.4805V70.5384C139.09 70.8384 138.928 71 138.628 71H138.176C137.876 71 137.714 70.8384 137.714 70.5384V66.2866C137.714 65.5156 137.183 65.0078 136.417 65.0078C135.632 65.0078 134.963 65.6726 134.963 66.6282V70.5384C134.963 70.8384 134.801 71 134.501 71H134.044C133.744 71 133.582 70.8384 133.582 70.5384ZM145.071 73.1974V64.3707C145.071 64.0707 145.233 63.9091 145.533 63.9091H145.958C146.258 63.9091 146.419 64.0707 146.419 64.3707V65.0586H146.535C146.78 64.62 147.255 63.8168 148.571 63.8168C150.283 63.8168 151.548 65.1694 151.548 67.4684C151.548 69.7628 150.302 71.1385 148.585 71.1385C147.292 71.1385 146.784 70.3491 146.535 69.8967H146.452V73.1974C146.452 73.4975 146.29 73.6591 145.99 73.6591H145.533C145.233 73.6591 145.071 73.4975 145.071 73.1974ZM146.424 67.4545C146.424 68.9457 147.089 69.9613 148.275 69.9613C149.508 69.9613 150.154 68.8764 150.154 67.4545C150.154 66.0465 149.526 64.9893 148.275 64.9893C147.07 64.9893 146.424 65.9727 146.424 67.4545ZM156.082 71.1431C154.083 71.1431 152.776 69.6797 152.776 67.4869C152.776 65.2802 154.083 63.8168 156.082 63.8168C158.081 63.8168 159.387 65.2802 159.387 67.4869C159.387 69.6797 158.081 71.1431 156.082 71.1431ZM156.086 69.9844C157.384 69.9844 157.993 68.8441 157.993 67.4822C157.993 66.125 157.384 64.9709 156.086 64.9709C154.78 64.9709 154.171 66.125 154.171 67.4822C154.171 68.8441 154.78 69.9844 156.086 69.9844ZM165.42 68.0593V64.3707C165.42 64.0707 165.581 63.9091 165.881 63.9091H166.343C166.643 63.9091 166.805 64.0707 166.805 64.3707V70.5384C166.805 70.8384 166.643 71 166.343 71H165.909C165.609 71 165.447 70.8384 165.447 70.5384V69.772H165.374C165.046 70.5291 164.321 71.0923 163.255 71.0923C161.893 71.0923 160.928 70.1783 160.928 68.4194V64.3707C160.928 64.0707 161.089 63.9091 161.39 63.9091H161.847C162.147 63.9091 162.308 64.0707 162.308 64.3707V68.2532C162.308 69.218 162.899 69.8366 163.753 69.8366C164.529 69.8366 165.424 69.2642 165.42 68.0593ZM170.04 66.7898V70.5384C170.04 70.8384 169.878 71 169.578 71H169.121C168.821 71 168.659 70.8384 168.659 70.5384V64.3707C168.659 64.0707 168.821 63.9091 169.121 63.9091H169.523C169.823 63.9091 169.984 64.0707 169.984 64.3707V65.0632H170.072C170.4 64.3107 171.097 63.8168 172.163 63.8168C173.613 63.8168 174.578 64.7354 174.578 66.4897V70.5384C174.578 70.8384 174.416 71 174.116 71H173.659C173.359 71 173.197 70.8384 173.197 70.5384V66.6559C173.197 65.6264 172.63 65.0124 171.692 65.0124C170.732 65.0124 170.04 65.6587 170.04 66.7898ZM179.083 71.1385C177.361 71.1385 176.12 69.7628 176.12 67.4684C176.12 65.1694 177.38 63.8168 179.093 63.8168C180.413 63.8168 180.884 64.62 181.133 65.0586H181.216V62.0071C181.216 61.707 181.378 61.5455 181.678 61.5455H182.135C182.435 61.5455 182.597 61.707 182.597 62.0071V70.5384C182.597 70.8384 182.435 71 182.135 71H181.71C181.41 71 181.248 70.8384 181.248 70.5384V69.8967H181.133C180.884 70.3491 180.376 71.1385 179.083 71.1385ZM179.388 69.9613C180.579 69.9613 181.239 68.9457 181.239 67.4545C181.239 65.9727 180.593 64.9893 179.388 64.9893C178.142 64.9893 177.514 66.0465 177.514 67.4545C177.514 68.8764 178.155 69.9613 179.388 69.9613ZM192.499 68.0593V64.3707C192.499 64.0707 192.66 63.9091 192.96 63.9091H193.422C193.722 63.9091 193.884 64.0707 193.884 64.3707V70.5384C193.884 70.8384 193.722 71 193.422 71H192.988C192.688 71 192.527 70.8384 192.527 70.5384V69.772H192.453C192.125 70.5291 191.4 71.0923 190.334 71.0923C188.972 71.0923 188.007 70.1783 188.007 68.4194V64.3707C188.007 64.0707 188.169 63.9091 188.469 63.9091H188.926C189.226 63.9091 189.387 64.0707 189.387 64.3707V68.2532C189.387 69.218 189.978 69.8366 190.832 69.8366C191.608 69.8366 192.503 69.2642 192.499 68.0593ZM200.553 65.728L200.198 65.7926C199.93 65.8388 199.778 65.7326 199.626 65.5018C199.404 65.174 199.021 64.9109 198.384 64.9109C197.599 64.9109 197.008 65.2987 197.013 65.8434C197.008 66.3235 197.345 66.5866 198.125 66.7713L199.252 67.0298C200.553 67.3299 201.191 67.9485 201.191 68.9503C201.191 70.2337 200.004 71.1431 198.291 71.1431C196.911 71.1431 195.942 70.6122 195.558 69.652C195.443 69.3612 195.605 69.1534 195.914 69.1072L196.348 69.0426C196.62 69.0011 196.768 69.1165 196.906 69.3658C197.156 69.8043 197.627 70.0305 198.282 70.0305C199.187 70.0305 199.773 69.6012 199.773 69.0518C199.773 68.6087 199.455 68.304 198.771 68.1516L197.571 67.8885C196.242 67.593 195.632 66.9237 195.632 65.9173C195.632 64.6616 196.768 63.8168 198.37 63.8168C199.672 63.8168 200.489 64.3338 200.881 65.1694C201.02 65.4602 200.867 65.6726 200.553 65.728ZM207.2 68.0593V64.3707C207.2 64.0707 207.362 63.9091 207.662 63.9091H208.123C208.423 63.9091 208.585 64.0707 208.585 64.3707V70.5384C208.585 70.8384 208.423 71 208.123 71H207.689C207.389 71 207.228 70.8384 207.228 70.5384V69.772H207.154C206.826 70.5291 206.101 71.0923 205.035 71.0923C203.673 71.0923 202.708 70.1783 202.708 68.4194V64.3707C202.708 64.0707 202.87 63.9091 203.17 63.9091H203.627C203.927 63.9091 204.089 64.0707 204.089 64.3707V68.2532C204.089 69.218 204.679 69.8366 205.533 69.8366C206.309 69.8366 207.205 69.2642 207.2 68.0593ZM212.503 71.157C211.155 71.157 210.107 70.3906 210.107 68.9964C210.107 67.3853 211.483 67.0344 212.826 66.8775C214.1 66.7298 214.618 66.739 214.618 66.2358V66.2035C214.618 65.4002 214.161 64.9339 213.27 64.9339C212.559 64.9339 212.092 65.2156 211.82 65.5756C211.654 65.7972 211.492 65.8942 211.229 65.8342L210.827 65.7418C210.513 65.668 210.38 65.4418 210.541 65.1555C211.1 64.2045 212.138 63.8168 213.251 63.8168C214.377 63.8168 216.002 64.2276 216.002 66.2912V70.5384C216.002 70.8384 215.841 71 215.541 71H215.116C214.816 71 214.654 70.8384 214.654 70.5384V70.0305H214.599C214.336 70.5614 213.676 71.157 212.503 71.157ZM212.803 70.049C213.953 70.049 214.622 69.2827 214.622 68.4425V67.5284C214.424 67.7269 213.362 67.8469 212.914 67.907C212.115 68.0131 211.46 68.2763 211.46 69.0149C211.46 69.6982 212.023 70.049 212.803 70.049ZM219.221 62.0071V70.5384C219.221 70.8384 219.06 71 218.76 71H218.303C218.003 71 217.841 70.8384 217.841 70.5384V62.0071C217.841 61.707 218.003 61.5455 218.303 61.5455H218.76C219.06 61.5455 219.221 61.707 219.221 62.0071ZM222.459 62.0071V70.5384C222.459 70.8384 222.297 71 221.997 71H221.54C221.24 71 221.078 70.8384 221.078 70.5384V62.0071C221.078 61.707 221.24 61.5455 221.54 61.5455H221.997C222.297 61.5455 222.459 61.707 222.459 62.0071ZM225.188 73.6591C225.008 73.6591 224.842 73.6452 224.694 73.6222C224.399 73.576 224.293 73.3498 224.376 73.0589L224.454 72.7958C224.537 72.5142 224.722 72.4311 225.013 72.4634C225.534 72.5142 225.904 72.3111 226.181 71.5632L226.351 71.0923L223.946 64.44C223.831 64.1214 223.979 63.9091 224.32 63.9091H224.837C225.105 63.9091 225.276 64.0337 225.359 64.2876L227.03 69.4119H227.104L228.775 64.2876C228.858 64.0337 229.029 63.9091 229.297 63.9091H229.818C230.16 63.9091 230.303 64.1214 230.188 64.44L227.459 71.9464C227.049 73.0636 226.328 73.6591 225.188 73.6591ZM235.119 70.5384V64.3707C235.119 64.0707 235.281 63.9091 235.581 63.9091H235.992C236.292 63.9091 236.453 64.0707 236.453 64.3707V65.0355H236.527C236.786 64.2738 237.497 63.8029 238.328 63.8029C238.369 63.8029 238.42 63.8029 238.471 63.8075C238.762 63.8121 238.914 63.9922 238.914 64.283V64.6616C238.914 64.9755 238.785 65.1186 238.559 65.0955C238.443 65.0817 238.314 65.0724 238.194 65.0724C237.215 65.0724 236.5 65.7418 236.5 66.6697V70.5384C236.5 70.8384 236.338 71 236.038 71H235.581C235.281 71 235.119 70.8384 235.119 70.5384ZM242.911 71.1431C240.82 71.1431 239.536 69.7028 239.536 67.5007C239.536 65.3217 240.838 63.8168 242.814 63.8168C244.42 63.8168 245.953 64.8185 245.953 67.3807V67.4084C245.953 67.7085 245.791 67.87 245.491 67.87H240.912C240.949 69.2365 241.743 70.0028 242.925 70.0028C243.557 70.0028 244.07 69.7812 244.374 69.3473C244.531 69.1165 244.688 69.0103 244.956 69.0611L245.362 69.1349C245.676 69.195 245.833 69.375 245.727 69.6104C245.293 70.5476 244.277 71.1431 242.911 71.1431ZM240.916 66.8359H244.6C244.596 65.7511 243.894 64.957 242.823 64.957C241.701 64.957 240.972 65.8295 240.916 66.8359ZM252.3 65.728L251.944 65.7926C251.676 65.8388 251.524 65.7326 251.372 65.5018C251.15 65.174 250.767 64.9109 250.13 64.9109C249.345 64.9109 248.754 65.2987 248.759 65.8434C248.754 66.3235 249.091 66.5866 249.871 66.7713L250.998 67.0298C252.3 67.3299 252.937 67.9485 252.937 68.9503C252.937 70.2337 251.75 71.1431 250.037 71.1431C248.657 71.1431 247.688 70.6122 247.305 69.652C247.189 69.3612 247.351 69.1534 247.66 69.1072L248.094 69.0426C248.366 69.0011 248.514 69.1165 248.653 69.3658C248.902 69.8043 249.373 70.0305 250.028 70.0305C250.933 70.0305 251.519 69.6012 251.519 69.0518C251.519 68.6087 251.201 68.304 250.518 68.1516L249.317 67.8885C247.988 67.593 247.378 66.9237 247.378 65.9173C247.378 64.6616 248.514 63.8168 250.116 63.8168C251.418 63.8168 252.235 64.3338 252.627 65.1694C252.766 65.4602 252.613 65.6726 252.3 65.728ZM258.946 68.0593V64.3707C258.946 64.0707 259.108 63.9091 259.408 63.9091H259.869C260.169 63.9091 260.331 64.0707 260.331 64.3707V70.5384C260.331 70.8384 260.169 71 259.869 71H259.435C259.135 71 258.974 70.8384 258.974 70.5384V69.772H258.9C258.572 70.5291 257.847 71.0923 256.781 71.0923C255.419 71.0923 254.454 70.1783 254.454 68.4194V64.3707C254.454 64.0707 254.616 63.9091 254.916 63.9091H255.373C255.673 63.9091 255.835 64.0707 255.835 64.3707V68.2532C255.835 69.218 256.426 69.8366 257.28 69.8366C258.055 69.8366 258.951 69.2642 258.946 68.0593ZM263.566 62.0071V70.5384C263.566 70.8384 263.404 71 263.104 71H262.647C262.347 71 262.186 70.8384 262.186 70.5384V62.0071C262.186 61.707 262.347 61.5455 262.647 61.5455H263.104C263.404 61.5455 263.566 61.707 263.566 62.0071ZM268.733 64.3707V64.5554C268.733 64.8555 268.571 65.017 268.271 65.017H267.279V68.918C267.279 69.7166 267.68 69.8643 268.128 69.8643H268.174C268.465 69.8551 268.645 69.9521 268.705 70.2383L268.765 70.5014C268.83 70.7876 268.719 71.0092 268.424 71.0554C268.294 71.0739 268.142 71.0923 267.967 71.0923C266.877 71.1154 265.894 70.4922 265.899 69.2042V65.017H265.321C265.021 65.017 264.86 64.8555 264.86 64.5554V64.3707C264.86 64.0707 265.021 63.9091 265.321 63.9091H265.899V62.6719C265.899 62.3718 266.06 62.2102 266.36 62.2102H266.817C267.117 62.2102 267.279 62.3718 267.279 62.6719V63.9091H268.271C268.571 63.9091 268.733 64.0707 268.733 64.3707ZM274.961 65.728L274.605 65.7926C274.337 65.8388 274.185 65.7326 274.033 65.5018C273.811 65.174 273.428 64.9109 272.791 64.9109C272.006 64.9109 271.415 65.2987 271.42 65.8434C271.415 66.3235 271.752 66.5866 272.532 66.7713L273.659 67.0298C274.961 67.3299 275.598 67.9485 275.598 68.9503C275.598 70.2337 274.411 71.1431 272.699 71.1431C271.318 71.1431 270.349 70.6122 269.966 69.652C269.85 69.3612 270.012 69.1534 270.321 69.1072L270.755 69.0426C271.027 69.0011 271.175 69.1165 271.314 69.3658C271.563 69.8043 272.034 70.0305 272.689 70.0305C273.594 70.0305 274.18 69.6012 274.18 69.0518C274.18 68.6087 273.862 68.304 273.179 68.1516L271.978 67.8885C270.649 67.593 270.04 66.9237 270.04 65.9173C270.04 64.6616 271.175 63.8168 272.777 63.8168C274.079 63.8168 274.896 64.3338 275.288 65.1694C275.427 65.4602 275.275 65.6726 274.961 65.728ZM281.253 62.815C280.773 62.815 280.38 62.4457 280.38 61.9933C280.38 61.5408 280.773 61.1669 281.253 61.1669C281.728 61.1669 282.125 61.5408 282.125 61.9933C282.125 62.4457 281.728 62.815 281.253 62.815ZM280.556 70.5384V64.3707C280.556 64.0707 280.717 63.9091 281.017 63.9091H281.475C281.775 63.9091 281.936 64.0707 281.936 64.3707V70.5384C281.936 70.8384 281.775 71 281.475 71H281.017C280.717 71 280.556 70.8384 280.556 70.5384ZM285.173 66.7898V70.5384C285.173 70.8384 285.012 71 284.712 71H284.255C283.955 71 283.793 70.8384 283.793 70.5384V64.3707C283.793 64.0707 283.955 63.9091 284.255 63.9091H284.656C284.956 63.9091 285.118 64.0707 285.118 64.3707V65.0632H285.206C285.534 64.3107 286.231 63.8168 287.297 63.8168C288.747 63.8168 289.711 64.7354 289.711 66.4897V70.5384C289.711 70.8384 289.55 71 289.25 71H288.793C288.493 71 288.331 70.8384 288.331 70.5384V66.6559C288.331 65.6264 287.763 65.0124 286.826 65.0124C285.866 65.0124 285.173 65.6587 285.173 66.7898ZM296.383 66.7898V70.5384C296.383 70.8384 296.222 71 295.922 71H295.465C295.165 71 295.003 70.8384 295.003 70.5384V62.0071C295.003 61.707 295.165 61.5455 295.465 61.5455H295.903C296.203 61.5455 296.365 61.707 296.365 62.0071V65.0632H296.453C296.785 64.2969 297.45 63.8168 298.553 63.8168C300.012 63.8168 300.981 64.7216 300.981 66.4897V70.5384C300.981 70.8384 300.82 71 300.52 71H300.063C299.763 71 299.601 70.8384 299.601 70.5384V66.6559C299.601 65.6172 299.033 65.0124 298.082 65.0124C297.099 65.0124 296.383 65.6587 296.383 66.7898ZM303.521 62.815C303.04 62.815 302.648 62.4457 302.648 61.9933C302.648 61.5408 303.04 61.1669 303.521 61.1669C303.996 61.1669 304.393 61.5408 304.393 61.9933C304.393 62.4457 303.996 62.815 303.521 62.815ZM302.823 70.5384V64.3707C302.823 64.0707 302.985 63.9091 303.285 63.9091H303.742C304.042 63.9091 304.204 64.0707 304.204 64.3707V70.5384C304.204 70.8384 304.042 71 303.742 71H303.285C302.985 71 302.823 70.8384 302.823 70.5384ZM309.034 73.8068C307.621 73.8068 306.73 73.2944 306.255 72.6204C306.079 72.3665 306.185 72.131 306.472 72.011L306.822 71.8679C307.076 71.7617 307.261 71.831 307.441 72.0433C307.727 72.3757 308.194 72.6942 309.048 72.6942C310.096 72.6942 310.857 72.2141 310.857 71.1016V69.7074H310.77C310.52 70.1598 310.017 70.8938 308.715 70.8938C307.039 70.8938 305.751 69.6889 305.751 67.4268C305.751 65.1694 307.012 63.8168 308.724 63.8168C310.045 63.8168 310.534 64.62 310.779 65.0586H310.88V64.3707C310.88 64.0707 311.042 63.9091 311.342 63.9091H311.771C312.071 63.9091 312.233 64.0707 312.233 64.3707V71.157C312.233 72.9805 310.839 73.8068 309.034 73.8068ZM309.02 69.7489C310.211 69.7489 310.871 68.8718 310.871 67.4084C310.871 65.9727 310.225 64.9893 309.02 64.9893C307.773 64.9893 307.146 66.0465 307.146 67.4084C307.146 68.8026 307.787 69.7489 309.02 69.7489ZM315.464 66.7898V70.5384C315.464 70.8384 315.303 71 315.003 71H314.546C314.246 71 314.084 70.8384 314.084 70.5384V62.0071C314.084 61.707 314.246 61.5455 314.546 61.5455H314.984C315.284 61.5455 315.446 61.707 315.446 62.0071V65.0632H315.534C315.866 64.2969 316.531 63.8168 317.634 63.8168C319.093 63.8168 320.062 64.7216 320.062 66.4897V70.5384C320.062 70.8384 319.901 71 319.601 71H319.144C318.844 71 318.682 70.8384 318.682 70.5384V66.6559C318.682 65.6172 318.114 65.0124 317.163 65.0124C316.18 65.0124 315.464 65.6587 315.464 66.7898ZM324.961 71.1431C322.869 71.1431 321.586 69.7028 321.586 67.5007C321.586 65.3217 322.888 63.8168 324.864 63.8168C326.47 63.8168 328.003 64.8185 328.003 67.3807V67.4084C328.003 67.7085 327.841 67.87 327.541 67.87H322.962C322.999 69.2365 323.793 70.0028 324.974 70.0028C325.607 70.0028 326.119 69.7812 326.424 69.3473C326.581 69.1165 326.738 69.0103 327.006 69.0611L327.412 69.1349C327.726 69.195 327.883 69.375 327.777 69.6104C327.343 70.5476 326.327 71.1431 324.961 71.1431ZM322.966 66.8359H326.65C326.646 65.7511 325.944 64.957 324.873 64.957C323.751 64.957 323.022 65.8295 322.966 66.8359ZM329.534 70.5384V64.3707C329.534 64.0707 329.696 63.9091 329.996 63.9091H330.407C330.707 63.9091 330.869 64.0707 330.869 64.3707V65.0355H330.942C331.201 64.2738 331.912 63.8029 332.743 63.8029C332.784 63.8029 332.835 63.8029 332.886 63.8075C333.177 63.8121 333.329 63.9922 333.329 64.283V64.6616C333.329 64.9755 333.2 65.1186 332.974 65.0955C332.858 65.0817 332.729 65.0724 332.609 65.0724C331.63 65.0724 330.915 65.7418 330.915 66.6697V70.5384C330.915 70.8384 330.753 71 330.453 71H329.996C329.696 71 329.534 70.8384 329.534 70.5384ZM341.274 64.3707V64.5554C341.274 64.8555 341.112 65.017 340.812 65.017H339.82V68.918C339.82 69.7166 340.222 69.8643 340.669 69.8643H340.715C341.006 69.8551 341.186 69.9521 341.246 70.2383L341.306 70.5014C341.371 70.7876 341.26 71.0092 340.965 71.0554C340.835 71.0739 340.683 71.0923 340.508 71.0923C339.418 71.1154 338.435 70.4922 338.44 69.2042V65.017H337.862C337.562 65.017 337.401 64.8555 337.401 64.5554V64.3707C337.401 64.0707 337.562 63.9091 337.862 63.9091H338.44V62.6719C338.44 62.3718 338.601 62.2102 338.901 62.2102H339.358C339.658 62.2102 339.82 62.3718 339.82 62.6719V63.9091H340.812C341.112 63.9091 341.274 64.0707 341.274 64.3707ZM345.712 71.1431C343.713 71.1431 342.406 69.6797 342.406 67.4869C342.406 65.2802 343.713 63.8168 345.712 63.8168C347.711 63.8168 349.017 65.2802 349.017 67.4869C349.017 69.6797 347.711 71.1431 345.712 71.1431ZM345.716 69.9844C347.013 69.9844 347.623 68.8441 347.623 67.4822C347.623 66.125 347.013 64.9709 345.716 64.9709C344.41 64.9709 343.8 66.125 343.8 67.4822C343.8 68.8441 344.41 69.9844 345.716 69.9844ZM353.868 64.3707V64.5554C353.868 64.8555 353.706 65.017 353.406 65.017H352.414V68.918C352.414 69.7166 352.815 69.8643 353.263 69.8643H353.309C353.6 69.8551 353.78 69.9521 353.84 70.2383L353.9 70.5014C353.965 70.7876 353.854 71.0092 353.559 71.0554C353.429 71.0739 353.277 71.0923 353.101 71.0923C352.012 71.1154 351.029 70.4922 351.033 69.2042V65.017H350.456C350.156 65.017 349.995 64.8555 349.995 64.5554V64.3707C349.995 64.0707 350.156 63.9091 350.456 63.9091H351.033V62.6719C351.033 62.3718 351.195 62.2102 351.495 62.2102H351.952C352.252 62.2102 352.414 62.3718 352.414 62.6719V63.9091H353.406C353.706 63.9091 353.868 64.0707 353.868 64.3707ZM357.458 71.157C356.11 71.157 355.062 70.3906 355.062 68.9964C355.062 67.3853 356.438 67.0344 357.781 66.8775C359.056 66.7298 359.573 66.739 359.573 66.2358V66.2035C359.573 65.4002 359.116 64.9339 358.225 64.9339C357.514 64.9339 357.047 65.2156 356.775 65.5756C356.609 65.7972 356.447 65.8942 356.184 65.8342L355.782 65.7418C355.469 65.668 355.335 65.4418 355.496 65.1555C356.055 64.2045 357.094 63.8168 358.206 63.8168C359.333 63.8168 360.958 64.2276 360.958 66.2912V70.5384C360.958 70.8384 360.796 71 360.496 71H360.071C359.771 71 359.61 70.8384 359.61 70.5384V70.0305H359.554C359.291 70.5614 358.631 71.157 357.458 71.157ZM357.758 70.049C358.908 70.049 359.577 69.2827 359.577 68.4425V67.5284C359.379 67.7269 358.317 67.8469 357.869 67.907C357.07 68.0131 356.415 68.2763 356.415 69.0149C356.415 69.6982 356.978 70.049 357.758 70.049ZM364.176 62.0071V70.5384C364.176 70.8384 364.015 71 363.715 71H363.258C362.958 71 362.796 70.8384 362.796 70.5384V62.0071C362.796 61.707 362.958 61.5455 363.258 61.5455H363.715C364.015 61.5455 364.176 61.707 364.176 62.0071ZM82.9279 86.5384V80.3707C82.9279 80.0707 83.0895 79.9091 83.3896 79.9091H83.8004C84.1005 79.9091 84.2621 80.0707 84.2621 80.3707V81.0355H84.3359C84.5945 80.2738 85.3054 79.8029 86.1364 79.8029C86.1779 79.8029 86.2287 79.8029 86.2795 79.8075C86.5703 79.8121 86.7227 79.9922 86.7227 80.283V80.6616C86.7227 80.9755 86.5934 81.1186 86.3672 81.0955C86.2518 81.0817 86.1225 81.0724 86.0025 81.0724C85.0238 81.0724 84.3082 81.7418 84.3082 82.6697V86.5384C84.3082 86.8384 84.1467 87 83.8466 87H83.3896C83.0895 87 82.9279 86.8384 82.9279 86.5384ZM90.7194 87.1431C88.6281 87.1431 87.3447 85.7028 87.3447 83.5007C87.3447 81.3217 88.6466 79.8168 90.6224 79.8168C92.229 79.8168 93.7616 80.8185 93.7616 83.3807V83.4084C93.7616 83.7085 93.6001 83.87 93.3 83.87H88.7204C88.7574 85.2365 89.5514 86.0028 90.7332 86.0028C91.3657 86.0028 91.8781 85.7812 92.1828 85.3473C92.3398 85.1165 92.4967 85.0103 92.7645 85.0611L93.1707 85.1349C93.4846 85.195 93.6416 85.375 93.5354 85.6104C93.1015 86.5476 92.0858 87.1431 90.7194 87.1431ZM88.7251 82.8359H92.409C92.4044 81.7511 91.7027 80.957 90.6317 80.957C89.5099 80.957 88.7805 81.8295 88.7251 82.8359ZM96.7023 86.6122L94.8834 80.4308C94.7911 80.1122 94.9388 79.9091 95.2712 79.9091H95.7513C96.0237 79.9091 96.1945 80.0384 96.2638 80.3015L97.5471 85.1165H97.6164L98.9044 80.3015C98.9736 80.0337 99.1444 79.9091 99.4168 79.9091H100.031C100.303 79.9091 100.474 80.0384 100.543 80.3015L101.822 85.0934H101.891L103.165 80.3015C103.235 80.0384 103.405 79.9091 103.678 79.9091H104.158C104.49 79.9091 104.638 80.1076 104.546 80.4308L102.731 86.6122C102.653 86.8707 102.487 87 102.214 87H101.614C101.342 87 101.171 86.8754 101.097 86.6076L99.7677 81.8803H99.6615L98.3319 86.6076C98.2581 86.8754 98.0873 87 97.8149 87H97.2194C96.947 87 96.7808 86.8707 96.7023 86.6122ZM108.072 87.157C106.724 87.157 105.676 86.3906 105.676 84.9964C105.676 83.3853 107.051 83.0344 108.395 82.8775C109.669 82.7298 110.186 82.739 110.186 82.2358V82.2035C110.186 81.4002 109.729 80.9339 108.838 80.9339C108.127 80.9339 107.661 81.2156 107.388 81.5756C107.222 81.7972 107.061 81.8942 106.797 81.8342L106.396 81.7418C106.082 81.668 105.948 81.4418 106.11 81.1555C106.668 80.2045 107.707 79.8168 108.819 79.8168C109.946 79.8168 111.571 80.2276 111.571 82.2912V86.5384C111.571 86.8384 111.409 87 111.109 87H110.684C110.384 87 110.223 86.8384 110.223 86.5384V86.0305H110.167C109.904 86.5614 109.244 87.157 108.072 87.157ZM108.372 86.049C109.521 86.049 110.191 85.2827 110.191 84.4425V83.5284C109.992 83.7269 108.93 83.8469 108.482 83.907C107.684 84.0131 107.028 84.2763 107.028 85.0149C107.028 85.6982 107.591 86.049 108.372 86.049ZM113.409 86.5384V80.3707C113.409 80.0707 113.571 79.9091 113.871 79.9091H114.282C114.582 79.9091 114.744 80.0707 114.744 80.3707V81.0355H114.817C115.076 80.2738 115.787 79.8029 116.618 79.8029C116.659 79.8029 116.71 79.8029 116.761 79.8075C117.052 79.8121 117.204 79.9922 117.204 80.283V80.6616C117.204 80.9755 117.075 81.1186 116.849 81.0955C116.733 81.0817 116.604 81.0724 116.484 81.0724C115.505 81.0724 114.79 81.7418 114.79 82.6697V86.5384C114.79 86.8384 114.628 87 114.328 87H113.871C113.571 87 113.409 86.8384 113.409 86.5384ZM120.799 87.1385C119.077 87.1385 117.835 85.7628 117.835 83.4684C117.835 81.1694 119.096 79.8168 120.808 79.8168C122.129 79.8168 122.6 80.62 122.849 81.0586H122.932V78.0071C122.932 77.707 123.094 77.5455 123.394 77.5455H123.851C124.151 77.5455 124.312 77.707 124.312 78.0071V86.5384C124.312 86.8384 124.151 87 123.851 87H123.426C123.126 87 122.964 86.8384 122.964 86.5384V85.8967H122.849C122.6 86.3491 122.092 87.1385 120.799 87.1385ZM121.104 85.9613C122.295 85.9613 122.955 84.9457 122.955 83.4545C122.955 81.9727 122.309 80.9893 121.104 80.9893C119.857 80.9893 119.23 82.0465 119.23 83.4545C119.23 84.8764 119.871 85.9613 121.104 85.9613ZM131.097 81.728L130.742 81.7926C130.474 81.8388 130.322 81.7326 130.169 81.5018C129.948 81.174 129.565 80.9109 128.928 80.9109C128.143 80.9109 127.552 81.2987 127.557 81.8434C127.552 82.3235 127.889 82.5866 128.669 82.7713L129.796 83.0298C131.097 83.3299 131.734 83.9485 131.734 84.9503C131.734 86.2337 130.548 87.1431 128.835 87.1431C127.455 87.1431 126.486 86.6122 126.102 85.652C125.987 85.3612 126.149 85.1534 126.458 85.1072L126.892 85.0426C127.164 85.0011 127.312 85.1165 127.45 85.3658C127.7 85.8043 128.171 86.0305 128.826 86.0305C129.731 86.0305 130.317 85.6012 130.317 85.0518C130.317 84.6087 129.999 84.304 129.315 84.1516L128.115 83.8885C126.786 83.593 126.176 82.9237 126.176 81.9173C126.176 80.6616 127.312 79.8168 128.914 79.8168C130.216 79.8168 131.033 80.3338 131.425 81.1694C131.564 81.4602 131.411 81.6726 131.097 81.728ZM136.803 86.5384V78.0071C136.803 77.707 136.965 77.5455 137.265 77.5455H137.722C138.022 77.5455 138.184 77.707 138.184 78.0071V81.0586H138.267C138.511 80.62 138.987 79.8168 140.303 79.8168C142.015 79.8168 143.28 81.1694 143.28 83.4684C143.28 85.7628 142.034 87.1385 140.316 87.1385C139.024 87.1385 138.516 86.3491 138.267 85.8967H138.151V86.5384C138.151 86.8384 137.99 87 137.69 87H137.265C136.965 87 136.803 86.8384 136.803 86.5384ZM138.156 83.4545C138.156 84.9457 138.821 85.9613 140.007 85.9613C141.24 85.9613 141.886 84.8764 141.886 83.4545C141.886 82.0465 141.258 80.9893 140.007 80.9893C138.802 80.9893 138.156 81.9727 138.156 83.4545ZM147.886 87.1431C145.795 87.1431 144.512 85.7028 144.512 83.5007C144.512 81.3217 145.814 79.8168 147.789 79.8168C149.396 79.8168 150.929 80.8185 150.929 83.3807V83.4084C150.929 83.7085 150.767 83.87 150.467 83.87H145.887C145.924 85.2365 146.718 86.0028 147.9 86.0028C148.533 86.0028 149.045 85.7812 149.35 85.3473C149.507 85.1165 149.664 85.0103 149.931 85.0611L150.338 85.1349C150.652 85.195 150.809 85.375 150.702 85.6104C150.268 86.5476 149.253 87.1431 147.886 87.1431ZM145.892 82.8359H149.576C149.571 81.7511 148.87 80.957 147.799 80.957C146.677 80.957 145.947 81.8295 145.892 82.8359ZM155.447 87.1431C153.388 87.1431 152.142 85.6243 152.142 83.4869C152.142 81.3217 153.434 79.8168 155.433 79.8168C156.846 79.8168 157.921 80.5508 158.263 81.6957C158.351 82.005 158.166 82.1989 157.848 82.1989H157.414C157.146 82.1989 157.003 82.0742 156.887 81.8249C156.647 81.3402 156.163 80.9801 155.456 80.9801C154.302 80.9801 153.536 81.9357 153.536 83.4545C153.536 85.0011 154.288 85.9751 155.456 85.9751C156.107 85.9751 156.624 85.6705 156.887 85.1303C157.003 84.8857 157.146 84.7564 157.414 84.7564H157.848C158.166 84.7564 158.351 84.918 158.277 85.1857C157.968 86.3398 156.943 87.1431 155.447 87.1431ZM161.9 87.157C160.552 87.157 159.504 86.3906 159.504 84.9964C159.504 83.3853 160.879 83.0344 162.223 82.8775C163.497 82.7298 164.014 82.739 164.014 82.2358V82.2035C164.014 81.4002 163.557 80.9339 162.666 80.9339C161.955 80.9339 161.489 81.2156 161.216 81.5756C161.05 81.7972 160.889 81.8942 160.626 81.8342L160.224 81.7418C159.91 81.668 159.776 81.4418 159.938 81.1555C160.496 80.2045 161.535 79.8168 162.648 79.8168C163.774 79.8168 165.399 80.2276 165.399 82.2912V86.5384C165.399 86.8384 165.237 87 164.937 87H164.513C164.213 87 164.051 86.8384 164.051 86.5384V86.0305H163.996C163.732 86.5614 163.072 87.157 161.9 87.157ZM162.2 86.049C163.349 86.049 164.019 85.2827 164.019 84.4425V83.5284C163.82 83.7269 162.758 83.8469 162.311 83.907C161.512 84.0131 160.856 84.2763 160.856 85.0149C160.856 85.6982 161.42 86.049 162.2 86.049ZM171.729 84.0593V80.3707C171.729 80.0707 171.891 79.9091 172.191 79.9091H172.653C172.953 79.9091 173.114 80.0707 173.114 80.3707V86.5384C173.114 86.8384 172.953 87 172.653 87H172.219C171.919 87 171.757 86.8384 171.757 86.5384V85.772H171.683C171.355 86.5291 170.631 87.0923 169.564 87.0923C168.202 87.0923 167.237 86.1783 167.237 84.4194V80.3707C167.237 80.0707 167.399 79.9091 167.699 79.9091H168.156C168.456 79.9091 168.618 80.0707 168.618 80.3707V84.2532C168.618 85.218 169.209 85.8366 170.063 85.8366C170.838 85.8366 171.734 85.2642 171.729 84.0593ZM179.784 81.728L179.428 81.7926C179.161 81.8388 179.008 81.7326 178.856 81.5018C178.634 81.174 178.251 80.9109 177.614 80.9109C176.829 80.9109 176.238 81.2987 176.243 81.8434C176.238 82.3235 176.575 82.5866 177.356 82.7713L178.482 83.0298C179.784 83.3299 180.421 83.9485 180.421 84.9503C180.421 86.2337 179.235 87.1431 177.522 87.1431C176.142 87.1431 175.172 86.6122 174.789 85.652C174.673 85.3612 174.835 85.1534 175.144 85.1072L175.578 85.0426C175.851 85.0011 175.998 85.1165 176.137 85.3658C176.386 85.8043 176.857 86.0305 177.513 86.0305C178.417 86.0305 179.004 85.6012 179.004 85.0518C179.004 84.6087 178.685 84.304 178.002 84.1516L176.802 83.8885C175.472 83.593 174.863 82.9237 174.863 81.9173C174.863 80.6616 175.998 79.8168 177.6 79.8168C178.902 79.8168 179.719 80.3338 180.112 81.1694C180.25 81.4602 180.098 81.6726 179.784 81.728ZM184.995 87.1431C182.903 87.1431 181.62 85.7028 181.62 83.5007C181.62 81.3217 182.922 79.8168 184.898 79.8168C186.504 79.8168 188.037 80.8185 188.037 83.3807V83.4084C188.037 83.7085 187.875 83.87 187.575 83.87H182.996C183.033 85.2365 183.827 86.0028 185.009 86.0028C185.641 86.0028 186.153 85.7812 186.458 85.3473C186.615 85.1165 186.772 85.0103 187.04 85.0611L187.446 85.1349C187.76 85.195 187.917 85.375 187.811 85.6104C187.377 86.5476 186.361 87.1431 184.995 87.1431ZM183 82.8359H186.684C186.68 81.7511 185.978 80.957 184.907 80.957C183.785 80.957 183.056 81.8295 183 82.8359ZM196.065 87.1431C193.974 87.1431 192.69 85.7028 192.69 83.5007C192.69 81.3217 193.992 79.8168 195.968 79.8168C197.575 79.8168 199.107 80.8185 199.107 83.3807V83.4084C199.107 83.7085 198.946 83.87 198.646 83.87H194.066C194.103 85.2365 194.897 86.0028 196.079 86.0028C196.711 86.0028 197.224 85.7812 197.528 85.3473C197.685 85.1165 197.842 85.0103 198.11 85.0611L198.516 85.1349C198.83 85.195 198.987 85.375 198.881 85.6104C198.447 86.5476 197.432 87.1431 196.065 87.1431ZM194.071 82.8359H197.755C197.75 81.7511 197.048 80.957 195.977 80.957C194.856 80.957 194.126 81.8295 194.071 82.8359ZM202.702 87.157C201.354 87.157 200.306 86.3906 200.306 84.9964C200.306 83.3853 201.682 83.0344 203.026 82.8775C204.3 82.7298 204.817 82.739 204.817 82.2358V82.2035C204.817 81.4002 204.36 80.9339 203.469 80.9339C202.758 80.9339 202.292 81.2156 202.019 81.5756C201.853 81.7972 201.691 81.8942 201.428 81.8342L201.027 81.7418C200.713 81.668 200.579 81.4418 200.74 81.1555C201.299 80.2045 202.338 79.8168 203.45 79.8168C204.577 79.8168 206.202 80.2276 206.202 82.2912V86.5384C206.202 86.8384 206.04 87 205.74 87H205.315C205.015 87 204.854 86.8384 204.854 86.5384V86.0305H204.798C204.535 86.5614 203.875 87.157 202.702 87.157ZM203.002 86.049C204.152 86.049 204.821 85.2827 204.821 84.4425V83.5284C204.623 83.7269 203.561 83.8469 203.113 83.907C202.315 84.0131 201.659 84.2763 201.659 85.0149C201.659 85.6982 202.222 86.049 203.002 86.049ZM208.04 86.5384V80.3707C208.04 80.0707 208.202 79.9091 208.502 79.9091H208.913C209.213 79.9091 209.374 80.0707 209.374 80.3707V81.0355H209.448C209.707 80.2738 210.418 79.8029 211.249 79.8029C211.29 79.8029 211.341 79.8029 211.392 79.8075C211.683 79.8121 211.835 79.9922 211.835 80.283V80.6616C211.835 80.9755 211.706 81.1186 211.479 81.0955C211.364 81.0817 211.235 81.0724 211.115 81.0724C210.136 81.0724 209.421 81.7418 209.421 82.6697V86.5384C209.421 86.8384 209.259 87 208.959 87H208.502C208.202 87 208.04 86.8384 208.04 86.5384ZM214.41 82.7898V86.5384C214.41 86.8384 214.248 87 213.948 87H213.491C213.191 87 213.029 86.8384 213.029 86.5384V80.3707C213.029 80.0707 213.191 79.9091 213.491 79.9091H213.893C214.193 79.9091 214.354 80.0707 214.354 80.3707V81.0632H214.442C214.77 80.3107 215.467 79.8168 216.533 79.8168C217.983 79.8168 218.948 80.7354 218.948 82.4897V86.5384C218.948 86.8384 218.786 87 218.486 87H218.029C217.729 87 217.567 86.8384 217.567 86.5384V82.6559C217.567 81.6264 217 81.0124 216.062 81.0124C215.102 81.0124 214.41 81.6587 214.41 82.7898ZM221.496 78.815C221.016 78.815 220.624 78.4457 220.624 77.9933C220.624 77.5408 221.016 77.1669 221.496 77.1669C221.972 77.1669 222.369 77.5408 222.369 77.9933C222.369 78.4457 221.972 78.815 221.496 78.815ZM220.799 86.5384V80.3707C220.799 80.0707 220.961 79.9091 221.261 79.9091H221.718C222.018 79.9091 222.179 80.0707 222.179 80.3707V86.5384C222.179 86.8384 222.018 87 221.718 87H221.261C220.961 87 220.799 86.8384 220.799 86.5384ZM225.417 82.7898V86.5384C225.417 86.8384 225.255 87 224.955 87H224.498C224.198 87 224.036 86.8384 224.036 86.5384V80.3707C224.036 80.0707 224.198 79.9091 224.498 79.9091H224.9C225.2 79.9091 225.361 80.0707 225.361 80.3707V81.0632H225.449C225.777 80.3107 226.474 79.8168 227.54 79.8168C228.99 79.8168 229.955 80.7354 229.955 82.4897V86.5384C229.955 86.8384 229.793 87 229.493 87H229.036C228.736 87 228.574 86.8384 228.574 86.5384V82.6559C228.574 81.6264 228.006 81.0124 227.069 81.0124C226.109 81.0124 225.417 81.6587 225.417 82.7898ZM234.779 89.8068C233.366 89.8068 232.475 89.2944 232 88.6204C231.824 88.3665 231.93 88.131 232.217 88.011L232.568 87.8679C232.821 87.7617 233.006 87.831 233.186 88.0433C233.472 88.3757 233.939 88.6942 234.793 88.6942C235.841 88.6942 236.602 88.2141 236.602 87.1016V85.7074H236.515C236.265 86.1598 235.762 86.8938 234.46 86.8938C232.785 86.8938 231.497 85.6889 231.497 83.4268C231.497 81.1694 232.757 79.8168 234.47 79.8168C235.79 79.8168 236.279 80.62 236.524 81.0586H236.625V80.3707C236.625 80.0707 236.787 79.9091 237.087 79.9091H237.516C237.816 79.9091 237.978 80.0707 237.978 80.3707V87.157C237.978 88.9805 236.584 89.8068 234.779 89.8068ZM234.765 85.7489C235.956 85.7489 236.616 84.8718 236.616 83.4084C236.616 81.9727 235.97 80.9893 234.765 80.9893C233.519 80.9893 232.891 82.0465 232.891 83.4084C232.891 84.8026 233.532 85.7489 234.765 85.7489ZM244.644 81.728L244.289 81.7926C244.021 81.8388 243.869 81.7326 243.716 81.5018C243.495 81.174 243.112 80.9109 242.475 80.9109C241.69 80.9109 241.099 81.2987 241.103 81.8434C241.099 82.3235 241.436 82.5866 242.216 82.7713L243.342 83.0298C244.644 83.3299 245.281 83.9485 245.281 84.9503C245.281 86.2337 244.095 87.1431 242.382 87.1431C241.002 87.1431 240.032 86.6122 239.649 85.652C239.534 85.3612 239.695 85.1534 240.005 85.1072L240.439 85.0426C240.711 85.0011 240.859 85.1165 240.997 85.3658C241.247 85.8043 241.717 86.0305 242.373 86.0305C243.278 86.0305 243.864 85.6012 243.864 85.0518C243.864 84.6087 243.546 84.304 242.862 84.1516L241.662 83.8885C240.332 83.593 239.723 82.9237 239.723 81.9173C239.723 80.6616 240.859 79.8168 242.461 79.8168C243.763 79.8168 244.58 80.3338 244.972 81.1694C245.111 81.4602 244.958 81.6726 244.644 81.728ZM252.303 87.157C250.955 87.157 249.907 86.3906 249.907 84.9964C249.907 83.3853 251.283 83.0344 252.626 82.8775C253.9 82.7298 254.417 82.739 254.417 82.2358V82.2035C254.417 81.4002 253.96 80.9339 253.069 80.9339C252.358 80.9339 251.892 81.2156 251.62 81.5756C251.454 81.7972 251.292 81.8942 251.029 81.8342L250.627 81.7418C250.313 81.668 250.179 81.4418 250.341 81.1555C250.9 80.2045 251.938 79.8168 253.051 79.8168C254.177 79.8168 255.802 80.2276 255.802 82.2912V86.5384C255.802 86.8384 255.641 87 255.341 87H254.916C254.616 87 254.454 86.8384 254.454 86.5384V86.0305H254.399C254.136 86.5614 253.476 87.157 252.303 87.157ZM252.603 86.049C253.753 86.049 254.422 85.2827 254.422 84.4425V83.5284C254.223 83.7269 253.162 83.8469 252.714 83.907C251.915 84.0131 251.26 84.2763 251.26 85.0149C251.26 85.6982 251.823 86.049 252.603 86.049ZM257.641 86.5384V80.3707C257.641 80.0707 257.802 79.9091 258.102 79.9091H258.513C258.813 79.9091 258.975 80.0707 258.975 80.3707V81.0355H259.049C259.307 80.2738 260.018 79.8029 260.849 79.8029C260.891 79.8029 260.942 79.8029 260.992 79.8075C261.283 79.8121 261.436 79.9922 261.436 80.283V80.6616C261.436 80.9755 261.306 81.1186 261.08 81.0955C260.965 81.0817 260.835 81.0724 260.715 81.0724C259.737 81.0724 259.021 81.7418 259.021 82.6697V86.5384C259.021 86.8384 258.86 87 258.559 87H258.102C257.802 87 257.641 86.8384 257.641 86.5384ZM265.432 87.1431C263.341 87.1431 262.058 85.7028 262.058 83.5007C262.058 81.3217 263.359 79.8168 265.335 79.8168C266.942 79.8168 268.475 80.8185 268.475 83.3807V83.4084C268.475 83.7085 268.313 83.87 268.013 83.87H263.433C263.47 85.2365 264.264 86.0028 265.446 86.0028C266.079 86.0028 266.591 85.7812 266.896 85.3473C267.053 85.1165 267.21 85.0103 267.477 85.0611L267.884 85.1349C268.198 85.195 268.354 85.375 268.248 85.6104C267.814 86.5476 266.799 87.1431 265.432 87.1431ZM263.438 82.8359H267.122C267.117 81.7511 266.416 80.957 265.345 80.957C264.223 80.957 263.493 81.8295 263.438 82.8359ZM275.51 87.157C274.162 87.157 273.114 86.3906 273.114 84.9964C273.114 83.3853 274.49 83.0344 275.833 82.8775C277.107 82.7298 277.624 82.739 277.624 82.2358V82.2035C277.624 81.4002 277.167 80.9339 276.276 80.9339C275.565 80.9339 275.099 81.2156 274.827 81.5756C274.661 81.7972 274.499 81.8942 274.236 81.8342L273.834 81.7418C273.52 81.668 273.386 81.4418 273.548 81.1555C274.107 80.2045 275.145 79.8168 276.258 79.8168C277.384 79.8168 279.009 80.2276 279.009 82.2912V86.5384C279.009 86.8384 278.848 87 278.548 87H278.123C277.823 87 277.661 86.8384 277.661 86.5384V86.0305H277.606C277.343 86.5614 276.683 87.157 275.51 87.157ZM275.81 86.049C276.96 86.049 277.629 85.2827 277.629 84.4425V83.5284C277.43 83.7269 276.369 83.8469 275.921 83.907C275.122 84.0131 274.467 84.2763 274.467 85.0149C274.467 85.6982 275.03 86.049 275.81 86.049ZM283.502 87.1385C281.78 87.1385 280.539 85.7628 280.539 83.4684C280.539 81.1694 281.799 79.8168 283.512 79.8168C284.832 79.8168 285.303 80.62 285.552 81.0586H285.635V78.0071C285.635 77.707 285.797 77.5455 286.097 77.5455H286.554C286.854 77.5455 287.015 77.707 287.015 78.0071V86.5384C287.015 86.8384 286.854 87 286.554 87H286.129C285.829 87 285.667 86.8384 285.667 86.5384V85.8967H285.552C285.303 86.3491 284.795 87.1385 283.502 87.1385ZM283.807 85.9613C284.998 85.9613 285.658 84.9457 285.658 83.4545C285.658 81.9727 285.012 80.9893 283.807 80.9893C282.561 80.9893 281.933 82.0465 281.933 83.4545C281.933 84.8764 282.574 85.9613 283.807 85.9613ZM291.64 87.1385C289.918 87.1385 288.676 85.7628 288.676 83.4684C288.676 81.1694 289.937 79.8168 291.649 79.8168C292.97 79.8168 293.44 80.62 293.69 81.0586H293.773V78.0071C293.773 77.707 293.934 77.5455 294.234 77.5455H294.691C294.992 77.5455 295.153 77.707 295.153 78.0071V86.5384C295.153 86.8384 294.992 87 294.691 87H294.267C293.967 87 293.805 86.8384 293.805 86.5384V85.8967H293.69C293.44 86.3491 292.933 87.1385 291.64 87.1385ZM291.945 85.9613C293.136 85.9613 293.796 84.9457 293.796 83.4545C293.796 81.9727 293.15 80.9893 291.945 80.9893C290.698 80.9893 290.07 82.0465 290.07 83.4545C290.07 84.8764 290.712 85.9613 291.945 85.9613ZM300.179 87.1431C298.088 87.1431 296.805 85.7028 296.805 83.5007C296.805 81.3217 298.107 79.8168 300.082 79.8168C301.689 79.8168 303.222 80.8185 303.222 83.3807V83.4084C303.222 83.7085 303.06 83.87 302.76 83.87H298.18C298.217 85.2365 299.011 86.0028 300.193 86.0028C300.826 86.0028 301.338 85.7812 301.643 85.3473C301.8 85.1165 301.957 85.0103 302.224 85.0611L302.631 85.1349C302.945 85.195 303.102 85.375 302.995 85.6104C302.561 86.5476 301.546 87.1431 300.179 87.1431ZM298.185 82.8359H301.869C301.864 81.7511 301.163 80.957 300.092 80.957C298.97 80.957 298.24 81.8295 298.185 82.8359ZM307.408 87.1385C305.686 87.1385 304.444 85.7628 304.444 83.4684C304.444 81.1694 305.704 79.8168 307.417 79.8168C308.737 79.8168 309.208 80.62 309.457 81.0586H309.54V78.0071C309.54 77.707 309.702 77.5455 310.002 77.5455H310.459C310.759 77.5455 310.921 77.707 310.921 78.0071V86.5384C310.921 86.8384 310.759 87 310.459 87H310.034C309.734 87 309.573 86.8384 309.573 86.5384V85.8967H309.457C309.208 86.3491 308.7 87.1385 307.408 87.1385ZM307.712 85.9613C308.903 85.9613 309.563 84.9457 309.563 83.4545C309.563 81.9727 308.917 80.9893 307.712 80.9893C306.466 80.9893 305.838 82.0465 305.838 83.4545C305.838 84.8764 306.48 85.9613 307.712 85.9613ZM316.442 86.5384V78.0071C316.442 77.707 316.604 77.5455 316.904 77.5455H317.361C317.661 77.5455 317.822 77.707 317.822 78.0071V81.0586H317.905C318.15 80.62 318.626 79.8168 319.941 79.8168C321.654 79.8168 322.919 81.1694 322.919 83.4684C322.919 85.7628 321.672 87.1385 319.955 87.1385C318.663 87.1385 318.155 86.3491 317.905 85.8967H317.79V86.5384C317.79 86.8384 317.628 87 317.328 87H316.904C316.604 87 316.442 86.8384 316.442 86.5384ZM317.795 83.4545C317.795 84.9457 318.459 85.9613 319.646 85.9613C320.878 85.9613 321.525 84.8764 321.525 83.4545C321.525 82.0465 320.897 80.9893 319.646 80.9893C318.441 80.9893 317.795 81.9727 317.795 83.4545ZM326.532 87.157C325.184 87.157 324.137 86.3906 324.137 84.9964C324.137 83.3853 325.512 83.0344 326.856 82.8775C328.13 82.7298 328.647 82.739 328.647 82.2358V82.2035C328.647 81.4002 328.19 80.9339 327.299 80.9339C326.588 80.9339 326.122 81.2156 325.849 81.5756C325.683 81.7972 325.521 81.8942 325.258 81.8342L324.857 81.7418C324.543 81.668 324.409 81.4418 324.57 81.1555C325.129 80.2045 326.168 79.8168 327.28 79.8168C328.407 79.8168 330.032 80.2276 330.032 82.2912V86.5384C330.032 86.8384 329.87 87 329.57 87H329.145C328.845 87 328.684 86.8384 328.684 86.5384V86.0305H328.628C328.365 86.5614 327.705 87.157 326.532 87.157ZM326.833 86.049C327.982 86.049 328.651 85.2827 328.651 84.4425V83.5284C328.453 83.7269 327.391 83.8469 326.943 83.907C326.145 84.0131 325.489 84.2763 325.489 85.0149C325.489 85.6982 326.052 86.049 326.833 86.049ZM334.857 87.1431C332.798 87.1431 331.552 85.6243 331.552 83.4869C331.552 81.3217 332.844 79.8168 334.843 79.8168C336.256 79.8168 337.332 80.5508 337.673 81.6957C337.761 82.005 337.576 82.1989 337.258 82.1989H336.824C336.556 82.1989 336.413 82.0742 336.297 81.8249C336.057 81.3402 335.573 80.9801 334.866 80.9801C333.712 80.9801 332.946 81.9357 332.946 83.4545C332.946 85.0011 333.698 85.9751 334.866 85.9751C335.517 85.9751 336.034 85.6705 336.297 85.1303C336.413 84.8857 336.556 84.7564 336.824 84.7564H337.258C337.576 84.7564 337.761 84.918 337.687 85.1857C337.378 86.3398 336.353 87.1431 334.857 87.1431ZM339.246 86.5384V78.0071C339.246 77.707 339.408 77.5455 339.708 77.5455H340.165C340.465 77.5455 340.627 77.707 340.627 78.0071V82.9098H340.747L343.341 80.1538C343.503 79.983 343.673 79.9091 343.909 79.9091H344.444C344.851 79.9091 344.966 80.1815 344.689 80.4769L342.353 82.9513L344.994 86.4368C345.229 86.7507 345.1 87 344.712 87H344.075C343.83 87 343.66 86.9123 343.512 86.7184L341.314 83.7962L340.627 84.484V86.5384C340.627 86.8384 340.465 87 340.165 87H339.708C339.408 87 339.246 86.8384 339.246 86.5384ZM353.233 80.3707V80.5554C353.233 80.8555 353.071 81.017 352.771 81.017H351.779V84.918C351.779 85.7166 352.18 85.8643 352.628 85.8643H352.674C352.965 85.8551 353.145 85.9521 353.205 86.2383L353.265 86.5014C353.33 86.7876 353.219 87.0092 352.924 87.0554C352.794 87.0739 352.642 87.0923 352.467 87.0923C351.377 87.1154 350.394 86.4922 350.399 85.2042V81.017H349.821C349.521 81.017 349.36 80.8555 349.36 80.5554V80.3707C349.36 80.0707 349.521 79.9091 349.821 79.9091H350.399V78.6719C350.399 78.3718 350.56 78.2102 350.86 78.2102H351.317C351.617 78.2102 351.779 78.3718 351.779 78.6719V79.9091H352.771C353.071 79.9091 353.233 80.0707 353.233 80.3707ZM357.671 87.1431C355.672 87.1431 354.365 85.6797 354.365 83.4869C354.365 81.2802 355.672 79.8168 357.671 79.8168C359.67 79.8168 360.976 81.2802 360.976 83.4869C360.976 85.6797 359.67 87.1431 357.671 87.1431ZM357.675 85.9844C358.972 85.9844 359.582 84.8441 359.582 83.4822C359.582 82.125 358.972 80.9709 357.675 80.9709C356.369 80.9709 355.759 82.125 355.759 83.4822C355.759 84.8441 356.369 85.9844 357.675 85.9844ZM366.83 89.6591C366.65 89.6591 366.483 89.6452 366.336 89.6222C366.04 89.576 365.934 89.3498 366.017 89.0589L366.096 88.7958C366.179 88.5142 366.363 88.4311 366.654 88.4634C367.176 88.5142 367.545 88.3111 367.822 87.5632L367.993 87.0923L365.588 80.44C365.472 80.1214 365.62 79.9091 365.962 79.9091H366.479C366.747 79.9091 366.917 80.0337 367.001 80.2876L368.672 85.4119H368.746L370.417 80.2876C370.5 80.0337 370.671 79.9091 370.938 79.9091H371.46C371.802 79.9091 371.945 80.1214 371.829 80.44L369.101 87.9464C368.69 89.0636 367.97 89.6591 366.83 89.6591ZM376.053 87.1431C374.055 87.1431 372.748 85.6797 372.748 83.4869C372.748 81.2802 374.055 79.8168 376.053 79.8168C378.052 79.8168 379.359 81.2802 379.359 83.4869C379.359 85.6797 378.052 87.1431 376.053 87.1431ZM376.058 85.9844C377.355 85.9844 377.965 84.8441 377.965 83.4822C377.965 82.125 377.355 80.9709 376.058 80.9709C374.752 80.9709 374.142 82.125 374.142 83.4822C374.142 84.8441 374.752 85.9844 376.058 85.9844ZM385.391 84.0593V80.3707C385.391 80.0707 385.553 79.9091 385.853 79.9091H386.315C386.615 79.9091 386.776 80.0707 386.776 80.3707V86.5384C386.776 86.8384 386.615 87 386.315 87H385.881C385.581 87 385.419 86.8384 385.419 86.5384V85.772H385.345C385.017 86.5291 384.293 87.0923 383.226 87.0923C381.864 87.0923 380.9 86.1783 380.9 84.4194V80.3707C380.9 80.0707 381.061 79.9091 381.361 79.9091H381.818C382.118 79.9091 382.28 80.0707 382.28 80.3707V84.2532C382.28 85.218 382.871 85.8366 383.725 85.8366C384.5 85.8366 385.396 85.2642 385.391 84.0593ZM388.631 86.5384V80.3707C388.631 80.0707 388.793 79.9091 389.093 79.9091H389.504C389.804 79.9091 389.965 80.0707 389.965 80.3707V81.0355H390.039C390.298 80.2738 391.009 79.8029 391.839 79.8029C391.881 79.8029 391.932 79.8029 391.983 79.8075C392.273 79.8121 392.426 79.9922 392.426 80.283V80.6616C392.426 80.9755 392.297 81.1186 392.07 81.0955C391.955 81.0817 391.826 81.0724 391.706 81.0724C390.727 81.0724 390.011 81.7418 390.011 82.6697V86.5384C390.011 86.8384 389.85 87 389.55 87H389.093C388.793 87 388.631 86.8384 388.631 86.5384ZM87.7429 97.728L87.3874 97.7926C87.1197 97.8388 86.9673 97.7326 86.815 97.5018C86.5934 97.174 86.2102 96.9109 85.5732 96.9109C84.7884 96.9109 84.1974 97.2987 84.2021 97.8434C84.1974 98.3235 84.5344 98.5866 85.3146 98.7713L86.4411 99.0298C87.7429 99.3299 88.38 99.9485 88.38 100.95C88.38 102.234 87.1935 103.143 85.4808 103.143C84.1005 103.143 83.131 102.612 82.7479 101.652C82.6325 101.361 82.794 101.153 83.1033 101.107L83.5373 101.043C83.8097 101.001 83.9574 101.116 84.0959 101.366C84.3452 101.804 84.8161 102.031 85.4716 102.031C86.3764 102.031 86.9627 101.601 86.9627 101.052C86.9627 100.609 86.6442 100.304 85.9609 100.152L84.7607 99.8885C83.4311 99.593 82.8217 98.9237 82.8217 97.9173C82.8217 96.6616 83.9574 95.8168 85.5593 95.8168C86.8612 95.8168 87.6783 96.3338 88.0707 97.1694C88.2092 97.4602 88.0568 97.6726 87.7429 97.728ZM93.2077 96.3707V96.5554C93.2077 96.8555 93.0461 97.017 92.746 97.017H91.7535V100.918C91.7535 101.717 92.1551 101.864 92.6029 101.864H92.6491C92.9399 101.855 93.1199 101.952 93.18 102.238L93.24 102.501C93.3046 102.788 93.1938 103.009 92.8983 103.055C92.7691 103.074 92.6167 103.092 92.4413 103.092C91.3518 103.115 90.3685 102.492 90.3731 101.204V97.017H89.7961C89.496 97.017 89.3344 96.8555 89.3344 96.5554V96.3707C89.3344 96.0707 89.496 95.9091 89.7961 95.9091H90.3731V94.6719C90.3731 94.3718 90.5347 94.2102 90.8348 94.2102H91.2918C91.5919 94.2102 91.7535 94.3718 91.7535 94.6719V95.9091H92.746C93.0461 95.9091 93.2077 96.0707 93.2077 96.3707ZM96.7981 103.157C95.4501 103.157 94.4022 102.391 94.4022 100.996C94.4022 99.3853 95.7779 99.0344 97.1213 98.8775C98.3954 98.7298 98.9125 98.739 98.9125 98.2358V98.2035C98.9125 97.4002 98.4554 96.9339 97.5645 96.9339C96.8535 96.9339 96.3873 97.2156 96.1149 97.5756C95.9487 97.7972 95.7871 97.8942 95.524 97.8342L95.1223 97.7418C94.8084 97.668 94.6745 97.4418 94.8361 97.1555C95.3947 96.2045 96.4334 95.8168 97.546 95.8168C98.6724 95.8168 100.297 96.2276 100.297 98.2912V102.538C100.297 102.838 100.136 103 99.8358 103H99.411C99.111 103 98.9494 102.838 98.9494 102.538V102.031H98.894C98.6309 102.561 97.9707 103.157 96.7981 103.157ZM97.0982 102.049C98.2477 102.049 98.9171 101.283 98.9171 100.442V99.5284C98.7186 99.7269 97.6568 99.8469 97.209 99.907C96.4103 100.013 95.7548 100.276 95.7548 101.015C95.7548 101.698 96.318 102.049 97.0982 102.049ZM102.136 102.538V94.0071C102.136 93.707 102.297 93.5455 102.598 93.5455H103.055C103.355 93.5455 103.516 93.707 103.516 94.0071V98.9098H103.636L106.231 96.1538C106.392 95.983 106.563 95.9091 106.799 95.9091H107.334C107.74 95.9091 107.856 96.1815 107.579 96.4769L105.243 98.9513L107.883 102.437C108.119 102.751 107.99 103 107.602 103H106.965C106.72 103 106.549 102.912 106.402 102.718L104.204 99.7962L103.516 100.484V102.538C103.516 102.838 103.355 103 103.055 103H102.598C102.297 103 102.136 102.838 102.136 102.538ZM112.136 103.143C110.045 103.143 108.762 101.703 108.762 99.5007C108.762 97.3217 110.064 95.8168 112.039 95.8168C113.646 95.8168 115.179 96.8185 115.179 99.3807V99.4084C115.179 99.7085 115.017 99.87 114.717 99.87H110.137C110.174 101.237 110.968 102.003 112.15 102.003C112.783 102.003 113.295 101.781 113.6 101.347C113.757 101.116 113.914 101.01 114.181 101.061L114.588 101.135C114.902 101.195 115.059 101.375 114.952 101.61C114.518 102.548 113.503 103.143 112.136 103.143ZM110.142 98.8359H113.826C113.821 97.7511 113.12 96.957 112.049 96.957C110.927 96.957 110.197 97.8295 110.142 98.8359ZM123.207 103.143C121.115 103.143 119.832 101.703 119.832 99.5007C119.832 97.3217 121.134 95.8168 123.11 95.8168C124.716 95.8168 126.249 96.8185 126.249 99.3807V99.4084C126.249 99.7085 126.087 99.87 125.787 99.87H121.208C121.245 101.237 122.039 102.003 123.221 102.003C123.853 102.003 124.365 101.781 124.67 101.347C124.827 101.116 124.984 101.01 125.252 101.061L125.658 101.135C125.972 101.195 126.129 101.375 126.023 101.61C125.589 102.548 124.573 103.143 123.207 103.143ZM121.212 98.8359H124.896C124.892 97.7511 124.19 96.957 123.119 96.957C121.997 96.957 121.268 97.8295 121.212 98.8359ZM133.437 96.44L131.193 102.631C131.101 102.88 130.935 103 130.667 103H129.974C129.707 103 129.54 102.88 129.448 102.631L127.2 96.44C127.085 96.1214 127.228 95.9091 127.569 95.9091H128.091C128.359 95.9091 128.529 96.0337 128.613 96.2876L130.284 101.366H130.358L132.024 96.2876C132.107 96.0337 132.278 95.9091 132.546 95.9091H133.067C133.409 95.9091 133.552 96.1214 133.437 96.44ZM137.73 103.143C135.639 103.143 134.355 101.703 134.355 99.5007C134.355 97.3217 135.657 95.8168 137.633 95.8168C139.24 95.8168 140.772 96.8185 140.772 99.3807V99.4084C140.772 99.7085 140.611 99.87 140.311 99.87H135.731C135.768 101.237 136.562 102.003 137.744 102.003C138.376 102.003 138.889 101.781 139.194 101.347C139.35 101.116 139.507 101.01 139.775 101.061L140.181 101.135C140.495 101.195 140.652 101.375 140.546 101.61C140.112 102.548 139.097 103.143 137.73 103.143ZM135.736 98.8359H139.42C139.415 97.7511 138.713 96.957 137.642 96.957C136.521 96.957 135.791 97.8295 135.736 98.8359ZM142.304 102.538V96.3707C142.304 96.0707 142.465 95.9091 142.766 95.9091H143.176C143.476 95.9091 143.638 96.0707 143.638 96.3707V97.0355H143.712C143.97 96.2738 144.681 95.8029 145.512 95.8029C145.554 95.8029 145.605 95.8029 145.655 95.8075C145.946 95.8121 146.099 95.9922 146.099 96.283V96.6616C146.099 96.9755 145.969 97.1186 145.743 97.0955C145.628 97.0817 145.498 97.0724 145.378 97.0724C144.4 97.0724 143.684 97.7418 143.684 98.6697V102.538C143.684 102.838 143.523 103 143.223 103H142.766C142.465 103 142.304 102.838 142.304 102.538ZM148.381 105.659C148.201 105.659 148.035 105.645 147.888 105.622C147.592 105.576 147.486 105.35 147.569 105.059L147.647 104.796C147.731 104.514 147.915 104.431 148.206 104.463C148.728 104.514 149.097 104.311 149.374 103.563L149.545 103.092L147.14 96.44C147.024 96.1214 147.172 95.9091 147.514 95.9091H148.031C148.298 95.9091 148.469 96.0337 148.552 96.2876L150.223 101.412H150.297L151.968 96.2876C152.052 96.0337 152.222 95.9091 152.49 95.9091H153.012C153.353 95.9091 153.497 96.1214 153.381 96.44L150.653 103.946C150.242 105.064 149.522 105.659 148.381 105.659ZM158.294 102.538V102.298C158.294 102.063 158.363 101.897 158.525 101.726L161.493 98.6513C162.509 97.5756 163.008 96.9755 163.008 96.1399C163.008 95.1982 162.278 94.6072 161.318 94.6072C160.455 94.6072 159.85 95.0827 159.688 95.8491C159.628 96.1353 159.494 96.2876 159.208 96.2876H158.765C158.46 96.2876 158.276 96.1168 158.322 95.8075C158.539 94.3533 159.748 93.4162 161.346 93.4162C163.128 93.4162 164.365 94.5795 164.365 96.0984C164.365 97.1555 163.871 97.9911 162.14 99.7408L160.261 101.707V101.777H164.056C164.356 101.777 164.517 101.938 164.517 102.238V102.538C164.517 102.838 164.356 103 164.056 103H158.756C158.456 103 158.294 102.838 158.294 102.538ZM165.865 100.692V100.309C165.865 100.087 165.911 99.9254 166.031 99.7362L169.757 93.8501C169.891 93.6378 170.062 93.5455 170.311 93.5455H171.248C171.548 93.5455 171.71 93.707 171.71 94.0071V99.9439H172.499C172.799 99.9439 172.961 100.105 172.961 100.406V100.692C172.961 100.992 172.799 101.153 172.499 101.153H171.71V102.538C171.71 102.838 171.548 103 171.248 103H170.809C170.509 103 170.348 102.838 170.348 102.538V101.153H166.327C166.027 101.153 165.865 100.992 165.865 100.692ZM170.357 99.9439V95.2443H170.283L167.361 99.87V99.9439H170.357ZM179.409 98.7898V102.538C179.409 102.838 179.247 103 178.947 103H178.49C178.19 103 178.028 102.838 178.028 102.538V94.0071C178.028 93.707 178.19 93.5455 178.49 93.5455H178.929C179.229 93.5455 179.39 93.707 179.39 94.0071V97.0632H179.478C179.81 96.2969 180.475 95.8168 181.579 95.8168C183.037 95.8168 184.007 96.7216 184.007 98.4897V102.538C184.007 102.838 183.845 103 183.545 103H183.088C182.788 103 182.627 102.838 182.627 102.538V98.6559C182.627 97.6172 182.059 97.0124 181.108 97.0124C180.124 97.0124 179.409 97.6587 179.409 98.7898ZM188.836 103.143C186.837 103.143 185.53 101.68 185.53 99.4869C185.53 97.2802 186.837 95.8168 188.836 95.8168C190.835 95.8168 192.141 97.2802 192.141 99.4869C192.141 101.68 190.835 103.143 188.836 103.143ZM188.84 101.984C190.138 101.984 190.747 100.844 190.747 99.4822C190.747 98.125 190.138 96.9709 188.84 96.9709C187.534 96.9709 186.924 98.125 186.924 99.4822C186.924 100.844 187.534 101.984 188.84 101.984ZM198.174 100.059V96.3707C198.174 96.0707 198.335 95.9091 198.635 95.9091H199.097C199.397 95.9091 199.559 96.0707 199.559 96.3707V102.538C199.559 102.838 199.397 103 199.097 103H198.663C198.363 103 198.201 102.838 198.201 102.538V101.772H198.127C197.8 102.529 197.075 103.092 196.009 103.092C194.647 103.092 193.682 102.178 193.682 100.419V96.3707C193.682 96.0707 193.843 95.9091 194.143 95.9091H194.6C194.901 95.9091 195.062 96.0707 195.062 96.3707V100.253C195.062 101.218 195.653 101.837 196.507 101.837C197.283 101.837 198.178 101.264 198.174 100.059ZM201.413 102.538V96.3707C201.413 96.0707 201.575 95.9091 201.875 95.9091H202.286C202.586 95.9091 202.747 96.0707 202.747 96.3707V97.0355H202.821C203.08 96.2738 203.791 95.8029 204.622 95.8029C204.663 95.8029 204.714 95.8029 204.765 95.8075C205.056 95.8121 205.208 95.9922 205.208 96.283V96.6616C205.208 96.9755 205.079 97.1186 204.853 97.0955C204.737 97.0817 204.608 97.0724 204.488 97.0724C203.509 97.0724 202.794 97.7418 202.794 98.6697V102.538C202.794 102.838 202.632 103 202.332 103H201.875C201.575 103 201.413 102.838 201.413 102.538ZM211.218 97.728L210.862 97.7926C210.594 97.8388 210.442 97.7326 210.29 97.5018C210.068 97.174 209.685 96.9109 209.048 96.9109C208.263 96.9109 207.672 97.2987 207.677 97.8434C207.672 98.3235 208.009 98.5866 208.789 98.7713L209.916 99.0298C211.218 99.3299 211.855 99.9485 211.855 100.95C211.855 102.234 210.668 103.143 208.955 103.143C207.575 103.143 206.606 102.612 206.222 101.652C206.107 101.361 206.269 101.153 206.578 101.107L207.012 101.043C207.284 101.001 207.432 101.116 207.57 101.366C207.82 101.804 208.291 102.031 208.946 102.031C209.851 102.031 210.437 101.601 210.437 101.052C210.437 100.609 210.119 100.304 209.436 100.152L208.235 99.8885C206.906 99.593 206.296 98.9237 206.296 97.9173C206.296 96.6616 207.432 95.8168 209.034 95.8168C210.336 95.8168 211.153 96.3338 211.545 97.1694C211.684 97.4602 211.531 97.6726 211.218 97.728ZM214.282 103.088C213.774 103.088 213.358 102.677 213.358 102.164C213.358 101.661 213.774 101.246 214.282 101.246C214.785 101.246 215.205 101.661 215.205 102.164C215.205 102.677 214.785 103.088 214.282 103.088ZM222.193 102.608L219.825 94.0625C219.737 93.7393 219.89 93.5455 220.217 93.5455H220.771C221.048 93.5455 221.214 93.6747 221.284 93.9425L223.024 100.867H223.112L224.926 93.9425C224.995 93.6793 225.166 93.5455 225.439 93.5455H226.103C226.376 93.5455 226.547 93.6793 226.616 93.9425L228.43 100.872H228.518L230.254 93.9425C230.318 93.6747 230.489 93.5455 230.766 93.5455H231.325C231.652 93.5455 231.805 93.7393 231.717 94.0625L229.344 102.608C229.27 102.875 229.099 103 228.827 103H228.204C227.931 103 227.761 102.875 227.687 102.608L225.808 95.9183H225.734L223.855 102.608C223.781 102.875 223.61 103 223.338 103H222.71C222.438 103 222.267 102.875 222.193 102.608ZM234.43 98.7898V102.538C234.43 102.838 234.269 103 233.969 103H233.512C233.212 103 233.05 102.838 233.05 102.538V94.0071C233.05 93.707 233.212 93.5455 233.512 93.5455H233.95C234.25 93.5455 234.412 93.707 234.412 94.0071V97.0632H234.5C234.832 96.2969 235.497 95.8168 236.6 95.8168C238.059 95.8168 239.028 96.7216 239.028 98.4897V102.538C239.028 102.838 238.867 103 238.567 103H238.11C237.81 103 237.648 102.838 237.648 102.538V98.6559C237.648 97.6172 237.08 97.0124 236.129 97.0124C235.146 97.0124 234.43 97.6587 234.43 98.7898ZM243.926 103.143C241.835 103.143 240.552 101.703 240.552 99.5007C240.552 97.3217 241.854 95.8168 243.829 95.8168C245.436 95.8168 246.969 96.8185 246.969 99.3807V99.4084C246.969 99.7085 246.807 99.87 246.507 99.87H241.927C241.964 101.237 242.758 102.003 243.94 102.003C244.573 102.003 245.085 101.781 245.39 101.347C245.547 101.116 245.704 101.01 245.972 101.061L246.378 101.135C246.692 101.195 246.849 101.375 246.742 101.61C246.309 102.548 245.293 103.143 243.926 103.143ZM241.932 98.8359H245.616C245.611 97.7511 244.91 96.957 243.839 96.957C242.717 96.957 241.987 97.8295 241.932 98.8359ZM249.881 98.7898V102.538C249.881 102.838 249.719 103 249.419 103H248.962C248.662 103 248.5 102.838 248.5 102.538V96.3707C248.5 96.0707 248.662 95.9091 248.962 95.9091H249.363C249.664 95.9091 249.825 96.0707 249.825 96.3707V97.0632H249.913C250.241 96.3107 250.938 95.8168 252.004 95.8168C253.454 95.8168 254.419 96.7354 254.419 98.4897V102.538C254.419 102.838 254.257 103 253.957 103H253.5C253.2 103 253.038 102.838 253.038 102.538V98.6559C253.038 97.6264 252.47 97.0124 251.533 97.0124C250.573 97.0124 249.881 97.6587 249.881 98.7898ZM262.697 103.143C260.698 103.143 259.392 101.68 259.392 99.4869C259.392 97.2802 260.698 95.8168 262.697 95.8168C264.696 95.8168 266.002 97.2802 266.002 99.4869C266.002 101.68 264.696 103.143 262.697 103.143ZM262.702 101.984C263.999 101.984 264.608 100.844 264.608 99.4822C264.608 98.125 263.999 96.9709 262.702 96.9709C261.395 96.9709 260.786 98.125 260.786 99.4822C260.786 100.844 261.395 101.984 262.702 101.984ZM270.918 96.3707V96.5554C270.918 96.8555 270.756 97.017 270.456 97.017H269.39V102.538C269.39 102.838 269.228 103 268.928 103H268.466C268.166 103 268.005 102.838 268.005 102.538V97.017H267.372C267.072 97.017 266.911 96.8555 266.911 96.5554V96.3707C266.911 96.0707 267.072 95.9091 267.372 95.9091H268.005V95.0874C268.005 93.7578 268.988 93.1023 270.11 93.1023C270.387 93.1023 270.627 93.13 270.821 93.1669C271.116 93.2269 271.218 93.4485 271.135 93.7347L271.066 93.9794C270.987 94.261 270.839 94.3672 270.636 94.3303C270.544 94.3118 270.442 94.3026 270.322 94.3026C269.648 94.3026 269.39 94.6442 269.39 95.272V95.9091H270.456C270.756 95.9091 270.918 96.0707 270.918 96.3707ZM275.717 96.3707V96.5554C275.717 96.8555 275.555 97.017 275.255 97.017H274.189V102.538C274.189 102.838 274.027 103 273.727 103H273.265C272.965 103 272.804 102.838 272.804 102.538V97.017H272.171C271.871 97.017 271.71 96.8555 271.71 96.5554V96.3707C271.71 96.0707 271.871 95.9091 272.171 95.9091H272.804V95.0874C272.804 93.7578 273.787 93.1023 274.909 93.1023C275.186 93.1023 275.426 93.13 275.62 93.1669C275.915 93.2269 276.017 93.4485 275.934 93.7347L275.864 93.9794C275.786 94.261 275.638 94.3672 275.435 94.3303C275.343 94.3118 275.241 94.3026 275.121 94.3026C274.447 94.3026 274.189 94.6442 274.189 95.272V95.9091H275.255C275.555 95.9091 275.717 96.0707 275.717 96.3707ZM278.131 102.201V102.211C278.011 103.134 277.656 104.246 277.411 104.944C277.319 105.193 277.152 105.308 276.885 105.308H276.82C276.497 105.308 276.34 105.119 276.409 104.805C276.552 104.15 276.741 103.185 276.825 102.224L276.829 102.146C276.857 101.86 277.023 101.707 277.314 101.707H277.702C278.016 101.707 278.173 101.892 278.131 102.201ZM283.438 102.538V96.3707C283.438 96.0707 283.599 95.9091 283.899 95.9091H284.31C284.61 95.9091 284.772 96.0707 284.772 96.3707V97.0355H284.846C285.104 96.2738 285.815 95.8029 286.646 95.8029C286.688 95.8029 286.738 95.8029 286.789 95.8075C287.08 95.8121 287.232 95.9922 287.232 96.283V96.6616C287.232 96.9755 287.103 97.1186 286.877 97.0955C286.762 97.0817 286.632 97.0724 286.512 97.0724C285.534 97.0724 284.818 97.7418 284.818 98.6697V102.538C284.818 102.838 284.656 103 284.356 103H283.899C283.599 103 283.438 102.838 283.438 102.538ZM291.229 103.143C289.138 103.143 287.854 101.703 287.854 99.5007C287.854 97.3217 289.156 95.8168 291.132 95.8168C292.739 95.8168 294.271 96.8185 294.271 99.3807V99.4084C294.271 99.7085 294.11 99.87 293.81 99.87H289.23C289.267 101.237 290.061 102.003 291.243 102.003C291.875 102.003 292.388 101.781 292.693 101.347C292.85 101.116 293.006 101.01 293.274 101.061L293.68 101.135C293.994 101.195 294.151 101.375 294.045 101.61C293.611 102.548 292.596 103.143 291.229 103.143ZM289.235 98.8359H292.919C292.914 97.7511 292.212 96.957 291.141 96.957C290.02 96.957 289.29 97.8295 289.235 98.8359ZM297.212 102.612L295.393 96.4308C295.301 96.1122 295.449 95.9091 295.781 95.9091H296.261C296.533 95.9091 296.704 96.0384 296.774 96.3015L298.057 101.116H298.126L299.414 96.3015C299.483 96.0337 299.654 95.9091 299.927 95.9091H300.541C300.813 95.9091 300.984 96.0384 301.053 96.3015L302.332 101.093H302.401L303.675 96.3015C303.744 96.0384 303.915 95.9091 304.188 95.9091H304.668C305 95.9091 305.148 96.1076 305.055 96.4308L303.241 102.612C303.163 102.871 302.997 103 302.724 103H302.124C301.852 103 301.681 102.875 301.607 102.608L300.277 97.8803H300.171L298.842 102.608C298.768 102.875 298.597 103 298.325 103H297.729C297.457 103 297.291 102.871 297.212 102.612ZM308.581 103.157C307.233 103.157 306.185 102.391 306.185 100.996C306.185 99.3853 307.561 99.0344 308.904 98.8775C310.179 98.7298 310.696 98.739 310.696 98.2358V98.2035C310.696 97.4002 310.239 96.9339 309.348 96.9339C308.637 96.9339 308.17 97.2156 307.898 97.5756C307.732 97.7972 307.57 97.8942 307.307 97.8342L306.906 97.7418C306.592 97.668 306.458 97.4418 306.619 97.1555C307.178 96.2045 308.217 95.8168 309.329 95.8168C310.456 95.8168 312.081 96.2276 312.081 98.2912V102.538C312.081 102.838 311.919 103 311.619 103H311.194C310.894 103 310.733 102.838 310.733 102.538V102.031H310.677C310.414 102.561 309.754 103.157 308.581 103.157ZM308.881 102.049C310.031 102.049 310.7 101.283 310.7 100.442V99.5284C310.502 99.7269 309.44 99.8469 308.992 99.907C308.194 100.013 307.538 100.276 307.538 101.015C307.538 101.698 308.101 102.049 308.881 102.049ZM313.919 102.538V96.3707C313.919 96.0707 314.081 95.9091 314.381 95.9091H314.792C315.092 95.9091 315.253 96.0707 315.253 96.3707V97.0355H315.327C315.586 96.2738 316.297 95.8029 317.128 95.8029C317.169 95.8029 317.22 95.8029 317.271 95.8075C317.562 95.8121 317.714 95.9922 317.714 96.283V96.6616C317.714 96.9755 317.585 97.1186 317.358 97.0955C317.243 97.0817 317.114 97.0724 316.994 97.0724C316.015 97.0724 315.299 97.7418 315.299 98.6697V102.538C315.299 102.838 315.138 103 314.838 103H314.381C314.081 103 313.919 102.838 313.919 102.538ZM321.309 103.138C319.587 103.138 318.345 101.763 318.345 99.4684C318.345 97.1694 319.605 95.8168 321.318 95.8168C322.638 95.8168 323.109 96.62 323.359 97.0586H323.442V94.0071C323.442 93.707 323.603 93.5455 323.903 93.5455H324.36C324.661 93.5455 324.822 93.707 324.822 94.0071V102.538C324.822 102.838 324.661 103 324.36 103H323.936C323.636 103 323.474 102.838 323.474 102.538V101.897H323.359C323.109 102.349 322.602 103.138 321.309 103.138ZM321.614 101.961C322.805 101.961 323.465 100.946 323.465 99.4545C323.465 97.9727 322.819 96.9893 321.614 96.9893C320.367 96.9893 319.739 98.0465 319.739 99.4545C319.739 100.876 320.381 101.961 321.614 101.961ZM331.607 97.728L331.252 97.7926C330.984 97.8388 330.832 97.7326 330.679 97.5018C330.458 97.174 330.074 96.9109 329.437 96.9109C328.653 96.9109 328.062 97.2987 328.066 97.8434C328.062 98.3235 328.399 98.5866 329.179 98.7713L330.305 99.0298C331.607 99.3299 332.244 99.9485 332.244 100.95C332.244 102.234 331.058 103.143 329.345 103.143C327.965 103.143 326.995 102.612 326.612 101.652C326.497 101.361 326.658 101.153 326.968 101.107L327.402 101.043C327.674 101.001 327.822 101.116 327.96 101.366C328.209 101.804 328.68 102.031 329.336 102.031C330.241 102.031 330.827 101.601 330.827 101.052C330.827 100.609 330.508 100.304 329.825 100.152L328.625 99.8885C327.295 99.593 326.686 98.9237 326.686 97.9173C326.686 96.6616 327.822 95.8168 329.424 95.8168C330.725 95.8168 331.543 96.3338 331.935 97.1694C332.073 97.4602 331.921 97.6726 331.607 97.728ZM339.266 103.157C337.918 103.157 336.87 102.391 336.87 100.996C336.87 99.3853 338.246 99.0344 339.589 98.8775C340.863 98.7298 341.38 98.739 341.38 98.2358V98.2035C341.38 97.4002 340.923 96.9339 340.032 96.9339C339.321 96.9339 338.855 97.2156 338.583 97.5756C338.416 97.7972 338.255 97.8942 337.992 97.8342L337.59 97.7418C337.276 97.668 337.142 97.4418 337.304 97.1555C337.862 96.2045 338.901 95.8168 340.014 95.8168C341.14 95.8168 342.765 96.2276 342.765 98.2912V102.538C342.765 102.838 342.604 103 342.304 103H341.879C341.579 103 341.417 102.838 341.417 102.538V102.031H341.362C341.099 102.561 340.438 103.157 339.266 103.157ZM339.566 102.049C340.715 102.049 341.385 101.283 341.385 100.442V99.5284C341.186 99.7269 340.125 99.8469 339.677 99.907C338.878 100.013 338.223 100.276 338.223 101.015C338.223 101.698 338.786 102.049 339.566 102.049ZM347.591 103.143C345.532 103.143 344.285 101.624 344.285 99.4869C344.285 97.3217 345.578 95.8168 347.577 95.8168C348.989 95.8168 350.065 96.5508 350.407 97.6957C350.494 98.005 350.31 98.1989 349.991 98.1989H349.557C349.289 98.1989 349.146 98.0742 349.031 97.8249C348.791 97.3402 348.306 96.9801 347.6 96.9801C346.446 96.9801 345.679 97.9357 345.679 99.4545C345.679 101.001 346.432 101.975 347.6 101.975C348.251 101.975 348.768 101.67 349.031 101.13C349.146 100.886 349.289 100.756 349.557 100.756H349.991C350.31 100.756 350.494 100.918 350.42 101.186C350.111 102.34 349.086 103.143 347.591 103.143ZM354.967 103.143C352.908 103.143 351.661 101.624 351.661 99.4869C351.661 97.3217 352.954 95.8168 354.953 95.8168C356.365 95.8168 357.441 96.5508 357.783 97.6957C357.87 98.005 357.686 98.1989 357.367 98.1989H356.933C356.665 98.1989 356.522 98.0742 356.407 97.8249C356.167 97.3402 355.682 96.9801 354.976 96.9801C353.822 96.9801 353.055 97.9357 353.055 99.4545C353.055 101.001 353.808 101.975 354.976 101.975C355.627 101.975 356.144 101.67 356.407 101.13C356.522 100.886 356.665 100.756 356.933 100.756H357.367C357.686 100.756 357.87 100.918 357.796 101.186C357.487 102.34 356.462 103.143 354.967 103.143ZM363.847 100.059V96.3707C363.847 96.0707 364.009 95.9091 364.309 95.9091H364.771C365.071 95.9091 365.232 96.0707 365.232 96.3707V102.538C365.232 102.838 365.071 103 364.771 103H364.337C364.037 103 363.875 102.838 363.875 102.538V101.772H363.801C363.474 102.529 362.749 103.092 361.682 103.092C360.32 103.092 359.356 102.178 359.356 100.419V96.3707C359.356 96.0707 359.517 95.9091 359.817 95.9091H360.274C360.574 95.9091 360.736 96.0707 360.736 96.3707V100.253C360.736 101.218 361.327 101.837 362.181 101.837C362.956 101.837 363.852 101.264 363.847 100.059ZM367.087 102.538V96.3707C367.087 96.0707 367.249 95.9091 367.549 95.9091H367.95C368.25 95.9091 368.412 96.0707 368.412 96.3707V97.0632H368.5C368.795 96.283 369.492 95.8168 370.429 95.8168C371.376 95.8168 372.027 96.2876 372.336 97.0632H372.41C372.752 96.3061 373.518 95.8168 374.538 95.8168C375.821 95.8168 376.726 96.6246 376.726 98.245V102.538C376.726 102.838 376.565 103 376.265 103H375.808C375.508 103 375.346 102.838 375.346 102.538V98.3743C375.346 97.4141 374.746 97.0078 374.016 97.0078C373.116 97.0078 372.595 97.6264 372.595 98.4805V102.538C372.595 102.838 372.433 103 372.133 103H371.68C371.38 103 371.219 102.838 371.219 102.538V98.2866C371.219 97.5156 370.688 97.0078 369.922 97.0078C369.137 97.0078 368.467 97.6726 368.467 98.6282V102.538C368.467 102.838 368.306 103 368.006 103H367.549C367.249 103 367.087 102.838 367.087 102.538ZM383.068 100.059V96.3707C383.068 96.0707 383.23 95.9091 383.53 95.9091H383.991C384.292 95.9091 384.453 96.0707 384.453 96.3707V102.538C384.453 102.838 384.292 103 383.991 103H383.558C383.257 103 383.096 102.838 383.096 102.538V101.772H383.022C382.694 102.529 381.969 103.092 380.903 103.092C379.541 103.092 378.576 102.178 378.576 100.419V96.3707C378.576 96.0707 378.738 95.9091 379.038 95.9091H379.495C379.795 95.9091 379.957 96.0707 379.957 96.3707V100.253C379.957 101.218 380.548 101.837 381.402 101.837C382.177 101.837 383.073 101.264 383.068 100.059ZM387.688 94.0071V102.538C387.688 102.838 387.527 103 387.226 103H386.769C386.469 103 386.308 102.838 386.308 102.538V94.0071C386.308 93.707 386.469 93.5455 386.769 93.5455H387.226C387.527 93.5455 387.688 93.707 387.688 94.0071ZM391.609 103.157C390.261 103.157 389.213 102.391 389.213 100.996C389.213 99.3853 390.588 99.0344 391.932 98.8775C393.206 98.7298 393.723 98.739 393.723 98.2358V98.2035C393.723 97.4002 393.266 96.9339 392.375 96.9339C391.664 96.9339 391.198 97.2156 390.925 97.5756C390.759 97.7972 390.598 97.8942 390.335 97.8342L389.933 97.7418C389.619 97.668 389.485 97.4418 389.647 97.1555C390.205 96.2045 391.244 95.8168 392.357 95.8168C393.483 95.8168 395.108 96.2276 395.108 98.2912V102.538C395.108 102.838 394.946 103 394.646 103H394.222C393.922 103 393.76 102.838 393.76 102.538V102.031H393.705C393.441 102.561 392.781 103.157 391.609 103.157ZM391.909 102.049C393.058 102.049 393.728 101.283 393.728 100.442V99.5284C393.529 99.7269 392.467 99.8469 392.02 99.907C391.221 100.013 390.565 100.276 390.565 101.015C390.565 101.698 391.129 102.049 391.909 102.049ZM400.256 96.3707V96.5554C400.256 96.8555 400.095 97.017 399.795 97.017H398.802V100.918C398.802 101.717 399.204 101.864 399.652 101.864H399.698C399.989 101.855 400.169 101.952 400.229 102.238L400.289 102.501C400.353 102.788 400.243 103.009 399.947 103.055C399.818 103.074 399.666 103.092 399.49 103.092C398.401 103.115 397.417 102.492 397.422 101.204V97.017H396.845C396.545 97.017 396.383 96.8555 396.383 96.5554V96.3707C396.383 96.0707 396.545 95.9091 396.845 95.9091H397.422V94.6719C397.422 94.3718 397.584 94.2102 397.884 94.2102H398.341C398.641 94.2102 398.802 94.3718 398.802 94.6719V95.9091H399.795C400.095 95.9091 400.256 96.0707 400.256 96.3707ZM404.763 103.143C402.672 103.143 401.389 101.703 401.389 99.5007C401.389 97.3217 402.691 95.8168 404.666 95.8168C406.273 95.8168 407.806 96.8185 407.806 99.3807V99.4084C407.806 99.7085 407.644 99.87 407.344 99.87H402.764C402.801 101.237 403.595 102.003 404.777 102.003C405.41 102.003 405.922 101.781 406.227 101.347C406.384 101.116 406.541 101.01 406.808 101.061L407.215 101.135C407.529 101.195 407.686 101.375 407.579 101.61C407.145 102.548 406.13 103.143 404.763 103.143ZM402.769 98.8359H406.453C406.448 97.7511 405.747 96.957 404.676 96.957C403.554 96.957 402.824 97.8295 402.769 98.8359ZM87.7429 113.728L87.3874 113.793C87.1197 113.839 86.9673 113.733 86.815 113.502C86.5934 113.174 86.2102 112.911 85.5732 112.911C84.7884 112.911 84.1974 113.299 84.2021 113.843C84.1974 114.324 84.5344 114.587 85.3146 114.771L86.4411 115.03C87.7429 115.33 88.38 115.949 88.38 116.95C88.38 118.234 87.1935 119.143 85.4808 119.143C84.1005 119.143 83.131 118.612 82.7479 117.652C82.6325 117.361 82.794 117.153 83.1033 117.107L83.5373 117.043C83.8097 117.001 83.9574 117.116 84.0959 117.366C84.3452 117.804 84.8161 118.031 85.4716 118.031C86.3764 118.031 86.9627 117.601 86.9627 117.052C86.9627 116.609 86.6442 116.304 85.9609 116.152L84.7607 115.888C83.4311 115.593 82.8217 114.924 82.8217 113.917C82.8217 112.662 83.9574 111.817 85.5593 111.817C86.8612 111.817 87.6783 112.334 88.0707 113.169C88.2092 113.46 88.0568 113.673 87.7429 113.728ZM92.9537 119.143C90.8625 119.143 89.5791 117.703 89.5791 115.501C89.5791 113.322 90.8809 111.817 92.8568 111.817C94.4633 111.817 95.996 112.819 95.996 115.381V115.408C95.996 115.708 95.8344 115.87 95.5344 115.87H90.9548C90.9917 117.237 91.7858 118.003 92.9676 118.003C93.6001 118.003 94.1125 117.781 94.4172 117.347C94.5741 117.116 94.7311 117.01 94.9988 117.061L95.4051 117.135C95.719 117.195 95.876 117.375 95.7698 117.61C95.3358 118.548 94.3202 119.143 92.9537 119.143ZM90.9594 114.836H94.6434C94.6388 113.751 93.9371 112.957 92.866 112.957C91.7442 112.957 91.0148 113.83 90.9594 114.836ZM97.5275 121.197V112.371C97.5275 112.071 97.6891 111.909 97.9892 111.909H98.4139C98.714 111.909 98.8755 112.071 98.8755 112.371V113.059H98.9909C99.2356 112.62 99.7111 111.817 101.027 111.817C102.74 111.817 104.004 113.169 104.004 115.468C104.004 117.763 102.758 119.138 101.041 119.138C99.748 119.138 99.2402 118.349 98.9909 117.897H98.9078V121.197C98.9078 121.498 98.7463 121.659 98.4462 121.659H97.9892C97.6891 121.659 97.5275 121.498 97.5275 121.197ZM98.8801 115.455C98.8801 116.946 99.5449 117.961 100.731 117.961C101.964 117.961 102.61 116.876 102.61 115.455C102.61 114.047 101.982 112.989 100.731 112.989C99.5265 112.989 98.8801 113.973 98.8801 115.455ZM107.615 119.157C106.267 119.157 105.219 118.391 105.219 116.996C105.219 115.385 106.594 115.034 107.938 114.877C109.212 114.73 109.729 114.739 109.729 114.236V114.203C109.729 113.4 109.272 112.934 108.381 112.934C107.67 112.934 107.204 113.216 106.931 113.576C106.765 113.797 106.604 113.894 106.34 113.834L105.939 113.742C105.625 113.668 105.491 113.442 105.653 113.156C106.211 112.205 107.25 111.817 108.362 111.817C109.489 111.817 111.114 112.228 111.114 114.291V118.538C111.114 118.838 110.952 119 110.652 119H110.227C109.927 119 109.766 118.838 109.766 118.538V118.031H109.71C109.447 118.561 108.787 119.157 107.615 119.157ZM107.915 118.049C109.064 118.049 109.733 117.283 109.733 116.442V115.528C109.535 115.727 108.473 115.847 108.025 115.907C107.227 116.013 106.571 116.276 106.571 117.015C106.571 117.698 107.134 118.049 107.915 118.049ZM112.952 118.538V112.371C112.952 112.071 113.114 111.909 113.414 111.909H113.825C114.125 111.909 114.286 112.071 114.286 112.371V113.036H114.36C114.619 112.274 115.33 111.803 116.161 111.803C116.202 111.803 116.253 111.803 116.304 111.808C116.595 111.812 116.747 111.992 116.747 112.283V112.662C116.747 112.975 116.618 113.119 116.392 113.096C116.276 113.082 116.147 113.072 116.027 113.072C115.048 113.072 114.333 113.742 114.333 114.67V118.538C114.333 118.838 114.171 119 113.871 119H113.414C113.114 119 112.952 118.838 112.952 118.538ZM119.942 119.157C118.594 119.157 117.546 118.391 117.546 116.996C117.546 115.385 118.921 115.034 120.265 114.877C121.539 114.73 122.056 114.739 122.056 114.236V114.203C122.056 113.4 121.599 112.934 120.708 112.934C119.997 112.934 119.531 113.216 119.258 113.576C119.092 113.797 118.931 113.894 118.668 113.834L118.266 113.742C117.952 113.668 117.818 113.442 117.98 113.156C118.538 112.205 119.577 111.817 120.69 111.817C121.816 111.817 123.441 112.228 123.441 114.291V118.538C123.441 118.838 123.279 119 122.979 119H122.555C122.255 119 122.093 118.838 122.093 118.538V118.031H122.038C121.774 118.561 121.114 119.157 119.942 119.157ZM120.242 118.049C121.391 118.049 122.061 117.283 122.061 116.442V115.528C121.862 115.727 120.8 115.847 120.353 115.907C119.554 116.013 118.898 116.276 118.898 117.015C118.898 117.698 119.462 118.049 120.242 118.049ZM128.589 112.371V112.555C128.589 112.855 128.428 113.017 128.128 113.017H127.135V116.918C127.135 117.717 127.537 117.864 127.985 117.864H128.031C128.322 117.855 128.502 117.952 128.562 118.238L128.622 118.501C128.686 118.788 128.576 119.009 128.28 119.055C128.151 119.074 127.999 119.092 127.823 119.092C126.734 119.115 125.75 118.492 125.755 117.204V113.017H125.178C124.878 113.017 124.716 112.855 124.716 112.555V112.371C124.716 112.071 124.878 111.909 125.178 111.909H125.755V110.672C125.755 110.372 125.917 110.21 126.217 110.21H126.674C126.974 110.21 127.135 110.372 127.135 110.672V111.909H128.128C128.428 111.909 128.589 112.071 128.589 112.371ZM133.096 119.143C131.005 119.143 129.722 117.703 129.722 115.501C129.722 113.322 131.024 111.817 132.999 111.817C134.606 111.817 136.139 112.819 136.139 115.381V115.408C136.139 115.708 135.977 115.87 135.677 115.87H131.097C131.134 117.237 131.928 118.003 133.11 118.003C133.743 118.003 134.255 117.781 134.56 117.347C134.717 117.116 134.874 117.01 135.141 117.061L135.548 117.135C135.862 117.195 136.019 117.375 135.912 117.61C135.478 118.548 134.463 119.143 133.096 119.143ZM131.102 114.836H134.786C134.781 113.751 134.08 112.957 133.009 112.957C131.887 112.957 131.157 113.83 131.102 114.836ZM139.05 110.007V118.538C139.05 118.838 138.889 119 138.589 119H138.132C137.832 119 137.67 118.838 137.67 118.538V110.007C137.67 109.707 137.832 109.545 138.132 109.545H138.589C138.889 109.545 139.05 109.707 139.05 110.007ZM141.78 121.659C141.6 121.659 141.434 121.645 141.286 121.622C140.991 121.576 140.884 121.35 140.967 121.059L141.046 120.796C141.129 120.514 141.314 120.431 141.604 120.463C142.126 120.514 142.495 120.311 142.772 119.563L142.943 119.092L140.538 112.44C140.423 112.121 140.57 111.909 140.912 111.909H141.429C141.697 111.909 141.868 112.034 141.951 112.288L143.622 117.412H143.696L145.367 112.288C145.45 112.034 145.621 111.909 145.889 111.909H146.41C146.752 111.909 146.895 112.121 146.78 112.44L144.051 119.946C143.64 121.064 142.92 121.659 141.78 121.659ZM153.775 119.157C152.427 119.157 151.379 118.391 151.379 116.996C151.379 115.385 152.754 115.034 154.098 114.877C155.372 114.73 155.889 114.739 155.889 114.236V114.203C155.889 113.4 155.432 112.934 154.541 112.934C153.83 112.934 153.364 113.216 153.091 113.576C152.925 113.797 152.764 113.894 152.501 113.834L152.099 113.742C151.785 113.668 151.651 113.442 151.813 113.156C152.371 112.205 153.41 111.817 154.523 111.817C155.649 111.817 157.274 112.228 157.274 114.291V118.538C157.274 118.838 157.112 119 156.812 119H156.388C156.088 119 155.926 118.838 155.926 118.538V118.031H155.871C155.607 118.561 154.947 119.157 153.775 119.157ZM154.075 118.049C155.224 118.049 155.894 117.283 155.894 116.442V115.528C155.695 115.727 154.633 115.847 154.186 115.907C153.387 116.013 152.731 116.276 152.731 117.015C152.731 117.698 153.295 118.049 154.075 118.049ZM160.493 114.79V118.538C160.493 118.838 160.331 119 160.031 119H159.574C159.274 119 159.112 118.838 159.112 118.538V112.371C159.112 112.071 159.274 111.909 159.574 111.909H159.976C160.276 111.909 160.437 112.071 160.437 112.371V113.063H160.525C160.853 112.311 161.55 111.817 162.616 111.817C164.066 111.817 165.031 112.735 165.031 114.49V118.538C165.031 118.838 164.869 119 164.569 119H164.112C163.812 119 163.65 118.838 163.65 118.538V114.656C163.65 113.626 163.083 113.012 162.146 113.012C161.185 113.012 160.493 113.659 160.493 114.79ZM169.536 119.138C167.815 119.138 166.573 117.763 166.573 115.468C166.573 113.169 167.833 111.817 169.546 111.817C170.866 111.817 171.337 112.62 171.586 113.059H171.669V110.007C171.669 109.707 171.831 109.545 172.131 109.545H172.588C172.888 109.545 173.05 109.707 173.05 110.007V118.538C173.05 118.838 172.888 119 172.588 119H172.163C171.863 119 171.702 118.838 171.702 118.538V117.897H171.586C171.337 118.349 170.829 119.138 169.536 119.138ZM169.841 117.961C171.032 117.961 171.692 116.946 171.692 115.455C171.692 113.973 171.046 112.989 169.841 112.989C168.595 112.989 167.967 114.047 167.967 115.455C167.967 116.876 168.609 117.961 169.841 117.961ZM181.447 119.143C179.388 119.143 178.142 117.624 178.142 115.487C178.142 113.322 179.434 111.817 181.433 111.817C182.846 111.817 183.921 112.551 184.263 113.696C184.351 114.005 184.166 114.199 183.848 114.199H183.414C183.146 114.199 183.003 114.074 182.887 113.825C182.647 113.34 182.163 112.98 181.456 112.98C180.302 112.98 179.536 113.936 179.536 115.455C179.536 117.001 180.288 117.975 181.456 117.975C182.107 117.975 182.624 117.67 182.887 117.13C183.003 116.886 183.146 116.756 183.414 116.756H183.848C184.166 116.756 184.351 116.918 184.277 117.186C183.968 118.34 182.943 119.143 181.447 119.143ZM187.9 119.157C186.552 119.157 185.504 118.391 185.504 116.996C185.504 115.385 186.879 115.034 188.223 114.877C189.497 114.73 190.014 114.739 190.014 114.236V114.203C190.014 113.4 189.557 112.934 188.666 112.934C187.955 112.934 187.489 113.216 187.216 113.576C187.05 113.797 186.889 113.894 186.626 113.834L186.224 113.742C185.91 113.668 185.776 113.442 185.938 113.156C186.496 112.205 187.535 111.817 188.648 111.817C189.774 111.817 191.399 112.228 191.399 114.291V118.538C191.399 118.838 191.237 119 190.937 119H190.513C190.213 119 190.051 118.838 190.051 118.538V118.031H189.996C189.732 118.561 189.072 119.157 187.9 119.157ZM188.2 118.049C189.349 118.049 190.019 117.283 190.019 116.442V115.528C189.82 115.727 188.758 115.847 188.311 115.907C187.512 116.013 186.856 116.276 186.856 117.015C186.856 117.698 187.42 118.049 188.2 118.049ZM194.618 114.79V118.538C194.618 118.838 194.456 119 194.156 119H193.699C193.399 119 193.237 118.838 193.237 118.538V112.371C193.237 112.071 193.399 111.909 193.699 111.909H194.101C194.401 111.909 194.562 112.071 194.562 112.371V113.063H194.65C194.978 112.311 195.675 111.817 196.741 111.817C198.191 111.817 199.156 112.735 199.156 114.49V118.538C199.156 118.838 198.994 119 198.694 119H198.237C197.937 119 197.775 118.838 197.775 118.538V114.656C197.775 113.626 197.208 113.012 196.271 113.012C195.31 113.012 194.618 113.659 194.618 114.79ZM204.558 118.538V110.007C204.558 109.707 204.72 109.545 205.02 109.545H205.477C205.777 109.545 205.939 109.707 205.939 110.007V113.059H206.022C206.266 112.62 206.742 111.817 208.058 111.817C209.77 111.817 211.035 113.169 211.035 115.468C211.035 117.763 209.789 119.138 208.071 119.138C206.779 119.138 206.271 118.349 206.022 117.897H205.906V118.538C205.906 118.838 205.745 119 205.445 119H205.02C204.72 119 204.558 118.838 204.558 118.538ZM205.911 115.455C205.911 116.946 206.576 117.961 207.762 117.961C208.995 117.961 209.641 116.876 209.641 115.455C209.641 114.047 209.013 112.989 207.762 112.989C206.557 112.989 205.911 113.973 205.911 115.455ZM215.641 119.143C213.55 119.143 212.267 117.703 212.267 115.501C212.267 113.322 213.568 111.817 215.544 111.817C217.151 111.817 218.684 112.819 218.684 115.381V115.408C218.684 115.708 218.522 115.87 218.222 115.87H213.642C213.679 117.237 214.473 118.003 215.655 118.003C216.288 118.003 216.8 117.781 217.105 117.347C217.262 117.116 217.419 117.01 217.686 117.061L218.093 117.135C218.407 117.195 218.563 117.375 218.457 117.61C218.023 118.548 217.008 119.143 215.641 119.143ZM213.647 114.836H217.331C217.326 113.751 216.625 112.957 215.554 112.957C214.432 112.957 213.702 113.83 213.647 114.836ZM226.642 119.143C224.583 119.143 223.337 117.624 223.337 115.487C223.337 113.322 224.63 111.817 226.628 111.817C228.041 111.817 229.117 112.551 229.458 113.696C229.546 114.005 229.361 114.199 229.043 114.199H228.609C228.341 114.199 228.198 114.074 228.083 113.825C227.843 113.34 227.358 112.98 226.652 112.98C225.497 112.98 224.731 113.936 224.731 115.455C224.731 117.001 225.484 117.975 226.652 117.975C227.302 117.975 227.82 117.67 228.083 117.13C228.198 116.886 228.341 116.756 228.609 116.756H229.043C229.361 116.756 229.546 116.918 229.472 117.186C229.163 118.34 228.138 119.143 226.642 119.143ZM232.412 110.007V118.538C232.412 118.838 232.25 119 231.95 119H231.493C231.193 119 231.031 118.838 231.031 118.538V110.007C231.031 109.707 231.193 109.545 231.493 109.545H231.95C232.25 109.545 232.412 109.707 232.412 110.007ZM236.332 119.157C234.984 119.157 233.936 118.391 233.936 116.996C233.936 115.385 235.312 115.034 236.655 114.877C237.93 114.73 238.447 114.739 238.447 114.236V114.203C238.447 113.4 237.99 112.934 237.099 112.934C236.388 112.934 235.921 113.216 235.649 113.576C235.483 113.797 235.321 113.894 235.058 113.834L234.657 113.742C234.343 113.668 234.209 113.442 234.37 113.156C234.929 112.205 235.968 111.817 237.08 111.817C238.207 111.817 239.832 112.228 239.832 114.291V118.538C239.832 118.838 239.67 119 239.37 119H238.945C238.645 119 238.484 118.838 238.484 118.538V118.031H238.428C238.165 118.561 237.505 119.157 236.332 119.157ZM236.632 118.049C237.782 118.049 238.451 117.283 238.451 116.442V115.528C238.253 115.727 237.191 115.847 236.743 115.907C235.945 116.013 235.289 116.276 235.289 117.015C235.289 117.698 235.852 118.049 236.632 118.049ZM242.367 110.815C241.887 110.815 241.495 110.446 241.495 109.993C241.495 109.541 241.887 109.167 242.367 109.167C242.843 109.167 243.24 109.541 243.24 109.993C243.24 110.446 242.843 110.815 242.367 110.815ZM241.67 118.538V112.371C241.67 112.071 241.832 111.909 242.132 111.909H242.589C242.889 111.909 243.05 112.071 243.05 112.371V118.538C243.05 118.838 242.889 119 242.589 119H242.132C241.832 119 241.67 118.838 241.67 118.538ZM244.907 118.538V112.371C244.907 112.071 245.069 111.909 245.369 111.909H245.771C246.071 111.909 246.232 112.071 246.232 112.371V113.063H246.32C246.616 112.283 247.313 111.817 248.25 111.817C249.196 111.817 249.847 112.288 250.156 113.063H250.23C250.572 112.306 251.338 111.817 252.358 111.817C253.642 111.817 254.547 112.625 254.547 114.245V118.538C254.547 118.838 254.385 119 254.085 119H253.628C253.328 119 253.166 118.838 253.166 118.538V114.374C253.166 113.414 252.566 113.008 251.837 113.008C250.937 113.008 250.415 113.626 250.415 114.48V118.538C250.415 118.838 250.253 119 249.953 119H249.501C249.201 119 249.039 118.838 249.039 118.538V114.287C249.039 113.516 248.508 113.008 247.742 113.008C246.957 113.008 246.288 113.673 246.288 114.628V118.538C246.288 118.838 246.126 119 245.826 119H245.369C245.069 119 244.907 118.838 244.907 118.538ZM259.453 119.143C257.362 119.143 256.078 117.703 256.078 115.501C256.078 113.322 257.38 111.817 259.356 111.817C260.962 111.817 262.495 112.819 262.495 115.381V115.408C262.495 115.708 262.333 115.87 262.033 115.87H257.454C257.491 117.237 258.285 118.003 259.467 118.003C260.099 118.003 260.612 117.781 260.916 117.347C261.073 117.116 261.23 117.01 261.498 117.061L261.904 117.135C262.218 117.195 262.375 117.375 262.269 117.61C261.835 118.548 260.819 119.143 259.453 119.143ZM257.458 114.836H261.142C261.138 113.751 260.436 112.957 259.365 112.957C258.243 112.957 257.514 113.83 257.458 114.836ZM266.681 119.138C264.959 119.138 263.717 117.763 263.717 115.468C263.717 113.169 264.978 111.817 266.69 111.817C268.011 111.817 268.481 112.62 268.731 113.059H268.814V110.007C268.814 109.707 268.975 109.545 269.275 109.545H269.733C270.033 109.545 270.194 109.707 270.194 110.007V118.538C270.194 118.838 270.033 119 269.733 119H269.308C269.008 119 268.846 118.838 268.846 118.538V117.897H268.731C268.481 118.349 267.974 119.138 266.681 119.138ZM266.986 117.961C268.177 117.961 268.837 116.946 268.837 115.455C268.837 113.973 268.191 112.989 266.986 112.989C265.739 112.989 265.111 114.047 265.111 115.455C265.111 116.876 265.753 117.961 266.986 117.961ZM276.302 110.815C275.822 110.815 275.429 110.446 275.429 109.993C275.429 109.541 275.822 109.167 276.302 109.167C276.777 109.167 277.174 109.541 277.174 109.993C277.174 110.446 276.777 110.815 276.302 110.815ZM275.605 118.538V112.371C275.605 112.071 275.766 111.909 276.066 111.909H276.523C276.823 111.909 276.985 112.071 276.985 112.371V118.538C276.985 118.838 276.823 119 276.523 119H276.066C275.766 119 275.605 118.838 275.605 118.538ZM280.222 114.79V118.538C280.222 118.838 280.061 119 279.761 119H279.304C279.004 119 278.842 118.838 278.842 118.538V112.371C278.842 112.071 279.004 111.909 279.304 111.909H279.705C280.005 111.909 280.167 112.071 280.167 112.371V113.063H280.255C280.582 112.311 281.279 111.817 282.346 111.817C283.795 111.817 284.76 112.735 284.76 114.49V118.538C284.76 118.838 284.599 119 284.299 119H283.842C283.542 119 283.38 118.838 283.38 118.538V114.656C283.38 113.626 282.812 113.012 281.875 113.012C280.915 113.012 280.222 113.659 280.222 114.79ZM291.426 113.728L291.071 113.793C290.803 113.839 290.651 113.733 290.499 113.502C290.277 113.174 289.894 112.911 289.257 112.911C288.472 112.911 287.881 113.299 287.886 113.843C287.881 114.324 288.218 114.587 288.998 114.771L290.125 115.03C291.426 115.33 292.064 115.949 292.064 116.95C292.064 118.234 290.877 119.143 289.164 119.143C287.784 119.143 286.815 118.612 286.431 117.652C286.316 117.361 286.478 117.153 286.787 117.107L287.221 117.043C287.493 117.001 287.641 117.116 287.779 117.366C288.029 117.804 288.5 118.031 289.155 118.031C290.06 118.031 290.646 117.601 290.646 117.052C290.646 116.609 290.328 116.304 289.645 116.152L288.444 115.888C287.115 115.593 286.505 114.924 286.505 113.917C286.505 112.662 287.641 111.817 289.243 111.817C290.545 111.817 291.362 112.334 291.754 113.169C291.893 113.46 291.74 113.673 291.426 113.728ZM296.891 112.371V112.555C296.891 112.855 296.73 113.017 296.43 113.017H295.437V116.918C295.437 117.717 295.839 117.864 296.286 117.864H296.333C296.623 117.855 296.804 117.952 296.864 118.238L296.924 118.501C296.988 118.788 296.877 119.009 296.582 119.055C296.453 119.074 296.3 119.092 296.125 119.092C295.035 119.115 294.052 118.492 294.057 117.204V113.017H293.48C293.18 113.017 293.018 112.855 293.018 112.555V112.371C293.018 112.071 293.18 111.909 293.48 111.909H294.057V110.672C294.057 110.372 294.218 110.21 294.518 110.21H294.975C295.275 110.21 295.437 110.372 295.437 110.672V111.909H296.43C296.73 111.909 296.891 112.071 296.891 112.371ZM301.398 119.143C299.307 119.143 298.023 117.703 298.023 115.501C298.023 113.322 299.325 111.817 301.301 111.817C302.908 111.817 304.44 112.819 304.44 115.381V115.408C304.44 115.708 304.279 115.87 303.979 115.87H299.399C299.436 117.237 300.23 118.003 301.412 118.003C302.044 118.003 302.557 117.781 302.862 117.347C303.018 117.116 303.175 117.01 303.443 117.061L303.849 117.135C304.163 117.195 304.32 117.375 304.214 117.61C303.78 118.548 302.765 119.143 301.398 119.143ZM299.404 114.836H303.088C303.083 113.751 302.381 112.957 301.31 112.957C300.189 112.957 299.459 113.83 299.404 114.836ZM308.035 119.157C306.687 119.157 305.639 118.391 305.639 116.996C305.639 115.385 307.015 115.034 308.359 114.877C309.633 114.73 310.15 114.739 310.15 114.236V114.203C310.15 113.4 309.693 112.934 308.802 112.934C308.091 112.934 307.625 113.216 307.352 113.576C307.186 113.797 307.024 113.894 306.761 113.834L306.36 113.742C306.046 113.668 305.912 113.442 306.073 113.156C306.632 112.205 307.671 111.817 308.783 111.817C309.91 111.817 311.535 112.228 311.535 114.291V118.538C311.535 118.838 311.373 119 311.073 119H310.648C310.348 119 310.187 118.838 310.187 118.538V118.031H310.131C309.868 118.561 309.208 119.157 308.035 119.157ZM308.335 118.049C309.485 118.049 310.154 117.283 310.154 116.442V115.528C309.956 115.727 308.894 115.847 308.446 115.907C307.648 116.013 306.992 116.276 306.992 117.015C306.992 117.698 307.555 118.049 308.335 118.049ZM316.028 119.138C314.306 119.138 313.064 117.763 313.064 115.468C313.064 113.169 314.324 111.817 316.037 111.817C317.357 111.817 317.828 112.62 318.077 113.059H318.161V110.007C318.161 109.707 318.322 109.545 318.622 109.545H319.079C319.379 109.545 319.541 109.707 319.541 110.007V118.538C319.541 118.838 319.379 119 319.079 119H318.654C318.354 119 318.193 118.838 318.193 118.538V117.897H318.077C317.828 118.349 317.32 119.138 316.028 119.138ZM316.332 117.961C317.523 117.961 318.184 116.946 318.184 115.455C318.184 113.973 317.537 112.989 316.332 112.989C315.086 112.989 314.458 114.047 314.458 115.455C314.458 116.876 315.1 117.961 316.332 117.961ZM322.42 119.088C321.913 119.088 321.497 118.677 321.497 118.164C321.497 117.661 321.913 117.246 322.42 117.246C322.924 117.246 323.344 117.661 323.344 118.164C323.344 118.677 322.924 119.088 322.42 119.088Z" fill="#FAFAFA"/>
</g>
<defs>
<filter id="filter0_dii_844_13336" x="67" y="43" width="360" height="94" filterUnits="userSpaceOnUse" color-interpolation-filters="sRGB">
<feFlood flood-opacity="0" result="BackgroundImageFix"/>
<feColorMatrix in="SourceAlpha" type="matrix" values="0 0 0 0 0 0 0 0 0 0 0 0 0 0 0 0 0 0 127 0" result="hardAlpha"/>
<feMorphology radius="1" operator="dilate" in="SourceAlpha" result="effect1_dropShadow_844_13336"/>
<feOffset/>
<feGaussianBlur stdDeviation="1"/>
<feComposite in2="hardAlpha" operator="out"/>
<feColorMatrix type="matrix" values="0 0 0 0 0 0 0 0 0 0 0 0 0 0 0 0 0 0 1 0"/>
<feBlend mode="normal" in2="BackgroundImageFix" result="effect1_dropShadow_844_13336"/>
<feBlend mode="normal" in="SourceGraphic" in2="effect1_dropShadow_844_13336" result="shape"/>
<feColorMatrix in="SourceAlpha" type="matrix" values="0 0 0 0 0 0 0 0 0 0 0 0 0 0 0 0 0 0 127 0" result="hardAlpha"/>
<feMorphology radius="1" operator="erode" in="SourceAlpha" result="effect2_innerShadow_844_13336"/>
<feOffset dy="1"/>
<feComposite in2="hardAlpha" operator="arithmetic" k2="-1" k3="1"/>
<feColorMatrix type="matrix" values="0 0 0 0 1 0 0 0 0 0.999947 0 0 0 0 0.99993 0 0 0 0.07 0"/>
<feBlend mode="normal" in2="shape" result="effect2_innerShadow_844_13336"/>
<feColorMatrix in="SourceAlpha" type="matrix" values="0 0 0 0 0 0 0 0 0 0 0 0 0 0 0 0 0 0 127 0" result="hardAlpha"/>
<feMorphology radius="1" operator="erode" in="SourceAlpha" result="effect3_innerShadow_844_13336"/>
<feOffset dy="-1"/>
<feGaussianBlur stdDeviation="1"/>
<feComposite in2="hardAlpha" operator="arithmetic" k2="-1" k3="1"/>
<feColorMatrix type="matrix" values="0 0 0 0 1 0 0 0 0 0.999947 0 0 0 0 0.99993 0 0 0 0.07 0"/>
<feBlend mode="normal" in2="effect2_innerShadow_844_13336" result="effect3_innerShadow_844_13336"/>
</filter>
</defs>
</svg>
