<svg preserveAspectRatio="none" width="100%" height="100%" overflow="visible" style="display: block;" viewBox="0 0 42.1062 54.2948" fill="none" xmlns="http://www.w3.org/2000/svg">
<g id="Group">
<g id="Vector" filter="url(#filter0_n_0_101)">
<path fill-rule="evenodd" clip-rule="evenodd" d="M11.8671 0.128124C23.6569 -0.835397 32.6424 3.63549 38.8262 13.5408C44.1819 25.3396 42.9797 36.4309 35.2144 46.8146C33.1986 49.2707 30.9237 51.4298 28.3913 53.2917C27.8041 53.7234 26.9871 53.2743 26.9528 52.5462C26.7526 48.2987 25.1838 44.5621 22.248 41.3364C22.2073 41.2917 22.1617 41.2511 22.1125 41.2158C21.4232 40.7208 20.7204 40.2463 20.0034 39.7922C19.4578 39.4468 19.4236 38.6514 19.9196 38.2379C23.8028 35.0001 25.466 30.7536 24.9053 25.4986C24.8988 25.4374 24.8853 25.3754 24.8657 25.317C22.9916 19.7172 19.1146 17.2933 13.2297 18.0453C13.1819 18.0514 13.1338 18.0617 13.0877 18.0758C12.059 18.3911 11.08 18.8027 10.1499 19.3103C9.50572 19.6619 8.65891 19.2041 8.61648 18.4714C8.34459 13.7764 6.43941 9.78822 2.90202 6.5069C2.85957 6.46752 2.81295 6.43231 2.76349 6.40221C2.31176 6.12729 1.85442 5.86407 1.39149 5.61258C0.784242 5.28267 0.728078 4.41876 1.32067 4.06318C4.58942 2.10179 8.10485 0.790111 11.8671 0.128124Z" fill="var(--fill-0, #CAB9FE)"/>
<path d="M11.9043 0.438477C17.7477 -0.0373557 22.879 0.833773 27.3096 3.03809C31.7374 5.24105 35.4856 8.78533 38.5498 13.6875C41.2024 19.538 42.2241 25.1988 41.6299 30.6748C41.0355 36.1523 38.822 41.4654 34.9727 46.6162C32.9731 49.0523 30.7172 51.1937 28.2061 53.04C27.8495 53.302 27.289 53.0477 27.2646 52.5313C27.0609 48.2091 25.4627 44.4038 22.4795 41.126C22.4239 41.0649 22.3616 41.0098 22.2949 40.9619C21.6008 40.4635 20.893 39.9856 20.1709 39.5283C19.8134 39.3019 19.7787 38.7622 20.1201 38.4775C24.0873 35.1695 25.7869 30.8187 25.2158 25.4658C25.2069 25.382 25.1888 25.2976 25.1621 25.2178C24.2089 22.3696 22.7343 20.2946 20.7178 19.0342C18.7014 17.7739 16.1827 17.353 13.1904 17.7354C13.1253 17.7437 13.0595 17.7579 12.9961 17.7773C11.9476 18.0988 10.9488 18.5183 10 19.0361C9.55172 19.2806 8.95753 18.9507 8.92871 18.4531C8.65199 13.6754 6.70904 9.6119 3.11426 6.27734C3.0565 6.22381 2.9929 6.1766 2.92578 6.13574C2.46977 5.85822 2.00837 5.5918 1.54102 5.33789C1.12304 5.11081 1.11847 4.54885 1.48145 4.33105C4.71241 2.39234 8.18601 1.0948 11.9043 0.438477Z" stroke="var(--stroke-0, #030303)" stroke-width="0.625"/>
</g>
<path id="Vector_2" opacity="0.2" d="M36.8687 18.1855C37.1042 18.7548 37.3237 19.3253 37.527 19.8994C39.3992 25.066 39.7962 30.7709 38.1279 35.967C37.1949 38.9661 35.6815 41.7625 33.8337 44.3256L33.84 44.3175C32.4045 46.1326 30.7677 47.7945 28.9571 49.2574C28.4818 49.6418 27.9949 50.0125 27.4971 50.3695C27.4971 50.3695 27.4971 50.3695 27.4971 50.3695C28.018 50.0472 28.529 49.708 29.0289 49.352C30.9333 47.9974 32.6719 46.397 34.1929 44.6071L34.1993 44.599C36.1615 42.0712 37.7665 39.2337 38.7246 36.1529C40.4463 30.8093 39.8353 24.9065 37.6377 19.8563C37.3986 19.2937 37.1422 18.7376 36.8687 18.1855Z" fill="var(--stroke-0, black)"/>
</g>
<defs>
<filter id="filter0_n_0_101" x="0.904882" y="0" width="41.2014" height="53.4606" filterUnits="userSpaceOnUse" color-interpolation-filters="sRGB">
<feFlood flood-opacity="0" result="BackgroundImageFix"/>
<feBlend mode="normal" in="SourceGraphic" in2="BackgroundImageFix" result="shape"/>
<feTurbulence type="fractalNoise" baseFrequency="4.2188420295715332 4.2188420295715332" stitchTiles="stitch" numOctaves="3" result="noise" seed="711" />
<feColorMatrix in="noise" type="luminanceToAlpha" result="alphaNoise" />
<feComponentTransfer in="alphaNoise" result="coloredNoise1">
<feFuncA type="discrete" tableValues="1 1 1 1 1 1 1 1 1 1 1 1 1 1 1 1 1 1 1 1 1 1 1 1 1 1 1 1 1 1 1 1 1 1 1 1 1 1 1 1 1 1 1 1 1 1 1 1 1 1 1 0 0 0 0 0 0 0 0 0 0 0 0 0 0 0 0 0 0 0 0 0 0 0 0 0 0 0 0 0 0 0 0 0 0 0 0 0 0 0 0 0 0 0 0 0 0 0 0 0 "/>
</feComponentTransfer>
<feComposite operator="in" in2="shape" in="coloredNoise1" result="noise1Clipped" />
<feFlood flood-color="rgba(229, 229, 229, 0.15)" result="color1Flood" />
<feComposite operator="in" in2="noise1Clipped" in="color1Flood" result="color1" />
<feMerge result="effect1_noise_0_101">
<feMergeNode in="shape" />
<feMergeNode in="color1" />
</feMerge>
</filter>
</defs>
</svg>
