<svg preserveAspectRatio="none" width="100%" height="100%" overflow="visible" style="display: block;" viewBox="0 0 26.8883 43.0189" fill="none" xmlns="http://www.w3.org/2000/svg">
<g id="Group">
<g id="Vector" filter="url(#filter0_n_0_20)">
<path fill-rule="evenodd" clip-rule="evenodd" d="M18.6025 0.281772C18.8293 0.105044 19.128 0.0455832 19.4005 0.137178C21.6819 0.903972 23.4711 2.31996 24.7681 4.38492C26.3809 6.85866 27.0737 9.55387 26.8461 12.4703C26.8374 12.5816 26.8063 12.6901 26.7564 12.79C26.551 13.2007 26.3456 13.6114 26.1402 14.0222C26.0859 14.1306 26.0098 14.227 25.9176 14.3057C20.2637 19.1275 16.6128 25.1924 14.9648 32.5C14.6015 34.8869 14.2717 37.2674 13.975 39.6414C13.9477 39.8595 13.8411 40.0616 13.6725 40.2027C9.74601 43.4887 5.51172 43.8991 0.969428 41.4341C0.92674 41.4109 0.885405 41.384 0.847863 41.3531C0.524339 41.0876 0.268752 40.7713 0.0808076 40.4042C0.0254919 40.2962 0.00129243 40.1747 0.000709492 40.0534C-0.0710732 25.1088 5.3041 12.4887 16.1257 2.19246C16.9647 1.55174 17.7903 0.914726 18.6025 0.281772Z" fill="var(--fill-0, #CAB9FE)"/>
<path fill-rule="evenodd" clip-rule="evenodd" d="M18.6025 0.281772C18.8293 0.105044 19.128 0.0455832 19.4005 0.137178C21.6819 0.903972 23.4711 2.31996 24.7681 4.38492C26.3809 6.85866 27.0737 9.55387 26.8461 12.4703C26.8374 12.5816 26.8063 12.6901 26.7564 12.79C26.551 13.2007 26.3456 13.6114 26.1402 14.0222C26.0859 14.1306 26.0098 14.227 25.9176 14.3057C20.2637 19.1275 16.6128 25.1924 14.9648 32.5C14.6015 34.8869 14.2717 37.2674 13.975 39.6414C13.9477 39.8595 13.8411 40.0616 13.6725 40.2027C9.74601 43.4887 5.51172 43.8991 0.969428 41.4341C0.92674 41.4109 0.885405 41.384 0.847863 41.3531C0.524339 41.0876 0.268752 40.7713 0.0808076 40.4042C0.0254919 40.2962 0.00129243 40.1747 0.000709492 40.0534C-0.0710732 25.1088 5.3041 12.4887 16.1257 2.19246C16.9647 1.55174 17.7903 0.914726 18.6025 0.281772Z" fill="url(#paint0_linear_0_20)"/>
<path d="M18.7949 0.52832C18.9446 0.411745 19.1344 0.377709 19.3008 0.433594C21.5127 1.17701 23.2438 2.54629 24.5029 4.55078L24.5059 4.55566C26.0814 6.97227 26.7563 9.59926 26.5342 12.4463C26.5287 12.5155 26.5092 12.5851 26.4766 12.6504C26.4724 12.6588 26.471 12.6614 26.4668 12.6699C26.4612 12.6811 26.4637 12.6771 26.458 12.6885L26.4375 12.7295L26.4355 12.7324L26.4346 12.7344L26.4336 12.7373C26.433 12.7385 26.4313 12.74 26.4307 12.7412C26.4303 12.7419 26.4293 12.745 26.4287 12.7461L26.3418 12.9199C26.3367 12.9301 26.3284 12.9477 26.3232 12.958L26.3213 12.9609L26.3203 12.9629C26.3189 12.9657 26.3196 12.9652 26.3184 12.9678C26.3146 12.9752 26.3171 12.9702 26.3135 12.9775L26.3115 12.9795L26.3105 12.9824C26.3085 12.9865 26.3107 12.9831 26.3086 12.9873C26.3059 12.9926 26.3064 12.9917 26.3037 12.9971C26.2952 13.014 26.2927 13.0181 26.2842 13.0352L26.2646 13.0742C26.2557 13.0921 26.2649 13.0748 26.2559 13.0928L26.2461 13.1123C26.2397 13.125 26.2329 13.1377 26.2266 13.1504L26.207 13.1895C26.2047 13.1941 26.2075 13.1894 26.2051 13.1943C26.2032 13.1981 26.2041 13.1954 26.2021 13.1992C26.2015 13.2005 26.2008 13.2029 26.2002 13.2041C26.1997 13.2051 26.1976 13.2083 26.1973 13.209L26.1953 13.2129C26.1938 13.2158 26.1938 13.215 26.1924 13.2178L26.1914 13.2207L26.1904 13.2227C26.1901 13.2233 26.1891 13.2264 26.1885 13.2275C26.1799 13.2448 26.1776 13.2494 26.1689 13.2666C26.1666 13.2713 26.1685 13.2666 26.166 13.2715C26.1648 13.274 26.1655 13.2735 26.1641 13.2764C26.1636 13.2773 26.1615 13.2795 26.1611 13.2803C26.1608 13.2809 26.1597 13.284 26.1592 13.2852C26.1587 13.2862 26.1568 13.2889 26.1562 13.29L26.1553 13.293L26.1494 13.3047C26.147 13.3096 26.1498 13.3049 26.1475 13.3096C26.1438 13.3169 26.1482 13.3072 26.1445 13.3145C26.1423 13.319 26.1449 13.3148 26.1426 13.3193L26.1396 13.3242L26.1387 13.3262L26.1377 13.3291L26.1367 13.3311L26.1348 13.334C26.1341 13.3353 26.1334 13.3377 26.1328 13.3389C26.1323 13.3399 26.1302 13.3431 26.1299 13.3438C26.1132 13.3772 26.1283 13.348 26.1113 13.3818C26.1071 13.3904 26.1058 13.3928 26.1016 13.4014C26.0974 13.4097 26.0959 13.4117 26.0918 13.4199L26.0908 13.4229L26.0889 13.4248C26.0868 13.429 26.0889 13.4257 26.0869 13.4297L26.0762 13.4512L26.0752 13.4541L26.0723 13.459L26.0664 13.4707L26.0654 13.4736C26.0649 13.4747 26.0628 13.4778 26.0625 13.4785C26.0612 13.4812 26.055 13.4946 26.0537 13.4971C26.0395 13.5256 26.0484 13.5076 26.0342 13.5361C26.029 13.5464 26.0198 13.564 26.0146 13.5742C26.0027 13.5982 26.0071 13.5893 25.9951 13.6133C25.991 13.6214 25.9895 13.6234 25.9854 13.6318C25.9782 13.6461 25.9836 13.6373 25.9766 13.6514C25.9646 13.6752 25.9688 13.666 25.957 13.6895L25.9316 13.7402L25.9307 13.7432C25.9287 13.7471 25.9298 13.7438 25.9277 13.748C25.9236 13.7562 25.9222 13.7582 25.918 13.7666C25.9043 13.794 25.9131 13.7783 25.8994 13.8057C25.8846 13.8354 25.8948 13.814 25.8799 13.8438C25.8742 13.8552 25.8661 13.8714 25.8604 13.8828C25.8253 13.9527 25.7758 14.0164 25.7148 14.0684C20.0092 18.9344 16.3229 25.0588 14.6602 32.4316L14.6572 32.4424L14.6562 32.4531C14.2926 34.8427 13.9621 37.2259 13.665 39.6025C13.6472 39.7455 13.5772 39.8746 13.4717 39.9629C11.5468 41.5738 9.56409 42.4661 7.52148 42.6641C5.47866 42.862 3.34636 42.3684 1.11816 41.1592C1.0902 41.144 1.06573 41.1276 1.0459 41.1113C0.755213 40.8727 0.527444 40.5899 0.359375 40.2617C0.330449 40.2052 0.313871 40.1338 0.313477 40.0518C0.242155 25.1982 5.57807 12.6637 16.3301 2.42871C17.1646 1.79127 17.9868 1.1581 18.7949 0.52832Z" stroke="var(--stroke-0, #030303)" stroke-width="0.625"/>
</g>
<path id="Vector_2" opacity="0.2" d="M19.0164 4.17878C18.49 4.56381 17.9629 4.94767 17.435 5.33042C17.1429 5.5423 16.8505 5.75383 16.5579 5.96505C12.4489 9.65869 8.9752 14.1175 6.62495 19.1517C4.10166 24.5062 2.91311 30.4389 2.91473 36.3098C2.91359 36.9639 2.9263 37.6133 2.95221 38.2682C2.95221 38.2682 2.95221 38.2682 2.95221 38.2682C2.96796 37.613 2.99485 36.9649 3.03342 36.3134C3.37127 30.4639 4.70943 24.6877 7.19089 19.4169C9.50541 14.4627 12.7904 9.99358 16.6739 6.1011C16.9475 5.88056 17.2278 5.65293 17.5075 5.42451C18.0127 5.01188 18.5156 4.59664 19.0164 4.17878Z" fill="var(--stroke-0, black)"/>
</g>
<defs>
<filter id="filter0_n_0_20" x="1.10227e-10" y="0.09453" width="26.8883" height="42.9244" filterUnits="userSpaceOnUse" color-interpolation-filters="sRGB">
<feFlood flood-opacity="0" result="BackgroundImageFix"/>
<feBlend mode="normal" in="SourceGraphic" in2="BackgroundImageFix" result="shape"/>
<feTurbulence type="fractalNoise" baseFrequency="4.2188420295715332 4.2188420295715332" stitchTiles="stitch" numOctaves="3" result="noise" seed="711" />
<feColorMatrix in="noise" type="luminanceToAlpha" result="alphaNoise" />
<feComponentTransfer in="alphaNoise" result="coloredNoise1">
<feFuncA type="discrete" tableValues="1 1 1 1 1 1 1 1 1 1 1 1 1 1 1 1 1 1 1 1 1 1 1 1 1 1 1 1 1 1 1 1 1 1 1 1 1 1 1 1 1 1 1 1 1 1 1 1 1 1 1 0 0 0 0 0 0 0 0 0 0 0 0 0 0 0 0 0 0 0 0 0 0 0 0 0 0 0 0 0 0 0 0 0 0 0 0 0 0 0 0 0 0 0 0 0 0 0 0 0 "/>
</feComponentTransfer>
<feComposite operator="in" in2="shape" in="coloredNoise1" result="noise1Clipped" />
<feFlood flood-color="rgba(229, 229, 229, 0.15)" result="color1Flood" />
<feComposite operator="in" in2="noise1Clipped" in="color1Flood" result="color1" />
<feMerge result="effect1_noise_0_20">
<feMergeNode in="shape" />
<feMergeNode in="color1" />
</feMerge>
</filter>
<linearGradient id="paint0_linear_0_20" x1="13.4441" y1="0" x2="13.4441" y2="43.0189" gradientUnits="userSpaceOnUse">
<stop stop-color="#FFD496"/>
<stop offset="1" stop-color="#F9DEB7"/>
</linearGradient>
</defs>
</svg>
