<svg preserveAspectRatio="none" width="100%" height="100%" overflow="visible" style="display: block;" viewBox="0 0 27.2777 31.3947" fill="none" xmlns="http://www.w3.org/2000/svg">
<g id="Group">
<g id="Vector" filter="url(#filter0_n_0_23)">
<path fill-rule="evenodd" clip-rule="evenodd" d="M5.58697 0.0559381C5.64587 0.0406513 5.70718 0.031609 5.76797 0.028981C16.1145 -0.418313 22.8341 4.31207 25.9271 14.2196C26.9845 17.9851 27.4209 21.8156 27.2366 25.7104C27.2253 25.9499 27.1162 26.1744 26.9322 26.3281C24.121 28.6774 20.0117 30.5984 17.5427 31.1145C15.156 31.6133 14.6768 31.33 13.4309 31.1504C13.2529 31.1247 13.0782 31.0563 12.9662 30.9156C12.8017 30.709 12.6973 30.4627 12.6532 30.1766C12.6437 30.1144 12.6445 30.0512 12.651 29.9886C12.9204 27.4023 12.9602 24.8113 12.7701 22.2156C12.54 20.6938 12.1102 19.2321 11.4802 17.8307C10.7741 16.5412 9.81309 15.9236 8.59717 15.9779C7.94194 16.0072 7.27795 15.5271 7.25475 14.8716C7.08911 10.1921 4.38201 5.25966 2.32183 3.51525C1.90751 3.16443 1.5915 2.91525 1.34726 2.73926C0.799505 2.34456 0.725976 1.84857 1.34006 1.56799C2.72371 0.935776 4.13932 0.431689 5.58697 0.0559381Z" fill="var(--fill-0, #CAB9FE)"/>
<path fill-rule="evenodd" clip-rule="evenodd" d="M5.58697 0.0559381C5.64587 0.0406513 5.70718 0.031609 5.76797 0.028981C16.1145 -0.418313 22.8341 4.31207 25.9271 14.2196C26.9845 17.9851 27.4209 21.8156 27.2366 25.7104C27.2253 25.9499 27.1162 26.1744 26.9322 26.3281C24.121 28.6774 20.0117 30.5984 17.5427 31.1145C15.156 31.6133 14.6768 31.33 13.4309 31.1504C13.2529 31.1247 13.0782 31.0563 12.9662 30.9156C12.8017 30.709 12.6973 30.4627 12.6532 30.1766C12.6437 30.1144 12.6445 30.0512 12.651 29.9886C12.9204 27.4023 12.9602 24.8113 12.7701 22.2156C12.54 20.6938 12.1102 19.2321 11.4802 17.8307C10.7741 16.5412 9.81309 15.9236 8.59717 15.9779C7.94194 16.0072 7.27795 15.5271 7.25475 14.8716C7.08911 10.1921 4.38201 5.25966 2.32183 3.51525C1.90751 3.16443 1.5915 2.91525 1.34726 2.73926C0.799505 2.34456 0.725976 1.84857 1.34006 1.56799C2.72371 0.935776 4.13932 0.431689 5.58697 0.0559381Z" fill="url(#paint0_linear_0_23)"/>
<path d="M5.78125 0.34082C10.9038 0.119366 15.0976 1.18103 18.3877 3.49707C21.6756 5.81161 24.0944 9.40226 25.626 14.3027V14.3037C26.6743 18.0369 27.1074 21.8341 26.9248 25.6953C26.9175 25.8495 26.8467 25.9916 26.7314 26.0879C23.9562 28.4071 19.8931 30.3039 17.4785 30.8086C16.3006 31.0548 15.6132 31.1041 15.0762 31.0752C14.5177 31.0451 14.1417 30.9369 13.4756 30.8408C13.3385 30.8211 13.2537 30.7744 13.2109 30.7207C13.0835 30.5607 12.9985 30.3665 12.9619 30.1289C12.9576 30.1006 12.9573 30.0656 12.9619 30.0215C13.2333 27.4168 13.2735 24.8064 13.082 22.1924L13.0811 22.1807L13.0791 22.1689L12.9814 21.5908C12.7319 20.2479 12.3271 18.9512 11.7656 17.7021L11.7539 17.6807L11.6113 17.4336C11.2695 16.8752 10.8667 16.4386 10.3984 16.1377C9.85994 15.7917 9.25102 15.6362 8.58301 15.666C8.05458 15.6895 7.5829 15.2987 7.56738 14.8604C7.48266 12.4681 6.74908 10.0234 5.78125 7.95996C4.81576 5.90157 3.6004 4.18826 2.52344 3.27637C2.10584 2.92278 1.78342 2.66776 1.53027 2.48535C1.28658 2.30975 1.223 2.1633 1.21973 2.0957C1.21826 2.06523 1.22548 1.96422 1.46973 1.85254C2.83699 1.22782 4.23546 0.729483 5.66504 0.358398C5.70216 0.348763 5.74202 0.342531 5.78125 0.34082Z" stroke="var(--stroke-0, #030303)" stroke-width="0.625"/>
</g>
<path id="Vector_2" opacity="0.2" d="M6.83033 2.30453C7.39071 2.29956 7.94519 2.3108 8.4958 2.33987C13.4686 2.5037 18.4156 4.69783 21.1518 8.83739C22.3529 10.5607 23.2308 12.5027 23.8912 14.5133C24.6975 17.2263 25.1577 20.0556 25.2403 22.9126C25.2567 23.4672 25.2592 24.0226 25.2481 24.5785C25.2481 24.5785 25.2481 24.5785 25.2481 24.5785C25.3008 24.0249 25.3379 23.4697 25.3591 22.9131C25.4701 20.0464 25.144 17.1509 24.4016 14.3619C23.7858 12.2869 22.9122 10.2703 21.6645 8.47995C18.8186 4.15279 13.4746 2.02723 8.49802 2.22114C7.94398 2.22951 7.38879 2.25794 6.83033 2.30453Z" fill="var(--stroke-0, black)"/>
</g>
<defs>
<filter id="filter0_n_0_23" x="0.907445" y="0" width="26.3702" height="31.3947" filterUnits="userSpaceOnUse" color-interpolation-filters="sRGB">
<feFlood flood-opacity="0" result="BackgroundImageFix"/>
<feBlend mode="normal" in="SourceGraphic" in2="BackgroundImageFix" result="shape"/>
<feTurbulence type="fractalNoise" baseFrequency="4.2188420295715332 4.2188420295715332" stitchTiles="stitch" numOctaves="3" result="noise" seed="711" />
<feColorMatrix in="noise" type="luminanceToAlpha" result="alphaNoise" />
<feComponentTransfer in="alphaNoise" result="coloredNoise1">
<feFuncA type="discrete" tableValues="1 1 1 1 1 1 1 1 1 1 1 1 1 1 1 1 1 1 1 1 1 1 1 1 1 1 1 1 1 1 1 1 1 1 1 1 1 1 1 1 1 1 1 1 1 1 1 1 1 1 1 0 0 0 0 0 0 0 0 0 0 0 0 0 0 0 0 0 0 0 0 0 0 0 0 0 0 0 0 0 0 0 0 0 0 0 0 0 0 0 0 0 0 0 0 0 0 0 0 0 "/>
</feComponentTransfer>
<feComposite operator="in" in2="shape" in="coloredNoise1" result="noise1Clipped" />
<feFlood flood-color="rgba(229, 229, 229, 0.15)" result="color1Flood" />
<feComposite operator="in" in2="noise1Clipped" in="color1Flood" result="color1" />
<feMerge result="effect1_noise_0_23">
<feMergeNode in="shape" />
<feMergeNode in="color1" />
</feMerge>
</filter>
<linearGradient id="paint0_linear_0_23" x1="13.6388" y1="1.58837e-09" x2="13.6388" y2="31.2435" gradientUnits="userSpaceOnUse">
<stop stop-color="#FFD496"/>
<stop offset="1" stop-color="#F9DEB7"/>
</linearGradient>
</defs>
</svg>
