<svg preserveAspectRatio="none" width="100%" height="100%" overflow="visible" style="display: block;" viewBox="0 0 18.4307 30.9524" fill="none" xmlns="http://www.w3.org/2000/svg">
<g id="Group">
<g id="Vector" filter="url(#filter0_n_0_55)">
<path fill-rule="evenodd" clip-rule="evenodd" d="M7.55053 0.398834C7.81858 0.15513 8.21144 0.105054 8.53211 0.2736C16.1654 4.28561 19.3837 10.6428 18.1877 19.3452C17.1066 23.5542 14.9733 27.0598 11.7877 29.8621C11.2436 30.3408 10.4068 29.9495 10.3143 29.2307C9.83527 25.5086 8.14359 22.3657 5.23911 19.8019C5.18663 19.7556 5.12834 19.7157 5.06616 19.6835C4.78098 19.5361 4.49275 19.3958 4.20145 19.2628C3.59106 18.9839 3.43896 18.1578 3.84024 17.62C5.20483 15.7909 4.81282 14.0237 2.66406 12.3181C2.609 12.2744 2.5474 12.2374 2.4835 12.2081C1.84975 11.9175 1.23665 11.5942 0.644132 11.2383C0.268247 11.0126 0.131064 10.5385 0.319939 10.1428C2.10199 6.4093 4.51213 3.1613 7.55053 0.398834Z" fill="var(--fill-0, #CAB9FE)"/>
<path d="M7.76074 0.629883C7.93149 0.474702 8.18235 0.442482 8.38672 0.549805C12.158 2.53199 14.8174 5.08218 16.3916 8.19141C17.9637 11.2967 18.4671 14.9884 17.8799 19.2832C16.8127 23.4259 14.7143 26.8717 11.5811 29.6279C11.411 29.7772 11.1984 29.7943 11.0078 29.71C10.8131 29.6237 10.6555 29.4351 10.624 29.1904C10.1349 25.3908 8.4054 22.1794 5.44629 19.5674C5.37472 19.5042 5.29485 19.4502 5.20996 19.4062C4.92029 19.2565 4.62697 19.1137 4.33105 18.9785C3.92897 18.7947 3.79022 18.2095 4.09082 17.8066C4.81199 16.84 5.09546 15.8499 4.875 14.8555C4.65722 13.8738 3.96127 12.9487 2.8584 12.0732C2.78205 12.0126 2.69808 11.9627 2.61328 11.9238C1.99014 11.6381 1.38709 11.3205 0.804688 10.9707C0.570063 10.8297 0.480581 10.5309 0.601562 10.2773C2.36631 6.58009 4.75254 3.3649 7.76074 0.629883Z" stroke="var(--stroke-0, #030303)" stroke-width="0.625"/>
</g>
<path id="Vector_2" opacity="0.2" d="M7.3103 3.47363C7.59873 3.64066 7.87363 3.80723 8.15413 3.98401C10.6444 5.54761 12.8377 7.59168 14.1719 10.1543C15.5261 12.7066 15.9689 15.6709 15.8561 18.6093C15.8439 18.9407 15.8265 19.2616 15.8019 19.594C15.8677 19.2673 15.9246 18.9501 15.9743 18.6204C16.4271 15.7062 16.1542 12.5531 14.7251 9.86346C13.3203 7.1612 10.8738 5.14917 8.21168 3.88014C7.91142 3.73528 7.61732 3.60337 7.3103 3.47363Z" fill="var(--stroke-0, black)"/>
</g>
<defs>
<filter id="filter0_n_0_55" x="0.235626" y="0.174664" width="18.1951" height="29.898" filterUnits="userSpaceOnUse" color-interpolation-filters="sRGB">
<feFlood flood-opacity="0" result="BackgroundImageFix"/>
<feBlend mode="normal" in="SourceGraphic" in2="BackgroundImageFix" result="shape"/>
<feTurbulence type="fractalNoise" baseFrequency="4.2188420295715332 4.2188420295715332" stitchTiles="stitch" numOctaves="3" result="noise" seed="711" />
<feColorMatrix in="noise" type="luminanceToAlpha" result="alphaNoise" />
<feComponentTransfer in="alphaNoise" result="coloredNoise1">
<feFuncA type="discrete" tableValues="1 1 1 1 1 1 1 1 1 1 1 1 1 1 1 1 1 1 1 1 1 1 1 1 1 1 1 1 1 1 1 1 1 1 1 1 1 1 1 1 1 1 1 1 1 1 1 1 1 1 1 0 0 0 0 0 0 0 0 0 0 0 0 0 0 0 0 0 0 0 0 0 0 0 0 0 0 0 0 0 0 0 0 0 0 0 0 0 0 0 0 0 0 0 0 0 0 0 0 0 "/>
</feComponentTransfer>
<feComposite operator="in" in2="shape" in="coloredNoise1" result="noise1Clipped" />
<feFlood flood-color="rgba(229, 229, 229, 0.15)" result="color1Flood" />
<feComposite operator="in" in2="noise1Clipped" in="color1Flood" result="color1" />
<feMerge result="effect1_noise_0_55">
<feMergeNode in="shape" />
<feMergeNode in="color1" />
</feMerge>
</filter>
</defs>
</svg>
