<svg preserveAspectRatio="none" width="100%" height="100%" overflow="visible" style="display: block;" viewBox="0 0 36.9576 35.5952" fill="none" xmlns="http://www.w3.org/2000/svg">
<g id="Group">
<g id="Vector" filter="url(#filter0_n_0_29)">
<path fill-rule="evenodd" clip-rule="evenodd" d="M28.9181 0.157159C29.0703 0.0548689 29.2505 -0.000347427 29.4334 0.0127687C30.4832 0.0880526 31.4213 0.470701 32.2477 1.16071C36.2702 4.48348 37.7162 8.62619 36.5855 13.5888C36.5357 13.8073 36.4005 13.9969 36.2133 14.1202C26.0116 20.8372 15.8723 27.6441 5.79564 34.5409C5.17671 34.9645 4.32529 34.4805 4.3042 33.7308C4.20617 30.2457 3.02956 27.1573 0.774364 24.4656C0.397973 24.0164 0.503493 23.3242 1.00519 23.0212C5.32952 20.4097 8.65664 16.8463 10.9868 12.3313C11.057 12.1952 11.16 12.0782 11.2872 11.9929C17.1803 8.04194 23.0572 4.0966 28.9181 0.157159Z" fill="var(--fill-0, #CAB9FE)"/>
<path fill-rule="evenodd" clip-rule="evenodd" d="M28.9181 0.157159C29.0703 0.0548689 29.2505 -0.000347427 29.4334 0.0127687C30.4832 0.0880526 31.4213 0.470701 32.2477 1.16071C36.2702 4.48348 37.7162 8.62619 36.5855 13.5888C36.5357 13.8073 36.4005 13.9969 36.2133 14.1202C26.0116 20.8372 15.8723 27.6441 5.79564 34.5409C5.17671 34.9645 4.32529 34.4805 4.3042 33.7308C4.20617 30.2457 3.02956 27.1573 0.774364 24.4656C0.397973 24.0164 0.503493 23.3242 1.00519 23.0212C5.32952 20.4097 8.65664 16.8463 10.9868 12.3313C11.057 12.1952 11.16 12.0782 11.2872 11.9929C17.1803 8.04194 23.0572 4.0966 28.9181 0.157159Z" fill="url(#paint0_linear_0_29)"/>
<path d="M29.4111 0.324219C30.3939 0.394716 31.2705 0.751374 32.0479 1.40039L32.0488 1.40137C34.0245 3.03333 35.3528 4.85524 36.0537 6.86328C36.7543 8.87073 36.8357 11.0863 36.2812 13.5195C36.2501 13.6564 36.1634 13.7788 36.041 13.8594C25.8379 20.5773 15.6972 27.3854 5.61914 34.2832C5.2281 34.5507 4.63117 34.2535 4.61621 33.7217C4.51613 30.1659 3.31364 27.0098 1.01367 24.2646C0.757004 23.9579 0.834385 23.4899 1.16699 23.2891C5.54107 20.6476 8.90821 17.0406 11.2646 12.4746C11.3112 12.3843 11.3789 12.308 11.4609 12.2529C17.3541 8.30186 23.2318 4.3565 29.0928 0.416992C29.1944 0.348726 29.3061 0.316686 29.4111 0.324219Z" stroke="var(--stroke-0, #030303)" stroke-width="0.625"/>
</g>
<path id="Vector_2" opacity="0.2" d="M33.1927 13.749C33.1927 13.749 33.1927 13.749 33.1927 13.749C32.7396 14.0223 32.2872 14.2966 31.8356 14.572C27.7706 17.0509 23.7621 19.6179 19.812 22.2719C15.8619 24.9259 11.9702 27.6669 8.13889 30.4934C7.71318 30.8075 7.28823 31.1226 6.86401 31.4388C6.86401 31.4388 6.86401 31.4388 6.86401 31.4388C7.31179 31.157 7.7591 30.8745 8.20595 30.5914C12.2276 28.0436 16.2119 25.4437 20.1606 22.7907C24.1092 20.1377 28.0221 17.4316 31.901 14.6712C32.332 14.3645 32.7625 14.0571 33.1927 13.749Z" fill="var(--stroke-0, black)"/>
</g>
<defs>
<filter id="filter0_n_0_29" x="0.54849" y="0.0108613" width="36.4091" height="34.6877" filterUnits="userSpaceOnUse" color-interpolation-filters="sRGB">
<feFlood flood-opacity="0" result="BackgroundImageFix"/>
<feBlend mode="normal" in="SourceGraphic" in2="BackgroundImageFix" result="shape"/>
<feTurbulence type="fractalNoise" baseFrequency="4.2188420295715332 4.2188420295715332" stitchTiles="stitch" numOctaves="3" result="noise" seed="711" />
<feColorMatrix in="noise" type="luminanceToAlpha" result="alphaNoise" />
<feComponentTransfer in="alphaNoise" result="coloredNoise1">
<feFuncA type="discrete" tableValues="1 1 1 1 1 1 1 1 1 1 1 1 1 1 1 1 1 1 1 1 1 1 1 1 1 1 1 1 1 1 1 1 1 1 1 1 1 1 1 1 1 1 1 1 1 1 1 1 1 1 1 0 0 0 0 0 0 0 0 0 0 0 0 0 0 0 0 0 0 0 0 0 0 0 0 0 0 0 0 0 0 0 0 0 0 0 0 0 0 0 0 0 0 0 0 0 0 0 0 0 "/>
</feComponentTransfer>
<feComposite operator="in" in2="shape" in="coloredNoise1" result="noise1Clipped" />
<feFlood flood-color="rgba(229, 229, 229, 0.15)" result="color1Flood" />
<feComposite operator="in" in2="noise1Clipped" in="color1Flood" result="color1" />
<feMerge result="effect1_noise_0_29">
<feMergeNode in="shape" />
<feMergeNode in="color1" />
</feMerge>
</filter>
<linearGradient id="paint0_linear_0_29" x1="18.4788" y1="0" x2="18.4788" y2="35.5952" gradientUnits="userSpaceOnUse">
<stop stop-color="#FFD496"/>
<stop offset="1" stop-color="#F9DEB7"/>
</linearGradient>
</defs>
</svg>
