<svg preserveAspectRatio="none" width="100%" height="100%" overflow="visible" style="display: block;" viewBox="0 0 29.8145 22.4342" fill="none" xmlns="http://www.w3.org/2000/svg">
<g id="Group">
<g id="Vector" filter="url(#filter0_n_0_95)">
<path fill-rule="evenodd" clip-rule="evenodd" d="M12.8584 1.06963C13.4179 0.647101 14.288 0.880323 14.4966 1.54969C14.7104 2.23537 14.9518 2.92253 15.2209 3.61111C15.8119 5.25907 16.9728 6.11877 18.7036 6.19048C19.7283 6.17838 20.6829 5.92309 21.5676 5.4248C21.7206 5.33862 21.8934 5.28922 22.0686 5.3003C24.341 5.44386 26.1002 6.51447 27.346 8.5119C29.3767 11.3617 30.1545 14.5154 29.6794 17.9732C29.6719 18.0278 29.6592 18.0819 29.6404 18.1338C29.3794 18.8563 28.9381 19.4579 28.317 19.9384C28.2721 19.9732 28.2223 20.0029 28.1711 20.0275C18.8065 24.5079 10.8779 22.7327 4.38568 14.7024C1.86878 11.1627 0.434599 7.27593 0.0833086 3.04183C0.0229579 2.31443 0.849532 1.86674 1.50483 2.18822C3.46506 3.14988 5.58618 3.40915 7.86843 2.96627C9.76593 2.78116 11.4293 2.14886 12.8584 1.06963Z" fill="var(--fill-0, #CAB9FE)"/>
<path fill-rule="evenodd" clip-rule="evenodd" d="M12.8584 1.06963C13.4179 0.647101 14.288 0.880323 14.4966 1.54969C14.7104 2.23537 14.9518 2.92253 15.2209 3.61111C15.8119 5.25907 16.9728 6.11877 18.7036 6.19048C19.7283 6.17838 20.6829 5.92309 21.5676 5.4248C21.7206 5.33862 21.8934 5.28922 22.0686 5.3003C24.341 5.44386 26.1002 6.51447 27.346 8.5119C29.3767 11.3617 30.1545 14.5154 29.6794 17.9732C29.6719 18.0278 29.6592 18.0819 29.6404 18.1338C29.3794 18.8563 28.9381 19.4579 28.317 19.9384C28.2721 19.9732 28.2223 20.0029 28.1711 20.0275C18.8065 24.5079 10.8779 22.7327 4.38568 14.7024C1.86878 11.1627 0.434599 7.27593 0.0833086 3.04183C0.0229579 2.31443 0.849532 1.86674 1.50483 2.18822C3.46506 3.14988 5.58618 3.40915 7.86843 2.96627C9.76593 2.78116 11.4293 2.14886 12.8584 1.06963Z" fill="url(#paint0_linear_0_95)"/>
<path d="M13.0469 1.31934C13.4535 1.01225 14.0611 1.20292 14.1982 1.64258C14.4142 2.33537 14.6581 3.02949 14.9297 3.72461C15.2416 4.59043 15.7108 5.2708 16.3486 5.74316C16.9886 6.21712 17.7753 6.46497 18.6904 6.50293H18.707C19.7835 6.49023 20.7899 6.22144 21.7207 5.69727C21.832 5.63458 21.9453 5.60578 22.0488 5.6123C24.2166 5.74926 25.8865 6.76245 27.0811 8.67773L27.0859 8.68555L27.0918 8.69336C29.0763 11.4784 29.8343 14.5521 29.3701 17.9307C29.3653 17.9658 29.3572 17.9983 29.3467 18.0273C29.1063 18.6927 28.7013 19.2463 28.126 19.6914C28.1008 19.7109 28.0701 19.7289 28.0361 19.7451C23.3993 21.9636 19.1483 22.6203 15.2695 21.752C11.3929 20.884 7.84647 18.4835 4.63379 14.5117C2.15281 11.0192 0.740763 7.18874 0.394531 3.01562C0.375923 2.78957 0.490586 2.60334 0.682617 2.49219C0.879084 2.37858 1.13904 2.35683 1.36719 2.46875C3.38952 3.46087 5.57662 3.72644 7.91699 3.27441C9.86039 3.0818 11.5734 2.43202 13.0469 1.31934Z" stroke="var(--stroke-0, #030303)" stroke-width="0.625"/>
</g>
<path id="Vector_2" opacity="0.2" d="M24.346 16.3895C24.346 16.3895 24.346 16.3895 24.346 16.3895C24.1718 16.818 23.8095 17.1199 23.4486 17.3874C23.3742 17.4417 23.2984 17.4947 23.2222 17.5468L23.2337 17.5398C19.6116 19.1987 15.2274 19.4846 11.9416 17.2249C10.6517 16.3927 9.5235 15.3091 8.52815 14.1176L8.53843 14.1312C7.05331 12.1275 6.05084 9.75859 5.70257 7.25026C5.63818 6.79933 5.59313 6.34459 5.56641 5.8877C5.55147 6.34513 5.55698 6.80392 5.58443 7.26219C5.7245 9.8094 6.61698 12.331 8.08964 14.4503L8.09992 14.4638C9.08389 15.7199 10.2411 16.8714 11.6029 17.7501C15.0973 20.164 19.8295 19.6317 23.295 17.6672L23.3065 17.6602C23.3792 17.6015 23.4516 17.5416 23.5225 17.4803C23.8664 17.1797 24.2119 16.8339 24.346 16.3895Z" fill="var(--stroke-0, black)"/>
</g>
<defs>
<filter id="filter0_n_0_95" x="0.0801856" y="0.857428" width="29.7343" height="21.5768" filterUnits="userSpaceOnUse" color-interpolation-filters="sRGB">
<feFlood flood-opacity="0" result="BackgroundImageFix"/>
<feBlend mode="normal" in="SourceGraphic" in2="BackgroundImageFix" result="shape"/>
<feTurbulence type="fractalNoise" baseFrequency="4.2188420295715332 4.2188420295715332" stitchTiles="stitch" numOctaves="3" result="noise" seed="711" />
<feColorMatrix in="noise" type="luminanceToAlpha" result="alphaNoise" />
<feComponentTransfer in="alphaNoise" result="coloredNoise1">
<feFuncA type="discrete" tableValues="1 1 1 1 1 1 1 1 1 1 1 1 1 1 1 1 1 1 1 1 1 1 1 1 1 1 1 1 1 1 1 1 1 1 1 1 1 1 1 1 1 1 1 1 1 1 1 1 1 1 1 0 0 0 0 0 0 0 0 0 0 0 0 0 0 0 0 0 0 0 0 0 0 0 0 0 0 0 0 0 0 0 0 0 0 0 0 0 0 0 0 0 0 0 0 0 0 0 0 0 "/>
</feComponentTransfer>
<feComposite operator="in" in2="shape" in="coloredNoise1" result="noise1Clipped" />
<feFlood flood-color="rgba(229, 229, 229, 0.15)" result="color1Flood" />
<feComposite operator="in" in2="noise1Clipped" in="color1Flood" result="color1" />
<feMerge result="effect1_noise_0_95">
<feMergeNode in="shape" />
<feMergeNode in="color1" />
</feMerge>
</filter>
<linearGradient id="paint0_linear_0_95" x1="14.9073" y1="0" x2="14.9073" y2="22.4342" gradientUnits="userSpaceOnUse">
<stop stop-color="#FFD496"/>
<stop offset="1" stop-color="#F9DEB7"/>
</linearGradient>
</defs>
</svg>
