<svg preserveAspectRatio="none" width="100%" height="100%" overflow="visible" style="display: block;" viewBox="0 0 27.0752 44.083" fill="none" xmlns="http://www.w3.org/2000/svg">
<g id="Group">
<g id="Vector" filter="url(#filter0_n_0_107)">
<path fill-rule="evenodd" clip-rule="evenodd" d="M19.3486 0C21.8312 0.199385 23.6801 1.40317 24.8952 3.61111C25.4804 4.65973 25.9951 5.73864 26.4393 6.84783C26.8098 7.77319 27.041 8.75235 27.0689 9.74876C27.1057 11.0652 26.9831 12.3725 26.7011 13.6706C20.3714 19.5707 16.4165 26.7431 14.8367 35.188C14.5452 36.7462 13.674 38.1499 12.3442 39.013C10.2814 40.3519 8.23312 41.7119 6.19933 43.0928C5.34313 43.6742 4.36817 44.1488 3.33645 44.0675C1.40074 43.915 0.288636 42.6386 0 40.2381C0.624573 27.2175 5.05308 15.6962 13.286 5.6746C15.2023 3.62839 17.2231 1.73694 19.3486 0Z" fill="var(--fill-0, #CAB9FE)"/>
<path fill-rule="evenodd" clip-rule="evenodd" d="M19.3486 0C21.8312 0.199385 23.6801 1.40317 24.8952 3.61111C25.4804 4.65973 25.9951 5.73864 26.4393 6.84783C26.8098 7.77319 27.041 8.75235 27.0689 9.74876C27.1057 11.0652 26.9831 12.3725 26.7011 13.6706C20.3714 19.5707 16.4165 26.7431 14.8367 35.188C14.5452 36.7462 13.674 38.1499 12.3442 39.013C10.2814 40.3519 8.23312 41.7119 6.19933 43.0928C5.34313 43.6742 4.36817 44.1488 3.33645 44.0675C1.40074 43.915 0.288636 42.6386 0 40.2381C0.624573 27.2175 5.05308 15.6962 13.286 5.6746C15.2023 3.62839 17.2231 1.73694 19.3486 0Z" fill="url(#paint0_linear_0_107)"/>
<path d="M19.4463 0.324219C21.7604 0.544148 23.4761 1.68124 24.6211 3.76172L24.6221 3.76367C25.2007 4.80066 25.7103 5.86719 26.1494 6.96387C26.5085 7.86068 26.7302 8.80389 26.7568 9.75781C26.792 11.0179 26.6759 12.269 26.4131 13.5127C20.0788 19.4446 16.1152 26.6534 14.5293 35.1309C14.2519 36.6132 13.4249 37.939 12.1738 38.751C10.1093 40.091 8.05895 41.4518 6.02344 42.834C5.18344 43.4043 4.28378 43.8284 3.36133 43.7559C2.46219 43.685 1.78047 43.3583 1.28613 42.791C0.788802 42.2202 0.45508 41.376 0.313477 40.2246C0.939757 27.2859 5.34074 15.841 13.5205 5.88086C15.3954 3.87946 17.3709 2.02767 19.4463 0.324219Z" stroke="var(--stroke-0, #030303)" stroke-width="0.625"/>
</g>
<path id="Vector_2" opacity="0.2" d="M19.1156 3.87214C18.6052 4.2623 18.1026 4.66318 17.6081 5.07433C16.316 6.14848 15.0797 7.29276 13.9037 8.49769L13.8958 8.50671C11.2169 11.6307 8.92247 15.1062 7.16259 18.8419C4.67133 24.1025 3.28546 29.8632 2.9799 35.6409C2.94503 36.2824 2.9228 36.9243 2.91276 37.5682C2.91276 37.5682 2.91276 37.5682 2.91276 37.5682C2.96442 36.9263 3.02612 36.2878 3.09823 35.6508C3.74121 29.9125 5.2718 24.2991 7.72787 19.1085C9.46474 15.4227 11.652 11.9526 14.1817 8.74159L14.1737 8.75061C15.2912 7.50652 16.4623 6.30848 17.6866 5.16339C18.1552 4.7251 18.6316 4.29456 19.1156 3.87214Z" fill="var(--stroke-0, black)"/>
</g>
<defs>
<filter id="filter0_n_0_107" x="0" y="0" width="27.0752" height="44.0766" filterUnits="userSpaceOnUse" color-interpolation-filters="sRGB">
<feFlood flood-opacity="0" result="BackgroundImageFix"/>
<feBlend mode="normal" in="SourceGraphic" in2="BackgroundImageFix" result="shape"/>
<feTurbulence type="fractalNoise" baseFrequency="4.2188420295715332 4.2188420295715332" stitchTiles="stitch" numOctaves="3" result="noise" seed="711" />
<feColorMatrix in="noise" type="luminanceToAlpha" result="alphaNoise" />
<feComponentTransfer in="alphaNoise" result="coloredNoise1">
<feFuncA type="discrete" tableValues="1 1 1 1 1 1 1 1 1 1 1 1 1 1 1 1 1 1 1 1 1 1 1 1 1 1 1 1 1 1 1 1 1 1 1 1 1 1 1 1 1 1 1 1 1 1 1 1 1 1 1 0 0 0 0 0 0 0 0 0 0 0 0 0 0 0 0 0 0 0 0 0 0 0 0 0 0 0 0 0 0 0 0 0 0 0 0 0 0 0 0 0 0 0 0 0 0 0 0 0 "/>
</feComponentTransfer>
<feComposite operator="in" in2="shape" in="coloredNoise1" result="noise1Clipped" />
<feFlood flood-color="rgba(229, 229, 229, 0.15)" result="color1Flood" />
<feComposite operator="in" in2="noise1Clipped" in="color1Flood" result="color1" />
<feMerge result="effect1_noise_0_107">
<feMergeNode in="shape" />
<feMergeNode in="color1" />
</feMerge>
</filter>
<linearGradient id="paint0_linear_0_107" x1="13.5376" y1="0" x2="13.5376" y2="44.083" gradientUnits="userSpaceOnUse">
<stop stop-color="#FFD496"/>
<stop offset="1" stop-color="#F9DEB7"/>
</linearGradient>
</defs>
</svg>
