<svg preserveAspectRatio="none" width="100%" height="100%" overflow="visible" style="display: block;" viewBox="0 0 43.6111 29.1132" fill="none" xmlns="http://www.w3.org/2000/svg">
<g id="Group">
<g id="Vector" filter="url(#filter0_n_0_116)">
<path fill-rule="evenodd" clip-rule="evenodd" d="M14.2006 0.69095C14.7036 0.350267 15.3926 0.600644 15.5594 1.18481C15.6186 1.39174 15.6777 1.59866 15.7369 1.80556C16.3854 6.28333 18.8793 9.2496 23.2183 10.7044C27.3671 12.028 31.4082 11.7884 35.3415 9.98514C35.5885 9.8719 35.8742 9.86825 36.1156 9.99304C38.3981 11.1732 40.1617 12.9149 41.406 15.2183C43.1906 18.0592 43.8921 21.1338 43.51 24.4422C43.4861 24.6491 43.3866 24.8399 43.23 24.9772C41.4868 26.5063 39.4598 27.5093 37.1493 27.9861C26.7444 30.5479 17.1991 28.7424 8.51338 22.5694C4.66963 19.444 1.90684 15.5737 0.225007 10.9584C0.0876165 10.5814 0.229877 10.1615 0.561942 9.93619C5.11196 6.84913 9.65806 3.76744 14.2006 0.69095Z" fill="var(--fill-0, #CAB9FE)"/>
<path d="M14.376 0.949219C14.7028 0.728139 15.1503 0.891091 15.2588 1.27051C15.3161 1.47127 15.3733 1.6723 15.4307 1.87305C15.7639 4.14975 16.5685 6.0602 17.8545 7.58984C19.1446 9.12432 20.9052 10.2587 23.1191 11.001L23.123 11.002C27.3453 12.3491 31.4671 12.1054 35.4717 10.2695C35.6396 10.1925 35.8237 10.1941 35.9717 10.2705C38.1973 11.4212 39.9158 13.118 41.1309 15.3672L41.1357 15.376L41.1416 15.3848C42.8886 18.1659 43.573 21.1691 43.1992 24.4062C43.1842 24.5364 43.1222 24.6563 43.0244 24.7422C41.3226 26.2349 39.3444 27.2136 37.0859 27.6797L37.0742 27.6826C26.7603 30.222 17.3111 28.4357 8.70215 22.3203C4.90616 19.2313 2.17968 15.41 0.518555 10.8516C0.431665 10.6131 0.52014 10.3417 0.737305 10.1943C5.28721 7.10736 9.83355 4.02563 14.376 0.949219Z" stroke="var(--stroke-0, #030303)" stroke-width="0.625"/>
</g>
<path id="Vector_2" opacity="0.2" d="M41.0731 22.5769C41.0731 22.5769 41.0731 22.5769 41.0731 22.5769C40.5132 23.0633 39.9093 23.4964 39.2694 23.8635C38.1565 24.504 36.9353 24.9367 35.6818 25.1671C30.4548 26.3629 24.9434 26.3237 19.8727 24.6717C16.9167 23.7261 14.1291 22.2834 11.5694 20.508L11.5827 20.5181C8.83583 18.3519 6.57072 15.5625 5.06184 12.3715C4.74345 11.7033 4.45645 11.0205 4.19922 10.3242C4.41697 11.0338 4.66769 11.7329 4.95338 12.4198C6.30414 15.6996 8.5065 18.6391 11.259 20.9162L11.2722 20.9262C13.8248 22.7886 16.6573 24.2996 19.6819 25.2669C24.8727 26.9609 30.5409 26.8761 35.747 25.4554C37.0148 25.1686 38.2404 24.6686 39.3311 23.965C39.9584 23.5616 40.5414 23.094 41.0731 22.5769Z" fill="var(--stroke-0, black)"/>
</g>
<defs>
<filter id="filter0_n_0_116" x="0.172965" y="0.536852" width="43.4381" height="28.5763" filterUnits="userSpaceOnUse" color-interpolation-filters="sRGB">
<feFlood flood-opacity="0" result="BackgroundImageFix"/>
<feBlend mode="normal" in="SourceGraphic" in2="BackgroundImageFix" result="shape"/>
<feTurbulence type="fractalNoise" baseFrequency="4.2188420295715332 4.2188420295715332" stitchTiles="stitch" numOctaves="3" result="noise" seed="711" />
<feColorMatrix in="noise" type="luminanceToAlpha" result="alphaNoise" />
<feComponentTransfer in="alphaNoise" result="coloredNoise1">
<feFuncA type="discrete" tableValues="1 1 1 1 1 1 1 1 1 1 1 1 1 1 1 1 1 1 1 1 1 1 1 1 1 1 1 1 1 1 1 1 1 1 1 1 1 1 1 1 1 1 1 1 1 1 1 1 1 1 1 0 0 0 0 0 0 0 0 0 0 0 0 0 0 0 0 0 0 0 0 0 0 0 0 0 0 0 0 0 0 0 0 0 0 0 0 0 0 0 0 0 0 0 0 0 0 0 0 0 "/>
</feComponentTransfer>
<feComposite operator="in" in2="shape" in="coloredNoise1" result="noise1Clipped" />
<feFlood flood-color="rgba(229, 229, 229, 0.15)" result="color1Flood" />
<feComposite operator="in" in2="noise1Clipped" in="color1Flood" result="color1" />
<feMerge result="effect1_noise_0_116">
<feMergeNode in="shape" />
<feMergeNode in="color1" />
</feMerge>
</filter>
</defs>
</svg>
