<svg preserveAspectRatio="none" width="100%" height="100%" overflow="visible" style="display: block;" viewBox="0 0 28.2507 25.8934" fill="none" xmlns="http://www.w3.org/2000/svg">
<g id="Group">
<g id="Vector" filter="url(#filter0_n_0_17)">
<path fill-rule="evenodd" clip-rule="evenodd" d="M6.19155 0.0494084C11.9856 -0.492758 22.2328 3.42477 26.1851 11.9145C27.5658 14.963 28.2542 18.1433 28.2506 21.4558C28.2505 21.6257 28.2003 21.7922 28.1039 21.9321C26.628 24.0716 24.5696 25.3324 21.9284 25.7141C19.1798 26.2239 16.7281 25.6468 14.5731 23.9828C14.4065 23.8541 14.2974 23.666 14.257 23.4593C13.9548 21.9106 13.5451 20.3836 13.0281 18.8788C12.1801 16.5918 10.8403 15.6714 9.00866 16.1177C8.29077 16.2927 7.47469 15.757 7.49236 15.0183C7.59446 10.749 5.97349 7.10699 2.62962 4.09217C2.59671 4.0625 2.56123 4.03517 2.52411 4.01097C2.1841 3.78929 1.83743 3.57894 1.48409 3.37995C0.863509 3.03046 0.746551 2.04118 1.21188 1.50198C1.75154 0.876656 2.40345 0.403874 6.19155 0.0494084Z" fill="var(--fill-0, #CAB9FE)"/>
<path fill-rule="evenodd" clip-rule="evenodd" d="M6.19155 0.0494084C11.9856 -0.492758 22.2328 3.42477 26.1851 11.9145C27.5658 14.963 28.2542 18.1433 28.2506 21.4558C28.2505 21.6257 28.2003 21.7922 28.1039 21.9321C26.628 24.0716 24.5696 25.3324 21.9284 25.7141C19.1798 26.2239 16.7281 25.6468 14.5731 23.9828C14.4065 23.8541 14.2974 23.666 14.257 23.4593C13.9548 21.9106 13.5451 20.3836 13.0281 18.8788C12.1801 16.5918 10.8403 15.6714 9.00866 16.1177C8.29077 16.2927 7.47469 15.757 7.49236 15.0183C7.59446 10.749 5.97349 7.10699 2.62962 4.09217C2.59671 4.0625 2.56123 4.03517 2.52411 4.01097C2.1841 3.78929 1.83743 3.57894 1.48409 3.37995C0.863509 3.03046 0.746551 2.04118 1.21188 1.50198C1.75154 0.876656 2.40345 0.403874 6.19155 0.0494084Z" fill="url(#paint0_linear_0_17)"/>
<path d="M6.2207 0.360352C9.04434 0.0961498 12.9944 0.920173 16.7344 2.87207C20.4698 4.82159 23.9612 7.87861 25.9014 12.0459C27.2631 15.0534 27.9419 18.1886 27.9385 21.4551C27.9384 21.564 27.906 21.6689 27.8467 21.7549C26.4217 23.8206 24.4414 25.0346 21.8838 25.4043L21.8711 25.4072C19.2074 25.9012 16.8461 25.3433 14.7637 23.7354C14.6623 23.6569 14.5905 23.5379 14.5635 23.3994C14.2584 21.8365 13.8449 20.2957 13.3232 18.7773L13.3213 18.7705L13.1514 18.3438C12.7388 17.3832 12.215 16.6628 11.5645 16.2158C10.8093 15.6971 9.92156 15.5739 8.93457 15.8145C8.67199 15.8784 8.38001 15.8125 8.1543 15.6543C7.93018 15.4972 7.79884 15.2698 7.80469 15.0254C7.90899 10.6598 6.24602 6.93228 2.83887 3.86035C2.79398 3.81988 2.74519 3.78218 2.69434 3.74902C2.34883 3.52378 1.99677 3.30964 1.6377 3.10742C1.43274 2.992 1.28892 2.75646 1.25 2.46973C1.21118 2.18293 1.28471 1.89558 1.44824 1.70605C1.68714 1.42924 1.94068 1.19 2.58496 0.969727C3.25231 0.74162 4.33168 0.537114 6.2207 0.360352Z" stroke="var(--stroke-0, #030303)" stroke-width="0.625"/>
</g>
<path id="Vector_2" opacity="0.2" d="M6.57788 3.01997C7.05911 2.99601 7.54285 3.00956 8.02645 3.04977C12.3443 3.49426 16.4215 5.4733 19.5708 8.35865C21.0215 9.70832 22.2497 11.3 23.1185 13.0838C24.1114 15.1673 24.7576 17.4262 24.9891 19.7501C25.0376 20.2309 25.0691 20.7138 25.0842 21.1984C25.0842 21.1984 25.0842 21.1984 25.0842 21.1984C25.1108 20.7143 25.1189 20.2289 25.1076 19.7428C25.0571 17.394 24.5307 15.0425 23.5878 12.8683C22.7535 10.9853 21.4999 9.29886 19.9968 7.90131C16.7359 4.90757 12.4203 3.03759 8.03174 2.93114C7.54187 2.92816 7.05528 2.9545 6.57788 3.01997Z" fill="var(--stroke-0, black)"/>
</g>
<defs>
<filter id="filter0_n_0_17" x="0.927751" y="1.77642e-09" width="27.3229" height="25.8934" filterUnits="userSpaceOnUse" color-interpolation-filters="sRGB">
<feFlood flood-opacity="0" result="BackgroundImageFix"/>
<feBlend mode="normal" in="SourceGraphic" in2="BackgroundImageFix" result="shape"/>
<feTurbulence type="fractalNoise" baseFrequency="4.2188420295715332 4.2188420295715332" stitchTiles="stitch" numOctaves="3" result="noise" seed="711" />
<feColorMatrix in="noise" type="luminanceToAlpha" result="alphaNoise" />
<feComponentTransfer in="alphaNoise" result="coloredNoise1">
<feFuncA type="discrete" tableValues="1 1 1 1 1 1 1 1 1 1 1 1 1 1 1 1 1 1 1 1 1 1 1 1 1 1 1 1 1 1 1 1 1 1 1 1 1 1 1 1 1 1 1 1 1 1 1 1 1 1 1 0 0 0 0 0 0 0 0 0 0 0 0 0 0 0 0 0 0 0 0 0 0 0 0 0 0 0 0 0 0 0 0 0 0 0 0 0 0 0 0 0 0 0 0 0 0 0 0 0 "/>
</feComponentTransfer>
<feComposite operator="in" in2="shape" in="coloredNoise1" result="noise1Clipped" />
<feFlood flood-color="rgba(229, 229, 229, 0.15)" result="color1Flood" />
<feComposite operator="in" in2="noise1Clipped" in="color1Flood" result="color1" />
<feMerge result="effect1_noise_0_17">
<feMergeNode in="shape" />
<feMergeNode in="color1" />
</feMerge>
</filter>
<linearGradient id="paint0_linear_0_17" x1="14.1253" y1="-0.00697545" x2="14.1253" y2="25.8927" gradientUnits="userSpaceOnUse">
<stop stop-color="#FFD496"/>
<stop offset="1" stop-color="#F9DEB7"/>
</linearGradient>
</defs>
</svg>
