<svg width="494" height="179" viewBox="0 0 494 179" fill="none" xmlns="http://www.w3.org/2000/svg">
<rect width="494" height="179" rx="12" fill="#F5F5F5"/>
<g filter="url(#filter0_dii_844_13335)">
<rect x="105" y="46" width="284" height="88" rx="12" fill="#252526" shape-rendering="crispEdges"/>
<path d="M125.37 64.62H124.857C124.585 64.62 124.437 64.4862 124.34 64.2276C123.985 63.2536 123.066 62.718 122 62.718C120.37 62.718 119.151 63.9783 119.151 66.2727C119.151 68.5856 120.375 69.8274 121.995 69.8274C123.057 69.8274 123.971 69.3058 124.34 68.3455C124.437 68.0824 124.585 67.9531 124.857 67.9531H125.37C125.693 67.9531 125.868 68.1516 125.771 68.4656C125.291 70.0582 123.869 71.1293 121.986 71.1293C119.53 71.1293 117.734 69.2965 117.734 66.2727C117.734 63.2489 119.539 61.4162 121.986 61.4162C123.809 61.4162 125.287 62.3995 125.776 64.1076C125.868 64.4261 125.693 64.62 125.37 64.62ZM128.868 66.7898V70.5384C128.868 70.8384 128.706 71 128.406 71H127.949C127.649 71 127.487 70.8384 127.487 70.5384V62.0071C127.487 61.707 127.649 61.5455 127.949 61.5455H128.388C128.688 61.5455 128.849 61.707 128.849 62.0071V65.0632H128.937C129.269 64.2969 129.934 63.8168 131.038 63.8168C132.496 63.8168 133.466 64.7216 133.466 66.4897V70.5384C133.466 70.8384 133.304 71 133.004 71H132.547C132.247 71 132.085 70.8384 132.085 70.5384V66.6559C132.085 65.6172 131.518 65.0124 130.567 65.0124C129.583 65.0124 128.868 65.6587 128.868 66.7898ZM138.295 71.1431C136.296 71.1431 134.989 69.6797 134.989 67.4869C134.989 65.2802 136.296 63.8168 138.295 63.8168C140.294 63.8168 141.6 65.2802 141.6 67.4869C141.6 69.6797 140.294 71.1431 138.295 71.1431ZM138.299 69.9844C139.597 69.9844 140.206 68.8441 140.206 67.4822C140.206 66.125 139.597 64.9709 138.299 64.9709C136.993 64.9709 136.383 66.125 136.383 67.4822C136.383 68.8441 136.993 69.9844 138.299 69.9844ZM146.128 71.1431C144.129 71.1431 142.822 69.6797 142.822 67.4869C142.822 65.2802 144.129 63.8168 146.128 63.8168C148.127 63.8168 149.433 65.2802 149.433 67.4869C149.433 69.6797 148.127 71.1431 146.128 71.1431ZM146.132 69.9844C147.43 69.9844 148.039 68.8441 148.039 67.4822C148.039 66.125 147.43 64.9709 146.132 64.9709C144.826 64.9709 144.216 66.125 144.216 67.4822C144.216 68.8441 144.826 69.9844 146.132 69.9844ZM155.789 65.728L155.433 65.7926C155.166 65.8388 155.013 65.7326 154.861 65.5018C154.639 65.174 154.256 64.9109 153.619 64.9109C152.834 64.9109 152.243 65.2987 152.248 65.8434C152.243 66.3235 152.58 66.5866 153.361 66.7713L154.487 67.0298C155.789 67.3299 156.426 67.9485 156.426 68.9503C156.426 70.2337 155.239 71.1431 153.527 71.1431C152.146 71.1431 151.177 70.6122 150.794 69.652C150.678 69.3612 150.84 69.1534 151.149 69.1072L151.583 69.0426C151.856 69.0011 152.003 69.1165 152.142 69.3658C152.391 69.8043 152.862 70.0305 153.517 70.0305C154.422 70.0305 155.009 69.6012 155.009 69.0518C155.009 68.6087 154.69 68.304 154.007 68.1516L152.807 67.8885C151.477 67.593 150.868 66.9237 150.868 65.9173C150.868 64.6616 152.003 63.8168 153.605 63.8168C154.907 63.8168 155.724 64.3338 156.117 65.1694C156.255 65.4602 156.103 65.6726 155.789 65.728ZM158.641 62.815C158.161 62.815 157.768 62.4457 157.768 61.9933C157.768 61.5408 158.161 61.1669 158.641 61.1669C159.116 61.1669 159.513 61.5408 159.513 61.9933C159.513 62.4457 159.116 62.815 158.641 62.815ZM157.944 70.5384V64.3707C157.944 64.0707 158.105 63.9091 158.405 63.9091H158.862C159.162 63.9091 159.324 64.0707 159.324 64.3707V70.5384C159.324 70.8384 159.162 71 158.862 71H158.405C158.105 71 157.944 70.8384 157.944 70.5384ZM162.561 66.7898V70.5384C162.561 70.8384 162.4 71 162.1 71H161.642C161.342 71 161.181 70.8384 161.181 70.5384V64.3707C161.181 64.0707 161.342 63.9091 161.642 63.9091H162.044C162.344 63.9091 162.506 64.0707 162.506 64.3707V65.0632H162.593C162.921 64.3107 163.618 63.8168 164.685 63.8168C166.134 63.8168 167.099 64.7354 167.099 66.4897V70.5384C167.099 70.8384 166.938 71 166.638 71H166.18C165.88 71 165.719 70.8384 165.719 70.5384V66.6559C165.719 65.6264 165.151 65.0124 164.214 65.0124C163.254 65.0124 162.561 65.6587 162.561 66.7898ZM171.923 73.8068C170.511 73.8068 169.62 73.2944 169.144 72.6204C168.969 72.3665 169.075 72.131 169.361 72.011L169.712 71.8679C169.966 71.7617 170.151 71.831 170.331 72.0433C170.617 72.3757 171.083 72.6942 171.937 72.6942C172.985 72.6942 173.747 72.2141 173.747 71.1016V69.7074H173.659C173.41 70.1598 172.907 70.8938 171.605 70.8938C169.929 70.8938 168.641 69.6889 168.641 67.4268C168.641 65.1694 169.901 63.8168 171.614 63.8168C172.934 63.8168 173.424 64.62 173.668 65.0586H173.77V64.3707C173.77 64.0707 173.932 63.9091 174.232 63.9091H174.661C174.961 63.9091 175.123 64.0707 175.123 64.3707V71.157C175.123 72.9805 173.728 73.8068 171.923 73.8068ZM171.91 69.7489C173.101 69.7489 173.761 68.8718 173.761 67.4084C173.761 65.9727 173.114 64.9893 171.91 64.9893C170.663 64.9893 170.035 66.0465 170.035 67.4084C170.035 68.8026 170.677 69.7489 171.91 69.7489ZM182.478 71.157C181.13 71.157 180.082 70.3906 180.082 68.9964C180.082 67.3853 181.458 67.0344 182.801 66.8775C184.075 66.7298 184.592 66.739 184.592 66.2358V66.2035C184.592 65.4002 184.135 64.9339 183.244 64.9339C182.533 64.9339 182.067 65.2156 181.795 65.5756C181.628 65.7972 181.467 65.8942 181.204 65.8342L180.802 65.7418C180.488 65.668 180.354 65.4418 180.516 65.1555C181.074 64.2045 182.113 63.8168 183.226 63.8168C184.352 63.8168 185.977 64.2276 185.977 66.2912V70.5384C185.977 70.8384 185.816 71 185.515 71H185.091C184.791 71 184.629 70.8384 184.629 70.5384V70.0305H184.574C184.311 70.5614 183.65 71.157 182.478 71.157ZM182.778 70.049C183.927 70.049 184.597 69.2827 184.597 68.4425V67.5284C184.398 67.7269 183.336 67.8469 182.889 67.907C182.09 68.0131 181.434 68.2763 181.434 69.0149C181.434 69.6982 181.998 70.049 182.778 70.049ZM192.636 62.0071V70.5384C192.636 70.8384 192.475 71 192.175 71H191.718C191.418 71 191.256 70.8384 191.256 70.5384V62.0071C191.256 61.707 191.418 61.5455 191.718 61.5455H192.175C192.475 61.5455 192.636 61.707 192.636 62.0071ZM197.48 71.1431C195.481 71.1431 194.175 69.6797 194.175 67.4869C194.175 65.2802 195.481 63.8168 197.48 63.8168C199.479 63.8168 200.786 65.2802 200.786 67.4869C200.786 69.6797 199.479 71.1431 197.48 71.1431ZM197.485 69.9844C198.782 69.9844 199.391 68.8441 199.391 67.4822C199.391 66.125 198.782 64.9709 197.485 64.9709C196.178 64.9709 195.569 66.125 195.569 67.4822C195.569 68.8441 196.178 69.9844 197.485 69.9844ZM203.707 66.7898V70.5384C203.707 70.8384 203.545 71 203.245 71H202.788C202.488 71 202.326 70.8384 202.326 70.5384V64.3707C202.326 64.0707 202.488 63.9091 202.788 63.9091H203.19C203.49 63.9091 203.651 64.0707 203.651 64.3707V65.0632H203.739C204.067 64.3107 204.764 63.8168 205.83 63.8168C207.28 63.8168 208.245 64.7354 208.245 66.4897V70.5384C208.245 70.8384 208.083 71 207.783 71H207.326C207.026 71 206.864 70.8384 206.864 70.5384V66.6559C206.864 65.6264 206.297 65.0124 205.359 65.0124C204.399 65.0124 203.707 65.6587 203.707 66.7898ZM213.069 73.8068C211.656 73.8068 210.765 73.2944 210.29 72.6204C210.114 72.3665 210.221 72.131 210.507 72.011L210.858 71.8679C211.112 71.7617 211.296 71.831 211.476 72.0433C211.762 72.3757 212.229 72.6942 213.083 72.6942C214.131 72.6942 214.892 72.2141 214.892 71.1016V69.7074H214.805C214.555 70.1598 214.052 70.8938 212.75 70.8938C211.075 70.8938 209.787 69.6889 209.787 67.4268C209.787 65.1694 211.047 63.8168 212.76 63.8168C214.08 63.8168 214.569 64.62 214.814 65.0586H214.915V64.3707C214.915 64.0707 215.077 63.9091 215.377 63.9091H215.806C216.107 63.9091 216.268 64.0707 216.268 64.3707V71.157C216.268 72.9805 214.874 73.8068 213.069 73.8068ZM213.055 69.7489C214.246 69.7489 214.906 68.8718 214.906 67.4084C214.906 65.9727 214.26 64.9893 213.055 64.9893C211.809 64.9893 211.181 66.0465 211.181 67.4084C211.181 68.8026 211.822 69.7489 213.055 69.7489ZM221.175 71.1431C219.084 71.1431 217.801 69.7028 217.801 67.5007C217.801 65.3217 219.103 63.8168 221.078 63.8168C222.685 63.8168 224.218 64.8185 224.218 67.3807V67.4084C224.218 67.7085 224.056 67.87 223.756 67.87H219.176C219.213 69.2365 220.007 70.0028 221.189 70.0028C221.822 70.0028 222.334 69.7812 222.639 69.3473C222.796 69.1165 222.953 69.0103 223.221 69.0611L223.627 69.1349C223.941 69.195 224.098 69.375 223.991 69.6104C223.558 70.5476 222.542 71.1431 221.175 71.1431ZM219.181 66.8359H222.865C222.86 65.7511 222.159 64.957 221.088 64.957C219.966 64.957 219.237 65.8295 219.181 66.8359ZM225.749 70.5384V64.3707C225.749 64.0707 225.911 63.9091 226.211 63.9091H226.622C226.922 63.9091 227.083 64.0707 227.083 64.3707V65.0355H227.157C227.416 64.2738 228.127 63.8029 228.958 63.8029C228.999 63.8029 229.05 63.8029 229.101 63.8075C229.392 63.8121 229.544 63.9922 229.544 64.283V64.6616C229.544 64.9755 229.415 65.1186 229.188 65.0955C229.073 65.0817 228.944 65.0724 228.824 65.0724C227.845 65.0724 227.13 65.7418 227.13 66.6697V70.5384C227.13 70.8384 226.968 71 226.668 71H226.211C225.911 71 225.749 70.8384 225.749 70.5384ZM235.559 62.0071V70.5384C235.559 70.8384 235.398 71 235.098 71H234.641C234.34 71 234.179 70.8384 234.179 70.5384V62.0071C234.179 61.707 234.34 61.5455 234.641 61.5455H235.098C235.398 61.5455 235.559 61.707 235.559 62.0071ZM240.403 71.1431C238.404 71.1431 237.098 69.6797 237.098 67.4869C237.098 65.2802 238.404 63.8168 240.403 63.8168C242.402 63.8168 243.708 65.2802 243.708 67.4869C243.708 69.6797 242.402 71.1431 240.403 71.1431ZM240.408 69.9844C241.705 69.9844 242.314 68.8441 242.314 67.4822C242.314 66.125 241.705 64.9709 240.408 64.9709C239.101 64.9709 238.492 66.125 238.492 67.4822C238.492 68.8441 239.101 69.9844 240.408 69.9844ZM248.236 71.1431C246.177 71.1431 244.931 69.6243 244.931 67.4869C244.931 65.3217 246.223 63.8168 248.222 63.8168C249.635 63.8168 250.71 64.5508 251.052 65.6957C251.14 66.005 250.955 66.1989 250.637 66.1989H250.203C249.935 66.1989 249.792 66.0742 249.676 65.8249C249.436 65.3402 248.952 64.9801 248.245 64.9801C247.091 64.9801 246.325 65.9357 246.325 67.4545C246.325 69.0011 247.077 69.9751 248.245 69.9751C248.896 69.9751 249.413 69.6705 249.676 69.1303C249.792 68.8857 249.935 68.7564 250.203 68.7564H250.637C250.955 68.7564 251.14 68.918 251.066 69.1857C250.757 70.3398 249.732 71.1431 248.236 71.1431ZM252.625 70.5384V62.0071C252.625 61.707 252.787 61.5455 253.087 61.5455H253.544C253.844 61.5455 254.006 61.707 254.006 62.0071V66.9098H254.126L256.72 64.1538C256.882 63.983 257.052 63.9091 257.288 63.9091H257.823C258.23 63.9091 258.345 64.1815 258.068 64.4769L255.732 66.9513L258.373 70.4368C258.608 70.7507 258.479 71 258.091 71H257.454C257.209 71 257.039 70.9123 256.891 70.7184L254.693 67.7962L254.006 68.484V70.5384C254.006 70.8384 253.844 71 253.544 71H253.087C252.787 71 252.625 70.8384 252.625 70.5384ZM263.302 73.1974V64.3707C263.302 64.0707 263.464 63.9091 263.764 63.9091H264.188C264.488 63.9091 264.65 64.0707 264.65 64.3707V65.0586H264.765C265.01 64.62 265.486 63.8168 266.801 63.8168C268.514 63.8168 269.779 65.1694 269.779 67.4684C269.779 69.7628 268.532 71.1385 266.815 71.1385C265.522 71.1385 265.015 70.3491 264.765 69.8967H264.682V73.1974C264.682 73.4975 264.521 73.6591 264.221 73.6591H263.764C263.464 73.6591 263.302 73.4975 263.302 73.1974ZM264.655 67.4545C264.655 68.9457 265.319 69.9613 266.506 69.9613C267.738 69.9613 268.385 68.8764 268.385 67.4545C268.385 66.0465 267.757 64.9893 266.506 64.9893C265.301 64.9893 264.655 65.9727 264.655 67.4545ZM274.381 71.1431C272.29 71.1431 271.007 69.7028 271.007 67.5007C271.007 65.3217 272.309 63.8168 274.285 63.8168C275.891 63.8168 277.424 64.8185 277.424 67.3807V67.4084C277.424 67.7085 277.262 67.87 276.962 67.87H272.383C272.419 69.2365 273.214 70.0028 274.395 70.0028C275.028 70.0028 275.54 69.7812 275.845 69.3473C276.002 69.1165 276.159 69.0103 276.427 69.0611L276.833 69.1349C277.147 69.195 277.304 69.375 277.198 69.6104C276.764 70.5476 275.748 71.1431 274.381 71.1431ZM272.387 66.8359H276.071C276.066 65.7511 275.365 64.957 274.294 64.957C273.172 64.957 272.443 65.8295 272.387 66.8359ZM278.955 70.5384V64.3707C278.955 64.0707 279.117 63.9091 279.417 63.9091H279.828C280.128 63.9091 280.289 64.0707 280.289 64.3707V65.0355H280.363C280.622 64.2738 281.333 63.8029 282.164 63.8029C282.205 63.8029 282.256 63.8029 282.307 63.8075C282.598 63.8121 282.75 63.9922 282.75 64.283V64.6616C282.75 64.9755 282.621 65.1186 282.395 65.0955C282.279 65.0817 282.15 65.0724 282.03 65.0724C281.051 65.0724 280.336 65.7418 280.336 66.6697V70.5384C280.336 70.8384 280.174 71 279.874 71H279.417C279.117 71 278.955 70.8384 278.955 70.5384ZM284.642 62.815C284.161 62.815 283.769 62.4457 283.769 61.9933C283.769 61.5408 284.161 61.1669 284.642 61.1669C285.117 61.1669 285.514 61.5408 285.514 61.9933C285.514 62.4457 285.117 62.815 284.642 62.815ZM283.945 70.5384V64.3707C283.945 64.0707 284.106 63.9091 284.406 63.9091H284.863C285.163 63.9091 285.325 64.0707 285.325 64.3707V70.5384C285.325 70.8384 285.163 71 284.863 71H284.406C284.106 71 283.945 70.8384 283.945 70.5384ZM290.169 71.1431C288.17 71.1431 286.863 69.6797 286.863 67.4869C286.863 65.2802 288.17 63.8168 290.169 63.8168C292.168 63.8168 293.474 65.2802 293.474 67.4869C293.474 69.6797 292.168 71.1431 290.169 71.1431ZM290.173 69.9844C291.471 69.9844 292.08 68.8441 292.08 67.4822C292.08 66.125 291.471 64.9709 290.173 64.9709C288.867 64.9709 288.257 66.125 288.257 67.4822C288.257 68.8441 288.867 69.9844 290.173 69.9844ZM297.669 71.1385C295.947 71.1385 294.706 69.7628 294.706 67.4684C294.706 65.1694 295.966 63.8168 297.679 63.8168C298.999 63.8168 299.47 64.62 299.719 65.0586H299.802V62.0071C299.802 61.707 299.964 61.5455 300.264 61.5455H300.721C301.021 61.5455 301.182 61.707 301.182 62.0071V70.5384C301.182 70.8384 301.021 71 300.721 71H300.296C299.996 71 299.834 70.8384 299.834 70.5384V69.8967H299.719C299.47 70.3491 298.962 71.1385 297.669 71.1385ZM297.974 69.9613C299.165 69.9613 299.825 68.9457 299.825 67.4545C299.825 65.9727 299.179 64.9893 297.974 64.9893C296.728 64.9893 296.1 66.0465 296.1 67.4545C296.1 68.8764 296.741 69.9613 297.974 69.9613ZM309.566 73.8068C308.153 73.8068 307.262 73.2944 306.787 72.6204C306.611 72.3665 306.718 72.131 307.004 72.011L307.355 71.8679C307.609 71.7617 307.793 71.831 307.973 72.0433C308.259 72.3757 308.726 72.6942 309.58 72.6942C310.628 72.6942 311.389 72.2141 311.389 71.1016V69.7074H311.302C311.052 70.1598 310.549 70.8938 309.247 70.8938C307.572 70.8938 306.284 69.6889 306.284 67.4268C306.284 65.1694 307.544 63.8168 309.257 63.8168C310.577 63.8168 311.066 64.62 311.311 65.0586H311.413V64.3707C311.413 64.0707 311.574 63.9091 311.874 63.9091H312.304C312.604 63.9091 312.765 64.0707 312.765 64.3707V71.157C312.765 72.9805 311.371 73.8068 309.566 73.8068ZM309.552 69.7489C310.743 69.7489 311.403 68.8718 311.403 67.4084C311.403 65.9727 310.757 64.9893 309.552 64.9893C308.306 64.9893 307.678 66.0465 307.678 67.4084C307.678 68.8026 308.32 69.7489 309.552 69.7489ZM315.313 62.815C314.833 62.815 314.441 62.4457 314.441 61.9933C314.441 61.5408 314.833 61.1669 315.313 61.1669C315.789 61.1669 316.186 61.5408 316.186 61.9933C316.186 62.4457 315.789 62.815 315.313 62.815ZM314.616 70.5384V64.3707C314.616 64.0707 314.778 63.9091 315.078 63.9091H315.535C315.835 63.9091 315.997 64.0707 315.997 64.3707V70.5384C315.997 70.8384 315.835 71 315.535 71H315.078C314.778 71 314.616 70.8384 314.616 70.5384ZM323.726 64.44L321.482 70.6307C321.39 70.88 321.224 71 320.956 71H320.263C319.996 71 319.83 70.88 319.737 70.6307L317.489 64.44C317.374 64.1214 317.517 63.9091 317.858 63.9091H318.38C318.648 63.9091 318.819 64.0337 318.902 64.2876L320.573 69.3658H320.647L322.313 64.2876C322.396 64.0337 322.567 63.9091 322.835 63.9091H323.357C323.698 63.9091 323.841 64.1214 323.726 64.44ZM328.019 71.1431C325.928 71.1431 324.645 69.7028 324.645 67.5007C324.645 65.3217 325.946 63.8168 327.922 63.8168C329.529 63.8168 331.061 64.8185 331.061 67.3807V67.4084C331.061 67.7085 330.9 67.87 330.6 67.87H326.02C326.057 69.2365 326.851 70.0028 328.033 70.0028C328.665 70.0028 329.178 69.7812 329.483 69.3473C329.64 69.1165 329.797 69.0103 330.064 69.0611L330.471 69.1349C330.784 69.195 330.941 69.375 330.835 69.6104C330.401 70.5476 329.386 71.1431 328.019 71.1431ZM326.025 66.8359H329.709C329.704 65.7511 329.002 64.957 327.931 64.957C326.81 64.957 326.08 65.8295 326.025 66.8359ZM337.408 65.728L337.052 65.7926C336.785 65.8388 336.632 65.7326 336.48 65.5018C336.258 65.174 335.875 64.9109 335.238 64.9109C334.453 64.9109 333.862 65.2987 333.867 65.8434C333.862 66.3235 334.199 66.5866 334.98 66.7713L336.106 67.0298C337.408 67.3299 338.045 67.9485 338.045 68.9503C338.045 70.2337 336.859 71.1431 335.146 71.1431C333.766 71.1431 332.796 70.6122 332.413 69.652C332.297 69.3612 332.459 69.1534 332.768 69.1072L333.202 69.0426C333.475 69.0011 333.622 69.1165 333.761 69.3658C334.01 69.8043 334.481 70.0305 335.137 70.0305C336.041 70.0305 336.628 69.6012 336.628 69.0518C336.628 68.6087 336.309 68.304 335.626 68.1516L334.426 67.8885C333.096 67.593 332.487 66.9237 332.487 65.9173C332.487 64.6616 333.622 63.8168 335.224 63.8168C336.526 63.8168 337.343 64.3338 337.736 65.1694C337.874 65.4602 337.722 65.6726 337.408 65.728ZM343.876 73.6591C343.696 73.6591 343.529 73.6452 343.382 73.6222C343.086 73.576 342.98 73.3498 343.063 73.0589L343.142 72.7958C343.225 72.5142 343.409 72.4311 343.7 72.4634C344.222 72.5142 344.591 72.3111 344.868 71.5632L345.039 71.0923L342.634 64.44C342.518 64.1214 342.666 63.9091 343.008 63.9091H343.525C343.793 63.9091 343.963 64.0337 344.046 64.2876L345.718 69.4119H345.791L347.463 64.2876C347.546 64.0337 347.717 63.9091 347.984 63.9091H348.506C348.848 63.9091 348.991 64.1214 348.875 64.44L346.147 71.9464C345.736 73.0636 345.016 73.6591 343.876 73.6591ZM353.099 71.1431C351.1 71.1431 349.794 69.6797 349.794 67.4869C349.794 65.2802 351.1 63.8168 353.099 63.8168C355.098 63.8168 356.405 65.2802 356.405 67.4869C356.405 69.6797 355.098 71.1431 353.099 71.1431ZM353.104 69.9844C354.401 69.9844 355.011 68.8441 355.011 67.4822C355.011 66.125 354.401 64.9709 353.104 64.9709C351.797 64.9709 351.188 66.125 351.188 67.4822C351.188 68.8441 351.797 69.9844 353.104 69.9844ZM362.437 68.0593V64.3707C362.437 64.0707 362.599 63.9091 362.899 63.9091H363.361C363.661 63.9091 363.822 64.0707 363.822 64.3707V70.5384C363.822 70.8384 363.661 71 363.361 71H362.927C362.627 71 362.465 70.8384 362.465 70.5384V69.772H362.391C362.063 70.5291 361.339 71.0923 360.272 71.0923C358.91 71.0923 357.945 70.1783 357.945 68.4194V64.3707C357.945 64.0707 358.107 63.9091 358.407 63.9091H358.864C359.164 63.9091 359.326 64.0707 359.326 64.3707V68.2532C359.326 69.218 359.917 69.8366 360.771 69.8366C361.546 69.8366 362.442 69.2642 362.437 68.0593ZM371.181 71.157C369.833 71.157 368.785 70.3906 368.785 68.9964C368.785 67.3853 370.161 67.0344 371.504 66.8775C372.778 66.7298 373.295 66.739 373.295 66.2358V66.2035C373.295 65.4002 372.838 64.9339 371.947 64.9339C371.236 64.9339 370.77 65.2156 370.498 65.5756C370.331 65.7972 370.17 65.8942 369.907 65.8342L369.505 65.7418C369.191 65.668 369.057 65.4418 369.219 65.1555C369.778 64.2045 370.816 63.8168 371.929 63.8168C373.055 63.8168 374.68 64.2276 374.68 66.2912V70.5384C374.68 70.8384 374.519 71 374.219 71H373.794C373.494 71 373.332 70.8384 373.332 70.5384V70.0305H373.277C373.014 70.5614 372.354 71.157 371.181 71.157ZM371.481 70.049C372.631 70.049 373.3 69.2827 373.3 68.4425V67.5284C373.101 67.7269 372.04 67.8469 371.592 67.907C370.793 68.0131 370.138 68.2763 370.138 69.0149C370.138 69.6982 370.701 70.049 371.481 70.049ZM119.308 82.7898V86.5384C119.308 86.8384 119.147 87 118.847 87H118.39C118.089 87 117.928 86.8384 117.928 86.5384V78.0071C117.928 77.707 118.089 77.5455 118.39 77.5455H118.828C119.128 77.5455 119.29 77.707 119.29 78.0071V81.0632H119.377C119.71 80.2969 120.375 79.8168 121.478 79.8168C122.937 79.8168 123.906 80.7216 123.906 82.4897V86.5384C123.906 86.8384 123.745 87 123.445 87H122.988C122.688 87 122.526 86.8384 122.526 86.5384V82.6559C122.526 81.6172 121.958 81.0124 121.007 81.0124C120.024 81.0124 119.308 81.6587 119.308 82.7898ZM126.445 78.815C125.965 78.815 125.573 78.4457 125.573 77.9933C125.573 77.5408 125.965 77.1669 126.445 77.1669C126.921 77.1669 127.318 77.5408 127.318 77.9933C127.318 78.4457 126.921 78.815 126.445 78.815ZM125.748 86.5384V80.3707C125.748 80.0707 125.91 79.9091 126.21 79.9091H126.667C126.967 79.9091 127.129 80.0707 127.129 80.3707V86.5384C127.129 86.8384 126.967 87 126.667 87H126.21C125.91 87 125.748 86.8384 125.748 86.5384ZM131.959 89.8068C130.546 89.8068 129.655 89.2944 129.179 88.6204C129.004 88.3665 129.11 88.131 129.396 88.011L129.747 87.8679C130.001 87.7617 130.186 87.831 130.366 88.0433C130.652 88.3757 131.118 88.6942 131.972 88.6942C133.02 88.6942 133.782 88.2141 133.782 87.1016V85.7074H133.694C133.445 86.1598 132.942 86.8938 131.64 86.8938C129.964 86.8938 128.676 85.6889 128.676 83.4268C128.676 81.1694 129.937 79.8168 131.649 79.8168C132.97 79.8168 133.459 80.62 133.704 81.0586H133.805V80.3707C133.805 80.0707 133.967 79.9091 134.267 79.9091H134.696C134.996 79.9091 135.158 80.0707 135.158 80.3707V87.157C135.158 88.9805 133.764 89.8068 131.959 89.8068ZM131.945 85.7489C133.136 85.7489 133.796 84.8718 133.796 83.4084C133.796 81.9727 133.15 80.9893 131.945 80.9893C130.698 80.9893 130.07 82.0465 130.07 83.4084C130.07 84.8026 130.712 85.7489 131.945 85.7489ZM138.389 82.7898V86.5384C138.389 86.8384 138.228 87 137.928 87H137.471C137.171 87 137.009 86.8384 137.009 86.5384V78.0071C137.009 77.707 137.171 77.5455 137.471 77.5455H137.909C138.209 77.5455 138.371 77.707 138.371 78.0071V81.0632H138.459C138.791 80.2969 139.456 79.8168 140.559 79.8168C142.018 79.8168 142.987 80.7216 142.987 82.4897V86.5384C142.987 86.8384 142.826 87 142.526 87H142.069C141.769 87 141.607 86.8384 141.607 86.5384V82.6559C141.607 81.6172 141.039 81.0124 140.088 81.0124C139.105 81.0124 138.389 81.6587 138.389 82.7898ZM147.885 87.1431C145.794 87.1431 144.511 85.7028 144.511 83.5007C144.511 81.3217 145.813 79.8168 147.788 79.8168C149.395 79.8168 150.928 80.8185 150.928 83.3807V83.4084C150.928 83.7085 150.766 83.87 150.466 83.87H145.886C145.923 85.2365 146.717 86.0028 147.899 86.0028C148.532 86.0028 149.044 85.7812 149.349 85.3473C149.506 85.1165 149.663 85.0103 149.93 85.0611L150.337 85.1349C150.651 85.195 150.808 85.375 150.701 85.6104C150.267 86.5476 149.252 87.1431 147.885 87.1431ZM145.891 82.8359H149.575C149.57 81.7511 148.869 80.957 147.798 80.957C146.676 80.957 145.946 81.8295 145.891 82.8359ZM152.459 86.5384V80.3707C152.459 80.0707 152.621 79.9091 152.921 79.9091H153.332C153.632 79.9091 153.793 80.0707 153.793 80.3707V81.0355H153.867C154.126 80.2738 154.837 79.8029 155.668 79.8029C155.709 79.8029 155.76 79.8029 155.811 79.8075C156.102 79.8121 156.254 79.9922 156.254 80.283V80.6616C156.254 80.9755 156.125 81.1186 155.898 81.0955C155.783 81.0817 155.654 81.0724 155.534 81.0724C154.555 81.0724 153.839 81.7418 153.839 82.6697V86.5384C153.839 86.8384 153.678 87 153.378 87H152.921C152.621 87 152.459 86.8384 152.459 86.5384ZM161.401 87H160.847C160.506 87 160.358 86.7876 160.473 86.4691L163.553 77.9148C163.645 77.6655 163.811 77.5455 164.079 77.5455H164.942C165.21 77.5455 165.376 77.6655 165.468 77.9148L168.548 86.4691C168.663 86.7876 168.515 87 168.174 87H167.62C167.352 87 167.181 86.8846 167.093 86.6261L166.359 84.4979H162.666L161.928 86.6261C161.84 86.88 161.669 87 161.401 87ZM163.082 83.2976H165.944L164.55 79.2628H164.476L163.082 83.2976ZM170.102 86.5384V78.0071C170.102 77.707 170.264 77.5455 170.564 77.5455H173.472C175.67 77.5455 176.745 78.8658 176.745 80.6062C176.745 82.3512 175.66 83.6761 173.468 83.6761H171.529V86.5384C171.529 86.8384 171.367 87 171.067 87H170.564C170.264 87 170.102 86.8384 170.102 86.5384ZM171.529 82.4666H173.338C174.733 82.4666 175.31 81.6772 175.31 80.6062C175.31 79.5352 174.733 78.7688 173.32 78.7688H171.529V82.4666ZM178.335 77.5455H178.939C179.193 77.5455 179.369 77.6424 179.493 77.864L181.778 81.8434H181.88L184.165 77.864C184.29 77.6424 184.465 77.5455 184.719 77.5455H185.324C185.693 77.5455 185.827 77.7809 185.638 78.0994L182.54 83.2884V86.5384C182.54 86.8384 182.379 87 182.078 87H181.58C181.28 87 181.118 86.8384 181.118 86.5384V83.2884L178.021 78.0994C177.831 77.7809 177.965 77.5455 178.335 77.5455ZM187.519 87.0877C187.011 87.0877 186.596 86.6768 186.596 86.1644C186.596 85.6612 187.011 85.2457 187.519 85.2457C188.022 85.2457 188.442 85.6612 188.442 86.1644C188.442 86.6768 188.022 87.0877 187.519 87.0877ZM193.607 77.5455H194.212C194.466 77.5455 194.641 77.6424 194.766 77.864L197.051 81.8434H197.152L199.438 77.864C199.562 77.6424 199.738 77.5455 199.992 77.5455H200.596C200.966 77.5455 201.1 77.7809 200.91 78.0994L197.813 83.2884V86.5384C197.813 86.8384 197.651 87 197.351 87H196.852C196.552 87 196.391 86.8384 196.391 86.5384V83.2884L193.293 78.0994C193.104 77.7809 193.238 77.5455 193.607 77.5455ZM204.31 87.1431C202.311 87.1431 201.005 85.6797 201.005 83.4869C201.005 81.2802 202.311 79.8168 204.31 79.8168C206.309 79.8168 207.616 81.2802 207.616 83.4869C207.616 85.6797 206.309 87.1431 204.31 87.1431ZM204.315 85.9844C205.612 85.9844 206.222 84.8441 206.222 83.4822C206.222 82.125 205.612 80.9709 204.315 80.9709C203.008 80.9709 202.399 82.125 202.399 83.4822C202.399 84.8441 203.008 85.9844 204.315 85.9844ZM213.648 84.0593V80.3707C213.648 80.0707 213.81 79.9091 214.11 79.9091H214.572C214.872 79.9091 215.033 80.0707 215.033 80.3707V86.5384C215.033 86.8384 214.872 87 214.572 87H214.138C213.838 87 213.676 86.8384 213.676 86.5384V85.772H213.602C213.274 86.5291 212.55 87.0923 211.483 87.0923C210.121 87.0923 209.156 86.1783 209.156 84.4194V80.3707C209.156 80.0707 209.318 79.9091 209.618 79.9091H210.075C210.375 79.9091 210.537 80.0707 210.537 80.3707V84.2532C210.537 85.218 211.128 85.8366 211.982 85.8366C212.757 85.8366 213.653 85.2642 213.648 84.0593ZM216.888 86.5384V80.3707C216.888 80.0707 217.049 79.9091 217.35 79.9091H217.76C218.06 79.9091 218.222 80.0707 218.222 80.3707V81.0355H218.296C218.554 80.2738 219.265 79.8029 220.096 79.8029C220.138 79.8029 220.189 79.8029 220.239 79.8075C220.53 79.8121 220.683 79.9922 220.683 80.283V80.6616C220.683 80.9755 220.553 81.1186 220.327 81.0955C220.212 81.0817 220.082 81.0724 219.962 81.0724C218.984 81.0724 218.268 81.7418 218.268 82.6697V86.5384C218.268 86.8384 218.107 87 217.807 87H217.35C217.049 87 216.888 86.8384 216.888 86.5384ZM228.628 80.3707V80.5554C228.628 80.8555 228.466 81.017 228.166 81.017H227.173V84.918C227.173 85.7166 227.575 85.8643 228.023 85.8643H228.069C228.36 85.8551 228.54 85.9521 228.6 86.2383L228.66 86.5014C228.725 86.7876 228.614 87.0092 228.318 87.0554C228.189 87.0739 228.037 87.0923 227.861 87.0923C226.772 87.1154 225.788 86.4922 225.793 85.2042V81.017H225.216C224.916 81.017 224.754 80.8555 224.754 80.5554V80.3707C224.754 80.0707 224.916 79.9091 225.216 79.9091H225.793V78.6719C225.793 78.3718 225.955 78.2102 226.255 78.2102H226.712C227.012 78.2102 227.173 78.3718 227.173 78.6719V79.9091H228.166C228.466 79.9091 228.628 80.0707 228.628 80.3707ZM233.065 87.1431C231.066 87.1431 229.76 85.6797 229.76 83.4869C229.76 81.2802 231.066 79.8168 233.065 79.8168C235.064 79.8168 236.371 81.2802 236.371 83.4869C236.371 85.6797 235.064 87.1431 233.065 87.1431ZM233.07 85.9844C234.367 85.9844 234.976 84.8441 234.976 83.4822C234.976 82.125 234.367 80.9709 233.07 80.9709C231.763 80.9709 231.154 82.125 231.154 83.4822C231.154 84.8441 231.763 85.9844 233.07 85.9844ZM237.911 86.5384V78.0071C237.911 77.707 238.073 77.5455 238.373 77.5455H238.83C239.13 77.5455 239.292 77.707 239.292 78.0071V82.9098H239.412L242.006 80.1538C242.168 79.983 242.339 79.9091 242.574 79.9091H243.109C243.516 79.9091 243.631 80.1815 243.354 80.4769L241.018 82.9513L243.659 86.4368C243.894 86.7507 243.765 87 243.377 87H242.74C242.495 87 242.325 86.9123 242.177 86.7184L239.979 83.7962L239.292 84.484V86.5384C239.292 86.8384 239.13 87 238.83 87H238.373C238.073 87 237.911 86.8384 237.911 86.5384ZM247.912 87.1431C245.82 87.1431 244.537 85.7028 244.537 83.5007C244.537 81.3217 245.839 79.8168 247.815 79.8168C249.421 79.8168 250.954 80.8185 250.954 83.3807V83.4084C250.954 83.7085 250.792 83.87 250.492 83.87H245.913C245.95 85.2365 246.744 86.0028 247.926 86.0028C248.558 86.0028 249.07 85.7812 249.375 85.3473C249.532 85.1165 249.689 85.0103 249.957 85.0611L250.363 85.1349C250.677 85.195 250.834 85.375 250.728 85.6104C250.294 86.5476 249.278 87.1431 247.912 87.1431ZM245.917 82.8359H249.601C249.597 81.7511 248.895 80.957 247.824 80.957C246.702 80.957 245.973 81.8295 245.917 82.8359ZM253.866 82.7898V86.5384C253.866 86.8384 253.704 87 253.404 87H252.947C252.647 87 252.486 86.8384 252.486 86.5384V80.3707C252.486 80.0707 252.647 79.9091 252.947 79.9091H253.349C253.649 79.9091 253.81 80.0707 253.81 80.3707V81.0632H253.898C254.226 80.3107 254.923 79.8168 255.989 79.8168C257.439 79.8168 258.404 80.7354 258.404 82.4897V86.5384C258.404 86.8384 258.242 87 257.942 87H257.485C257.185 87 257.024 86.8384 257.024 86.5384V82.6559C257.024 81.6264 256.456 81.0124 255.519 81.0124C254.558 81.0124 253.866 81.6587 253.866 82.7898ZM265.07 81.728L264.715 81.7926C264.447 81.8388 264.294 81.7326 264.142 81.5018C263.921 81.174 263.537 80.9109 262.9 80.9109C262.116 80.9109 261.525 81.2987 261.529 81.8434C261.525 82.3235 261.862 82.5866 262.642 82.7713L263.768 83.0298C265.07 83.3299 265.707 83.9485 265.707 84.9503C265.707 86.2337 264.521 87.1431 262.808 87.1431C261.428 87.1431 260.458 86.6122 260.075 85.652C259.96 85.3612 260.121 85.1534 260.43 85.1072L260.864 85.0426C261.137 85.0011 261.285 85.1165 261.423 85.3658C261.672 85.8043 262.143 86.0305 262.799 86.0305C263.704 86.0305 264.29 85.6012 264.29 85.0518C264.29 84.6087 263.971 84.304 263.288 84.1516L262.088 83.8885C260.758 83.593 260.149 82.9237 260.149 81.9173C260.149 80.6616 261.285 79.8168 262.886 79.8168C264.188 79.8168 265.005 80.3338 265.398 81.1694C265.536 81.4602 265.384 81.6726 265.07 81.728ZM275.48 81.728L275.125 81.7926C274.857 81.8388 274.705 81.7326 274.552 81.5018C274.331 81.174 273.948 80.9109 273.31 80.9109C272.526 80.9109 271.935 81.2987 271.939 81.8434C271.935 82.3235 272.272 82.5866 273.052 82.7713L274.178 83.0298C275.48 83.3299 276.117 83.9485 276.117 84.9503C276.117 86.2337 274.931 87.1431 273.218 87.1431C271.838 87.1431 270.868 86.6122 270.485 85.652C270.37 85.3612 270.531 85.1534 270.841 85.1072L271.275 85.0426C271.547 85.0011 271.695 85.1165 271.833 85.3658C272.082 85.8043 272.553 86.0305 273.209 86.0305C274.114 86.0305 274.7 85.6012 274.7 85.0518C274.7 84.6087 274.381 84.304 273.698 84.1516L272.498 83.8885C271.168 83.593 270.559 82.9237 270.559 81.9173C270.559 80.6616 271.695 79.8168 273.297 79.8168C274.598 79.8168 275.416 80.3338 275.808 81.1694C275.946 81.4602 275.794 81.6726 275.48 81.728ZM280.945 80.3707V80.5554C280.945 80.8555 280.783 81.017 280.483 81.017H279.491V84.918C279.491 85.7166 279.892 85.8643 280.34 85.8643H280.386C280.677 85.8551 280.857 85.9521 280.917 86.2383L280.977 86.5014C281.042 86.7876 280.931 87.0092 280.636 87.0554C280.506 87.0739 280.354 87.0923 280.179 87.0923C279.089 87.1154 278.106 86.4922 278.11 85.2042V81.017H277.533C277.233 81.017 277.072 80.8555 277.072 80.5554V80.3707C277.072 80.0707 277.233 79.9091 277.533 79.9091H278.11V78.6719C278.11 78.3718 278.272 78.2102 278.572 78.2102H279.029C279.329 78.2102 279.491 78.3718 279.491 78.6719V79.9091H280.483C280.783 79.9091 280.945 80.0707 280.945 80.3707ZM284.535 87.157C283.187 87.157 282.139 86.3906 282.139 84.9964C282.139 83.3853 283.515 83.0344 284.859 82.8775C286.133 82.7298 286.65 82.739 286.65 82.2358V82.2035C286.65 81.4002 286.193 80.9339 285.302 80.9339C284.591 80.9339 284.125 81.2156 283.852 81.5756C283.686 81.7972 283.524 81.8942 283.261 81.8342L282.86 81.7418C282.546 81.668 282.412 81.4418 282.573 81.1555C283.132 80.2045 284.171 79.8168 285.283 79.8168C286.41 79.8168 288.035 80.2276 288.035 82.2912V86.5384C288.035 86.8384 287.873 87 287.573 87H287.148C286.848 87 286.687 86.8384 286.687 86.5384V86.0305H286.631C286.368 86.5614 285.708 87.157 284.535 87.157ZM284.835 86.049C285.985 86.049 286.654 85.2827 286.654 84.4425V83.5284C286.456 83.7269 285.394 83.8469 284.946 83.907C284.148 84.0131 283.492 84.2763 283.492 85.0149C283.492 85.6982 284.055 86.049 284.835 86.049ZM290.492 89.6591C290.312 89.6591 290.146 89.6452 289.998 89.6222C289.702 89.576 289.596 89.3498 289.679 89.0589L289.758 88.7958C289.841 88.5142 290.026 88.4311 290.316 88.4634C290.838 88.5142 291.207 88.3111 291.484 87.5632L291.655 87.0923L289.25 80.44C289.135 80.1214 289.282 79.9091 289.624 79.9091H290.141C290.409 79.9091 290.58 80.0337 290.663 80.2876L292.334 85.4119H292.408L294.079 80.2876C294.162 80.0337 294.333 79.9091 294.6 79.9091H295.122C295.464 79.9091 295.607 80.1214 295.491 80.44L292.763 87.9464C292.352 89.0636 291.632 89.6591 290.492 89.6591ZM301.12 78.815C300.64 78.815 300.248 78.4457 300.248 77.9933C300.248 77.5408 300.64 77.1669 301.12 77.1669C301.596 77.1669 301.993 77.5408 301.993 77.9933C301.993 78.4457 301.596 78.815 301.12 78.815ZM300.423 86.5384V80.3707C300.423 80.0707 300.585 79.9091 300.885 79.9091H301.342C301.642 79.9091 301.803 80.0707 301.803 80.3707V86.5384C301.803 86.8384 301.642 87 301.342 87H300.885C300.585 87 300.423 86.8384 300.423 86.5384ZM305.041 82.7898V86.5384C305.041 86.8384 304.879 87 304.579 87H304.122C303.822 87 303.66 86.8384 303.66 86.5384V80.3707C303.66 80.0707 303.822 79.9091 304.122 79.9091H304.524C304.824 79.9091 304.985 80.0707 304.985 80.3707V81.0632H305.073C305.401 80.3107 306.098 79.8168 307.164 79.8168C308.614 79.8168 309.579 80.7354 309.579 82.4897V86.5384C309.579 86.8384 309.417 87 309.117 87H308.66C308.36 87 308.198 86.8384 308.198 86.5384V82.6559C308.198 81.6264 307.631 81.0124 306.693 81.0124C305.733 81.0124 305.041 81.6587 305.041 82.7898ZM318.18 80.3707V80.5554C318.18 80.8555 318.019 81.017 317.719 81.017H316.726V84.918C316.726 85.7166 317.128 85.8643 317.576 85.8643H317.622C317.913 85.8551 318.093 85.9521 318.153 86.2383L318.213 86.5014C318.277 86.7876 318.166 87.0092 317.871 87.0554C317.742 87.0739 317.589 87.0923 317.414 87.0923C316.324 87.1154 315.341 86.4922 315.346 85.2042V81.017H314.769C314.469 81.017 314.307 80.8555 314.307 80.5554V80.3707C314.307 80.0707 314.469 79.9091 314.769 79.9091H315.346V78.6719C315.346 78.3718 315.507 78.2102 315.807 78.2102H316.264C316.565 78.2102 316.726 78.3718 316.726 78.6719V79.9091H317.719C318.019 79.9091 318.18 80.0707 318.18 80.3707ZM321.24 82.7898V86.5384C321.24 86.8384 321.078 87 320.778 87H320.321C320.021 87 319.86 86.8384 319.86 86.5384V78.0071C319.86 77.707 320.021 77.5455 320.321 77.5455H320.76C321.06 77.5455 321.221 77.707 321.221 78.0071V81.0632H321.309C321.642 80.2969 322.306 79.8168 323.41 79.8168C324.868 79.8168 325.838 80.7216 325.838 82.4897V86.5384C325.838 86.8384 325.676 87 325.376 87H324.919C324.619 87 324.458 86.8384 324.458 86.5384V82.6559C324.458 81.6172 323.89 81.0124 322.939 81.0124C321.955 81.0124 321.24 81.6587 321.24 82.7898ZM330.736 87.1431C328.645 87.1431 327.361 85.7028 327.361 83.5007C327.361 81.3217 328.663 79.8168 330.639 79.8168C332.246 79.8168 333.778 80.8185 333.778 83.3807V83.4084C333.778 83.7085 333.617 83.87 333.317 83.87H328.737C328.774 85.2365 329.568 86.0028 330.75 86.0028C331.382 86.0028 331.895 85.7812 332.199 85.3473C332.356 85.1165 332.513 85.0103 332.781 85.0611L333.187 85.1349C333.501 85.195 333.658 85.375 333.552 85.6104C333.118 86.5476 332.102 87.1431 330.736 87.1431ZM328.742 82.8359H332.426C332.421 81.7511 331.719 80.957 330.648 80.957C329.526 80.957 328.797 81.8295 328.742 82.8359ZM343.565 81.728L343.21 81.7926C342.942 81.8388 342.79 81.7326 342.637 81.5018C342.416 81.174 342.032 80.9109 341.395 80.9109C340.611 80.9109 340.02 81.2987 340.024 81.8434C340.02 82.3235 340.357 82.5866 341.137 82.7713L342.263 83.0298C343.565 83.3299 344.202 83.9485 344.202 84.9503C344.202 86.2337 343.016 87.1431 341.303 87.1431C339.923 87.1431 338.953 86.6122 338.57 85.652C338.455 85.3612 338.616 85.1534 338.926 85.1072L339.36 85.0426C339.632 85.0011 339.78 85.1165 339.918 85.3658C340.167 85.8043 340.638 86.0305 341.294 86.0305C342.199 86.0305 342.785 85.6012 342.785 85.0518C342.785 84.6087 342.466 84.304 341.783 84.1516L340.583 83.8885C339.253 83.593 338.644 82.9237 338.644 81.9173C338.644 80.6616 339.78 79.8168 341.382 79.8168C342.683 79.8168 343.501 80.3338 343.893 81.1694C344.031 81.4602 343.879 81.6726 343.565 81.728ZM345.72 86.5384V80.3707C345.72 80.0707 345.881 79.9091 346.182 79.9091H346.583C346.883 79.9091 347.045 80.0707 347.045 80.3707V81.0632H347.133C347.428 80.283 348.125 79.8168 349.062 79.8168C350.009 79.8168 350.66 80.2876 350.969 81.0632H351.043C351.384 80.3061 352.151 79.8168 353.171 79.8168C354.454 79.8168 355.359 80.6246 355.359 82.245V86.5384C355.359 86.8384 355.198 87 354.897 87H354.44C354.14 87 353.979 86.8384 353.979 86.5384V82.3743C353.979 81.4141 353.379 81.0078 352.649 81.0078C351.749 81.0078 351.227 81.6264 351.227 82.4805V86.5384C351.227 86.8384 351.066 87 350.766 87H350.313C350.013 87 349.852 86.8384 349.852 86.5384V82.2866C349.852 81.5156 349.321 81.0078 348.554 81.0078C347.77 81.0078 347.1 81.6726 347.1 82.6282V86.5384C347.1 86.8384 346.939 87 346.639 87H346.182C345.881 87 345.72 86.8384 345.72 86.5384ZM359.273 87.157C357.925 87.157 356.877 86.3906 356.877 84.9964C356.877 83.3853 358.252 83.0344 359.596 82.8775C360.87 82.7298 361.387 82.739 361.387 82.2358V82.2035C361.387 81.4002 360.93 80.9339 360.039 80.9339C359.328 80.9339 358.862 81.2156 358.589 81.5756C358.423 81.7972 358.262 81.8942 357.999 81.8342L357.597 81.7418C357.283 81.668 357.149 81.4418 357.311 81.1555C357.869 80.2045 358.908 79.8168 360.021 79.8168C361.147 79.8168 362.772 80.2276 362.772 82.2912V86.5384C362.772 86.8384 362.61 87 362.31 87H361.886C361.586 87 361.424 86.8384 361.424 86.5384V86.0305H361.369C361.105 86.5614 360.445 87.157 359.273 87.157ZM359.573 86.049C360.722 86.049 361.392 85.2827 361.392 84.4425V83.5284C361.193 83.7269 360.131 83.8469 359.684 83.907C358.885 84.0131 358.229 84.2763 358.229 85.0149C358.229 85.6982 358.793 86.049 359.573 86.049ZM364.611 86.5384V80.3707C364.611 80.0707 364.772 79.9091 365.072 79.9091H365.483C365.783 79.9091 365.945 80.0707 365.945 80.3707V81.0355H366.019C366.277 80.2738 366.988 79.8029 367.819 79.8029C367.861 79.8029 367.911 79.8029 367.962 79.8075C368.253 79.8121 368.405 79.9922 368.405 80.283V80.6616C368.405 80.9755 368.276 81.1186 368.05 81.0955C367.934 81.0817 367.805 81.0724 367.685 81.0724C366.706 81.0724 365.991 81.7418 365.991 82.6697V86.5384C365.991 86.8384 365.829 87 365.529 87H365.072C364.772 87 364.611 86.8384 364.611 86.5384ZM373.329 80.3707V80.5554C373.329 80.8555 373.167 81.017 372.867 81.017H371.875V84.918C371.875 85.7166 372.276 85.8643 372.724 85.8643H372.77C373.061 85.8551 373.241 85.9521 373.301 86.2383L373.361 86.5014C373.426 86.7876 373.315 87.0092 373.019 87.0554C372.89 87.0739 372.738 87.0923 372.562 87.0923C371.473 87.1154 370.49 86.4922 370.494 85.2042V81.017H369.917C369.617 81.017 369.456 80.8555 369.456 80.5554V80.3707C369.456 80.0707 369.617 79.9091 369.917 79.9091H370.494V78.6719C370.494 78.3718 370.656 78.2102 370.956 78.2102H371.413C371.713 78.2102 371.875 78.3718 371.875 78.6719V79.9091H372.867C373.167 79.9091 373.329 80.0707 373.329 80.3707ZM120.915 103.143C118.856 103.143 117.609 101.624 117.609 99.4869C117.609 97.3217 118.902 95.8168 120.901 95.8168C122.314 95.8168 123.389 96.5508 123.731 97.6957C123.819 98.005 123.634 98.1989 123.315 98.1989H122.881C122.614 98.1989 122.471 98.0742 122.355 97.8249C122.115 97.3402 121.63 96.9801 120.924 96.9801C119.77 96.9801 119.004 97.9357 119.004 99.4545C119.004 101.001 119.756 101.975 120.924 101.975C121.575 101.975 122.092 101.67 122.355 101.13C122.471 100.886 122.614 100.756 122.881 100.756H123.315C123.634 100.756 123.819 100.918 123.745 101.186C123.435 102.34 122.411 103.143 120.915 103.143ZM128.291 103.143C126.292 103.143 124.985 101.68 124.985 99.4869C124.985 97.2802 126.292 95.8168 128.291 95.8168C130.29 95.8168 131.596 97.2802 131.596 99.4869C131.596 101.68 130.29 103.143 128.291 103.143ZM128.295 101.984C129.593 101.984 130.202 100.844 130.202 99.4822C130.202 98.125 129.593 96.9709 128.295 96.9709C126.989 96.9709 126.38 98.125 126.38 99.4822C126.38 100.844 126.989 101.984 128.295 101.984ZM134.517 98.7898V102.538C134.517 102.838 134.356 103 134.056 103H133.599C133.298 103 133.137 102.838 133.137 102.538V96.3707C133.137 96.0707 133.298 95.9091 133.599 95.9091H134C134.3 95.9091 134.462 96.0707 134.462 96.3707V97.0632H134.55C134.877 96.3107 135.574 95.8168 136.641 95.8168C138.09 95.8168 139.055 96.7354 139.055 98.4897V102.538C139.055 102.838 138.894 103 138.594 103H138.137C137.836 103 137.675 102.838 137.675 102.538V98.6559C137.675 97.6264 137.107 97.0124 136.17 97.0124C135.21 97.0124 134.517 97.6587 134.517 98.7898ZM144.216 96.3707V96.5554C144.216 96.8555 144.055 97.017 143.755 97.017H142.762V100.918C142.762 101.717 143.164 101.864 143.612 101.864H143.658C143.949 101.855 144.129 101.952 144.189 102.238L144.249 102.501C144.313 102.788 144.203 103.009 143.907 103.055C143.778 103.074 143.626 103.092 143.45 103.092C142.361 103.115 141.377 102.492 141.382 101.204V97.017H140.805C140.505 97.017 140.343 96.8555 140.343 96.5554V96.3707C140.343 96.0707 140.505 95.9091 140.805 95.9091H141.382V94.6719C141.382 94.3718 141.544 94.2102 141.844 94.2102H142.301C142.601 94.2102 142.762 94.3718 142.762 94.6719V95.9091H143.755C144.055 95.9091 144.216 96.0707 144.216 96.3707ZM145.743 102.538V96.3707C145.743 96.0707 145.905 95.9091 146.205 95.9091H146.616C146.916 95.9091 147.078 96.0707 147.078 96.3707V97.0355H147.151C147.41 96.2738 148.121 95.8029 148.952 95.8029C148.993 95.8029 149.044 95.8029 149.095 95.8075C149.386 95.8121 149.538 95.9922 149.538 96.283V96.6616C149.538 96.9755 149.409 97.1186 149.183 97.0955C149.067 97.0817 148.938 97.0724 148.818 97.0724C147.839 97.0724 147.124 97.7418 147.124 98.6697V102.538C147.124 102.838 146.962 103 146.662 103H146.205C145.905 103 145.743 102.838 145.743 102.538ZM152.733 103.157C151.385 103.157 150.337 102.391 150.337 100.996C150.337 99.3853 151.712 99.0344 153.056 98.8775C154.33 98.7298 154.847 98.739 154.847 98.2358V98.2035C154.847 97.4002 154.39 96.9339 153.499 96.9339C152.788 96.9339 152.322 97.2156 152.049 97.5756C151.883 97.7972 151.722 97.8942 151.459 97.8342L151.057 97.7418C150.743 97.668 150.609 97.4418 150.771 97.1555C151.329 96.2045 152.368 95.8168 153.481 95.8168C154.607 95.8168 156.232 96.2276 156.232 98.2912V102.538C156.232 102.838 156.07 103 155.77 103H155.346C155.046 103 154.884 102.838 154.884 102.538V102.031H154.829C154.565 102.561 153.905 103.157 152.733 103.157ZM153.033 102.049C154.182 102.049 154.852 101.283 154.852 100.442V99.5284C154.653 99.7269 153.591 99.8469 153.144 99.907C152.345 100.013 151.689 100.276 151.689 101.015C151.689 101.698 152.253 102.049 153.033 102.049ZM161.057 103.143C158.998 103.143 157.752 101.624 157.752 99.4869C157.752 97.3217 159.045 95.8168 161.044 95.8168C162.456 95.8168 163.532 96.5508 163.873 97.6957C163.961 98.005 163.776 98.1989 163.458 98.1989H163.024C162.756 98.1989 162.613 98.0742 162.498 97.8249C162.258 97.3402 161.773 96.9801 161.067 96.9801C159.912 96.9801 159.146 97.9357 159.146 99.4545C159.146 101.001 159.899 101.975 161.067 101.975C161.718 101.975 162.235 101.67 162.498 101.13C162.613 100.886 162.756 100.756 163.024 100.756H163.458C163.776 100.756 163.961 100.918 163.887 101.186C163.578 102.34 162.553 103.143 161.057 103.143ZM168.756 96.3707V96.5554C168.756 96.8555 168.595 97.017 168.295 97.017H167.302V100.918C167.302 101.717 167.704 101.864 168.152 101.864H168.198C168.489 101.855 168.669 101.952 168.729 102.238L168.789 102.501C168.853 102.788 168.743 103.009 168.447 103.055C168.318 103.074 168.166 103.092 167.99 103.092C166.901 103.115 165.917 102.492 165.922 101.204V97.017H165.345C165.045 97.017 164.883 96.8555 164.883 96.5554V96.3707C164.883 96.0707 165.045 95.9091 165.345 95.9091H165.922V94.6719C165.922 94.3718 166.084 94.2102 166.384 94.2102H166.841C167.141 94.2102 167.302 94.3718 167.302 94.6719V95.9091H168.295C168.595 95.9091 168.756 96.0707 168.756 96.3707ZM178.216 100.059V96.3707C178.216 96.0707 178.377 95.9091 178.677 95.9091H179.139C179.439 95.9091 179.601 96.0707 179.601 96.3707V102.538C179.601 102.838 179.439 103 179.139 103H178.705C178.405 103 178.243 102.838 178.243 102.538V101.772H178.169C177.842 102.529 177.117 103.092 176.051 103.092C174.689 103.092 173.724 102.178 173.724 100.419V96.3707C173.724 96.0707 173.885 95.9091 174.185 95.9091H174.642C174.943 95.9091 175.104 96.0707 175.104 96.3707V100.253C175.104 101.218 175.695 101.837 176.549 101.837C177.325 101.837 178.22 101.264 178.216 100.059ZM182.836 98.7898V102.538C182.836 102.838 182.674 103 182.374 103H181.917C181.617 103 181.455 102.838 181.455 102.538V96.3707C181.455 96.0707 181.617 95.9091 181.917 95.9091H182.319C182.619 95.9091 182.78 96.0707 182.78 96.3707V97.0632H182.868C183.196 96.3107 183.893 95.8168 184.959 95.8168C186.409 95.8168 187.374 96.7354 187.374 98.4897V102.538C187.374 102.838 187.212 103 186.912 103H186.455C186.155 103 185.993 102.838 185.993 102.538V98.6559C185.993 97.6264 185.425 97.0124 184.488 97.0124C183.528 97.0124 182.836 97.6587 182.836 98.7898ZM192.535 96.3707V96.5554C192.535 96.8555 192.373 97.017 192.073 97.017H191.081V100.918C191.081 101.717 191.482 101.864 191.93 101.864H191.976C192.267 101.855 192.447 101.952 192.507 102.238L192.567 102.501C192.632 102.788 192.521 103.009 192.225 103.055C192.096 103.074 191.944 103.092 191.768 103.092C190.679 103.115 189.696 102.492 189.7 101.204V97.017H189.123C188.823 97.017 188.662 96.8555 188.662 96.5554V96.3707C188.662 96.0707 188.823 95.9091 189.123 95.9091H189.7V94.6719C189.7 94.3718 189.862 94.2102 190.162 94.2102H190.619C190.919 94.2102 191.081 94.3718 191.081 94.6719V95.9091H192.073C192.373 95.9091 192.535 96.0707 192.535 96.3707ZM194.759 94.815C194.279 94.815 193.886 94.4457 193.886 93.9933C193.886 93.5408 194.279 93.1669 194.759 93.1669C195.234 93.1669 195.631 93.5408 195.631 93.9933C195.631 94.4457 195.234 94.815 194.759 94.815ZM194.062 102.538V96.3707C194.062 96.0707 194.223 95.9091 194.523 95.9091H194.98C195.28 95.9091 195.442 96.0707 195.442 96.3707V102.538C195.442 102.838 195.28 103 194.98 103H194.523C194.223 103 194.062 102.838 194.062 102.538ZM198.679 94.0071V102.538C198.679 102.838 198.518 103 198.218 103H197.761C197.461 103 197.299 102.838 197.299 102.538V94.0071C197.299 93.707 197.461 93.5455 197.761 93.5455H198.218C198.518 93.5455 198.679 93.707 198.679 94.0071ZM207.287 96.3707V96.5554C207.287 96.8555 207.125 97.017 206.825 97.017H205.833V100.918C205.833 101.717 206.234 101.864 206.682 101.864H206.728C207.019 101.855 207.199 101.952 207.259 102.238L207.319 102.501C207.384 102.788 207.273 103.009 206.977 103.055C206.848 103.074 206.696 103.092 206.52 103.092C205.431 103.115 204.448 102.492 204.452 101.204V97.017H203.875C203.575 97.017 203.414 96.8555 203.414 96.5554V96.3707C203.414 96.0707 203.575 95.9091 203.875 95.9091H204.452V94.6719C204.452 94.3718 204.614 94.2102 204.914 94.2102H205.371C205.671 94.2102 205.833 94.3718 205.833 94.6719V95.9091H206.825C207.125 95.9091 207.287 96.0707 207.287 96.3707ZM210.346 98.7898V102.538C210.346 102.838 210.185 103 209.885 103H209.428C209.128 103 208.966 102.838 208.966 102.538V94.0071C208.966 93.707 209.128 93.5455 209.428 93.5455H209.866C210.166 93.5455 210.328 93.707 210.328 94.0071V97.0632H210.416C210.748 96.2969 211.413 95.8168 212.516 95.8168C213.975 95.8168 214.944 96.7216 214.944 98.4897V102.538C214.944 102.838 214.783 103 214.483 103H214.026C213.726 103 213.564 102.838 213.564 102.538V98.6559C213.564 97.6172 212.996 97.0124 212.045 97.0124C211.062 97.0124 210.346 97.6587 210.346 98.7898ZM219.842 103.143C217.751 103.143 216.468 101.703 216.468 99.5007C216.468 97.3217 217.77 95.8168 219.745 95.8168C221.352 95.8168 222.885 96.8185 222.885 99.3807V99.4084C222.885 99.7085 222.723 99.87 222.423 99.87H217.843C217.88 101.237 218.674 102.003 219.856 102.003C220.489 102.003 221.001 101.781 221.306 101.347C221.463 101.116 221.62 101.01 221.888 101.061L222.294 101.135C222.608 101.195 222.765 101.375 222.658 101.61C222.225 102.548 221.209 103.143 219.842 103.143ZM217.848 98.8359H221.532C221.527 97.7511 220.826 96.957 219.755 96.957C218.633 96.957 217.903 97.8295 217.848 98.8359ZM232.348 100.059V96.3707C232.348 96.0707 232.51 95.9091 232.81 95.9091H233.272C233.572 95.9091 233.733 96.0707 233.733 96.3707V102.538C233.733 102.838 233.572 103 233.272 103H232.838C232.538 103 232.376 102.838 232.376 102.538V101.772H232.302C231.975 102.529 231.25 103.092 230.183 103.092C228.821 103.092 227.857 102.178 227.857 100.419V96.3707C227.857 96.0707 228.018 95.9091 228.318 95.9091H228.775C229.075 95.9091 229.237 96.0707 229.237 96.3707V100.253C229.237 101.218 229.828 101.837 230.682 101.837C231.457 101.837 232.353 101.264 232.348 100.059ZM236.968 98.7898V102.538C236.968 102.838 236.807 103 236.507 103H236.05C235.75 103 235.588 102.838 235.588 102.538V96.3707C235.588 96.0707 235.75 95.9091 236.05 95.9091H236.451C236.751 95.9091 236.913 96.0707 236.913 96.3707V97.0632H237.001C237.328 96.3107 238.026 95.8168 239.092 95.8168C240.542 95.8168 241.506 96.7354 241.506 98.4897V102.538C241.506 102.838 241.345 103 241.045 103H240.588C240.288 103 240.126 102.838 240.126 102.538V98.6559C240.126 97.6264 239.558 97.0124 238.621 97.0124C237.661 97.0124 236.968 97.6587 236.968 98.7898ZM244.738 94.0071V102.538C244.738 102.838 244.576 103 244.276 103H243.819C243.519 103 243.358 102.838 243.358 102.538V94.0071C243.358 93.707 243.519 93.5455 243.819 93.5455H244.276C244.576 93.5455 244.738 93.707 244.738 94.0071ZM249.582 103.143C247.583 103.143 246.276 101.68 246.276 99.4869C246.276 97.2802 247.583 95.8168 249.582 95.8168C251.581 95.8168 252.887 97.2802 252.887 99.4869C252.887 101.68 251.581 103.143 249.582 103.143ZM249.586 101.984C250.884 101.984 251.493 100.844 251.493 99.4822C251.493 98.125 250.884 96.9709 249.586 96.9709C248.28 96.9709 247.671 98.125 247.671 99.4822C247.671 100.844 248.28 101.984 249.586 101.984ZM257.415 103.143C255.356 103.143 254.109 101.624 254.109 99.4869C254.109 97.3217 255.402 95.8168 257.401 95.8168C258.814 95.8168 259.889 96.5508 260.231 97.6957C260.319 98.005 260.134 98.1989 259.815 98.1989H259.381C259.114 98.1989 258.971 98.0742 258.855 97.8249C258.615 97.3402 258.13 96.9801 257.424 96.9801C256.27 96.9801 255.504 97.9357 255.504 99.4545C255.504 101.001 256.256 101.975 257.424 101.975C258.075 101.975 258.592 101.67 258.855 101.13C258.971 100.886 259.114 100.756 259.381 100.756H259.815C260.134 100.756 260.319 100.918 260.245 101.186C259.935 102.34 258.911 103.143 257.415 103.143ZM261.804 102.538V94.0071C261.804 93.707 261.965 93.5455 262.266 93.5455H262.723C263.023 93.5455 263.184 93.707 263.184 94.0071V98.9098H263.304L265.899 96.1538C266.06 95.983 266.231 95.9091 266.467 95.9091H267.002C267.408 95.9091 267.524 96.1815 267.247 96.4769L264.911 98.9513L267.551 102.437C267.787 102.751 267.658 103 267.27 103H266.633C266.388 103 266.217 102.912 266.07 102.718L263.872 99.7962L263.184 100.484V102.538C263.184 102.838 263.023 103 262.723 103H262.266C261.965 103 261.804 102.838 261.804 102.538ZM275.135 103.138C273.413 103.138 272.171 101.763 272.171 99.4684C272.171 97.1694 273.432 95.8168 275.144 95.8168C276.465 95.8168 276.936 96.62 277.185 97.0586H277.268V94.0071C277.268 93.707 277.43 93.5455 277.73 93.5455H278.187C278.487 93.5455 278.648 93.707 278.648 94.0071V102.538C278.648 102.838 278.487 103 278.187 103H277.762C277.462 103 277.3 102.838 277.3 102.538V101.897H277.185C276.936 102.349 276.428 103.138 275.135 103.138ZM275.44 101.961C276.631 101.961 277.291 100.946 277.291 99.4545C277.291 97.9727 276.645 96.9893 275.44 96.9893C274.193 96.9893 273.566 98.0465 273.566 99.4545C273.566 100.876 274.207 101.961 275.44 101.961ZM282.682 103.157C281.334 103.157 280.286 102.391 280.286 100.996C280.286 99.3853 281.662 99.0344 283.005 98.8775C284.279 98.7298 284.796 98.739 284.796 98.2358V98.2035C284.796 97.4002 284.339 96.9339 283.448 96.9339C282.737 96.9339 282.271 97.2156 281.999 97.5756C281.832 97.7972 281.671 97.8942 281.408 97.8342L281.006 97.7418C280.692 97.668 280.558 97.4418 280.72 97.1555C281.278 96.2045 282.317 95.8168 283.43 95.8168C284.556 95.8168 286.181 96.2276 286.181 98.2912V102.538C286.181 102.838 286.02 103 285.72 103H285.295C284.995 103 284.833 102.838 284.833 102.538V102.031H284.778C284.515 102.561 283.854 103.157 282.682 103.157ZM282.982 102.049C284.131 102.049 284.801 101.283 284.801 100.442V99.5284C284.602 99.7269 283.541 99.8469 283.093 99.907C282.294 100.013 281.639 100.276 281.639 101.015C281.639 101.698 282.202 102.049 282.982 102.049ZM291.33 96.3707V96.5554C291.33 96.8555 291.168 97.017 290.868 97.017H289.876V100.918C289.876 101.717 290.277 101.864 290.725 101.864H290.771C291.062 101.855 291.242 101.952 291.302 102.238L291.362 102.501C291.427 102.788 291.316 103.009 291.02 103.055C290.891 103.074 290.739 103.092 290.563 103.092C289.474 103.115 288.491 102.492 288.495 101.204V97.017H287.918C287.618 97.017 287.456 96.8555 287.456 96.5554V96.3707C287.456 96.0707 287.618 95.9091 287.918 95.9091H288.495V94.6719C288.495 94.3718 288.657 94.2102 288.957 94.2102H289.414C289.714 94.2102 289.876 94.3718 289.876 94.6719V95.9091H290.868C291.168 95.9091 291.33 96.0707 291.33 96.3707ZM295.837 103.143C293.745 103.143 292.462 101.703 292.462 99.5007C292.462 97.3217 293.764 95.8168 295.74 95.8168C297.346 95.8168 298.879 96.8185 298.879 99.3807V99.4084C298.879 99.7085 298.717 99.87 298.417 99.87H293.838C293.875 101.237 294.669 102.003 295.85 102.003C296.483 102.003 296.995 101.781 297.3 101.347C297.457 101.116 297.614 101.01 297.882 101.061L298.288 101.135C298.602 101.195 298.759 101.375 298.653 101.61C298.219 102.548 297.203 103.143 295.837 103.143ZM293.842 98.8359H297.526C297.522 97.7511 296.82 96.957 295.749 96.957C294.627 96.957 293.898 97.8295 293.842 98.8359ZM315.923 98.8683V99.1406C315.923 99.4407 315.761 99.6023 315.461 99.6023H303.384C303.084 99.6023 302.923 99.4407 302.923 99.1406V98.8683C302.923 98.5682 303.084 98.4066 303.384 98.4066H315.461C315.761 98.4066 315.923 98.5682 315.923 98.8683ZM323.347 103.143C321.256 103.143 319.973 101.703 319.973 99.5007C319.973 97.3217 321.275 95.8168 323.25 95.8168C324.857 95.8168 326.39 96.8185 326.39 99.3807V99.4084C326.39 99.7085 326.228 99.87 325.928 99.87H321.348C321.385 101.237 322.179 102.003 323.361 102.003C323.994 102.003 324.506 101.781 324.811 101.347C324.968 101.116 325.125 101.01 325.392 101.061L325.799 101.135C326.113 101.195 326.27 101.375 326.163 101.61C325.729 102.548 324.714 103.143 323.347 103.143ZM321.353 98.8359H325.037C325.032 97.7511 324.331 96.957 323.26 96.957C322.138 96.957 321.408 97.8295 321.353 98.8359ZM329.985 103.157C328.637 103.157 327.589 102.391 327.589 100.996C327.589 99.3853 328.964 99.0344 330.308 98.8775C331.582 98.7298 332.099 98.739 332.099 98.2358V98.2035C332.099 97.4002 331.642 96.9339 330.751 96.9339C330.04 96.9339 329.574 97.2156 329.301 97.5756C329.135 97.7972 328.974 97.8942 328.71 97.8342L328.309 97.7418C327.995 97.668 327.861 97.4418 328.023 97.1555C328.581 96.2045 329.62 95.8168 330.733 95.8168C331.859 95.8168 333.484 96.2276 333.484 98.2912V102.538C333.484 102.838 333.322 103 333.022 103H332.598C332.297 103 332.136 102.838 332.136 102.538V102.031H332.081C331.817 102.561 331.157 103.157 329.985 103.157ZM330.285 102.049C331.434 102.049 332.104 101.283 332.104 100.442V99.5284C331.905 99.7269 330.843 99.8469 330.396 99.907C329.597 100.013 328.941 100.276 328.941 101.015C328.941 101.698 329.505 102.049 330.285 102.049ZM335.322 102.538V96.3707C335.322 96.0707 335.484 95.9091 335.784 95.9091H336.195C336.495 95.9091 336.657 96.0707 336.657 96.3707V97.0355H336.73C336.989 96.2738 337.7 95.8029 338.531 95.8029C338.572 95.8029 338.623 95.8029 338.674 95.8075C338.965 95.8121 339.117 95.9922 339.117 96.283V96.6616C339.117 96.9755 338.988 97.1186 338.762 97.0955C338.646 97.0817 338.517 97.0724 338.397 97.0724C337.418 97.0724 336.703 97.7418 336.703 98.6697V102.538C336.703 102.838 336.541 103 336.241 103H335.784C335.484 103 335.322 102.838 335.322 102.538ZM341.692 94.0071V102.538C341.692 102.838 341.53 103 341.23 103H340.773C340.473 103 340.312 102.838 340.312 102.538V94.0071C340.312 93.707 340.473 93.5455 340.773 93.5455H341.23C341.53 93.5455 341.692 93.707 341.692 94.0071ZM344.422 105.659C344.241 105.659 344.075 105.645 343.928 105.622C343.632 105.576 343.526 105.35 343.609 105.059L343.688 104.796C343.771 104.514 343.955 104.431 344.246 104.463C344.768 104.514 345.137 104.311 345.414 103.563L345.585 103.092L343.18 96.44C343.064 96.1214 343.212 95.9091 343.554 95.9091H344.071C344.338 95.9091 344.509 96.0337 344.592 96.2876L346.263 101.412H346.337L348.009 96.2876C348.092 96.0337 348.262 95.9091 348.53 95.9091H349.052C349.393 95.9091 349.537 96.1214 349.421 96.44L346.693 103.946C346.282 105.064 345.562 105.659 344.422 105.659ZM119.35 118.612L117.531 112.431C117.439 112.112 117.586 111.909 117.919 111.909H118.399C118.671 111.909 118.842 112.038 118.911 112.301L120.195 117.116H120.264L121.552 112.301C121.621 112.034 121.792 111.909 122.064 111.909H122.678C122.951 111.909 123.121 112.038 123.191 112.301L124.469 117.093H124.539L125.813 112.301C125.882 112.038 126.053 111.909 126.325 111.909H126.805C127.138 111.909 127.286 112.108 127.193 112.431L125.379 118.612C125.3 118.871 125.134 119 124.862 119H124.262C123.989 119 123.819 118.875 123.745 118.608L122.415 113.88H122.309L120.979 118.608C120.906 118.875 120.735 119 120.462 119H119.867C119.594 119 119.428 118.871 119.35 118.612ZM129.353 110.815C128.872 110.815 128.48 110.446 128.48 109.993C128.48 109.541 128.872 109.167 129.353 109.167C129.828 109.167 130.225 109.541 130.225 109.993C130.225 110.446 129.828 110.815 129.353 110.815ZM128.655 118.538V112.371C128.655 112.071 128.817 111.909 129.117 111.909H129.574C129.874 111.909 130.036 112.071 130.036 112.371V118.538C130.036 118.838 129.874 119 129.574 119H129.117C128.817 119 128.655 118.838 128.655 118.538ZM135.203 112.371V112.555C135.203 112.855 135.041 113.017 134.741 113.017H133.749V116.918C133.749 117.717 134.15 117.864 134.598 117.864H134.644C134.935 117.855 135.115 117.952 135.175 118.238L135.235 118.501C135.3 118.788 135.189 119.009 134.893 119.055C134.764 119.074 134.612 119.092 134.436 119.092C133.347 119.115 132.364 118.492 132.368 117.204V113.017H131.791C131.491 113.017 131.33 112.855 131.33 112.555V112.371C131.33 112.071 131.491 111.909 131.791 111.909H132.368V110.672C132.368 110.372 132.53 110.21 132.83 110.21H133.287C133.587 110.21 133.749 110.372 133.749 110.672V111.909H134.741C135.041 111.909 135.203 112.071 135.203 112.371ZM138.262 114.79V118.538C138.262 118.838 138.101 119 137.801 119H137.344C137.044 119 136.882 118.838 136.882 118.538V110.007C136.882 109.707 137.044 109.545 137.344 109.545H137.782C138.082 109.545 138.244 109.707 138.244 110.007V113.063H138.332C138.664 112.297 139.329 111.817 140.432 111.817C141.891 111.817 142.86 112.722 142.86 114.49V118.538C142.86 118.838 142.699 119 142.399 119H141.942C141.642 119 141.48 118.838 141.48 118.538V114.656C141.48 113.617 140.912 113.012 139.961 113.012C138.978 113.012 138.262 113.659 138.262 114.79ZM147.357 119.138C145.635 119.138 144.393 117.763 144.393 115.468C144.393 113.169 145.653 111.817 147.366 111.817C148.686 111.817 149.157 112.62 149.407 113.059H149.49V110.007C149.49 109.707 149.651 109.545 149.951 109.545H150.408C150.708 109.545 150.87 109.707 150.87 110.007V118.538C150.87 118.838 150.708 119 150.408 119H149.984C149.684 119 149.522 118.838 149.522 118.538V117.897H149.407C149.157 118.349 148.649 119.138 147.357 119.138ZM147.661 117.961C148.853 117.961 149.513 116.946 149.513 115.455C149.513 113.973 148.866 112.989 147.661 112.989C146.415 112.989 145.787 114.047 145.787 115.455C145.787 116.876 146.429 117.961 147.661 117.961ZM152.84 118.538V112.371C152.84 112.071 153.002 111.909 153.302 111.909H153.713C154.013 111.909 154.174 112.071 154.174 112.371V113.036H154.248C154.507 112.274 155.218 111.803 156.048 111.803C156.09 111.803 156.141 111.803 156.192 111.808C156.482 111.812 156.635 111.992 156.635 112.283V112.662C156.635 112.975 156.506 113.119 156.279 113.096C156.164 113.082 156.035 113.072 155.915 113.072C154.936 113.072 154.22 113.742 154.22 114.67V118.538C154.22 118.838 154.059 119 153.759 119H153.302C153.002 119 152.84 118.838 152.84 118.538ZM159.829 119.157C158.481 119.157 157.433 118.391 157.433 116.996C157.433 115.385 158.809 115.034 160.153 114.877C161.427 114.73 161.944 114.739 161.944 114.236V114.203C161.944 113.4 161.487 112.934 160.596 112.934C159.885 112.934 159.419 113.216 159.146 113.576C158.98 113.797 158.818 113.894 158.555 113.834L158.154 113.742C157.84 113.668 157.706 113.442 157.867 113.156C158.426 112.205 159.465 111.817 160.577 111.817C161.704 111.817 163.329 112.228 163.329 114.291V118.538C163.329 118.838 163.167 119 162.867 119H162.442C162.142 119 161.981 118.838 161.981 118.538V118.031H161.925C161.662 118.561 161.002 119.157 159.829 119.157ZM160.129 118.049C161.279 118.049 161.948 117.283 161.948 116.442V115.528C161.75 115.727 160.688 115.847 160.24 115.907C159.442 116.013 158.786 116.276 158.786 117.015C158.786 117.698 159.349 118.049 160.129 118.049ZM166.589 118.612L164.77 112.431C164.678 112.112 164.826 111.909 165.158 111.909H165.638C165.91 111.909 166.081 112.038 166.15 112.301L167.434 117.116H167.503L168.791 112.301C168.86 112.034 169.031 111.909 169.304 111.909H169.918C170.19 111.909 170.361 112.038 170.43 112.301L171.709 117.093H171.778L173.052 112.301C173.121 112.038 173.292 111.909 173.565 111.909H174.045C174.377 111.909 174.525 112.108 174.432 112.431L172.618 118.612C172.54 118.871 172.373 119 172.101 119H171.501C171.229 119 171.058 118.875 170.984 118.608L169.654 113.88H169.548L168.219 118.608C168.145 118.875 167.974 119 167.702 119H167.106C166.834 119 166.668 118.871 166.589 118.612ZM177.958 119.157C176.61 119.157 175.562 118.391 175.562 116.996C175.562 115.385 176.938 115.034 178.281 114.877C179.556 114.73 180.073 114.739 180.073 114.236V114.203C180.073 113.4 179.616 112.934 178.725 112.934C178.014 112.934 177.547 113.216 177.275 113.576C177.109 113.797 176.947 113.894 176.684 113.834L176.282 113.742C175.969 113.668 175.835 113.442 175.996 113.156C176.555 112.205 177.594 111.817 178.706 111.817C179.833 111.817 181.458 112.228 181.458 114.291V118.538C181.458 118.838 181.296 119 180.996 119H180.571C180.271 119 180.11 118.838 180.11 118.538V118.031H180.054C179.791 118.561 179.131 119.157 177.958 119.157ZM178.258 118.049C179.408 118.049 180.077 117.283 180.077 116.442V115.528C179.879 115.727 178.817 115.847 178.369 115.907C177.57 116.013 176.915 116.276 176.915 117.015C176.915 117.698 177.478 118.049 178.258 118.049ZM184.676 110.007V118.538C184.676 118.838 184.515 119 184.215 119H183.758C183.458 119 183.296 118.838 183.296 118.538V110.007C183.296 109.707 183.458 109.545 183.758 109.545H184.215C184.515 109.545 184.676 109.707 184.676 110.007ZM190.671 110.815C190.191 110.815 189.798 110.446 189.798 109.993C189.798 109.541 190.191 109.167 190.671 109.167C191.146 109.167 191.543 109.541 191.543 109.993C191.543 110.446 191.146 110.815 190.671 110.815ZM189.974 118.538V112.371C189.974 112.071 190.135 111.909 190.435 111.909H190.892C191.193 111.909 191.354 112.071 191.354 112.371V118.538C191.354 118.838 191.193 119 190.892 119H190.435C190.135 119 189.974 118.838 189.974 118.538ZM198.026 113.728L197.671 113.793C197.403 113.839 197.251 113.733 197.098 113.502C196.877 113.174 196.493 112.911 195.856 112.911C195.072 112.911 194.481 113.299 194.485 113.843C194.481 114.324 194.818 114.587 195.598 114.771L196.724 115.03C198.026 115.33 198.663 115.949 198.663 116.95C198.663 118.234 197.477 119.143 195.764 119.143C194.384 119.143 193.414 118.612 193.031 117.652C192.916 117.361 193.077 117.153 193.387 117.107L193.82 117.043C194.093 117.001 194.241 117.116 194.379 117.366C194.628 117.804 195.099 118.031 195.755 118.031C196.66 118.031 197.246 117.601 197.246 117.052C197.246 116.609 196.927 116.304 196.244 116.152L195.044 115.888C193.714 115.593 193.105 114.924 193.105 113.917C193.105 112.662 194.241 111.817 195.843 111.817C197.144 111.817 197.961 112.334 198.354 113.169C198.492 113.46 198.34 113.673 198.026 113.728ZM205.002 114.79V118.538C205.002 118.838 204.84 119 204.54 119H204.083C203.783 119 203.621 118.838 203.621 118.538V112.371C203.621 112.071 203.783 111.909 204.083 111.909H204.485C204.785 111.909 204.946 112.071 204.946 112.371V113.063H205.034C205.362 112.311 206.059 111.817 207.125 111.817C208.575 111.817 209.54 112.735 209.54 114.49V118.538C209.54 118.838 209.378 119 209.078 119H208.621C208.321 119 208.159 118.838 208.159 118.538V114.656C208.159 113.626 207.591 113.012 206.654 113.012C205.694 113.012 205.002 113.659 205.002 114.79ZM214.378 119.143C212.379 119.143 211.072 117.68 211.072 115.487C211.072 113.28 212.379 111.817 214.378 111.817C216.377 111.817 217.683 113.28 217.683 115.487C217.683 117.68 216.377 119.143 214.378 119.143ZM214.382 117.984C215.68 117.984 216.289 116.844 216.289 115.482C216.289 114.125 215.68 112.971 214.382 112.971C213.076 112.971 212.466 114.125 212.466 115.482C212.466 116.844 213.076 117.984 214.382 117.984ZM222.534 112.371V112.555C222.534 112.855 222.372 113.017 222.072 113.017H221.08V116.918C221.08 117.717 221.481 117.864 221.929 117.864H221.975C222.266 117.855 222.446 117.952 222.506 118.238L222.566 118.501C222.631 118.788 222.52 119.009 222.225 119.055C222.095 119.074 221.943 119.092 221.767 119.092C220.678 119.115 219.695 118.492 219.699 117.204V113.017H219.122C218.822 113.017 218.661 112.855 218.661 112.555V112.371C218.661 112.071 218.822 111.909 219.122 111.909H219.699V110.672C219.699 110.372 219.861 110.21 220.161 110.21H220.618C220.918 110.21 221.08 110.372 221.08 110.672V111.909H222.072C222.372 111.909 222.534 112.071 222.534 112.371ZM227.501 121.197V112.371C227.501 112.071 227.663 111.909 227.963 111.909H228.388C228.688 111.909 228.849 112.071 228.849 112.371V113.059H228.965C229.209 112.62 229.685 111.817 231 111.817C232.713 111.817 233.978 113.169 233.978 115.468C233.978 117.763 232.732 119.138 231.014 119.138C229.722 119.138 229.214 118.349 228.965 117.897H228.881V121.197C228.881 121.498 228.72 121.659 228.42 121.659H227.963C227.663 121.659 227.501 121.498 227.501 121.197ZM228.854 115.455C228.854 116.946 229.519 117.961 230.705 117.961C231.938 117.961 232.584 116.876 232.584 115.455C232.584 114.047 231.956 112.989 230.705 112.989C229.5 112.989 228.854 113.973 228.854 115.455ZM238.511 119.143C236.513 119.143 235.206 117.68 235.206 115.487C235.206 113.28 236.513 111.817 238.511 111.817C240.51 111.817 241.817 113.28 241.817 115.487C241.817 117.68 240.51 119.143 238.511 119.143ZM238.516 117.984C239.813 117.984 240.423 116.844 240.423 115.482C240.423 114.125 239.813 112.971 238.516 112.971C237.21 112.971 236.6 114.125 236.6 115.482C236.6 116.844 237.21 117.984 238.516 117.984ZM248.173 113.728L247.817 113.793C247.549 113.839 247.397 113.733 247.245 113.502C247.023 113.174 246.64 112.911 246.003 112.911C245.218 112.911 244.627 113.299 244.632 113.843C244.627 114.324 244.964 114.587 245.744 114.771L246.871 115.03C248.173 115.33 248.81 115.949 248.81 116.95C248.81 118.234 247.623 119.143 245.911 119.143C244.53 119.143 243.561 118.612 243.178 117.652C243.062 117.361 243.224 117.153 243.533 117.107L243.967 117.043C244.239 117.001 244.387 117.116 244.526 117.366C244.775 117.804 245.246 118.031 245.901 118.031C246.806 118.031 247.392 117.601 247.392 117.052C247.392 116.609 247.074 116.304 246.391 116.152L245.19 115.888C243.861 115.593 243.251 114.924 243.251 113.917C243.251 112.662 244.387 111.817 245.989 111.817C247.291 111.817 248.108 112.334 248.5 113.169C248.639 113.46 248.487 113.673 248.173 113.728ZM255.142 113.728L254.787 113.793C254.519 113.839 254.367 113.733 254.214 113.502C253.993 113.174 253.61 112.911 252.973 112.911C252.188 112.911 251.597 113.299 251.601 113.843C251.597 114.324 251.934 114.587 252.714 114.771L253.84 115.03C255.142 115.33 255.779 115.949 255.779 116.95C255.779 118.234 254.593 119.143 252.88 119.143C251.5 119.143 250.53 118.612 250.147 117.652C250.032 117.361 250.193 117.153 250.503 117.107L250.937 117.043C251.209 117.001 251.357 117.116 251.495 117.366C251.745 117.804 252.215 118.031 252.871 118.031C253.776 118.031 254.362 117.601 254.362 117.052C254.362 116.609 254.044 116.304 253.36 116.152L252.16 115.888C250.831 115.593 250.221 114.924 250.221 113.917C250.221 112.662 251.357 111.817 252.959 111.817C254.261 111.817 255.078 112.334 255.47 113.169C255.609 113.46 255.456 113.673 255.142 113.728ZM257.994 110.815C257.514 110.815 257.122 110.446 257.122 109.993C257.122 109.541 257.514 109.167 257.994 109.167C258.47 109.167 258.867 109.541 258.867 109.993C258.867 110.446 258.47 110.815 257.994 110.815ZM257.297 118.538V112.371C257.297 112.071 257.459 111.909 257.759 111.909H258.216C258.516 111.909 258.677 112.071 258.677 112.371V118.538C258.677 118.838 258.516 119 258.216 119H257.759C257.459 119 257.297 118.838 257.297 118.538ZM260.645 118.538V110.007C260.645 109.707 260.807 109.545 261.107 109.545H261.564C261.864 109.545 262.025 109.707 262.025 110.007V113.059H262.109C262.353 112.62 262.829 111.817 264.144 111.817C265.857 111.817 267.122 113.169 267.122 115.468C267.122 117.763 265.876 119.138 264.158 119.138C262.866 119.138 262.358 118.349 262.109 117.897H261.993V118.538C261.993 118.838 261.832 119 261.532 119H261.107C260.807 119 260.645 118.838 260.645 118.538ZM261.998 115.455C261.998 116.946 262.663 117.961 263.849 117.961C265.082 117.961 265.728 116.876 265.728 115.455C265.728 114.047 265.1 112.989 263.849 112.989C262.644 112.989 261.998 113.973 261.998 115.455ZM270.052 110.007V118.538C270.052 118.838 269.891 119 269.591 119H269.134C268.834 119 268.672 118.838 268.672 118.538V110.007C268.672 109.707 268.834 109.545 269.134 109.545H269.591C269.891 109.545 270.052 109.707 270.052 110.007ZM274.965 119.143C272.874 119.143 271.591 117.703 271.591 115.501C271.591 113.322 272.893 111.817 274.869 111.817C276.475 111.817 278.008 112.819 278.008 115.381V115.408C278.008 115.708 277.846 115.87 277.546 115.87H272.967C273.003 117.237 273.797 118.003 274.979 118.003C275.612 118.003 276.124 117.781 276.429 117.347C276.586 117.116 276.743 117.01 277.011 117.061L277.417 117.135C277.731 117.195 277.888 117.375 277.782 117.61C277.348 118.548 276.332 119.143 274.965 119.143ZM272.971 114.836H276.655C276.65 113.751 275.949 112.957 274.878 112.957C273.756 112.957 273.027 113.83 272.971 114.836ZM280.449 119.088C279.941 119.088 279.525 118.677 279.525 118.164C279.525 117.661 279.941 117.246 280.449 117.246C280.952 117.246 281.372 117.661 281.372 118.164C281.372 118.677 280.952 119.088 280.449 119.088Z" fill="#FAFAFA"/>
</g>
<defs>
<filter id="filter0_dii_844_13335" x="102" y="43" width="290" height="94" filterUnits="userSpaceOnUse" color-interpolation-filters="sRGB">
<feFlood flood-opacity="0" result="BackgroundImageFix"/>
<feColorMatrix in="SourceAlpha" type="matrix" values="0 0 0 0 0 0 0 0 0 0 0 0 0 0 0 0 0 0 127 0" result="hardAlpha"/>
<feMorphology radius="1" operator="dilate" in="SourceAlpha" result="effect1_dropShadow_844_13335"/>
<feOffset/>
<feGaussianBlur stdDeviation="1"/>
<feComposite in2="hardAlpha" operator="out"/>
<feColorMatrix type="matrix" values="0 0 0 0 0 0 0 0 0 0 0 0 0 0 0 0 0 0 1 0"/>
<feBlend mode="normal" in2="BackgroundImageFix" result="effect1_dropShadow_844_13335"/>
<feBlend mode="normal" in="SourceGraphic" in2="effect1_dropShadow_844_13335" result="shape"/>
<feColorMatrix in="SourceAlpha" type="matrix" values="0 0 0 0 0 0 0 0 0 0 0 0 0 0 0 0 0 0 127 0" result="hardAlpha"/>
<feMorphology radius="1" operator="erode" in="SourceAlpha" result="effect2_innerShadow_844_13335"/>
<feOffset dy="1"/>
<feComposite in2="hardAlpha" operator="arithmetic" k2="-1" k3="1"/>
<feColorMatrix type="matrix" values="0 0 0 0 1 0 0 0 0 0.999947 0 0 0 0 0.99993 0 0 0 0.07 0"/>
<feBlend mode="normal" in2="shape" result="effect2_innerShadow_844_13335"/>
<feColorMatrix in="SourceAlpha" type="matrix" values="0 0 0 0 0 0 0 0 0 0 0 0 0 0 0 0 0 0 127 0" result="hardAlpha"/>
<feMorphology radius="1" operator="erode" in="SourceAlpha" result="effect3_innerShadow_844_13335"/>
<feOffset dy="-1"/>
<feGaussianBlur stdDeviation="1"/>
<feComposite in2="hardAlpha" operator="arithmetic" k2="-1" k3="1"/>
<feColorMatrix type="matrix" values="0 0 0 0 1 0 0 0 0 0.999947 0 0 0 0 0.99993 0 0 0 0.07 0"/>
<feBlend mode="normal" in2="effect2_innerShadow_844_13335" result="effect3_innerShadow_844_13335"/>
</filter>
</defs>
</svg>
