<svg width="494" height="458" viewBox="0 0 494 458" fill="none" xmlns="http://www.w3.org/2000/svg">
<rect width="494" height="458" rx="16" fill="#F5F5F5"/>
<rect x="49" y="49" width="396" height="360" rx="21.6" fill="#141414"/>
<path d="M78.1368 130.349C81.6352 130.365 84.9258 132.484 84.9341 138.65C84.9424 144.425 82.2252 147.832 78.0122 147.832C75.054 147.832 72.9101 146.195 72.1788 143.885C71.9711 143.212 72.3699 142.797 73.0679 142.797H74.6468C75.2201 142.797 75.5027 143.071 75.7935 143.586C76.2339 144.334 77.015 144.749 78.0122 144.749C80.2309 144.749 81.4025 142.697 81.4108 139.323H81.2945C80.5383 140.819 78.8764 141.725 77.0067 141.725C73.9903 141.725 71.7883 139.423 71.7799 136.249C71.7633 132.825 74.331 130.332 78.1368 130.349ZM78.1618 133.174C76.4915 133.174 75.2534 134.487 75.27 136.149C75.2783 137.819 76.4666 139.115 78.1285 139.115C79.7738 139.115 81.0618 137.769 81.0535 136.141C81.0369 134.52 79.8154 133.174 78.1618 133.174ZM87.427 146.602V145.738C87.427 145.223 87.5849 144.866 87.9672 144.508L93.4848 139.398C95.0304 137.911 95.8613 136.98 95.8613 135.625C95.8613 134.13 94.7478 133.199 93.2521 133.199C92.0223 133.199 91.1165 133.831 90.8008 134.902C90.6263 135.501 90.3603 135.825 89.7454 135.825H88.2995C87.6348 135.825 87.2359 135.451 87.3439 134.786C87.7927 132.052 90.0861 130.349 93.277 130.349C96.925 130.349 99.3348 132.434 99.3348 135.384C99.3348 137.321 98.3958 138.916 94.8974 142.107L92.4128 144.542V144.658H98.562C99.2101 144.658 99.5591 145.007 99.5591 145.655V146.602C99.5591 147.251 99.2101 147.6 98.562 147.6H88.4242C87.776 147.6 87.427 147.251 87.427 146.602ZM108.839 147.974C104.551 147.965 101.95 144.7 101.967 139.107C101.975 133.531 104.568 130.349 108.839 130.349C113.102 130.349 115.719 133.54 115.711 139.107C115.703 144.716 113.118 147.974 108.839 147.974ZM108.839 144.99C110.783 144.99 112.046 143.029 112.038 139.107C112.038 135.243 110.775 133.299 108.839 133.299C106.894 133.299 105.64 135.243 105.631 139.107C105.623 143.029 106.886 144.99 108.839 144.99ZM119.671 147.816C118.574 147.816 117.668 146.927 117.676 145.821C117.668 144.733 118.574 143.844 119.671 143.844C120.734 143.844 121.657 144.733 121.665 145.821C121.657 146.927 120.734 147.816 119.671 147.816ZM130.502 147.974C126.214 147.965 123.614 144.7 123.63 139.107C123.638 133.531 126.231 130.349 130.502 130.349C134.765 130.349 137.383 133.54 137.374 139.107C137.366 144.716 134.782 147.974 130.502 147.974ZM130.502 144.99C132.447 144.99 133.71 143.029 133.701 139.107C133.701 135.243 132.438 133.299 130.502 133.299C128.558 133.299 127.303 135.243 127.295 139.107C127.286 143.029 128.549 144.99 130.502 144.99ZM146.613 147.974C142.325 147.965 139.724 144.7 139.74 139.107C139.749 133.531 142.341 130.349 146.613 130.349C150.875 130.349 153.493 133.54 153.485 139.107C153.476 144.716 150.892 147.974 146.613 147.974ZM146.613 144.99C148.557 144.99 149.82 143.029 149.812 139.107C149.812 135.243 148.549 133.299 146.613 133.299C144.668 133.299 143.413 135.243 143.405 139.107C143.397 143.029 144.66 144.99 146.613 144.99ZM175.376 136.082H173.69C173.116 136.082 172.809 135.817 172.535 135.301C171.936 134.18 170.814 133.531 169.285 133.531C166.685 133.531 164.915 135.534 164.915 139.074C164.915 142.63 166.618 144.65 169.319 144.65C171.712 144.65 173.149 143.312 173.199 141.201H170.54C169.892 141.201 169.543 140.852 169.543 140.204V139.489C169.543 138.841 169.892 138.492 170.54 138.492H175.667C176.315 138.492 176.664 138.841 176.664 139.489V140.636C176.664 145.115 173.598 147.832 169.302 147.832C164.507 147.832 161.267 144.492 161.267 139.107C161.267 133.59 164.732 130.349 169.227 130.349C172.643 130.349 175.36 132.21 176.257 134.986C176.473 135.659 176.074 136.082 175.376 136.082ZM179.367 146.602V131.579C179.367 130.93 179.716 130.581 180.364 130.581H186.081C189.945 130.581 192.181 132.759 192.181 136.141C192.181 138.467 191.109 140.154 189.173 140.985L192.139 146.411C192.513 147.101 192.214 147.6 191.433 147.6H189.621C189.073 147.6 188.691 147.384 188.433 146.893L185.591 141.567H182.965V146.602C182.965 147.251 182.616 147.6 181.968 147.6H180.364C179.716 147.6 179.367 147.251 179.367 146.602ZM182.965 138.675H185.408C187.469 138.675 188.475 137.827 188.475 136.141C188.475 134.445 187.469 133.523 185.392 133.523H182.965V138.675ZM196.793 147.6H195.006C194.275 147.6 193.951 147.151 194.192 146.461L199.393 131.387C199.585 130.831 199.95 130.581 200.532 130.581H203.457C204.039 130.581 204.404 130.831 204.595 131.387L209.789 146.461C210.03 147.159 209.706 147.6 208.974 147.6H207.188C206.606 147.6 206.241 147.334 206.058 146.777L205.061 143.719H198.92L197.923 146.777C197.74 147.334 197.374 147.6 196.793 147.6ZM199.834 140.91H204.155L202.061 134.47H201.928L199.834 140.91Z" fill="#FAFAFA"/>
<path d="M71.4207 109.745H72.1072C72.3412 109.745 72.4984 109.837 72.6096 110.04L74.3662 113.22H74.4429L76.1994 110.04C76.3106 109.837 76.4679 109.745 76.7018 109.745H77.3883C77.722 109.745 77.8486 109.96 77.6798 110.251L75.114 114.669V117.178C75.114 117.45 74.9645 117.6 74.6922 117.6H74.1169C73.8446 117.6 73.695 117.45 73.695 117.178V114.669L71.1292 110.251C70.9605 109.96 71.087 109.745 71.4207 109.745ZM80.3904 117.715C78.6645 117.715 77.5676 116.499 77.5676 114.677C77.5676 112.852 78.6645 111.632 80.3904 111.632C82.1162 111.632 83.2131 112.852 83.2131 114.677C83.2131 116.499 82.1162 117.715 80.3904 117.715ZM80.398 116.602C81.3377 116.602 81.8056 115.751 81.8056 114.673C81.8056 113.596 81.3377 112.733 80.398 112.733C79.4431 112.733 78.9752 113.596 78.9752 114.673C78.9752 115.751 79.4431 116.602 80.398 116.602ZM88.1461 115.122V112.131C88.1461 111.858 88.2957 111.709 88.568 111.709H89.1126C89.3849 111.709 89.5345 111.858 89.5345 112.131V117.178C89.5345 117.45 89.3849 117.6 89.1126 117.6H88.6102C88.3379 117.6 88.1883 117.45 88.1883 117.178V116.553H88.127C87.8585 117.212 87.2372 117.676 86.3551 117.676C85.1968 117.676 84.3915 116.875 84.3915 115.46V112.131C84.3915 111.858 84.541 111.709 84.8133 111.709H85.3579C85.6302 111.709 85.7798 111.858 85.7798 112.131V115.245C85.7798 115.993 86.2247 116.464 86.892 116.464C87.5057 116.464 88.1461 116.019 88.1461 115.122ZM94.7571 117.243L93.3266 112.184C93.246 111.893 93.3803 111.709 93.6832 111.709H94.2317C94.4848 111.709 94.6382 111.828 94.6996 112.073L95.643 115.851H95.6967L96.6632 112.073C96.7246 111.831 96.8818 111.709 97.1311 111.709H97.7793C98.0286 111.709 98.1858 111.831 98.2472 112.073L99.2136 115.828H99.2712L100.199 112.073C100.261 111.828 100.414 111.709 100.667 111.709H101.219C101.522 111.709 101.657 111.893 101.576 112.184L100.142 117.243C100.073 117.481 99.9193 117.6 99.67 117.6H98.9682C98.7189 117.6 98.5617 117.485 98.4965 117.243L97.4916 113.619H97.4111L96.4063 117.243C96.3411 117.485 96.1838 117.6 95.9345 117.6H95.2288C94.9796 117.6 94.8261 117.481 94.7571 117.243ZM103.378 110.873C102.933 110.873 102.572 110.535 102.572 110.121C102.572 109.703 102.933 109.365 103.378 109.365C103.819 109.365 104.179 109.703 104.179 110.121C104.179 110.535 103.819 110.873 103.378 110.873ZM102.68 117.178V112.131C102.68 111.858 102.829 111.709 103.102 111.709H103.646C103.919 111.709 104.068 111.858 104.068 112.131V117.178C104.068 117.45 103.919 117.6 103.646 117.6H103.102C102.829 117.6 102.68 117.45 102.68 117.178ZM106.884 110.167V117.178C106.884 117.45 106.735 117.6 106.462 117.6H105.918C105.645 117.6 105.496 117.45 105.496 117.178V110.167C105.496 109.895 105.645 109.745 105.918 109.745H106.462C106.735 109.745 106.884 109.895 106.884 110.167ZM109.7 110.167V117.178C109.7 117.45 109.551 117.6 109.278 117.6H108.734C108.461 117.6 108.312 117.45 108.312 117.178V110.167C108.312 109.895 108.461 109.745 108.734 109.745H109.278C109.551 109.745 109.7 109.895 109.7 110.167ZM113.807 117.178V112.131C113.807 111.858 113.956 111.709 114.229 111.709H114.731C115.003 111.709 115.153 111.858 115.153 112.131V112.691H115.214C115.429 112.008 115.993 111.624 116.668 111.624H116.767C117.032 111.636 117.166 111.801 117.166 112.065V112.487C117.166 112.775 117.051 112.905 116.848 112.878C116.741 112.867 116.626 112.859 116.522 112.859C115.759 112.859 115.195 113.389 115.195 114.136V117.178C115.195 117.45 115.045 117.6 114.773 117.6H114.229C113.956 117.6 113.807 117.45 113.807 117.178ZM120.454 117.715C118.678 117.715 117.593 116.537 117.593 114.689C117.593 112.871 118.694 111.632 120.381 111.632C121.831 111.632 123.074 112.541 123.074 114.608V114.612C123.074 114.884 122.924 115.034 122.652 115.034H118.97C118.981 116.043 119.576 116.633 120.473 116.633C120.933 116.633 121.313 116.48 121.547 116.181C121.697 115.985 121.835 115.885 122.073 115.912L122.54 115.966C122.836 116 122.989 116.161 122.893 116.38C122.533 117.197 121.658 117.715 120.454 117.715ZM118.974 114.098H121.743C121.735 113.296 121.198 112.714 120.4 112.714C119.572 112.714 119.016 113.346 118.974 114.098ZM126.818 117.715C125.057 117.715 123.995 116.461 123.995 114.677C123.995 112.878 125.084 111.632 126.81 111.632C128.068 111.632 128.992 112.276 129.265 113.293C129.341 113.576 129.169 113.749 128.881 113.749H128.379C128.133 113.749 128.01 113.63 127.903 113.404C127.715 113.017 127.351 112.752 126.829 112.752C125.974 112.752 125.402 113.465 125.402 114.654C125.402 115.858 125.962 116.583 126.829 116.583C127.316 116.583 127.704 116.353 127.903 115.935C128.01 115.705 128.137 115.586 128.382 115.586H128.881C129.173 115.586 129.337 115.736 129.28 115.981C129.031 117.017 128.137 117.715 126.818 117.715ZM133.089 117.715C131.314 117.715 130.228 116.537 130.228 114.689C130.228 112.871 131.329 111.632 133.016 111.632C134.466 111.632 135.709 112.541 135.709 114.608V114.612C135.709 114.884 135.559 115.034 135.287 115.034H131.605C131.617 116.043 132.211 116.633 133.108 116.633C133.569 116.633 133.948 116.48 134.182 116.181C134.332 115.985 134.47 115.885 134.708 115.912L135.176 115.966C135.471 116 135.624 116.161 135.528 116.38C135.168 117.197 134.294 117.715 133.089 117.715ZM131.609 114.098H134.378C134.37 113.296 133.833 112.714 133.036 112.714C132.207 112.714 131.651 113.346 131.609 114.098ZM137.581 110.873C137.136 110.873 136.776 110.535 136.776 110.121C136.776 109.703 137.136 109.365 137.581 109.365C138.022 109.365 138.383 109.703 138.383 110.121C138.383 110.535 138.022 110.873 137.581 110.873ZM136.883 117.178V112.131C136.883 111.858 137.033 111.709 137.305 111.709H137.85C138.122 111.709 138.272 111.858 138.272 112.131V117.178C138.272 117.45 138.122 117.6 137.85 117.6H137.305C137.033 117.6 136.883 117.45 136.883 117.178ZM144.789 112.192L142.986 117.258C142.906 117.488 142.748 117.6 142.503 117.6H141.69C141.444 117.6 141.287 117.488 141.207 117.258L139.404 112.192C139.3 111.9 139.435 111.709 139.745 111.709H140.344C140.589 111.709 140.746 111.82 140.819 112.058L142.066 116.085H142.127L143.377 112.058C143.45 111.82 143.607 111.709 143.853 111.709H144.447C144.758 111.709 144.892 111.9 144.789 112.192ZM148.329 117.715C146.554 117.715 145.468 116.537 145.468 114.689C145.468 112.871 146.569 111.632 148.257 111.632C149.706 111.632 150.949 112.541 150.949 114.608V114.612C150.949 114.884 150.799 115.034 150.527 115.034H146.845C146.857 116.043 147.451 116.633 148.349 116.633C148.809 116.633 149.189 116.48 149.423 116.181C149.572 115.985 149.71 115.885 149.948 115.912L150.416 115.966C150.711 116 150.865 116.161 150.769 116.38C150.408 117.197 149.534 117.715 148.329 117.715ZM146.849 114.098H149.618C149.61 113.296 149.074 112.714 148.276 112.714C147.447 112.714 146.891 113.346 146.849 114.098Z" fill="#A5A3AC"/>
<path d="M77.8294 185.767V192.777C77.8294 193.05 77.6798 193.199 77.4075 193.199H76.8897C76.6635 193.199 76.5101 193.115 76.3797 192.931L72.8628 187.849H72.7976V192.777C72.7976 193.05 72.648 193.199 72.3757 193.199H71.7966C71.5243 193.199 71.3747 193.05 71.3747 192.777V185.767C71.3747 185.494 71.5243 185.345 71.7966 185.345H72.322C72.5483 185.345 72.7055 185.429 72.8321 185.613L76.3451 190.699H76.4142V185.767C76.4142 185.494 76.5638 185.345 76.8361 185.345H77.4075C77.6798 185.345 77.8294 185.494 77.8294 185.767ZM81.9264 193.314C80.1506 193.314 79.0653 192.137 79.0653 190.288C79.0653 188.47 80.166 187.232 81.8535 187.232C83.3032 187.232 84.5458 188.141 84.5458 190.208V190.212C84.5458 190.484 84.3962 190.633 84.1239 190.633H80.4421C80.4536 191.642 81.0481 192.233 81.9455 192.233C82.4058 192.233 82.7855 192.079 83.0194 191.78C83.169 191.585 83.307 191.485 83.5448 191.512L84.0127 191.565C84.308 191.6 84.4614 191.761 84.3656 191.98C84.0051 192.797 83.1306 193.314 81.9264 193.314ZM80.446 189.698H83.215C83.2073 188.896 82.6704 188.313 81.8727 188.313C81.0443 188.313 80.4881 188.946 80.446 189.698ZM88.662 187.73V187.96C88.662 188.233 88.5124 188.382 88.2401 188.382H87.4999V191.427C87.4999 191.987 87.7799 192.11 88.1289 192.11H88.1366C88.2708 192.11 88.5623 192.191 88.6198 192.451L88.6812 192.735C88.7387 193 88.6351 193.195 88.3667 193.241C88.2478 193.261 88.1097 193.276 87.9525 193.28C86.9093 193.31 86.1039 192.766 86.1116 191.657V188.382H85.6973C85.425 188.382 85.2755 188.233 85.2755 187.96V187.73C85.2755 187.458 85.425 187.308 85.6935 187.308H86.1116V186.319C86.1116 186.047 86.2611 185.897 86.5334 185.897H87.078C87.3503 185.897 87.4999 186.047 87.4999 186.319V187.308H88.2401C88.5124 187.308 88.662 187.458 88.662 187.73ZM90.9391 192.843L89.5086 187.784C89.4281 187.492 89.5623 187.308 89.8653 187.308H90.4137C90.6668 187.308 90.8203 187.427 90.8816 187.673L91.8251 191.45H91.8788L92.8453 187.673C92.9066 187.431 93.0639 187.308 93.3131 187.308H93.9613C94.2106 187.308 94.3678 187.431 94.4292 187.673L95.3957 191.427H95.4532L96.3813 187.673C96.4427 187.427 96.5961 187.308 96.8492 187.308H97.4015C97.7045 187.308 97.8387 187.492 97.7582 187.784L96.3238 192.843C96.2548 193.08 96.1014 193.199 95.8521 193.199H95.1502C94.9009 193.199 94.7437 193.084 94.6785 192.843L93.6737 189.218H93.5931L92.5883 192.843C92.5231 193.084 92.3658 193.199 92.1166 193.199H91.4109C91.1616 193.199 91.0082 193.08 90.9391 192.843ZM101.273 193.314C99.5473 193.314 98.4504 192.099 98.4504 190.277C98.4504 188.451 99.5473 187.232 101.273 187.232C102.999 187.232 104.096 188.451 104.096 190.277C104.096 192.099 102.999 193.314 101.273 193.314ZM101.281 192.202C102.22 192.202 102.688 191.351 102.688 190.273C102.688 189.195 102.22 188.332 101.281 188.332C100.326 188.332 99.858 189.195 99.858 190.273C99.858 191.351 100.326 192.202 101.281 192.202ZM105.274 192.777V187.73C105.274 187.458 105.424 187.308 105.696 187.308H106.199C106.471 187.308 106.62 187.458 106.62 187.73V188.29H106.682C106.897 187.607 107.46 187.224 108.135 187.224H108.235C108.5 187.235 108.634 187.4 108.634 187.665V188.087C108.634 188.375 108.519 188.505 108.316 188.478C108.208 188.467 108.093 188.459 107.99 188.459C107.226 188.459 106.663 188.988 106.663 189.736V192.777C106.663 193.05 106.513 193.199 106.241 193.199H105.696C105.424 193.199 105.274 193.05 105.274 192.777ZM109.556 192.777V185.767C109.556 185.494 109.706 185.345 109.978 185.345H110.523C110.795 185.345 110.945 185.494 110.945 185.767V189.675H111.041L112.95 187.538C113.096 187.374 113.25 187.308 113.468 187.308H114.082C114.45 187.308 114.561 187.55 114.316 187.826L112.498 189.851L114.542 192.685C114.745 192.969 114.63 193.199 114.281 193.199H113.576C113.349 193.199 113.196 193.119 113.066 192.935L111.451 190.679L110.945 191.22V192.777C110.945 193.05 110.795 193.199 110.523 193.199H109.978C109.706 193.199 109.556 193.05 109.556 192.777Z" fill="#A5A3AC"/>
<path d="M77.8294 228.968V235.979C77.8294 236.251 77.6798 236.4 77.4075 236.4H76.8897C76.6635 236.4 76.5101 236.316 76.3797 236.132L72.8628 231.05H72.7976V235.979C72.7976 236.251 72.648 236.4 72.3757 236.4H71.7966C71.5243 236.4 71.3747 236.251 71.3747 235.979V228.968C71.3747 228.695 71.5243 228.546 71.7966 228.546H72.322C72.5483 228.546 72.7055 228.63 72.8321 228.814L76.3451 233.9H76.4142V228.968C76.4142 228.695 76.5638 228.546 76.8361 228.546H77.4075C77.6798 228.546 77.8294 228.695 77.8294 228.968ZM81.9264 236.515C80.1506 236.515 79.0653 235.338 79.0653 233.489C79.0653 231.672 80.166 230.433 81.8535 230.433C83.3032 230.433 84.5458 231.342 84.5458 233.409V233.413C84.5458 233.685 84.3962 233.835 84.1239 233.835H80.4421C80.4536 234.843 81.0481 235.434 81.9455 235.434C82.4058 235.434 82.7855 235.281 83.0194 234.981C83.169 234.786 83.307 234.686 83.5448 234.713L84.0127 234.767C84.308 234.801 84.4614 234.962 84.3656 235.181C84.0051 235.998 83.1306 236.515 81.9264 236.515ZM80.446 232.899H83.215C83.2073 232.097 82.6704 231.514 81.8727 231.514C81.0443 231.514 80.4881 232.147 80.446 232.899ZM88.662 230.931V231.161C88.662 231.434 88.5124 231.583 88.2401 231.583H87.4999V234.629C87.4999 235.188 87.7799 235.311 88.1289 235.311H88.1366C88.2708 235.311 88.5623 235.392 88.6198 235.653L88.6812 235.936C88.7387 236.201 88.6351 236.397 88.3667 236.443C88.2478 236.462 88.1097 236.477 87.9525 236.481C86.9093 236.512 86.1039 235.967 86.1116 234.859V231.583H85.6973C85.425 231.583 85.2755 231.434 85.2755 231.161V230.931C85.2755 230.659 85.425 230.509 85.6935 230.509H86.1116V229.52C86.1116 229.248 86.2611 229.098 86.5334 229.098H87.078C87.3503 229.098 87.4999 229.248 87.4999 229.52V230.509H88.2401C88.5124 230.509 88.662 230.659 88.662 230.931ZM90.9391 236.044L89.5086 230.985C89.4281 230.694 89.5623 230.509 89.8653 230.509H90.4137C90.6668 230.509 90.8203 230.628 90.8816 230.874L91.8251 234.652H91.8788L92.8453 230.874C92.9066 230.632 93.0639 230.509 93.3131 230.509H93.9613C94.2106 230.509 94.3678 230.632 94.4292 230.874L95.3957 234.629H95.4532L96.3813 230.874C96.4427 230.628 96.5961 230.509 96.8492 230.509H97.4015C97.7045 230.509 97.8387 230.694 97.7582 230.985L96.3238 236.044C96.2548 236.281 96.1014 236.4 95.8521 236.4H95.1502C94.9009 236.4 94.7437 236.285 94.6785 236.044L93.6737 232.419H93.5931L92.5883 236.044C92.5231 236.285 92.3658 236.4 92.1166 236.4H91.4109C91.1616 236.4 91.0082 236.281 90.9391 236.044ZM101.273 236.515C99.5473 236.515 98.4504 235.3 98.4504 233.478C98.4504 231.652 99.5473 230.433 101.273 230.433C102.999 230.433 104.096 231.652 104.096 233.478C104.096 235.3 102.999 236.515 101.273 236.515ZM101.281 235.403C102.22 235.403 102.688 234.552 102.688 233.474C102.688 232.396 102.22 231.533 101.281 231.533C100.326 231.533 99.858 232.396 99.858 233.474C99.858 234.552 100.326 235.403 101.281 235.403ZM105.274 235.979V230.931C105.274 230.659 105.424 230.509 105.696 230.509H106.199C106.471 230.509 106.62 230.659 106.62 230.931V231.491H106.682C106.897 230.809 107.46 230.425 108.135 230.425H108.235C108.5 230.437 108.634 230.602 108.634 230.866V231.288C108.634 231.576 108.519 231.706 108.316 231.679C108.208 231.668 108.093 231.66 107.99 231.66C107.226 231.66 106.663 232.189 106.663 232.937V235.979C106.663 236.251 106.513 236.4 106.241 236.4H105.696C105.424 236.4 105.274 236.251 105.274 235.979ZM109.556 235.979V228.968C109.556 228.695 109.706 228.546 109.978 228.546H110.523C110.795 228.546 110.945 228.695 110.945 228.968V232.876H111.041L112.95 230.74C113.096 230.575 113.25 230.509 113.468 230.509H114.082C114.45 230.509 114.561 230.751 114.316 231.027L112.498 233.052L114.542 235.886C114.745 236.17 114.63 236.4 114.281 236.4H113.576C113.349 236.4 113.196 236.32 113.066 236.136L111.451 233.881L110.945 234.421V235.979C110.945 236.251 110.795 236.4 110.523 236.4H109.978C109.706 236.4 109.556 236.251 109.556 235.979ZM121.368 230.931V231.161C121.368 231.434 121.218 231.583 120.946 231.583H120.144V235.979C120.144 236.251 119.995 236.4 119.723 236.4H119.178C118.906 236.4 118.756 236.251 118.756 235.979V231.583H118.307C118.035 231.583 117.885 231.434 117.885 231.161V230.931C117.885 230.659 118.035 230.509 118.307 230.509H118.756V229.953C118.756 228.764 119.573 228.178 120.597 228.178C120.839 228.178 121.061 228.205 121.245 228.235C121.514 228.285 121.613 228.481 121.544 228.749L121.475 229.018C121.41 229.275 121.287 229.382 121.119 229.351C121.038 229.336 120.95 229.328 120.854 229.328C120.336 229.328 120.144 229.585 120.144 230.045V230.509H120.946C121.218 230.509 121.368 230.659 121.368 230.931ZM124.842 236.515C123.066 236.515 121.981 235.338 121.981 233.489C121.981 231.672 123.081 230.433 124.769 230.433C126.218 230.433 127.461 231.342 127.461 233.409V233.413C127.461 233.685 127.311 233.835 127.039 233.835H123.357C123.369 234.843 123.963 235.434 124.861 235.434C125.321 235.434 125.701 235.281 125.935 234.981C126.084 234.786 126.222 234.686 126.46 234.713L126.928 234.767C127.223 234.801 127.377 234.962 127.281 235.181C126.92 235.998 126.046 236.515 124.842 236.515ZM123.361 232.899H126.13C126.123 232.097 125.586 231.514 124.788 231.514C123.959 231.514 123.403 232.147 123.361 232.899ZM131.244 236.515C129.468 236.515 128.382 235.338 128.382 233.489C128.382 231.672 129.483 230.433 131.171 230.433C132.62 230.433 133.863 231.342 133.863 233.409V233.413C133.863 233.685 133.713 233.835 133.441 233.835H129.759C129.771 234.843 130.365 235.434 131.263 235.434C131.723 235.434 132.103 235.281 132.337 234.981C132.486 234.786 132.624 234.686 132.862 234.713L133.33 234.767C133.625 234.801 133.779 234.962 133.683 235.181C133.322 235.998 132.448 236.515 131.244 236.515ZM129.763 232.899H132.532C132.525 232.097 131.988 231.514 131.19 231.514C130.361 231.514 129.805 232.147 129.763 232.899Z" fill="#A5A3AC"/>
<path d="M393.979 187.504H393.431C393.181 187.504 393.066 187.381 392.963 187.147C392.759 186.699 392.261 186.442 391.578 186.442C390.688 186.442 390.159 186.875 390.155 187.466C390.148 188.121 390.846 188.394 391.49 188.547L392.226 188.731C393.408 189.011 394.531 189.632 394.535 190.994C394.531 192.378 393.438 193.318 391.555 193.318C389.906 193.318 388.801 192.605 388.556 191.324C388.502 191.04 388.671 190.879 388.955 190.879H389.526C389.779 190.879 389.895 191.009 389.983 191.251C390.198 191.822 390.8 192.102 391.544 192.102C392.472 192.102 393.108 191.654 393.112 190.982C393.108 190.373 392.549 190.108 391.701 189.893L390.807 189.663C389.515 189.329 388.713 188.681 388.713 187.554C388.709 186.165 389.948 185.237 391.597 185.237C393.078 185.237 394.132 185.974 394.374 187.059C394.435 187.339 394.263 187.504 393.979 187.504ZM398.312 193.314C396.586 193.314 395.489 192.099 395.489 190.277C395.489 188.451 396.586 187.232 398.312 187.232C400.038 187.232 401.135 188.451 401.135 190.277C401.135 192.099 400.038 193.314 398.312 193.314ZM398.32 192.202C399.259 192.202 399.727 191.351 399.727 190.273C399.727 189.195 399.259 188.332 398.32 188.332C397.365 188.332 396.897 189.195 396.897 190.273C396.897 191.351 397.365 192.202 398.32 192.202ZM403.701 185.767V192.777C403.701 193.05 403.552 193.199 403.279 193.199H402.735C402.463 193.199 402.313 193.05 402.313 192.777V185.767C402.313 185.494 402.463 185.345 402.735 185.345H403.279C403.552 185.345 403.701 185.494 403.701 185.767ZM406.824 193.318C405.7 193.318 404.853 192.704 404.853 191.546C404.853 190.219 405.946 189.878 407.089 189.755C408.128 189.644 408.546 189.625 408.546 189.226V189.203C408.546 188.624 408.193 188.294 407.549 188.294C407.054 188.294 406.713 188.478 406.51 188.731C406.36 188.927 406.226 189.026 405.984 188.992L405.52 188.927C405.225 188.885 405.083 188.681 405.225 188.413C405.643 187.63 406.487 187.232 407.541 187.232C408.665 187.232 409.935 187.7 409.935 189.257V192.777C409.935 193.05 409.785 193.199 409.513 193.199H409.022C408.749 193.199 408.6 193.053 408.6 192.793V192.39H408.554C408.301 192.885 407.748 193.318 406.824 193.318ZM407.185 192.298C408.021 192.298 408.55 191.742 408.55 191.086V190.392C408.37 190.538 407.641 190.63 407.277 190.679C406.655 190.768 406.191 190.99 406.191 191.523C406.191 192.033 406.606 192.298 407.185 192.298ZM412.719 189.748V192.777C412.719 193.05 412.569 193.199 412.297 193.199H411.752C411.48 193.199 411.331 193.05 411.331 192.777V187.73C411.331 187.458 411.48 187.308 411.752 187.308H412.236C412.508 187.308 412.658 187.458 412.658 187.73V188.309H412.727C412.995 187.653 413.601 187.232 414.483 187.232C415.699 187.232 416.504 188.037 416.5 189.448V192.777C416.5 193.05 416.351 193.199 416.079 193.199H415.534C415.262 193.199 415.112 193.05 415.112 192.777V189.663C415.112 188.877 414.683 188.405 413.965 188.405C413.233 188.405 412.719 188.896 412.719 189.748ZM419.607 193.318C418.483 193.318 417.636 192.704 417.636 191.546C417.636 190.219 418.729 189.878 419.872 189.755C420.911 189.644 421.329 189.625 421.329 189.226V189.203C421.329 188.624 420.976 188.294 420.332 188.294C419.837 188.294 419.496 188.478 419.292 188.731C419.143 188.927 419.009 189.026 418.767 188.992L418.303 188.927C418.008 188.885 417.866 188.681 418.008 188.413C418.426 187.63 419.269 187.232 420.324 187.232C421.448 187.232 422.717 187.7 422.717 189.257V192.777C422.717 193.05 422.568 193.199 422.295 193.199H421.805C421.532 193.199 421.383 193.053 421.383 192.793V192.39H421.337C421.084 192.885 420.531 193.318 419.607 193.318ZM419.967 192.298C420.804 192.298 421.333 191.742 421.333 191.086V190.392C421.153 190.538 420.424 190.63 420.06 190.679C419.438 190.768 418.974 190.99 418.974 191.523C418.974 192.033 419.388 192.298 419.967 192.298Z" fill="#FAFAFA"/>
<path d="M341.341 234.21H341.057C340.781 234.21 340.616 234.057 340.643 233.773C340.746 232.673 341.394 232.12 342.242 232.12C342.737 232.12 343.124 232.308 343.688 232.803C344.006 233.083 344.175 233.217 344.447 233.217C344.735 233.217 344.961 233.052 345.049 232.719C345.118 232.454 345.23 232.312 345.49 232.312H345.774C346.05 232.312 346.219 232.465 346.188 232.749C346.081 233.85 345.425 234.398 344.593 234.398C344.079 234.398 343.684 234.195 343.139 233.72C342.802 233.424 342.652 233.305 342.384 233.305C342.1 233.305 341.87 233.451 341.782 233.804C341.713 234.069 341.602 234.21 341.341 234.21ZM350.652 236.55C348.757 236.55 347.626 235.054 347.626 232.481C347.63 229.915 348.765 228.438 350.652 228.438C352.539 228.438 353.678 229.919 353.678 232.481C353.678 235.058 352.546 236.554 350.652 236.55ZM350.652 235.35C351.634 235.35 352.243 234.368 352.243 232.481C352.24 230.609 351.63 229.624 350.652 229.624C349.678 229.624 349.068 230.609 349.064 232.481C349.06 234.368 349.674 235.35 350.652 235.35ZM355.517 236.485C355.049 236.485 354.669 236.109 354.673 235.641C354.669 235.181 355.049 234.805 355.517 234.805C355.969 234.805 356.357 235.181 356.36 235.641C356.357 236.109 355.969 236.485 355.517 236.485ZM360.376 236.55C358.481 236.55 357.35 235.054 357.35 232.481C357.354 229.915 358.489 228.438 360.376 228.438C362.263 228.438 363.402 229.919 363.402 232.481C363.402 235.058 362.271 236.554 360.376 236.55ZM360.376 235.35C361.358 235.35 361.968 234.368 361.968 232.481C361.964 230.609 361.354 229.624 360.376 229.624C359.402 229.624 358.792 230.609 358.788 232.481C358.784 234.368 359.398 235.35 360.376 235.35ZM367.579 236.55C365.685 236.55 364.553 235.054 364.553 232.481C364.557 229.915 365.693 228.438 367.579 228.438C369.466 228.438 370.605 229.919 370.605 232.481C370.605 235.058 369.474 236.554 367.579 236.55ZM367.579 235.35C368.561 235.35 369.171 234.368 369.171 232.481C369.167 230.609 368.557 229.624 367.579 229.624C366.605 229.624 365.996 230.609 365.992 232.481C365.988 234.368 366.601 235.35 367.579 235.35ZM374.783 236.55C372.888 236.55 371.757 235.054 371.757 232.481C371.761 229.915 372.896 228.438 374.783 228.438C376.67 228.438 377.809 229.919 377.809 232.481C377.809 235.058 376.678 236.554 374.783 236.55ZM374.783 235.35C375.765 235.35 376.375 234.368 376.375 232.481C376.371 230.609 375.761 229.624 374.783 229.624C373.809 229.624 373.199 230.609 373.195 232.481C373.191 234.368 373.805 235.35 374.783 235.35ZM381.986 236.55C380.092 236.55 378.96 235.054 378.96 232.481C378.964 229.915 380.1 228.438 381.986 228.438C383.873 228.438 385.012 229.919 385.012 232.481C385.012 235.058 383.881 236.554 381.986 236.55ZM381.986 235.35C382.968 235.35 383.578 234.368 383.578 232.481C383.574 230.609 382.964 229.624 381.986 229.624C381.012 229.624 380.403 230.609 380.399 232.481C380.395 234.368 381.008 235.35 381.986 235.35ZM389.19 236.55C387.295 236.55 386.164 235.054 386.164 232.481C386.168 229.915 387.303 228.438 389.19 228.438C391.077 228.438 392.216 229.919 392.216 232.481C392.216 235.058 391.085 236.554 389.19 236.55ZM389.19 235.35C390.172 235.35 390.782 234.368 390.782 232.481C390.778 230.609 390.168 229.624 389.19 229.624C388.216 229.624 387.606 230.609 387.602 232.481C387.598 234.368 388.212 235.35 389.19 235.35ZM396.221 236.508C394.867 236.508 393.824 235.775 393.567 234.709C393.502 234.429 393.678 234.264 393.962 234.264H394.514C394.764 234.264 394.879 234.391 394.978 234.625C395.174 235.07 395.653 235.357 396.221 235.357C397.061 235.357 397.667 234.732 397.663 233.854C397.667 232.964 397.046 232.327 396.183 232.324C395.83 232.32 395.462 232.431 395.189 232.607C395.001 232.73 394.856 232.791 394.637 232.757L394.066 232.661C393.801 232.619 393.678 232.454 393.705 232.189L394.031 228.945C394.058 228.684 394.211 228.546 394.476 228.546H398.208C398.48 228.546 398.629 228.695 398.629 228.968V229.313C398.629 229.585 398.48 229.735 398.208 229.735H395.251L395.024 231.817H395.07C395.362 231.472 395.926 231.219 396.562 231.219C397.989 231.219 399.04 232.308 399.04 233.819C399.04 235.38 397.882 236.508 396.221 236.508ZM408.269 230.705H407.721C407.472 230.705 407.357 230.582 407.253 230.348C407.05 229.9 406.551 229.643 405.868 229.643C404.979 229.643 404.449 230.076 404.446 230.667C404.438 231.323 405.136 231.595 405.78 231.748L406.517 231.932C407.698 232.212 408.822 232.834 408.825 234.195C408.822 235.58 407.729 236.519 405.845 236.519C404.196 236.519 403.092 235.806 402.846 234.525C402.793 234.241 402.961 234.08 403.245 234.08H403.817C404.07 234.08 404.185 234.21 404.273 234.452C404.488 235.024 405.09 235.304 405.834 235.304C406.762 235.304 407.399 234.855 407.403 234.184C407.399 233.574 406.839 233.309 405.991 233.094L405.098 232.864C403.805 232.531 403.004 231.882 403.004 230.755C403 229.367 404.238 228.438 405.888 228.438C407.368 228.438 408.423 229.175 408.664 230.26C408.726 230.54 408.553 230.705 408.269 230.705ZM417.112 232.473C417.112 235.012 415.563 236.508 413.503 236.508C411.44 236.508 409.894 235.008 409.894 232.473C409.894 229.934 411.44 228.438 413.503 228.438C415.563 228.438 417.112 229.934 417.112 232.473ZM415.682 232.473C415.682 230.686 414.784 229.716 413.503 229.716C412.226 229.716 411.325 230.686 411.325 232.473C411.325 234.26 412.226 235.231 413.503 235.231C414.784 235.231 415.682 234.26 415.682 232.473ZM418.458 235.979V228.968C418.458 228.695 418.607 228.546 418.879 228.546H419.459C419.731 228.546 419.88 228.695 419.88 228.968V235.208H422.918C423.19 235.208 423.34 235.357 423.34 235.63V235.979C423.34 236.251 423.19 236.4 422.918 236.4H418.879C418.607 236.4 418.458 236.251 418.458 235.979Z" fill="#FAFAFA"/>
<line x1="70.6" y1="167.351" x2="423.4" y2="167.351" stroke="#2E2D35" stroke-width="0.9" stroke-dasharray="1.8 1.8"/>
<line x1="70.6" y1="210.55" x2="423.4" y2="210.55" stroke="#2E2D35" stroke-width="0.9" stroke-dasharray="1.8 1.8"/>
<line x1="70.6" y1="253.749" x2="423.4" y2="253.749" stroke="#2E2D35" stroke-width="0.9" stroke-dasharray="1.8 1.8"/>
<path d="M70.6 286.601C70.6 280.636 75.4353 275.801 81.4 275.801H412.6C418.565 275.801 423.4 280.636 423.4 286.601V315.601C423.4 321.565 418.565 326.401 412.6 326.401H81.4C75.4353 326.401 70.6 321.565 70.6 315.601V286.601Z" fill="#AB9FF2" fill-opacity="0.1"/>
<g filter="url(#filter0_i_850_14275)">
<path d="M96.9994 293.801V297.401C96.9994 298.727 95.9254 299.801 94.5994 299.801H89.7994C88.4734 299.801 87.3994 298.727 87.3994 297.401V293.801C87.3994 293.471 87.6694 293.201 87.9994 293.201H89.1814C89.5114 293.201 89.7814 293.471 89.7814 293.801V295.685C89.7814 296.129 90.0274 296.537 90.4174 296.747C90.5914 296.843 90.7834 296.891 90.9814 296.891C91.2094 296.891 91.4374 296.825 91.6354 296.693L92.2054 296.321L92.7334 296.675C93.0994 296.921 93.5674 296.951 93.9574 296.741C94.3534 296.531 94.5994 296.129 94.5994 295.679V293.801C94.5994 293.471 94.8694 293.201 95.1994 293.201H96.3994C96.7294 293.201 96.9994 293.471 96.9994 293.801Z" fill="#AB9FF2"/>
<path d="M97.8994 290.802V291.402C97.8994 292.062 97.5814 292.602 96.6994 292.602H87.6994C86.7814 292.602 86.4994 292.062 86.4994 291.402V290.802C86.4994 290.142 86.7814 289.602 87.6994 289.602H96.6994C97.5814 289.602 97.8994 290.142 97.8994 290.802Z" fill="#AB9FF2"/>
<path d="M91.9832 289.603H88.6712C88.4672 289.381 88.4732 289.039 88.6892 288.823L89.5412 287.971C89.7632 287.749 90.1292 287.749 90.3512 287.971L91.9832 289.603Z" fill="#AB9FF2"/>
<path d="M95.7212 289.603H92.4092L94.0412 287.971C94.2632 287.749 94.6292 287.749 94.8512 287.971L95.7032 288.823C95.9192 289.039 95.9252 289.381 95.7212 289.603Z" fill="#AB9FF2"/>
<path d="M93.3829 293.201C93.7129 293.201 93.9829 293.471 93.9829 293.801V295.679C93.9829 296.159 93.4489 296.447 93.0529 296.177L92.5129 295.817C92.3149 295.685 92.0569 295.685 91.8529 295.817L91.2889 296.189C90.8929 296.453 90.3649 296.165 90.3649 295.691V293.801C90.3649 293.471 90.6349 293.201 90.9649 293.201H93.3829Z" fill="#AB9FF2"/>
</g>
<path d="M111.021 289.747H111.707C111.941 289.747 112.098 289.839 112.21 290.042L113.966 293.222H114.043L115.799 290.042C115.911 289.839 116.068 289.747 116.302 289.747H116.988C117.322 289.747 117.449 289.962 117.28 290.253L114.714 294.671V297.18C114.714 297.452 114.564 297.602 114.292 297.602H113.717C113.445 297.602 113.295 297.452 113.295 297.18V294.671L110.729 290.253C110.56 289.962 110.687 289.747 111.021 289.747ZM119.99 297.717C118.264 297.717 117.168 296.501 117.168 294.679C117.168 292.854 118.264 291.634 119.99 291.634C121.716 291.634 122.813 292.854 122.813 294.679C122.813 296.501 121.716 297.717 119.99 297.717ZM119.998 296.604C120.938 296.604 121.406 295.753 121.406 294.675C121.406 293.598 120.938 292.735 119.998 292.735C119.043 292.735 118.575 293.598 118.575 294.675C118.575 295.753 119.043 296.604 119.998 296.604ZM127.746 295.124V292.133C127.746 291.86 127.896 291.711 128.168 291.711H128.713C128.985 291.711 129.134 291.86 129.134 292.133V297.18C129.134 297.452 128.985 297.602 128.713 297.602H128.21C127.938 297.602 127.788 297.452 127.788 297.18V296.555H127.727C127.458 297.214 126.837 297.678 125.955 297.678C124.797 297.678 123.991 296.877 123.991 295.462V292.133C123.991 291.86 124.141 291.711 124.413 291.711H124.958C125.23 291.711 125.38 291.86 125.38 292.133V295.247C125.38 295.995 125.825 296.466 126.492 296.466C127.106 296.466 127.746 296.021 127.746 295.124ZM130.562 297.18V292.133C130.562 291.86 130.712 291.711 130.984 291.711H131.486C131.759 291.711 131.908 291.86 131.908 292.133V292.692H131.97C132.184 292.01 132.748 291.626 133.423 291.626H133.523C133.788 291.638 133.922 291.803 133.922 292.067V292.489C133.922 292.777 133.807 292.907 133.603 292.88C133.496 292.869 133.381 292.861 133.277 292.861C132.514 292.861 131.95 293.39 131.95 294.138V297.18C131.95 297.452 131.801 297.602 131.529 297.602H130.984C130.712 297.602 130.562 297.452 130.562 297.18ZM141.278 295.124V292.133C141.278 291.86 141.427 291.711 141.7 291.711H142.244C142.517 291.711 142.666 291.86 142.666 292.133V297.18C142.666 297.452 142.517 297.602 142.244 297.602H141.742C141.47 297.602 141.32 297.452 141.32 297.18V296.555H141.259C140.99 297.214 140.369 297.678 139.487 297.678C138.328 297.678 137.523 296.877 137.523 295.462V292.133C137.523 291.86 137.673 291.711 137.945 291.711H138.49C138.762 291.711 138.911 291.86 138.911 292.133V295.247C138.911 295.995 139.356 296.466 140.024 296.466C140.637 296.466 141.278 296.021 141.278 295.124ZM145.482 294.15V297.18C145.482 297.452 145.333 297.602 145.06 297.602H144.516C144.243 297.602 144.094 297.452 144.094 297.18V292.133C144.094 291.86 144.243 291.711 144.516 291.711H144.999C145.271 291.711 145.421 291.86 145.421 292.133V292.712H145.49C145.758 292.056 146.364 291.634 147.246 291.634C148.462 291.634 149.267 292.439 149.264 293.851V297.18C149.264 297.452 149.114 297.602 148.842 297.602H148.297C148.025 297.602 147.875 297.452 147.875 297.18V294.065C147.875 293.279 147.446 292.808 146.729 292.808C145.996 292.808 145.482 293.298 145.482 294.15ZM153.245 297.717C151.484 297.717 150.422 296.463 150.422 294.679C150.422 292.88 151.511 291.634 153.237 291.634C154.495 291.634 155.419 292.278 155.691 293.295C155.768 293.578 155.596 293.751 155.308 293.751H154.806C154.56 293.751 154.437 293.632 154.33 293.406C154.142 293.018 153.778 292.754 153.256 292.754C152.401 292.754 151.829 293.467 151.829 294.656C151.829 295.86 152.389 296.585 153.256 296.585C153.743 296.585 154.131 296.355 154.33 295.937C154.437 295.707 154.564 295.588 154.809 295.588H155.308C155.599 295.588 155.764 295.738 155.707 295.983C155.458 297.019 154.564 297.717 153.245 297.717ZM158.297 290.169V297.18C158.297 297.452 158.147 297.602 157.875 297.602H157.33C157.058 297.602 156.908 297.452 156.908 297.18V290.169C156.908 289.897 157.058 289.747 157.33 289.747H157.875C158.147 289.747 158.297 289.897 158.297 290.169ZM161.419 297.72C160.296 297.72 159.448 297.107 159.448 295.949C159.448 294.622 160.541 294.28 161.684 294.158C162.723 294.046 163.141 294.027 163.141 293.628V293.605C163.141 293.026 162.789 292.696 162.144 292.696C161.65 292.696 161.308 292.88 161.105 293.134C160.955 293.329 160.821 293.429 160.579 293.394L160.115 293.329C159.82 293.287 159.678 293.084 159.82 292.815C160.238 292.033 161.082 291.634 162.137 291.634C163.26 291.634 164.53 292.102 164.53 293.659V297.18C164.53 297.452 164.38 297.602 164.108 297.602H163.617C163.345 297.602 163.195 297.456 163.195 297.195V296.792H163.149C162.896 297.287 162.344 297.72 161.419 297.72ZM161.78 296.7C162.616 296.7 163.145 296.144 163.145 295.488V294.794C162.965 294.94 162.236 295.032 161.872 295.082C161.251 295.17 160.787 295.392 160.787 295.926C160.787 296.436 161.201 296.7 161.78 296.7ZM166.624 290.875C166.179 290.875 165.818 290.537 165.818 290.123C165.818 289.705 166.179 289.367 166.624 289.367C167.065 289.367 167.425 289.705 167.425 290.123C167.425 290.537 167.065 290.875 166.624 290.875ZM165.926 297.18V292.133C165.926 291.86 166.075 291.711 166.348 291.711H166.892C167.165 291.711 167.314 291.86 167.314 292.133V297.18C167.314 297.452 167.165 297.602 166.892 297.602H166.348C166.075 297.602 165.926 297.452 165.926 297.18ZM168.742 297.18V292.133C168.742 291.86 168.891 291.711 169.164 291.711H169.647C169.919 291.711 170.069 291.86 170.069 292.133V292.712H170.138C170.383 292.04 170.974 291.634 171.764 291.634C172.558 291.634 173.129 292.044 173.356 292.712H173.417C173.678 292.056 174.33 291.634 175.185 291.634C176.267 291.634 177.026 292.332 177.026 293.647V297.18C177.026 297.452 176.876 297.602 176.604 297.602H176.056C175.783 297.602 175.634 297.452 175.634 297.18V293.862C175.634 293.134 175.189 292.804 174.629 292.804C173.958 292.804 173.563 293.264 173.563 293.927V297.18C173.563 297.452 173.413 297.602 173.141 297.602H172.623C172.351 297.602 172.201 297.452 172.201 297.18V293.805C172.201 293.199 171.798 292.804 171.212 292.804C170.613 292.804 170.13 293.295 170.13 294.019V297.18C170.13 297.452 169.981 297.602 169.708 297.602H169.164C168.891 297.602 168.742 297.452 168.742 297.18ZM181.042 297.717C179.267 297.717 178.181 296.539 178.181 294.691C178.181 292.873 179.282 291.634 180.969 291.634C182.419 291.634 183.662 292.543 183.662 294.61V294.614C183.662 294.886 183.512 295.036 183.24 295.036H179.558C179.57 296.044 180.164 296.635 181.062 296.635C181.522 296.635 181.901 296.482 182.135 296.183C182.285 295.987 182.423 295.887 182.661 295.914L183.129 295.968C183.424 296.002 183.577 296.163 183.482 296.382C183.121 297.199 182.247 297.717 181.042 297.717ZM179.562 294.1H182.331C182.323 293.298 181.786 292.715 180.989 292.715C180.16 292.715 179.604 293.348 179.562 294.1ZM187.022 297.705C185.634 297.705 184.595 296.604 184.595 294.664C184.595 292.7 185.665 291.634 187.026 291.634C188.066 291.634 188.499 292.259 188.71 292.685H188.767V290.169C188.767 289.897 188.917 289.747 189.189 289.747H189.738C190.01 289.747 190.16 289.897 190.16 290.169V297.18C190.16 297.452 190.01 297.602 189.738 297.602H189.216C188.944 297.602 188.794 297.452 188.794 297.18V296.673H188.71C188.491 297.103 188.035 297.705 187.022 297.705ZM187.41 296.566C188.296 296.566 188.794 295.799 188.794 294.656C188.794 293.513 188.303 292.773 187.41 292.773C186.485 292.773 186.01 293.559 186.01 294.656C186.01 295.761 186.493 296.566 187.41 296.566ZM194.318 297.18V292.133C194.318 291.86 194.468 291.711 194.74 291.711H195.242C195.515 291.711 195.664 291.86 195.664 292.133V292.692H195.726C195.94 292.01 196.504 291.626 197.179 291.626H197.279C197.543 291.638 197.678 291.803 197.678 292.067V292.489C197.678 292.777 197.563 292.907 197.359 292.88C197.252 292.869 197.137 292.861 197.033 292.861C196.27 292.861 195.706 293.39 195.706 294.138V297.18C195.706 297.452 195.557 297.602 195.284 297.602H194.74C194.468 297.602 194.318 297.452 194.318 297.18ZM200.965 297.717C199.19 297.717 198.104 296.539 198.104 294.691C198.104 292.873 199.205 291.634 200.893 291.634C202.342 291.634 203.585 292.543 203.585 294.61V294.614C203.585 294.886 203.435 295.036 203.163 295.036H199.481C199.493 296.044 200.087 296.635 200.985 296.635C201.445 296.635 201.824 296.482 202.058 296.183C202.208 295.987 202.346 295.887 202.584 295.914L203.052 295.968C203.347 296.002 203.5 296.163 203.405 296.382C203.044 297.199 202.17 297.717 200.965 297.717ZM199.485 294.1H202.254C202.246 293.298 201.709 292.715 200.912 292.715C200.083 292.715 199.527 293.348 199.485 294.1ZM205.844 297.245L204.413 292.186C204.333 291.895 204.467 291.711 204.77 291.711H205.318C205.571 291.711 205.725 291.83 205.786 292.075L206.73 295.853H206.783L207.75 292.075C207.811 291.833 207.969 291.711 208.218 291.711H208.866C209.115 291.711 209.272 291.833 209.334 292.075L210.3 295.83H210.358L211.286 292.075C211.347 291.83 211.501 291.711 211.754 291.711H212.306C212.609 291.711 212.743 291.895 212.663 292.186L211.228 297.245C211.159 297.483 211.006 297.602 210.757 297.602H210.055C209.806 297.602 209.648 297.487 209.583 297.245L208.578 293.621H208.498L207.493 297.245C207.428 297.487 207.271 297.602 207.021 297.602H206.316C206.066 297.602 205.913 297.483 205.844 297.245ZM215.462 297.72C214.338 297.72 213.49 297.107 213.49 295.949C213.49 294.622 214.583 294.28 215.726 294.158C216.766 294.046 217.184 294.027 217.184 293.628V293.605C217.184 293.026 216.831 292.696 216.186 292.696C215.692 292.696 215.35 292.88 215.147 293.134C214.998 293.329 214.863 293.429 214.622 293.394L214.158 293.329C213.862 293.287 213.72 293.084 213.862 292.815C214.28 292.033 215.124 291.634 216.179 291.634C217.303 291.634 218.572 292.102 218.572 293.659V297.18C218.572 297.452 218.422 297.602 218.15 297.602H217.659C217.387 297.602 217.237 297.456 217.237 297.195V296.792H217.191C216.938 297.287 216.386 297.72 215.462 297.72ZM215.822 296.7C216.658 296.7 217.187 296.144 217.187 295.488V294.794C217.007 294.94 216.278 295.032 215.914 295.082C215.293 295.17 214.829 295.392 214.829 295.926C214.829 296.436 215.243 296.7 215.822 296.7ZM219.968 297.18V292.133C219.968 291.86 220.118 291.711 220.39 291.711H220.892C221.165 291.711 221.314 291.86 221.314 292.133V292.692H221.376C221.59 292.01 222.154 291.626 222.829 291.626H222.929C223.193 291.638 223.328 291.803 223.328 292.067V292.489C223.328 292.777 223.213 292.907 223.009 292.88C222.902 292.869 222.787 292.861 222.683 292.861C221.92 292.861 221.356 293.39 221.356 294.138V297.18C221.356 297.452 221.207 297.602 220.934 297.602H220.39C220.118 297.602 219.968 297.452 219.968 297.18ZM226.194 297.705C224.805 297.705 223.766 296.604 223.766 294.664C223.766 292.7 224.836 291.634 226.197 291.634C227.237 291.634 227.67 292.259 227.881 292.685H227.939V290.169C227.939 289.897 228.088 289.747 228.36 289.747H228.909C229.181 289.747 229.331 289.897 229.331 290.169V297.18C229.331 297.452 229.181 297.602 228.909 297.602H228.387C228.115 297.602 227.965 297.452 227.965 297.18V296.673H227.881C227.662 297.103 227.206 297.705 226.194 297.705ZM226.581 296.566C227.467 296.566 227.965 295.799 227.965 294.656C227.965 293.513 227.474 292.773 226.581 292.773C225.657 292.773 225.181 293.559 225.181 294.656C225.181 295.761 225.664 296.566 226.581 296.566ZM235.002 293.318L234.561 293.367C234.319 293.394 234.189 293.287 234.047 293.084C233.871 292.846 233.568 292.669 233.115 292.669C232.536 292.669 232.095 292.946 232.099 293.344C232.095 293.686 232.333 293.893 232.931 294.027L233.936 294.242C235.048 294.484 235.589 294.997 235.593 295.837C235.589 296.953 234.55 297.717 233.077 297.717C231.842 297.717 230.998 297.249 230.672 296.436C230.561 296.163 230.722 295.975 231.01 295.949L231.535 295.899C231.78 295.876 231.907 295.987 232.041 296.202C232.237 296.512 232.59 296.67 233.073 296.67C233.733 296.67 234.17 296.367 234.17 295.964C234.17 295.63 233.917 295.412 233.376 295.293L232.371 295.082C231.24 294.848 230.71 294.28 230.714 293.421C230.71 292.332 231.677 291.634 233.096 291.634C234.258 291.634 235.01 292.087 235.332 292.823C235.447 293.095 235.294 293.287 235.002 293.318ZM241.986 297.717C240.26 297.717 239.163 296.501 239.163 294.679C239.163 292.854 240.26 291.634 241.986 291.634C243.712 291.634 244.809 292.854 244.809 294.679C244.809 296.501 243.712 297.717 241.986 297.717ZM241.994 296.604C242.933 296.604 243.401 295.753 243.401 294.675C243.401 293.598 242.933 292.735 241.994 292.735C241.039 292.735 240.571 293.598 240.571 294.675C240.571 295.753 241.039 296.604 241.994 296.604ZM248.971 292.133V292.363C248.971 292.635 248.821 292.785 248.549 292.785H247.747V297.18C247.747 297.452 247.598 297.602 247.326 297.602H246.781C246.509 297.602 246.359 297.452 246.359 297.18V292.785H245.91C245.638 292.785 245.489 292.635 245.489 292.363V292.133C245.489 291.86 245.638 291.711 245.91 291.711H246.359V291.155C246.359 289.966 247.176 289.379 248.2 289.379C248.442 289.379 248.664 289.406 248.848 289.436C249.117 289.486 249.216 289.682 249.147 289.95L249.078 290.219C249.013 290.476 248.89 290.583 248.722 290.552C248.641 290.537 248.553 290.529 248.457 290.529C247.939 290.529 247.747 290.786 247.747 291.247V291.711H248.549C248.821 291.711 248.971 291.86 248.971 292.133ZM255.917 290.169V297.18C255.917 297.452 255.767 297.602 255.495 297.602H254.916C254.643 297.602 254.494 297.452 254.494 297.18V291.132H254.448L253.121 291.979C252.833 292.163 252.611 292.04 252.611 291.699V291.331C252.611 291.105 252.691 290.951 252.887 290.825L254.325 289.9C254.497 289.789 254.643 289.747 254.847 289.747H255.495C255.767 289.747 255.917 289.897 255.917 290.169ZM257.911 297.18V296.881C257.911 296.666 257.976 296.512 258.129 296.359L260.638 293.901C261.412 293.114 261.811 292.646 261.811 291.991C261.811 291.25 261.255 290.794 260.507 290.794C259.863 290.794 259.407 291.135 259.265 291.703C259.199 291.96 259.081 292.098 258.82 292.098H258.302C258.022 292.098 257.853 291.941 257.899 291.661C258.095 290.418 259.127 289.64 260.526 289.64C262.107 289.64 263.177 290.602 263.177 291.918C263.177 292.804 262.755 293.517 261.228 294.982L259.874 296.359V296.413H262.874C263.146 296.413 263.295 296.562 263.295 296.835V297.18C263.295 297.452 263.146 297.602 262.874 297.602H258.333C258.06 297.602 257.911 297.452 257.911 297.18ZM267.522 297.751C265.627 297.751 264.496 296.255 264.496 293.682C264.5 291.116 265.635 289.64 267.522 289.64C269.409 289.64 270.548 291.12 270.548 293.682C270.548 296.259 269.417 297.755 267.522 297.751ZM267.522 296.551C268.504 296.551 269.114 295.569 269.114 293.682C269.11 291.81 268.5 290.825 267.522 290.825C266.548 290.825 265.938 291.81 265.934 293.682C265.93 295.569 266.544 296.551 267.522 296.551ZM272.387 297.686C271.919 297.686 271.539 297.31 271.543 296.842C271.539 296.382 271.919 296.006 272.387 296.006C272.839 296.006 273.227 296.382 273.231 296.842C273.227 297.31 272.839 297.686 272.387 297.686ZM277.204 297.709C275.739 297.709 274.642 296.992 274.381 295.91C274.316 295.63 274.492 295.465 274.776 295.465H275.39C275.639 295.465 275.747 295.592 275.854 295.826C276.053 296.255 276.571 296.516 277.2 296.516C278.04 296.516 278.642 296.041 278.638 295.346C278.642 294.637 278.052 294.138 277.058 294.138H276.786C276.514 294.138 276.364 293.989 276.364 293.716V293.463C276.364 293.191 276.514 293.041 276.786 293.041H277.058C277.871 293.041 278.439 292.585 278.435 291.899C278.439 291.239 277.952 290.794 277.219 290.794C276.64 290.794 276.13 291.055 275.938 291.5C275.839 291.738 275.735 291.864 275.482 291.864H274.937C274.654 291.864 274.481 291.699 274.546 291.419C274.799 290.349 275.881 289.64 277.227 289.64C278.796 289.64 279.816 290.618 279.812 291.814C279.816 292.696 279.244 293.329 278.393 293.513V293.575C279.494 293.732 280.107 294.438 280.103 295.419C280.107 296.746 278.884 297.709 277.204 297.709ZM281.42 297.18V296.881C281.42 296.666 281.485 296.512 281.638 296.359L284.147 293.901C284.921 293.114 285.32 292.646 285.32 291.991C285.32 291.25 284.764 290.794 284.016 290.794C283.372 290.794 282.916 291.135 282.774 291.703C282.708 291.96 282.59 292.098 282.329 292.098H281.811C281.531 292.098 281.362 291.941 281.408 291.661C281.604 290.418 282.636 289.64 284.035 289.64C285.616 289.64 286.686 290.602 286.686 291.918C286.686 292.804 286.264 293.517 284.737 294.982L283.383 296.359V296.413H286.383C286.655 296.413 286.804 296.562 286.804 296.835V297.18C286.804 297.452 286.655 297.602 286.383 297.602H281.842C281.569 297.602 281.42 297.452 281.42 297.18ZM297.115 292.255H296.502C296.26 292.255 296.122 292.144 296.015 291.922C295.704 291.289 295.114 290.917 294.3 290.917C293.031 290.917 292.114 291.899 292.114 293.667C292.114 295.446 293.016 296.432 294.331 296.432C295.512 296.432 296.26 295.722 296.283 294.602H294.895C294.623 294.602 294.473 294.453 294.473 294.181V293.912C294.473 293.64 294.623 293.49 294.895 293.49H297.238C297.511 293.49 297.66 293.64 297.66 293.912V294.434C297.66 296.459 296.268 297.709 294.323 297.709C292.157 297.709 290.684 296.167 290.684 293.682C290.684 291.151 292.226 289.64 294.281 289.64C295.838 289.64 297.069 290.503 297.484 291.787C297.576 292.075 297.415 292.255 297.115 292.255ZM299.036 297.18V290.169C299.036 289.897 299.186 289.747 299.458 289.747H301.981C303.784 289.747 304.75 290.76 304.75 292.259C304.75 293.325 304.263 294.115 303.339 294.487L304.762 297.099C304.919 297.391 304.796 297.602 304.467 297.602H303.788C303.554 297.602 303.4 297.51 303.289 297.302L301.909 294.725H300.459V297.18C300.459 297.452 300.309 297.602 300.037 297.602H299.458C299.186 297.602 299.036 297.452 299.036 297.18ZM300.459 293.544H301.77C302.825 293.544 303.301 293.095 303.301 292.259C303.301 291.423 302.825 290.936 301.763 290.936H300.459V293.544ZM306.705 297.602H306.064C305.753 297.602 305.615 297.41 305.719 297.118L308.196 290.088C308.277 289.854 308.43 289.747 308.676 289.747H309.711C309.957 289.747 310.11 289.854 310.191 290.088L312.672 297.118C312.776 297.41 312.638 297.602 312.327 297.602H311.686C311.441 297.602 311.284 297.49 311.207 297.256L310.67 295.665H307.717L307.184 297.256C307.107 297.49 306.95 297.602 306.705 297.602ZM308.101 294.522H310.287L309.224 291.358H309.163L308.101 294.522ZM317.609 297.245L316.178 292.186C316.098 291.895 316.232 291.711 316.535 291.711H317.084C317.337 291.711 317.49 291.83 317.551 292.075L318.495 295.853H318.549L319.515 292.075C319.576 291.833 319.734 291.711 319.983 291.711H320.631C320.88 291.711 321.038 291.833 321.099 292.075L322.066 295.83H322.123L323.051 292.075C323.113 291.83 323.266 291.711 323.519 291.711H324.071C324.374 291.711 324.509 291.895 324.428 292.186L322.994 297.245C322.925 297.483 322.771 297.602 322.522 297.602H321.82C321.571 297.602 321.414 297.487 321.348 297.245L320.344 293.621H320.263L319.258 297.245C319.193 297.487 319.036 297.602 318.786 297.602H318.081C317.831 297.602 317.678 297.483 317.609 297.245ZM326.23 290.875C325.785 290.875 325.424 290.537 325.424 290.123C325.424 289.705 325.785 289.367 326.23 289.367C326.671 289.367 327.031 289.705 327.031 290.123C327.031 290.537 326.671 290.875 326.23 290.875ZM325.532 297.18V292.133C325.532 291.86 325.681 291.711 325.954 291.711H326.498C326.77 291.711 326.92 291.86 326.92 292.133V297.18C326.92 297.452 326.77 297.602 326.498 297.602H325.954C325.681 297.602 325.532 297.452 325.532 297.18ZM329.736 290.169V297.18C329.736 297.452 329.586 297.602 329.314 297.602H328.77C328.497 297.602 328.348 297.452 328.348 297.18V290.169C328.348 289.897 328.497 289.747 328.77 289.747H329.314C329.586 289.747 329.736 289.897 329.736 290.169ZM332.552 290.169V297.18C332.552 297.452 332.402 297.602 332.13 297.602H331.586C331.313 297.602 331.164 297.452 331.164 297.18V290.169C331.164 289.897 331.313 289.747 331.586 289.747H332.13C332.402 289.747 332.552 289.897 332.552 290.169ZM336.72 297.18V290.169C336.72 289.897 336.87 289.747 337.142 289.747H337.686C337.959 289.747 338.108 289.897 338.108 290.169V292.685H338.166C338.377 292.259 338.81 291.634 339.85 291.634C341.211 291.634 342.281 292.7 342.281 294.664C342.281 296.604 341.242 297.705 339.853 297.705C338.841 297.705 338.384 297.103 338.166 296.673H338.085V297.18C338.085 297.452 337.936 297.602 337.663 297.602H337.142C336.87 297.602 336.72 297.452 336.72 297.18ZM338.081 294.656C338.081 295.799 338.58 296.566 339.466 296.566C340.383 296.566 340.866 295.761 340.866 294.656C340.866 293.559 340.39 292.773 339.466 292.773C338.572 292.773 338.081 293.513 338.081 294.656ZM346.069 297.717C344.294 297.717 343.208 296.539 343.208 294.691C343.208 292.873 344.309 291.634 345.996 291.634C347.446 291.634 348.689 292.543 348.689 294.61V294.614C348.689 294.886 348.539 295.036 348.267 295.036H344.585C344.597 296.044 345.191 296.635 346.088 296.635C346.549 296.635 346.928 296.482 347.162 296.183C347.312 295.987 347.45 295.887 347.688 295.914L348.156 295.968C348.451 296.002 348.604 296.163 348.508 296.382C348.148 297.199 347.274 297.717 346.069 297.717ZM344.589 294.1H347.358C347.35 293.298 346.813 292.715 346.016 292.715C345.187 292.715 344.631 293.348 344.589 294.1ZM112.608 312.72C111.485 312.72 110.637 312.107 110.637 310.949C110.637 309.622 111.73 309.28 112.873 309.158C113.912 309.046 114.33 309.027 114.33 308.628V308.605C114.33 308.026 113.978 307.696 113.333 307.696C112.839 307.696 112.497 307.88 112.294 308.134C112.144 308.329 112.01 308.429 111.769 308.394L111.304 308.329C111.009 308.287 110.867 308.084 111.009 307.815C111.427 307.033 112.271 306.634 113.326 306.634C114.449 306.634 115.719 307.102 115.719 308.659V312.18C115.719 312.452 115.569 312.602 115.297 312.602H114.806C114.534 312.602 114.384 312.456 114.384 312.195V311.792H114.338C114.085 312.287 113.533 312.72 112.608 312.72ZM112.969 311.7C113.805 311.7 114.334 311.144 114.334 310.488V309.794C114.154 309.94 113.425 310.032 113.061 310.082C112.44 310.17 111.976 310.392 111.976 310.926C111.976 311.436 112.39 311.7 112.969 311.7ZM120.87 310.124V307.133C120.87 306.86 121.019 306.711 121.291 306.711H121.836C122.108 306.711 122.258 306.86 122.258 307.133V312.18C122.258 312.452 122.108 312.602 121.836 312.602H121.334C121.061 312.602 120.912 312.452 120.912 312.18V311.555H120.85C120.582 312.214 119.961 312.678 119.079 312.678C117.92 312.678 117.115 311.877 117.115 310.462V307.133C117.115 306.86 117.264 306.711 117.537 306.711H118.081C118.354 306.711 118.503 306.86 118.503 307.133V310.247C118.503 310.995 118.948 311.466 119.615 311.466C120.229 311.466 120.87 311.021 120.87 310.124ZM126.627 307.133V307.363C126.627 307.635 126.478 307.785 126.205 307.785H125.465V310.83C125.465 311.39 125.745 311.512 126.094 311.512H126.102C126.236 311.512 126.527 311.593 126.585 311.854L126.646 312.138C126.704 312.402 126.6 312.598 126.332 312.644C126.213 312.663 126.075 312.678 125.918 312.682C124.874 312.713 124.069 312.168 124.077 311.06V307.785H123.663C123.39 307.785 123.241 307.635 123.241 307.363V307.133C123.241 306.86 123.39 306.711 123.659 306.711H124.077V305.721C124.077 305.449 124.226 305.299 124.499 305.299H125.043C125.316 305.299 125.465 305.449 125.465 305.721V306.711H126.205C126.478 306.711 126.627 306.86 126.627 307.133ZM130.295 312.717C128.569 312.717 127.472 311.501 127.472 309.679C127.472 307.854 128.569 306.634 130.295 306.634C132.02 306.634 133.117 307.854 133.117 309.679C133.117 311.501 132.02 312.717 130.295 312.717ZM130.302 311.604C131.242 311.604 131.71 310.753 131.71 309.675C131.71 308.598 131.242 307.735 130.302 307.735C129.347 307.735 128.879 308.598 128.879 309.675C128.879 310.753 129.347 311.604 130.302 311.604ZM134.296 312.18V307.133C134.296 306.86 134.445 306.711 134.718 306.711H135.201C135.473 306.711 135.623 306.86 135.623 307.133V307.712H135.692C135.937 307.04 136.528 306.634 137.318 306.634C138.112 306.634 138.683 307.044 138.91 307.712H138.971C139.232 307.056 139.884 306.634 140.739 306.634C141.82 306.634 142.58 307.332 142.58 308.647V312.18C142.58 312.452 142.43 312.602 142.158 312.602H141.61C141.337 312.602 141.188 312.452 141.188 312.18V308.862C141.188 308.134 140.743 307.804 140.183 307.804C139.512 307.804 139.117 308.264 139.117 308.927V312.18C139.117 312.452 138.967 312.602 138.695 312.602H138.177C137.905 312.602 137.755 312.452 137.755 312.18V308.805C137.755 308.199 137.352 307.804 136.766 307.804C136.167 307.804 135.684 308.295 135.684 309.019V312.18C135.684 312.452 135.535 312.602 135.262 312.602H134.718C134.445 312.602 134.296 312.452 134.296 312.18ZM145.683 312.72C144.56 312.72 143.712 312.107 143.712 310.949C143.712 309.622 144.805 309.28 145.948 309.158C146.987 309.046 147.405 309.027 147.405 308.628V308.605C147.405 308.026 147.053 307.696 146.408 307.696C145.914 307.696 145.572 307.88 145.369 308.134C145.219 308.329 145.085 308.429 144.844 308.394L144.379 308.329C144.084 308.287 143.942 308.084 144.084 307.815C144.502 307.033 145.346 306.634 146.401 306.634C147.524 306.634 148.794 307.102 148.794 308.659V312.18C148.794 312.452 148.644 312.602 148.372 312.602H147.881C147.609 312.602 147.459 312.456 147.459 312.195V311.792H147.413C147.16 312.287 146.608 312.72 145.683 312.72ZM146.044 311.7C146.88 311.7 147.409 311.144 147.409 310.488V309.794C147.229 309.94 146.5 310.032 146.136 310.082C145.515 310.17 145.051 310.392 145.051 310.926C145.051 311.436 145.465 311.7 146.044 311.7ZM153.131 307.133V307.363C153.131 307.635 152.982 307.785 152.71 307.785H151.969V310.83C151.969 311.39 152.249 311.512 152.598 311.512H152.606C152.74 311.512 153.032 311.593 153.089 311.854L153.151 312.138C153.208 312.402 153.105 312.598 152.836 312.644C152.717 312.663 152.579 312.678 152.422 312.682C151.379 312.713 150.573 312.168 150.581 311.06V307.785H150.167C149.895 307.785 149.745 307.635 149.745 307.363V307.133C149.745 306.86 149.895 306.711 150.163 306.711H150.581V305.721C150.581 305.449 150.731 305.299 151.003 305.299H151.548C151.82 305.299 151.969 305.449 151.969 305.721V306.711H152.71C152.982 306.711 153.131 306.86 153.131 307.133ZM154.991 305.875C154.546 305.875 154.185 305.537 154.185 305.123C154.185 304.705 154.546 304.367 154.991 304.367C155.432 304.367 155.792 304.705 155.792 305.123C155.792 305.537 155.432 305.875 154.991 305.875ZM154.293 312.18V307.133C154.293 306.86 154.442 306.711 154.714 306.711H155.259C155.531 306.711 155.681 306.86 155.681 307.133V312.18C155.681 312.452 155.531 312.602 155.259 312.602H154.714C154.442 312.602 154.293 312.452 154.293 312.18ZM159.678 312.717C157.918 312.717 156.855 311.463 156.855 309.679C156.855 307.88 157.945 306.634 159.671 306.634C160.928 306.634 161.853 307.278 162.125 308.295C162.202 308.578 162.029 308.751 161.742 308.751H161.239C160.994 308.751 160.871 308.632 160.764 308.406C160.576 308.018 160.211 307.754 159.69 307.754C158.834 307.754 158.263 308.467 158.263 309.656C158.263 310.86 158.823 311.585 159.69 311.585C160.177 311.585 160.564 311.355 160.764 310.937C160.871 310.707 160.998 310.588 161.243 310.588H161.742C162.033 310.588 162.198 310.738 162.14 310.983C161.891 312.019 160.998 312.717 159.678 312.717ZM165.037 312.72C163.913 312.72 163.066 312.107 163.066 310.949C163.066 309.622 164.159 309.28 165.302 309.158C166.341 309.046 166.759 309.027 166.759 308.628V308.605C166.759 308.026 166.406 307.696 165.762 307.696C165.267 307.696 164.926 307.88 164.722 308.134C164.573 308.329 164.439 308.429 164.197 308.394L163.733 308.329C163.438 308.287 163.296 308.084 163.438 307.815C163.856 307.033 164.699 306.634 165.754 306.634C166.878 306.634 168.147 307.102 168.147 308.659V312.18C168.147 312.452 167.998 312.602 167.725 312.602H167.235C166.962 312.602 166.813 312.456 166.813 312.195V311.792H166.767C166.514 312.287 165.961 312.72 165.037 312.72ZM165.397 311.7C166.234 311.7 166.763 311.144 166.763 310.488V309.794C166.583 309.94 165.854 310.032 165.49 310.082C164.868 310.17 164.404 310.392 164.404 310.926C164.404 311.436 164.818 311.7 165.397 311.7ZM170.932 305.169V312.18C170.932 312.452 170.782 312.602 170.51 312.602H169.965C169.693 312.602 169.543 312.452 169.543 312.18V305.169C169.543 304.897 169.693 304.747 169.965 304.747H170.51C170.782 304.747 170.932 304.897 170.932 305.169ZM173.748 305.169V312.18C173.748 312.452 173.598 312.602 173.326 312.602H172.781C172.509 312.602 172.359 312.452 172.359 312.18V305.169C172.359 304.897 172.509 304.747 172.781 304.747H173.326C173.598 304.747 173.748 304.897 173.748 305.169ZM176.038 314.811C175.862 314.811 175.693 314.795 175.544 314.772C175.271 314.726 175.179 314.519 175.256 314.255L175.34 313.971C175.417 313.714 175.586 313.641 175.854 313.668C176.245 313.702 176.529 313.557 176.725 313.043L176.844 312.724L174.88 307.194C174.777 306.902 174.911 306.711 175.221 306.711H175.812C176.058 306.711 176.215 306.826 176.288 307.063L177.538 311.16H177.599L178.853 307.063C178.926 306.826 179.084 306.711 179.329 306.711H179.923C180.234 306.711 180.368 306.902 180.265 307.194L178.079 313.315C177.745 314.255 177.12 314.811 176.038 314.811ZM185.772 312.72C184.648 312.72 183.801 312.107 183.801 310.949C183.801 309.622 184.894 309.28 186.037 309.158C187.076 309.046 187.494 309.027 187.494 308.628V308.605C187.494 308.026 187.141 307.696 186.497 307.696C186.002 307.696 185.661 307.88 185.458 308.134C185.308 308.329 185.174 308.429 184.932 308.394L184.468 308.329C184.173 308.287 184.031 308.084 184.173 307.815C184.591 307.033 185.435 306.634 186.489 306.634C187.613 306.634 188.883 307.102 188.883 308.659V312.18C188.883 312.452 188.733 312.602 188.461 312.602H187.97C187.697 312.602 187.548 312.456 187.548 312.195V311.792H187.502C187.249 312.287 186.696 312.72 185.772 312.72ZM186.133 311.7C186.969 311.7 187.498 311.144 187.498 310.488V309.794C187.318 309.94 186.589 310.032 186.225 310.082C185.603 310.17 185.139 310.392 185.139 310.926C185.139 311.436 185.554 311.7 186.133 311.7ZM192.465 312.705C191.076 312.705 190.037 311.604 190.037 309.664C190.037 307.7 191.107 306.634 192.468 306.634C193.508 306.634 193.941 307.259 194.152 307.685H194.21V305.169C194.21 304.897 194.359 304.747 194.632 304.747H195.18C195.452 304.747 195.602 304.897 195.602 305.169V312.18C195.602 312.452 195.452 312.602 195.18 312.602H194.658C194.386 312.602 194.236 312.452 194.236 312.18V311.673H194.152C193.934 312.103 193.477 312.705 192.465 312.705ZM192.852 311.566C193.738 311.566 194.236 310.799 194.236 309.656C194.236 308.513 193.746 307.773 192.852 307.773C191.928 307.773 191.452 308.559 191.452 309.656C191.452 310.761 191.935 311.566 192.852 311.566ZM199.267 312.705C197.879 312.705 196.84 311.604 196.84 309.664C196.84 307.7 197.91 306.634 199.271 306.634C200.311 306.634 200.744 307.259 200.955 307.685H201.012V305.169C201.012 304.897 201.162 304.747 201.434 304.747H201.983C202.255 304.747 202.405 304.897 202.405 305.169V312.18C202.405 312.452 202.255 312.602 201.983 312.602H201.461C201.189 312.602 201.039 312.452 201.039 312.18V311.673H200.955C200.736 312.103 200.28 312.705 199.267 312.705ZM199.655 311.566C200.541 311.566 201.039 310.799 201.039 309.656C201.039 308.513 200.548 307.773 199.655 307.773C198.73 307.773 198.255 308.559 198.255 309.656C198.255 310.761 198.738 311.566 199.655 311.566ZM206.492 312.717C204.716 312.717 203.631 311.539 203.631 309.691C203.631 307.873 204.732 306.634 206.419 306.634C207.869 306.634 209.111 307.543 209.111 309.61V309.614C209.111 309.886 208.962 310.036 208.69 310.036H205.008C205.019 311.044 205.614 311.635 206.511 311.635C206.971 311.635 207.351 311.482 207.585 311.183C207.735 310.987 207.873 310.887 208.11 310.914L208.578 310.968C208.874 311.002 209.027 311.163 208.931 311.382C208.571 312.199 207.696 312.717 206.492 312.717ZM205.012 309.1H207.781C207.773 308.298 207.236 307.715 206.438 307.715C205.61 307.715 205.054 308.348 205.012 309.1ZM212.472 312.705C211.084 312.705 210.044 311.604 210.044 309.664C210.044 307.7 211.114 306.634 212.476 306.634C213.515 306.634 213.949 307.259 214.16 307.685H214.217V305.169C214.217 304.897 214.367 304.747 214.639 304.747H215.187C215.46 304.747 215.609 304.897 215.609 305.169V312.18C215.609 312.452 215.46 312.602 215.187 312.602H214.666C214.393 312.602 214.244 312.452 214.244 312.18V311.673H214.16C213.941 312.103 213.485 312.705 212.472 312.705ZM212.859 311.566C213.745 311.566 214.244 310.799 214.244 309.656C214.244 308.513 213.753 307.773 212.859 307.773C211.935 307.773 211.46 308.559 211.46 309.656C211.46 310.761 211.943 311.566 212.859 311.566ZM222.709 307.133V307.363C222.709 307.635 222.56 307.785 222.287 307.785H221.547V310.83C221.547 311.39 221.827 311.512 222.176 311.512H222.184C222.318 311.512 222.609 311.593 222.667 311.854L222.728 312.138C222.786 312.402 222.682 312.598 222.414 312.644C222.295 312.663 222.157 312.678 222 312.682C220.957 312.713 220.151 312.168 220.159 311.06V307.785H219.745C219.472 307.785 219.323 307.635 219.323 307.363V307.133C219.323 306.86 219.472 306.711 219.741 306.711H220.159V305.721C220.159 305.449 220.308 305.299 220.581 305.299H221.125C221.398 305.299 221.547 305.449 221.547 305.721V306.711H222.287C222.56 306.711 222.709 306.86 222.709 307.133ZM226.377 312.717C224.651 312.717 223.554 311.501 223.554 309.679C223.554 307.854 224.651 306.634 226.377 306.634C228.102 306.634 229.199 307.854 229.199 309.679C229.199 311.501 228.102 312.717 226.377 312.717ZM226.384 311.604C227.324 311.604 227.792 310.753 227.792 309.675C227.792 308.598 227.324 307.735 226.384 307.735C225.429 307.735 224.961 308.598 224.961 309.675C224.961 310.753 225.429 311.604 226.384 311.604ZM233.92 314.811C233.743 314.811 233.574 314.795 233.425 314.772C233.153 314.726 233.06 314.519 233.137 314.255L233.222 313.971C233.298 313.714 233.467 313.641 233.735 313.668C234.127 313.702 234.41 313.557 234.606 313.043L234.725 312.724L232.761 307.194C232.658 306.902 232.792 306.711 233.103 306.711H233.693C233.939 306.711 234.096 306.826 234.169 307.063L235.419 311.16H235.481L236.735 307.063C236.808 306.826 236.965 306.711 237.21 306.711H237.805C238.115 306.711 238.25 306.902 238.146 307.194L235.96 313.315C235.626 314.255 235.001 314.811 233.92 314.811ZM241.649 312.717C239.923 312.717 238.826 311.501 238.826 309.679C238.826 307.854 239.923 306.634 241.649 306.634C243.374 306.634 244.471 307.854 244.471 309.679C244.471 311.501 243.374 312.717 241.649 312.717ZM241.656 311.604C242.596 311.604 243.064 310.753 243.064 309.675C243.064 308.598 242.596 307.735 241.656 307.735C240.701 307.735 240.233 308.598 240.233 309.675C240.233 310.753 240.701 311.604 241.656 311.604ZM249.404 310.124V307.133C249.404 306.86 249.554 306.711 249.826 306.711H250.371C250.643 306.711 250.793 306.86 250.793 307.133V312.18C250.793 312.452 250.643 312.602 250.371 312.602H249.868C249.596 312.602 249.446 312.452 249.446 312.18V311.555H249.385C249.117 312.214 248.495 312.678 247.613 312.678C246.455 312.678 245.65 311.877 245.65 310.462V307.133C245.65 306.86 245.799 306.711 246.071 306.711H246.616C246.888 306.711 247.038 306.86 247.038 307.133V310.247C247.038 310.995 247.483 311.466 248.15 311.466C248.764 311.466 249.404 311.021 249.404 310.124ZM252.22 312.18V307.133C252.22 306.86 252.37 306.711 252.642 306.711H253.145C253.417 306.711 253.566 306.86 253.566 307.133V307.692H253.628C253.843 307.01 254.406 306.626 255.081 306.626H255.181C255.446 306.638 255.58 306.803 255.58 307.067V307.489C255.58 307.777 255.465 307.907 255.262 307.88C255.154 307.869 255.039 307.861 254.936 307.861C254.172 307.861 253.609 308.39 253.609 309.138V312.18C253.609 312.452 253.459 312.602 253.187 312.602H252.642C252.37 312.602 252.22 312.452 252.22 312.18ZM260.297 312.245L258.867 307.186C258.786 306.895 258.92 306.711 259.223 306.711H259.772C260.025 306.711 260.178 306.83 260.24 307.075L261.183 310.853H261.237L262.203 307.075C262.265 306.833 262.422 306.711 262.671 306.711H263.319C263.569 306.711 263.726 306.833 263.787 307.075L264.754 310.83H264.811L265.74 307.075C265.801 306.83 265.954 306.711 266.207 306.711H266.76C267.063 306.711 267.197 306.895 267.116 307.186L265.682 312.245C265.613 312.483 265.46 312.602 265.21 312.602H264.508C264.259 312.602 264.102 312.487 264.037 312.245L263.032 308.621H262.951L261.946 312.245C261.881 312.487 261.724 312.602 261.475 312.602H260.769C260.52 312.602 260.366 312.483 260.297 312.245ZM269.915 312.72C268.791 312.72 267.944 312.107 267.944 310.949C267.944 309.622 269.037 309.28 270.18 309.158C271.219 309.046 271.637 309.027 271.637 308.628V308.605C271.637 308.026 271.284 307.696 270.64 307.696C270.145 307.696 269.804 307.88 269.601 308.134C269.451 308.329 269.317 308.429 269.075 308.394L268.611 308.329C268.316 308.287 268.174 308.084 268.316 307.815C268.734 307.033 269.578 306.634 270.632 306.634C271.756 306.634 273.025 307.102 273.025 308.659V312.18C273.025 312.452 272.876 312.602 272.604 312.602H272.113C271.84 312.602 271.691 312.456 271.691 312.195V311.792H271.645C271.392 312.287 270.839 312.72 269.915 312.72ZM270.276 311.7C271.112 311.7 271.641 311.144 271.641 310.488V309.794C271.461 309.94 270.732 310.032 270.368 310.082C269.746 310.17 269.282 310.392 269.282 310.926C269.282 311.436 269.696 311.7 270.276 311.7ZM275.81 305.169V312.18C275.81 312.452 275.66 312.602 275.388 312.602H274.843C274.571 312.602 274.421 312.452 274.421 312.18V305.169C274.421 304.897 274.571 304.747 274.843 304.747H275.388C275.66 304.747 275.81 304.897 275.81 305.169ZM278.626 305.169V312.18C278.626 312.452 278.476 312.602 278.204 312.602H277.659C277.387 312.602 277.238 312.452 277.238 312.18V305.169C277.238 304.897 277.387 304.747 277.659 304.747H278.204C278.476 304.747 278.626 304.897 278.626 305.169ZM282.661 312.717C280.886 312.717 279.8 311.539 279.8 309.691C279.8 307.873 280.901 306.634 282.589 306.634C284.038 306.634 285.281 307.543 285.281 309.61V309.614C285.281 309.886 285.131 310.036 284.859 310.036H281.177C281.189 311.044 281.783 311.635 282.681 311.635C283.141 311.635 283.521 311.482 283.755 311.183C283.904 310.987 284.042 310.887 284.28 310.914L284.748 310.968C285.043 311.002 285.197 311.163 285.101 311.382C284.74 312.199 283.866 312.717 282.661 312.717ZM281.181 309.1H283.95C283.942 308.298 283.406 307.715 282.608 307.715C281.779 307.715 281.223 308.348 281.181 309.1ZM289.397 307.133V307.363C289.397 307.635 289.248 307.785 288.975 307.785H288.235V310.83C288.235 311.39 288.515 311.512 288.864 311.512H288.872C289.006 311.512 289.297 311.593 289.355 311.854L289.416 312.138C289.474 312.402 289.37 312.598 289.102 312.644C288.983 312.663 288.845 312.678 288.688 312.682C287.644 312.713 286.839 312.168 286.847 311.06V307.785H286.432C286.16 307.785 286.011 307.635 286.011 307.363V307.133C286.011 306.86 286.16 306.711 286.429 306.711H286.847V305.721C286.847 305.449 286.996 305.299 287.269 305.299H287.813C288.085 305.299 288.235 305.449 288.235 305.721V306.711H288.975C289.248 306.711 289.397 306.86 289.397 307.133ZM296.992 310.124V307.133C296.992 306.86 297.141 306.711 297.414 306.711H297.958C298.231 306.711 298.38 306.86 298.38 307.133V312.18C298.38 312.452 298.231 312.602 297.958 312.602H297.456C297.184 312.602 297.034 312.452 297.034 312.18V311.555H296.973C296.704 312.214 296.083 312.678 295.201 312.678C294.043 312.678 293.237 311.877 293.237 310.462V307.133C293.237 306.86 293.387 306.711 293.659 306.711H294.204C294.476 306.711 294.625 306.86 294.625 307.133V310.247C294.625 310.995 295.07 311.466 295.738 311.466C296.351 311.466 296.992 311.021 296.992 310.124ZM299.808 314.389V307.133C299.808 306.86 299.957 306.711 300.23 306.711H300.751C301.024 306.711 301.173 306.86 301.173 307.133V307.685H301.254C301.465 307.259 301.898 306.634 302.937 306.634C304.299 306.634 305.369 307.7 305.369 309.664C305.369 311.604 304.33 312.705 302.941 312.705C301.929 312.705 301.472 312.103 301.254 311.673H301.196V314.389C301.196 314.661 301.047 314.811 300.774 314.811H300.23C299.957 314.811 299.808 314.661 299.808 314.389ZM301.169 309.656C301.169 310.799 301.668 311.566 302.554 311.566C303.47 311.566 303.954 310.761 303.954 309.656C303.954 308.559 303.478 307.773 302.554 307.773C301.66 307.773 301.169 308.513 301.169 309.656ZM309.127 312.717C307.402 312.717 306.305 311.501 306.305 309.679C306.305 307.854 307.402 306.634 309.127 306.634C310.853 306.634 311.95 307.854 311.95 309.679C311.95 311.501 310.853 312.717 309.127 312.717ZM309.135 311.604C310.075 311.604 310.543 310.753 310.543 309.675C310.543 308.598 310.075 307.735 309.135 307.735C308.18 307.735 307.712 308.598 307.712 309.675C307.712 310.753 308.18 311.604 309.135 311.604ZM314.517 309.15V312.18C314.517 312.452 314.367 312.602 314.095 312.602H313.55C313.278 312.602 313.129 312.452 313.129 312.18V307.133C313.129 306.86 313.278 306.711 313.55 306.711H314.034C314.306 306.711 314.456 306.86 314.456 307.133V307.712H314.525C314.793 307.056 315.399 306.634 316.281 306.634C317.497 306.634 318.302 307.439 318.298 308.851V312.18C318.298 312.452 318.149 312.602 317.877 312.602H317.332C317.06 312.602 316.91 312.452 316.91 312.18V309.065C316.91 308.279 316.481 307.808 315.763 307.808C315.031 307.808 314.517 308.298 314.517 309.15ZM326.143 310.124V307.133C326.143 306.86 326.293 306.711 326.565 306.711H327.11C327.382 306.711 327.532 306.86 327.532 307.133V312.18C327.532 312.452 327.382 312.602 327.11 312.602H326.607C326.335 312.602 326.186 312.452 326.186 312.18V311.555H326.124C325.856 312.214 325.234 312.678 324.352 312.678C323.194 312.678 322.389 311.877 322.389 310.462V307.133C322.389 306.86 322.538 306.711 322.811 306.711H323.355C323.627 306.711 323.777 306.86 323.777 307.133V310.247C323.777 310.995 324.222 311.466 324.889 311.466C325.503 311.466 326.143 311.021 326.143 310.124ZM330.348 309.15V312.18C330.348 312.452 330.198 312.602 329.926 312.602H329.381C329.109 312.602 328.959 312.452 328.959 312.18V307.133C328.959 306.86 329.109 306.711 329.381 306.711H329.864C330.137 306.711 330.286 306.86 330.286 307.133V307.712H330.355C330.624 307.056 331.23 306.634 332.112 306.634C333.328 306.634 334.133 307.439 334.129 308.851V312.18C334.129 312.452 333.98 312.602 333.707 312.602H333.163C332.89 312.602 332.741 312.452 332.741 312.18V309.065C332.741 308.279 332.311 307.808 331.594 307.808C330.862 307.808 330.348 308.298 330.348 309.15ZM339.733 308.318L339.291 308.367C339.05 308.394 338.919 308.287 338.778 308.084C338.601 307.846 338.298 307.669 337.846 307.669C337.266 307.669 336.825 307.946 336.829 308.344C336.825 308.686 337.063 308.893 337.662 309.027L338.666 309.242C339.779 309.484 340.319 309.997 340.323 310.837C340.319 311.953 339.28 312.717 337.807 312.717C336.572 312.717 335.729 312.249 335.403 311.436C335.291 311.163 335.452 310.975 335.74 310.949L336.265 310.899C336.511 310.876 336.638 310.987 336.772 311.202C336.967 311.512 337.32 311.67 337.803 311.67C338.463 311.67 338.9 311.367 338.9 310.964C338.9 310.63 338.647 310.412 338.106 310.293L337.102 310.082C335.97 309.848 335.441 309.28 335.445 308.421C335.441 307.332 336.407 306.634 337.826 306.634C338.989 306.634 339.74 307.087 340.062 307.823C340.177 308.095 340.024 308.287 339.733 308.318ZM344.41 307.133V307.363C344.41 307.635 344.26 307.785 343.988 307.785H343.248V310.83C343.248 311.39 343.527 311.512 343.876 311.512H343.884C344.018 311.512 344.31 311.593 344.367 311.854L344.429 312.138C344.486 312.402 344.383 312.598 344.114 312.644C343.995 312.663 343.857 312.678 343.7 312.682C342.657 312.713 341.851 312.168 341.859 311.06V307.785H341.445C341.173 307.785 341.023 307.635 341.023 307.363V307.133C341.023 306.86 341.173 306.711 341.441 306.711H341.859V305.721C341.859 305.449 342.009 305.299 342.281 305.299H342.826C343.098 305.299 343.248 305.449 343.248 305.721V306.711H343.988C344.26 306.711 344.41 306.86 344.41 307.133ZM347.266 312.72C346.142 312.72 345.295 312.107 345.295 310.949C345.295 309.622 346.388 309.28 347.531 309.158C348.57 309.046 348.988 309.027 348.988 308.628V308.605C348.988 308.026 348.635 307.696 347.991 307.696C347.496 307.696 347.155 307.88 346.951 308.134C346.802 308.329 346.668 308.429 346.426 308.394L345.962 308.329C345.667 308.287 345.525 308.084 345.667 307.815C346.085 307.033 346.928 306.634 347.983 306.634C349.107 306.634 350.376 307.102 350.376 308.659V312.18C350.376 312.452 350.227 312.602 349.954 312.602H349.463C349.191 312.602 349.042 312.456 349.042 312.195V311.792H348.996C348.742 312.287 348.19 312.72 347.266 312.72ZM347.626 311.7C348.462 311.7 348.992 311.144 348.992 310.488V309.794C348.811 309.94 348.083 310.032 347.718 310.082C347.097 310.17 346.633 310.392 346.633 310.926C346.633 311.436 347.047 311.7 347.626 311.7ZM351.772 312.18V305.169C351.772 304.897 351.922 304.747 352.194 304.747H352.739C353.011 304.747 353.161 304.897 353.161 305.169V309.077H353.256L355.166 306.941C355.312 306.776 355.466 306.711 355.684 306.711H356.298C356.666 306.711 356.777 306.952 356.532 307.228L354.714 309.253L356.758 312.088C356.961 312.371 356.846 312.602 356.497 312.602H355.792C355.565 312.602 355.412 312.521 355.281 312.337L353.667 310.082L353.161 310.623V312.18C353.161 312.452 353.011 312.602 352.739 312.602H352.194C351.922 312.602 351.772 312.452 351.772 312.18ZM358.619 305.875C358.174 305.875 357.814 305.537 357.814 305.123C357.814 304.705 358.174 304.367 358.619 304.367C359.06 304.367 359.421 304.705 359.421 305.123C359.421 305.537 359.06 305.875 358.619 305.875ZM357.921 312.18V307.133C357.921 306.86 358.071 306.711 358.343 306.711H358.888C359.16 306.711 359.309 306.86 359.309 307.133V312.18C359.309 312.452 359.16 312.602 358.888 312.602H358.343C358.071 312.602 357.921 312.452 357.921 312.18ZM362.125 309.15V312.18C362.125 312.452 361.976 312.602 361.704 312.602H361.159C360.887 312.602 360.737 312.452 360.737 312.18V307.133C360.737 306.86 360.887 306.711 361.159 306.711H361.642C361.915 306.711 362.064 306.86 362.064 307.133V307.712H362.133C362.402 307.056 363.008 306.634 363.89 306.634C365.105 306.634 365.911 307.439 365.907 308.851V312.18C365.907 312.452 365.757 312.602 365.485 312.602H364.941C364.668 312.602 364.519 312.452 364.519 312.18V309.065C364.519 308.279 364.089 307.808 363.372 307.808C362.639 307.808 362.125 308.298 362.125 309.15ZM369.88 314.933C368.645 314.933 367.851 314.485 367.468 313.863C367.318 313.614 367.449 313.403 367.733 313.334L368.181 313.227C368.419 313.169 368.565 313.254 368.726 313.438C368.944 313.679 369.305 313.883 369.903 313.883C370.693 313.883 371.269 313.526 371.269 312.659V311.543H371.2C370.985 311.976 370.513 312.517 369.504 312.517C368.147 312.517 367.077 311.558 367.077 309.637C367.077 307.7 368.147 306.634 369.508 306.634C370.548 306.634 370.989 307.259 371.2 307.685H371.276V307.133C371.276 306.86 371.426 306.711 371.698 306.711H372.224C372.496 306.711 372.645 306.86 372.645 307.133V312.697C372.645 314.205 371.472 314.933 369.88 314.933ZM369.892 311.428C370.778 311.428 371.276 310.753 371.276 309.629C371.276 308.513 370.785 307.773 369.892 307.773C368.968 307.773 368.492 308.559 368.492 309.629C368.492 310.715 368.975 311.428 369.892 311.428ZM374.924 312.686C374.456 312.686 374.076 312.31 374.08 311.842C374.076 311.382 374.456 311.006 374.924 311.006C375.376 311.006 375.764 311.382 375.767 311.842C375.764 312.31 375.376 312.686 374.924 312.686Z" fill="#AB9FF2"/>
<path d="M49 70.6C49 58.6707 58.6706 49 70.6 49H423.4C435.329 49 445 58.6706 445 70.6V92.2H49V70.6Z" fill="#1E1E1F"/>
<path d="M78.2848 65.9826H79.0087C79.3491 65.9826 79.5361 66.1696 79.5361 66.5099V72.397C79.5361 74.5064 77.9444 75.9494 75.5522 75.9494C73.1504 75.9494 71.5684 74.5064 71.5684 72.397V66.5099C71.5684 66.1696 71.7553 65.9826 72.0957 65.9826H72.8196C73.16 65.9826 73.347 66.1696 73.347 66.5099V72.2484C73.347 73.4805 74.2003 74.3626 75.5522 74.3626C76.8993 74.3626 77.7575 73.4805 77.7575 72.2484V66.5099C77.7575 66.1696 77.9444 65.9826 78.2848 65.9826ZM83.128 71.4862V75.2734C83.128 75.6138 82.941 75.8008 82.6006 75.8008H81.9199C81.5795 75.8008 81.3925 75.6138 81.3925 75.2734V68.9645C81.3925 68.6241 81.5795 68.4371 81.9199 68.4371H82.5239C82.8643 68.4371 83.0513 68.6241 83.0513 68.9645V69.6884H83.1376C83.4732 68.8686 84.2306 68.3413 85.3332 68.3413C86.8529 68.3413 87.8597 69.348 87.8549 71.1122V75.2734C87.8549 75.6138 87.6679 75.8008 87.3276 75.8008H86.6468C86.3064 75.8008 86.1195 75.6138 86.1195 75.2734V71.3807C86.1195 70.3979 85.5825 69.8082 84.686 69.8082C83.7704 69.8082 83.128 70.4219 83.128 71.4862ZM94.859 70.4458L94.3077 70.5082C94.0056 70.5417 93.8427 70.4075 93.6653 70.1534C93.4447 69.8562 93.066 69.6357 92.5003 69.6357C91.7764 69.6357 91.2251 69.9808 91.2299 70.4794C91.2251 70.9061 91.5223 71.165 92.2702 71.3327L93.5262 71.6012C94.9165 71.9032 95.5925 72.5456 95.5973 73.5955C95.5925 74.9906 94.2933 75.9446 92.4524 75.9446C90.9087 75.9446 89.854 75.3597 89.4465 74.3434C89.3075 74.003 89.5088 73.7681 89.8684 73.7346L90.5252 73.6722C90.832 73.6435 90.9902 73.7825 91.158 74.051C91.4025 74.4393 91.8435 74.6358 92.4476 74.6358C93.2722 74.6358 93.8187 74.2571 93.8187 73.7537C93.8187 73.3366 93.5023 73.0634 92.8263 72.9148L91.5703 72.6511C90.156 72.3587 89.4945 71.6491 89.4993 70.5753C89.4945 69.2138 90.7026 68.3413 92.4764 68.3413C93.9289 68.3413 94.8686 68.907 95.2713 69.8274C95.4151 70.1678 95.2233 70.4075 94.859 70.4458ZM100.705 68.9645V69.2521C100.705 69.5925 100.518 69.7795 100.178 69.7795H99.2527V73.5859C99.2527 74.2859 99.6027 74.4393 100.039 74.4393H100.049C100.216 74.4393 100.581 74.54 100.653 74.8659L100.729 75.2207C100.801 75.5515 100.672 75.796 100.336 75.8535C100.188 75.8775 100.015 75.8967 99.8184 75.9015C98.5144 75.9398 97.5077 75.2591 97.5173 73.8736V69.7795H96.9995C96.6591 69.7795 96.4722 69.5925 96.4722 69.2521V68.9645C96.4722 68.6241 96.6591 68.4371 96.9947 68.4371H97.5173V67.2003C97.5173 66.8599 97.7042 66.6729 98.0446 66.6729H98.7254C99.0658 66.6729 99.2527 66.8599 99.2527 67.2003V68.4371H100.178C100.518 68.4371 100.705 68.6241 100.705 68.9645ZM104.276 75.9494C102.871 75.9494 101.812 75.1824 101.812 73.7346C101.812 72.0758 103.178 71.6491 104.606 71.4957C105.906 71.3567 106.428 71.3327 106.428 70.8342V70.8054C106.428 70.0815 105.987 69.6692 105.182 69.6692C104.563 69.6692 104.137 69.8993 103.883 70.2157C103.696 70.4602 103.528 70.5849 103.226 70.5417L102.646 70.4602C102.277 70.4075 102.099 70.1534 102.277 69.8178C102.799 68.8398 103.854 68.3413 105.172 68.3413C106.577 68.3413 108.164 68.9261 108.164 70.8725V75.2734C108.164 75.6138 107.977 75.8008 107.636 75.8008H107.023C106.682 75.8008 106.495 75.6186 106.495 75.2926V74.7892H106.438C106.121 75.4077 105.431 75.9494 104.276 75.9494ZM104.726 74.6742C105.771 74.6742 106.433 73.979 106.433 73.1593V72.2915C106.208 72.4737 105.297 72.5888 104.841 72.6511C104.065 72.7614 103.485 73.0394 103.485 73.7058C103.485 74.3434 104.002 74.6742 104.726 74.6742ZM109.909 75.2734V66.5099C109.909 66.1696 110.096 65.9826 110.436 65.9826H111.117C111.457 65.9826 111.644 66.1696 111.644 66.5099V71.3951H111.764L114.151 68.7248C114.334 68.5186 114.525 68.4371 114.799 68.4371H115.566C116.026 68.4371 116.165 68.7392 115.858 69.0843L113.586 71.6156L116.141 75.1584C116.395 75.5131 116.251 75.8008 115.815 75.8008H114.933C114.65 75.8008 114.458 75.7001 114.295 75.47L112.277 72.6511L111.644 73.3271V75.2734C111.644 75.6138 111.457 75.8008 111.117 75.8008H110.436C110.096 75.8008 109.909 75.6138 109.909 75.2734ZM120.551 75.9446C118.332 75.9446 116.975 74.4728 116.975 72.1621C116.975 69.8897 118.351 68.3413 120.46 68.3413C122.272 68.3413 123.826 69.4775 123.826 72.0614V72.0662C123.826 72.4066 123.639 72.5936 123.298 72.5936H118.696C118.711 73.8544 119.454 74.5927 120.575 74.5927C121.151 74.5927 121.625 74.4009 121.918 74.027C122.105 73.7825 122.277 73.6578 122.574 73.6914L123.159 73.7585C123.529 73.8017 123.72 74.003 123.6 74.2763C123.15 75.2974 122.057 75.9446 120.551 75.9446ZM118.701 71.4238H122.162C122.153 70.4219 121.481 69.6932 120.484 69.6932C119.449 69.6932 118.754 70.4842 118.701 71.4238Z" fill="#F5F5F5"/>
<path d="M384.175 73.6777V66.6669C384.175 66.3946 384.324 66.2451 384.597 66.2451H388.861C389.134 66.2451 389.283 66.3946 389.283 66.6669V67.0159C389.283 67.2882 389.134 67.4378 388.861 67.4378H385.598V69.5702H388.597C388.869 69.5702 389.019 69.7198 389.019 69.9921V70.3411C389.019 70.6134 388.869 70.763 388.597 70.763H385.598V72.9069H388.892C389.164 72.9069 389.314 73.0564 389.314 73.3287V73.6777C389.314 73.95 389.164 74.0996 388.892 74.0996H384.597C384.324 74.0996 384.175 73.95 384.175 73.6777ZM395.924 68.4043H395.376C395.126 68.4043 395.011 68.2816 394.908 68.0476C394.704 67.5989 394.206 67.3419 393.523 67.3419C392.633 67.3419 392.104 67.7753 392.1 68.3659C392.093 69.0218 392.791 69.2941 393.435 69.4475L394.171 69.6316C395.353 69.9115 396.476 70.5328 396.48 71.8944C396.476 73.2789 395.383 74.2185 393.5 74.2185C391.851 74.2185 390.746 73.5051 390.501 72.2242C390.447 71.9404 390.616 71.7793 390.9 71.7793H391.471C391.724 71.7793 391.839 71.9097 391.928 72.1513C392.142 72.7228 392.745 73.0027 393.489 73.0027C394.417 73.0027 395.053 72.554 395.057 71.8828C395.053 71.273 394.493 71.0084 393.646 70.7936L392.752 70.5635C391.46 70.2299 390.658 69.5817 390.658 68.4542C390.654 67.0658 391.893 66.1377 393.542 66.1377C395.023 66.1377 396.077 66.874 396.319 67.9594C396.38 68.2394 396.208 68.4043 395.924 68.4043ZM404 68.8952H403.409C403.16 68.8952 403.03 68.7725 402.938 68.5347C402.665 67.8175 401.994 67.4148 401.17 67.4148C399.885 67.4148 398.98 68.4005 398.98 70.1723C398.98 71.9749 399.892 72.9299 401.166 72.9299C401.975 72.9299 402.646 72.5463 402.93 71.8483C403.026 71.6105 403.16 71.4955 403.409 71.4955L403.996 71.4993C404.291 71.4993 404.456 71.6757 404.368 71.9596C403.985 73.2405 402.819 74.207 401.147 74.207C399.076 74.207 397.549 72.7074 397.549 70.1723C397.549 67.6334 399.095 66.1377 401.147 66.1377C402.727 66.1377 403.981 66.9738 404.376 68.4311C404.456 68.7188 404.295 68.8952 404 68.8952Z" fill="#A5A3AC"/>
<g filter="url(#filter1_i_850_14275)">
<path d="M420.426 73.4901C420.791 73.8548 420.791 74.4583 420.426 74.823C420.238 75.0116 419.999 75.0996 419.76 75.0996C419.521 75.0996 419.282 75.0116 419.093 74.823L416.2 71.9309L413.307 74.823C413.118 75.0116 412.879 75.0996 412.64 75.0996C412.401 75.0996 412.162 75.0116 411.974 74.823C411.609 74.4583 411.609 73.8548 411.974 73.4901L414.867 70.598L411.974 67.706C411.609 67.3413 411.609 66.7378 411.974 66.3731C412.338 66.0084 412.942 66.0084 413.307 66.3731L416.2 69.2652L419.093 66.3731C419.458 66.0084 420.062 66.0084 420.426 66.3731C420.791 66.7378 420.791 67.3413 420.426 67.706L417.533 70.598L420.426 73.4901Z" fill="#A5A3AC"/>
</g>
<g filter="url(#filter2_i_850_14275)">
<rect x="70.6" y="347.801" width="352.8" height="39.6" rx="19.8" fill="#90F9FF"/>
<g filter="url(#filter3_i_850_14275)">
<path d="M227.784 363.182H228.508C228.848 363.182 229.035 363.369 229.035 363.709V369.596C229.035 371.706 227.443 373.149 225.051 373.149C222.649 373.149 221.067 371.706 221.067 369.596V363.709C221.067 363.369 221.254 363.182 221.595 363.182H222.319C222.659 363.182 222.846 363.369 222.846 363.709V369.448C222.846 370.68 223.699 371.562 225.051 371.562C226.398 371.562 227.256 370.68 227.256 369.448V363.709C227.256 363.369 227.443 363.182 227.784 363.182ZM232.627 368.685V372.473C232.627 372.813 232.44 373 232.1 373H231.419C231.078 373 230.891 372.813 230.891 372.473V366.164C230.891 365.823 231.078 365.636 231.419 365.636H232.023C232.363 365.636 232.55 365.823 232.55 366.164V366.888H232.636C232.972 366.068 233.73 365.54 234.832 365.54C236.352 365.54 237.359 366.547 237.354 368.311V372.473C237.354 372.813 237.167 373 236.826 373H236.146C235.805 373 235.618 372.813 235.618 372.473V368.58C235.618 367.597 235.081 367.007 234.185 367.007C233.269 367.007 232.627 367.621 232.627 368.685ZM244.358 367.645L243.807 367.707C243.505 367.741 243.342 367.607 243.164 367.353C242.944 367.055 242.565 366.835 241.999 366.835C241.275 366.835 240.724 367.18 240.729 367.679C240.724 368.105 241.021 368.364 241.769 368.532L243.025 368.8C244.415 369.102 245.091 369.745 245.096 370.795C245.091 372.19 243.792 373.144 241.951 373.144C240.408 373.144 239.353 372.559 238.945 371.543C238.806 371.202 239.008 370.967 239.367 370.934L240.024 370.871C240.331 370.843 240.489 370.982 240.657 371.25C240.901 371.638 241.342 371.835 241.946 371.835C242.771 371.835 243.318 371.456 243.318 370.953C243.318 370.536 243.001 370.263 242.325 370.114L241.069 369.85C239.655 369.558 238.993 368.848 238.998 367.775C238.993 366.413 240.201 365.54 241.975 365.54C243.428 365.54 244.367 366.106 244.77 367.027C244.914 367.367 244.722 367.607 244.358 367.645ZM250.204 366.164V366.451C250.204 366.792 250.017 366.979 249.677 366.979H248.752V370.785C248.752 371.485 249.102 371.638 249.538 371.638H249.547C249.715 371.638 250.08 371.739 250.151 372.065L250.228 372.42C250.3 372.751 250.171 372.995 249.835 373.053C249.686 373.077 249.514 373.096 249.317 373.101C248.013 373.139 247.007 372.458 247.016 371.073V366.979H246.498C246.158 366.979 245.971 366.792 245.971 366.451V366.164C245.971 365.823 246.158 365.636 246.494 365.636H247.016V364.4C247.016 364.059 247.203 363.872 247.544 363.872H248.224C248.565 363.872 248.752 364.059 248.752 364.4V365.636H249.677C250.017 365.636 250.204 365.823 250.204 366.164ZM253.775 373.149C252.37 373.149 251.31 372.382 251.31 370.934C251.31 369.275 252.677 368.848 254.105 368.695C255.405 368.556 255.927 368.532 255.927 368.033V368.005C255.927 367.281 255.486 366.868 254.681 366.868C254.062 366.868 253.636 367.099 253.381 367.415C253.194 367.659 253.027 367.784 252.725 367.741L252.145 367.659C251.775 367.607 251.598 367.353 251.775 367.017C252.298 366.039 253.353 365.54 254.671 365.54C256.076 365.54 257.663 366.125 257.663 368.072V372.473C257.663 372.813 257.476 373 257.135 373H256.522C256.181 373 255.994 372.818 255.994 372.492V371.988H255.937C255.62 372.607 254.93 373.149 253.775 373.149ZM254.225 371.873C255.27 371.873 255.932 371.178 255.932 370.358V369.491C255.707 369.673 254.796 369.788 254.34 369.85C253.564 369.961 252.984 370.239 252.984 370.905C252.984 371.543 253.501 371.873 254.225 371.873ZM259.408 372.473V363.709C259.408 363.369 259.595 363.182 259.935 363.182H260.616C260.956 363.182 261.143 363.369 261.143 363.709V368.594H261.263L263.65 365.924C263.832 365.718 264.024 365.636 264.297 365.636H265.065C265.525 365.636 265.664 365.938 265.357 366.284L263.085 368.815L265.64 372.358C265.894 372.712 265.75 373 265.314 373H264.432C264.149 373 263.957 372.899 263.794 372.669L261.776 369.85L261.143 370.526V372.473C261.143 372.813 260.956 373 260.616 373H259.935C259.595 373 259.408 372.813 259.408 372.473ZM270.05 373.144C267.831 373.144 266.474 371.672 266.474 369.361C266.474 367.089 267.85 365.54 269.959 365.54C271.771 365.54 273.325 366.677 273.325 369.261V369.265C273.325 369.606 273.138 369.793 272.797 369.793H268.195C268.209 371.054 268.952 371.792 270.074 371.792C270.65 371.792 271.124 371.6 271.417 371.226C271.604 370.982 271.776 370.857 272.073 370.891L272.658 370.958C273.027 371.001 273.219 371.202 273.099 371.475C272.649 372.497 271.556 373.144 270.05 373.144ZM268.2 368.623H271.661C271.652 367.621 270.98 366.892 269.983 366.892C268.948 366.892 268.253 367.683 268.2 368.623Z" fill="#0D0D0D"/>
</g>
</g>
<defs>
<filter id="filter0_i_850_14275" x="85" y="286.602" width="14.4" height="14.5804" filterUnits="userSpaceOnUse" color-interpolation-filters="sRGB">
<feFlood flood-opacity="0" result="BackgroundImageFix"/>
<feBlend mode="normal" in="SourceGraphic" in2="BackgroundImageFix" result="shape"/>
<feColorMatrix in="SourceAlpha" type="matrix" values="0 0 0 0 0 0 0 0 0 0 0 0 0 0 0 0 0 0 127 0" result="hardAlpha"/>
<feOffset dy="0.18"/>
<feGaussianBlur stdDeviation="0.09"/>
<feComposite in2="hardAlpha" operator="arithmetic" k2="-1" k3="1"/>
<feColorMatrix type="matrix" values="0 0 0 0 0 0 0 0 0 0 0 0 0 0 0 0 0 0 0.3 0"/>
<feBlend mode="normal" in2="shape" result="effect1_innerShadow_850_14275"/>
</filter>
<filter id="filter1_i_850_14275" x="411.7" y="66.0996" width="9" height="9.27" filterUnits="userSpaceOnUse" color-interpolation-filters="sRGB">
<feFlood flood-opacity="0" result="BackgroundImageFix"/>
<feBlend mode="normal" in="SourceGraphic" in2="BackgroundImageFix" result="shape"/>
<feColorMatrix in="SourceAlpha" type="matrix" values="0 0 0 0 0 0 0 0 0 0 0 0 0 0 0 0 0 0 127 0" result="hardAlpha"/>
<feOffset dy="0.45"/>
<feGaussianBlur stdDeviation="0.135"/>
<feComposite in2="hardAlpha" operator="arithmetic" k2="-1" k3="1"/>
<feColorMatrix type="matrix" values="0 0 0 0 0 0 0 0 0 0 0 0 0 0 0 0 0 0 0.3 0"/>
<feBlend mode="normal" in2="shape" result="effect1_innerShadow_850_14275"/>
</filter>
<filter id="filter2_i_850_14275" x="70.6" y="347.801" width="352.8" height="40.4996" filterUnits="userSpaceOnUse" color-interpolation-filters="sRGB">
<feFlood flood-opacity="0" result="BackgroundImageFix"/>
<feBlend mode="normal" in="SourceGraphic" in2="BackgroundImageFix" result="shape"/>
<feColorMatrix in="SourceAlpha" type="matrix" values="0 0 0 0 0 0 0 0 0 0 0 0 0 0 0 0 0 0 127 0" result="hardAlpha"/>
<feMorphology radius="0.18" operator="erode" in="SourceAlpha" result="effect1_innerShadow_850_14275"/>
<feOffset dy="0.9"/>
<feGaussianBlur stdDeviation="0.45"/>
<feComposite in2="hardAlpha" operator="arithmetic" k2="-1" k3="1"/>
<feColorMatrix type="matrix" values="0 0 0 0 1 0 0 0 0 0.999947 0 0 0 0 0.99993 0 0 0 1 0"/>
<feBlend mode="normal" in2="shape" result="effect1_innerShadow_850_14275"/>
</filter>
<filter id="filter3_i_850_14275" x="221.067" y="363.182" width="52.2573" height="10.1468" filterUnits="userSpaceOnUse" color-interpolation-filters="sRGB">
<feFlood flood-opacity="0" result="BackgroundImageFix"/>
<feBlend mode="normal" in="SourceGraphic" in2="BackgroundImageFix" result="shape"/>
<feColorMatrix in="SourceAlpha" type="matrix" values="0 0 0 0 0 0 0 0 0 0 0 0 0 0 0 0 0 0 127 0" result="hardAlpha"/>
<feOffset dy="0.45"/>
<feGaussianBlur stdDeviation="0.09"/>
<feComposite in2="hardAlpha" operator="arithmetic" k2="-1" k3="1"/>
<feColorMatrix type="matrix" values="0 0 0 0 1 0 0 0 0 1 0 0 0 0 1 0 0 0 0.2 0"/>
<feBlend mode="normal" in2="shape" result="effect1_innerShadow_850_14275"/>
</filter>
</defs>
</svg>
