<svg width="494" height="458" viewBox="0 0 494 458" fill="none" xmlns="http://www.w3.org/2000/svg">
<rect width="494" height="458" rx="16" fill="#F5F5F5"/>
<rect x="49" y="85" width="396" height="288" rx="21.6" fill="#141414"/>
<path d="M78.137 166.349C81.6353 166.365 84.926 168.484 84.9343 174.65C84.9426 180.425 82.2253 183.832 78.0123 183.832C75.0541 183.832 72.9102 182.195 72.1789 179.885C71.9712 179.212 72.3701 178.797 73.0681 178.797H74.6469C75.2203 178.797 75.5028 179.071 75.7936 179.586C76.234 180.334 77.0152 180.749 78.0123 180.749C80.231 180.749 81.4027 178.697 81.411 175.323H81.2946C80.5385 176.819 78.8765 177.725 77.0068 177.725C73.9904 177.725 71.7884 175.423 71.7801 172.249C71.7634 168.825 74.3311 166.332 78.137 166.349ZM78.1619 169.174C76.4916 169.174 75.2535 170.487 75.2701 172.149C75.2784 173.819 76.4667 175.115 78.1286 175.115C79.774 175.115 81.062 173.769 81.0536 172.141C81.037 170.52 79.8155 169.174 78.1619 169.174ZM87.4272 182.602V181.738C87.4272 181.223 87.585 180.866 87.9673 180.508L93.4849 175.398C95.0305 173.911 95.8615 172.98 95.8615 171.625C95.8615 170.13 94.748 169.199 93.2522 169.199C92.0224 169.199 91.1166 169.831 90.8009 170.902C90.6264 171.501 90.3605 171.825 89.7456 171.825H88.2997C87.6349 171.825 87.236 171.451 87.3441 170.786C87.7928 168.052 90.0862 166.349 93.2772 166.349C96.9251 166.349 99.3349 168.434 99.3349 171.384C99.3349 173.321 98.3959 174.916 94.8975 178.107L92.413 180.542V180.658H98.5621C99.2103 180.658 99.5593 181.007 99.5593 181.655V182.602C99.5593 183.251 99.2103 183.6 98.5621 183.6H88.4243C87.7762 183.6 87.4272 183.251 87.4272 182.602ZM108.839 183.974C104.551 183.965 101.95 180.7 101.967 175.107C101.975 169.531 104.568 166.349 108.839 166.349C113.102 166.349 115.719 169.54 115.711 175.107C115.703 180.716 113.119 183.974 108.839 183.974ZM108.839 180.99C110.784 180.99 112.047 179.029 112.038 175.107C112.038 171.243 110.775 169.299 108.839 169.299C106.895 169.299 105.64 171.243 105.632 175.107C105.623 179.029 106.886 180.99 108.839 180.99ZM119.671 183.816C118.574 183.816 117.668 182.927 117.676 181.821C117.668 180.733 118.574 179.844 119.671 179.844C120.734 179.844 121.657 180.733 121.665 181.821C121.657 182.927 120.734 183.816 119.671 183.816ZM130.502 183.974C126.215 183.965 123.614 180.7 123.63 175.107C123.639 169.531 126.231 166.349 130.502 166.349C134.765 166.349 137.383 169.54 137.374 175.107C137.366 180.716 134.782 183.974 130.502 183.974ZM130.502 180.99C132.447 180.99 133.71 179.029 133.702 175.107C133.702 171.243 132.439 169.299 130.502 169.299C128.558 169.299 127.303 171.243 127.295 175.107C127.287 179.029 128.55 180.99 130.502 180.99ZM146.613 183.974C142.325 183.965 139.724 180.7 139.741 175.107C139.749 169.531 142.342 166.349 146.613 166.349C150.876 166.349 153.493 169.54 153.485 175.107C153.476 180.716 150.892 183.974 146.613 183.974ZM146.613 180.99C148.557 180.99 149.82 179.029 149.812 175.107C149.812 171.243 148.549 169.299 146.613 169.299C144.668 169.299 143.413 171.243 143.405 175.107C143.397 179.029 144.66 180.99 146.613 180.99ZM175.377 172.082H173.69C173.116 172.082 172.809 171.817 172.535 171.301C171.936 170.18 170.815 169.531 169.286 169.531C166.685 169.531 164.915 171.534 164.915 175.074C164.915 178.63 166.618 180.65 169.319 180.65C171.712 180.65 173.15 179.312 173.199 177.201H170.54C169.892 177.201 169.543 176.852 169.543 176.204V175.489C169.543 174.841 169.892 174.492 170.54 174.492H175.667C176.316 174.492 176.665 174.841 176.665 175.489V176.636C176.665 181.115 173.598 183.832 169.302 183.832C164.508 183.832 161.267 180.492 161.267 175.107C161.267 169.59 164.732 166.349 169.227 166.349C172.643 166.349 175.36 168.21 176.257 170.986C176.473 171.659 176.075 172.082 175.377 172.082ZM179.367 182.602V167.579C179.367 166.93 179.716 166.581 180.364 166.581H186.082C189.945 166.581 192.181 168.759 192.181 172.141C192.181 174.467 191.109 176.154 189.173 176.985L192.139 182.411C192.513 183.101 192.214 183.6 191.433 183.6H189.621C189.073 183.6 188.691 183.384 188.433 182.893L185.591 177.567H182.965V182.602C182.965 183.251 182.616 183.6 181.968 183.6H180.364C179.716 183.6 179.367 183.251 179.367 182.602ZM182.965 174.675H185.408C187.469 174.675 188.475 173.827 188.475 172.141C188.475 170.445 187.469 169.523 185.392 169.523H182.965V174.675ZM196.793 183.6H195.006C194.275 183.6 193.951 183.151 194.192 182.461L199.394 167.387C199.585 166.831 199.95 166.581 200.532 166.581H203.457C204.039 166.581 204.404 166.831 204.595 167.387L209.789 182.461C210.03 183.159 209.706 183.6 208.975 183.6H207.188C206.606 183.6 206.241 183.334 206.058 182.777L205.061 179.719H198.92L197.923 182.777C197.74 183.334 197.374 183.6 196.793 183.6ZM199.834 176.91H204.155L202.061 170.47H201.928L199.834 176.91Z" fill="#FAFAFA"/>
<path d="M71.4208 145.745H72.1073C72.3413 145.745 72.4985 145.837 72.6098 146.04L74.3663 149.22H74.443L76.1995 146.04C76.3108 145.837 76.468 145.745 76.7019 145.745H77.3884C77.7221 145.745 77.8487 145.96 77.6799 146.251L75.1142 150.669V153.178C75.1142 153.45 74.9646 153.6 74.6923 153.6H74.117C73.8447 153.6 73.6951 153.45 73.6951 153.178V150.669L71.1294 146.251C70.9606 145.96 71.0872 145.745 71.4208 145.745ZM80.3905 153.715C78.6646 153.715 77.5677 152.499 77.5677 150.677C77.5677 148.852 78.6646 147.632 80.3905 147.632C82.1163 147.632 83.2132 148.852 83.2132 150.677C83.2132 152.499 82.1163 153.715 80.3905 153.715ZM80.3981 152.602C81.3378 152.602 81.8057 151.751 81.8057 150.673C81.8057 149.596 81.3378 148.733 80.3981 148.733C79.4432 148.733 78.9753 149.596 78.9753 150.673C78.9753 151.751 79.4432 152.602 80.3981 152.602ZM88.1463 151.122V148.131C88.1463 147.858 88.2958 147.709 88.5681 147.709H89.1127C89.385 147.709 89.5346 147.858 89.5346 148.131V153.178C89.5346 153.45 89.385 153.6 89.1127 153.6H88.6103C88.338 153.6 88.1884 153.45 88.1884 153.178V152.553H88.1271C87.8586 153.212 87.2373 153.676 86.3552 153.676C85.197 153.676 84.3916 152.875 84.3916 151.46V148.131C84.3916 147.858 84.5411 147.709 84.8134 147.709H85.3581C85.6304 147.709 85.7799 147.858 85.7799 148.131V151.245C85.7799 151.993 86.2248 152.464 86.8921 152.464C87.5058 152.464 88.1463 152.019 88.1463 151.122ZM94.7572 153.243L93.3267 148.184C93.2462 147.893 93.3804 147.709 93.6834 147.709H94.2318C94.4849 147.709 94.6383 147.828 94.6997 148.073L95.6432 151.851H95.6969L96.6633 148.073C96.7247 147.831 96.8819 147.709 97.1312 147.709H97.7794C98.0287 147.709 98.1859 147.831 98.2473 148.073L99.2138 151.828H99.2713L100.199 148.073C100.261 147.828 100.414 147.709 100.667 147.709H101.22C101.523 147.709 101.657 147.893 101.576 148.184L100.142 153.243C100.073 153.481 99.9194 153.6 99.6702 153.6H98.9683C98.719 153.6 98.5618 153.485 98.4966 153.243L97.4918 149.619H97.4112L96.4064 153.243C96.3412 153.485 96.1839 153.6 95.9346 153.6H95.229C94.9797 153.6 94.8263 153.481 94.7572 153.243ZM103.378 146.873C102.933 146.873 102.572 146.535 102.572 146.121C102.572 145.703 102.933 145.365 103.378 145.365C103.819 145.365 104.179 145.703 104.179 146.121C104.179 146.535 103.819 146.873 103.378 146.873ZM102.68 153.178V148.131C102.68 147.858 102.829 147.709 103.102 147.709H103.646C103.919 147.709 104.068 147.858 104.068 148.131V153.178C104.068 153.45 103.919 153.6 103.646 153.6H103.102C102.829 153.6 102.68 153.45 102.68 153.178ZM106.884 146.167V153.178C106.884 153.45 106.735 153.6 106.462 153.6H105.918C105.645 153.6 105.496 153.45 105.496 153.178V146.167C105.496 145.895 105.645 145.745 105.918 145.745H106.462C106.735 145.745 106.884 145.895 106.884 146.167ZM109.7 146.167V153.178C109.7 153.45 109.551 153.6 109.278 153.6H108.734C108.461 153.6 108.312 153.45 108.312 153.178V146.167C108.312 145.895 108.461 145.745 108.734 145.745H109.278C109.551 145.745 109.7 145.895 109.7 146.167ZM113.807 153.178V148.131C113.807 147.858 113.956 147.709 114.229 147.709H114.731C115.003 147.709 115.153 147.858 115.153 148.131V148.691H115.214C115.429 148.008 115.993 147.624 116.668 147.624H116.768C117.032 147.636 117.166 147.801 117.166 148.065V148.487C117.166 148.775 117.051 148.905 116.848 148.878C116.741 148.867 116.626 148.859 116.522 148.859C115.759 148.859 115.195 149.389 115.195 150.136V153.178C115.195 153.45 115.046 153.6 114.773 153.6H114.229C113.956 153.6 113.807 153.45 113.807 153.178ZM120.454 153.715C118.679 153.715 117.593 152.537 117.593 150.689C117.593 148.871 118.694 147.632 120.381 147.632C121.831 147.632 123.074 148.541 123.074 150.608V150.612C123.074 150.884 122.924 151.034 122.652 151.034H118.97C118.981 152.043 119.576 152.633 120.473 152.633C120.934 152.633 121.313 152.48 121.547 152.181C121.697 151.985 121.835 151.885 122.073 151.912L122.541 151.966C122.836 152 122.989 152.161 122.893 152.38C122.533 153.197 121.658 153.715 120.454 153.715ZM118.974 150.098H121.743C121.735 149.296 121.198 148.714 120.401 148.714C119.572 148.714 119.016 149.346 118.974 150.098ZM126.818 153.715C125.057 153.715 123.995 152.461 123.995 150.677C123.995 148.878 125.084 147.632 126.81 147.632C128.068 147.632 128.992 148.276 129.265 149.293C129.341 149.576 129.169 149.749 128.881 149.749H128.379C128.133 149.749 128.011 149.63 127.903 149.404C127.715 149.017 127.351 148.752 126.829 148.752C125.974 148.752 125.403 149.465 125.403 150.654C125.403 151.858 125.963 152.583 126.829 152.583C127.316 152.583 127.704 152.353 127.903 151.935C128.011 151.705 128.137 151.586 128.383 151.586H128.881C129.173 151.586 129.338 151.736 129.28 151.981C129.031 153.017 128.137 153.715 126.818 153.715ZM133.089 153.715C131.314 153.715 130.228 152.537 130.228 150.689C130.228 148.871 131.329 147.632 133.016 147.632C134.466 147.632 135.709 148.541 135.709 150.608V150.612C135.709 150.884 135.559 151.034 135.287 151.034H131.605C131.617 152.043 132.211 152.633 133.109 152.633C133.569 152.633 133.948 152.48 134.182 152.181C134.332 151.985 134.47 151.885 134.708 151.912L135.176 151.966C135.471 152 135.624 152.161 135.529 152.38C135.168 153.197 134.294 153.715 133.089 153.715ZM131.609 150.098H134.378C134.37 149.296 133.833 148.714 133.036 148.714C132.207 148.714 131.651 149.346 131.609 150.098ZM137.581 146.873C137.136 146.873 136.776 146.535 136.776 146.121C136.776 145.703 137.136 145.365 137.581 145.365C138.022 145.365 138.383 145.703 138.383 146.121C138.383 146.535 138.022 146.873 137.581 146.873ZM136.883 153.178V148.131C136.883 147.858 137.033 147.709 137.305 147.709H137.85C138.122 147.709 138.272 147.858 138.272 148.131V153.178C138.272 153.45 138.122 153.6 137.85 153.6H137.305C137.033 153.6 136.883 153.45 136.883 153.178ZM144.789 148.192L142.986 153.258C142.906 153.488 142.748 153.6 142.503 153.6H141.69C141.444 153.6 141.287 153.488 141.207 153.258L139.404 148.192C139.301 147.9 139.435 147.709 139.745 147.709H140.344C140.589 147.709 140.746 147.82 140.819 148.058L142.066 152.085H142.127L143.377 148.058C143.45 147.82 143.607 147.709 143.853 147.709H144.447C144.758 147.709 144.892 147.9 144.789 148.192ZM148.33 153.715C146.554 153.715 145.469 152.537 145.469 150.689C145.469 148.871 146.569 147.632 148.257 147.632C149.706 147.632 150.949 148.541 150.949 150.608V150.612C150.949 150.884 150.799 151.034 150.527 151.034H146.845C146.857 152.043 147.451 152.633 148.349 152.633C148.809 152.633 149.189 152.48 149.423 152.181C149.572 151.985 149.71 151.885 149.948 151.912L150.416 151.966C150.711 152 150.865 152.161 150.769 152.38C150.408 153.197 149.534 153.715 148.33 153.715ZM146.849 150.098H149.618C149.611 149.296 149.074 148.714 148.276 148.714C147.447 148.714 146.891 149.346 146.849 150.098Z" fill="#A5A3AC"/>
<path d="M77.8295 221.767V228.777C77.8295 229.05 77.6799 229.199 77.4076 229.199H76.8899C76.6636 229.199 76.5102 229.115 76.3798 228.931L72.8629 223.849H72.7977V228.777C72.7977 229.05 72.6481 229.199 72.3758 229.199H71.7967C71.5244 229.199 71.3748 229.05 71.3748 228.777V221.767C71.3748 221.494 71.5244 221.345 71.7967 221.345H72.3221C72.5484 221.345 72.7056 221.429 72.8322 221.613L76.3453 226.699H76.4143V221.767C76.4143 221.494 76.5639 221.345 76.8362 221.345H77.4076C77.6799 221.345 77.8295 221.494 77.8295 221.767ZM81.9265 229.314C80.1508 229.314 79.0654 228.137 79.0654 226.288C79.0654 224.47 80.1661 223.232 81.8536 223.232C83.3033 223.232 84.5459 224.141 84.5459 226.208V226.212C84.5459 226.484 84.3964 226.633 84.1241 226.633H80.4422C80.4538 227.642 81.0482 228.233 81.9457 228.233C82.4059 228.233 82.7856 228.079 83.0195 227.78C83.1691 227.585 83.3072 227.485 83.5449 227.512L84.0128 227.565C84.3082 227.6 84.4616 227.761 84.3657 227.98C84.0052 228.797 83.1307 229.314 81.9265 229.314ZM80.4461 225.698H83.2151C83.2074 224.896 82.6705 224.313 81.8728 224.313C81.0444 224.313 80.4883 224.946 80.4461 225.698ZM88.6621 223.73V223.96C88.6621 224.233 88.5125 224.382 88.2402 224.382H87.5V227.427C87.5 227.987 87.78 228.11 88.129 228.11H88.1367C88.2709 228.11 88.5624 228.191 88.6199 228.451L88.6813 228.735C88.7388 229 88.6353 229.195 88.3668 229.241C88.2479 229.261 88.1098 229.276 87.9526 229.28C86.9094 229.31 86.104 228.766 86.1117 227.657V224.382H85.6975C85.4252 224.382 85.2756 224.233 85.2756 223.96V223.73C85.2756 223.458 85.4252 223.308 85.6936 223.308H86.1117V222.319C86.1117 222.047 86.2612 221.897 86.5335 221.897H87.0782C87.3505 221.897 87.5 222.047 87.5 222.319V223.308H88.2402C88.5125 223.308 88.6621 223.458 88.6621 223.73ZM90.9393 228.843L89.5087 223.784C89.4282 223.492 89.5624 223.308 89.8654 223.308H90.4138C90.667 223.308 90.8204 223.427 90.8817 223.673L91.8252 227.45H91.8789L92.8454 223.673C92.9067 223.431 93.064 223.308 93.3133 223.308H93.9614C94.2107 223.308 94.368 223.431 94.4293 223.673L95.3958 227.427H95.4533L96.3815 223.673C96.4428 223.427 96.5962 223.308 96.8493 223.308H97.4016C97.7046 223.308 97.8388 223.492 97.7583 223.784L96.3239 228.843C96.2549 229.08 96.1015 229.199 95.8522 229.199H95.1503C94.9011 229.199 94.7438 229.084 94.6786 228.843L93.6738 225.218H93.5932L92.5884 228.843C92.5232 229.084 92.366 229.199 92.1167 229.199H91.411C91.1617 229.199 91.0083 229.08 90.9393 228.843ZM101.273 229.314C99.5474 229.314 98.4506 228.099 98.4506 226.277C98.4506 224.451 99.5474 223.232 101.273 223.232C102.999 223.232 104.096 224.451 104.096 226.277C104.096 228.099 102.999 229.314 101.273 229.314ZM101.281 228.202C102.221 228.202 102.688 227.351 102.688 226.273C102.688 225.195 102.221 224.332 101.281 224.332C100.326 224.332 99.8581 225.195 99.8581 226.273C99.8581 227.351 100.326 228.202 101.281 228.202ZM105.274 228.777V223.73C105.274 223.458 105.424 223.308 105.696 223.308H106.199C106.471 223.308 106.621 223.458 106.621 223.73V224.29H106.682C106.897 223.607 107.46 223.224 108.135 223.224H108.235C108.5 223.235 108.634 223.4 108.634 223.665V224.087C108.634 224.375 108.519 224.505 108.316 224.478C108.208 224.467 108.093 224.459 107.99 224.459C107.227 224.459 106.663 224.988 106.663 225.736V228.777C106.663 229.05 106.513 229.199 106.241 229.199H105.696C105.424 229.199 105.274 229.05 105.274 228.777ZM109.556 228.777V221.767C109.556 221.494 109.706 221.345 109.978 221.345H110.523C110.795 221.345 110.945 221.494 110.945 221.767V225.675H111.041L112.951 223.538C113.096 223.374 113.25 223.308 113.468 223.308H114.082C114.45 223.308 114.561 223.55 114.316 223.826L112.498 225.851L114.542 228.685C114.745 228.969 114.63 229.199 114.281 229.199H113.576C113.349 229.199 113.196 229.119 113.066 228.935L111.451 226.679L110.945 227.22V228.777C110.945 229.05 110.795 229.199 110.523 229.199H109.978C109.706 229.199 109.556 229.05 109.556 228.777Z" fill="#A5A3AC"/>
<path d="M77.8295 264.968V271.979C77.8295 272.251 77.6799 272.4 77.4076 272.4H76.8899C76.6636 272.4 76.5102 272.316 76.3798 272.132L72.8629 267.05H72.7977V271.979C72.7977 272.251 72.6481 272.4 72.3758 272.4H71.7967C71.5244 272.4 71.3748 272.251 71.3748 271.979V264.968C71.3748 264.695 71.5244 264.546 71.7967 264.546H72.3221C72.5484 264.546 72.7056 264.63 72.8322 264.814L76.3453 269.9H76.4143V264.968C76.4143 264.695 76.5639 264.546 76.8362 264.546H77.4076C77.6799 264.546 77.8295 264.695 77.8295 264.968ZM81.9265 272.515C80.1508 272.515 79.0654 271.338 79.0654 269.489C79.0654 267.672 80.1661 266.433 81.8536 266.433C83.3033 266.433 84.5459 267.342 84.5459 269.409V269.413C84.5459 269.685 84.3964 269.835 84.1241 269.835H80.4422C80.4538 270.843 81.0482 271.434 81.9457 271.434C82.4059 271.434 82.7856 271.281 83.0195 270.981C83.1691 270.786 83.3072 270.686 83.5449 270.713L84.0128 270.767C84.3082 270.801 84.4616 270.962 84.3657 271.181C84.0052 271.998 83.1307 272.515 81.9265 272.515ZM80.4461 268.899H83.2151C83.2074 268.097 82.6705 267.514 81.8728 267.514C81.0444 267.514 80.4883 268.147 80.4461 268.899ZM88.6621 266.931V267.161C88.6621 267.434 88.5125 267.583 88.2402 267.583H87.5V270.629C87.5 271.188 87.78 271.311 88.129 271.311H88.1367C88.2709 271.311 88.5624 271.392 88.6199 271.653L88.6813 271.936C88.7388 272.201 88.6353 272.397 88.3668 272.443C88.2479 272.462 88.1098 272.477 87.9526 272.481C86.9094 272.512 86.104 271.967 86.1117 270.859V267.583H85.6975C85.4252 267.583 85.2756 267.434 85.2756 267.161V266.931C85.2756 266.659 85.4252 266.509 85.6936 266.509H86.1117V265.52C86.1117 265.248 86.2612 265.098 86.5335 265.098H87.0782C87.3505 265.098 87.5 265.248 87.5 265.52V266.509H88.2402C88.5125 266.509 88.6621 266.659 88.6621 266.931ZM90.9393 272.044L89.5087 266.985C89.4282 266.694 89.5624 266.509 89.8654 266.509H90.4138C90.667 266.509 90.8204 266.628 90.8817 266.874L91.8252 270.652H91.8789L92.8454 266.874C92.9067 266.632 93.064 266.509 93.3133 266.509H93.9614C94.2107 266.509 94.368 266.632 94.4293 266.874L95.3958 270.629H95.4533L96.3815 266.874C96.4428 266.628 96.5962 266.509 96.8493 266.509H97.4016C97.7046 266.509 97.8388 266.694 97.7583 266.985L96.3239 272.044C96.2549 272.281 96.1015 272.4 95.8522 272.4H95.1503C94.9011 272.4 94.7438 272.285 94.6786 272.044L93.6738 268.419H93.5932L92.5884 272.044C92.5232 272.285 92.366 272.4 92.1167 272.4H91.411C91.1617 272.4 91.0083 272.281 90.9393 272.044ZM101.273 272.515C99.5474 272.515 98.4506 271.3 98.4506 269.478C98.4506 267.652 99.5474 266.433 101.273 266.433C102.999 266.433 104.096 267.652 104.096 269.478C104.096 271.3 102.999 272.515 101.273 272.515ZM101.281 271.403C102.221 271.403 102.688 270.552 102.688 269.474C102.688 268.396 102.221 267.533 101.281 267.533C100.326 267.533 99.8581 268.396 99.8581 269.474C99.8581 270.552 100.326 271.403 101.281 271.403ZM105.274 271.979V266.931C105.274 266.659 105.424 266.509 105.696 266.509H106.199C106.471 266.509 106.621 266.659 106.621 266.931V267.491H106.682C106.897 266.809 107.46 266.425 108.135 266.425H108.235C108.5 266.437 108.634 266.602 108.634 266.866V267.288C108.634 267.576 108.519 267.706 108.316 267.679C108.208 267.668 108.093 267.66 107.99 267.66C107.227 267.66 106.663 268.189 106.663 268.937V271.979C106.663 272.251 106.513 272.4 106.241 272.4H105.696C105.424 272.4 105.274 272.251 105.274 271.979ZM109.556 271.979V264.968C109.556 264.695 109.706 264.546 109.978 264.546H110.523C110.795 264.546 110.945 264.695 110.945 264.968V268.876H111.041L112.951 266.74C113.096 266.575 113.25 266.509 113.468 266.509H114.082C114.45 266.509 114.561 266.751 114.316 267.027L112.498 269.052L114.542 271.886C114.745 272.17 114.63 272.4 114.281 272.4H113.576C113.349 272.4 113.196 272.32 113.066 272.136L111.451 269.881L110.945 270.421V271.979C110.945 272.251 110.795 272.4 110.523 272.4H109.978C109.706 272.4 109.556 272.251 109.556 271.979ZM121.368 266.931V267.161C121.368 267.434 121.218 267.583 120.946 267.583H120.145V271.979C120.145 272.251 119.995 272.4 119.723 272.4H119.178C118.906 272.4 118.756 272.251 118.756 271.979V267.583H118.307C118.035 267.583 117.886 267.434 117.886 267.161V266.931C117.886 266.659 118.035 266.509 118.307 266.509H118.756V265.953C118.756 264.764 119.573 264.178 120.597 264.178C120.839 264.178 121.061 264.205 121.245 264.235C121.514 264.285 121.613 264.481 121.544 264.749L121.475 265.018C121.41 265.275 121.287 265.382 121.119 265.351C121.038 265.336 120.95 265.328 120.854 265.328C120.336 265.328 120.145 265.585 120.145 266.045V266.509H120.946C121.218 266.509 121.368 266.659 121.368 266.931ZM124.842 272.515C123.066 272.515 121.981 271.338 121.981 269.489C121.981 267.672 123.081 266.433 124.769 266.433C126.219 266.433 127.461 267.342 127.461 269.409V269.413C127.461 269.685 127.312 269.835 127.039 269.835H123.357C123.369 270.843 123.963 271.434 124.861 271.434C125.321 271.434 125.701 271.281 125.935 270.981C126.084 270.786 126.222 270.686 126.46 270.713L126.928 270.767C127.223 270.801 127.377 270.962 127.281 271.181C126.92 271.998 126.046 272.515 124.842 272.515ZM123.361 268.899H126.13C126.123 268.097 125.586 267.514 124.788 267.514C123.96 267.514 123.404 268.147 123.361 268.899ZM131.244 272.515C129.468 272.515 128.383 271.338 128.383 269.489C128.383 267.672 129.483 266.433 131.171 266.433C132.621 266.433 133.863 267.342 133.863 269.409V269.413C133.863 269.685 133.714 269.835 133.441 269.835H129.759C129.771 270.843 130.365 271.434 131.263 271.434C131.723 271.434 132.103 271.281 132.337 270.981C132.486 270.786 132.624 270.686 132.862 270.713L133.33 270.767C133.625 270.801 133.779 270.962 133.683 271.181C133.322 271.998 132.448 272.515 131.244 272.515ZM129.763 268.899H132.532C132.525 268.097 131.988 267.514 131.19 267.514C130.362 267.514 129.805 268.147 129.763 268.899Z" fill="#A5A3AC"/>
<path d="M393.979 223.504H393.43C393.181 223.504 393.066 223.381 392.963 223.147C392.759 222.699 392.261 222.442 391.578 222.442C390.688 222.442 390.159 222.875 390.155 223.466C390.148 224.121 390.846 224.394 391.49 224.547L392.226 224.731C393.407 225.011 394.531 225.632 394.535 226.994C394.531 228.378 393.438 229.318 391.555 229.318C389.906 229.318 388.801 228.605 388.556 227.324C388.502 227.04 388.671 226.879 388.955 226.879H389.526C389.779 226.879 389.894 227.009 389.983 227.251C390.197 227.822 390.8 228.102 391.544 228.102C392.472 228.102 393.108 227.654 393.112 226.982C393.108 226.373 392.548 226.108 391.701 225.893L390.807 225.663C389.515 225.329 388.713 224.681 388.713 223.554C388.709 222.165 389.948 221.237 391.597 221.237C393.078 221.237 394.132 221.974 394.374 223.059C394.435 223.339 394.263 223.504 393.979 223.504ZM398.312 229.314C396.586 229.314 395.489 228.099 395.489 226.277C395.489 224.451 396.586 223.232 398.312 223.232C400.038 223.232 401.134 224.451 401.134 226.277C401.134 228.099 400.038 229.314 398.312 229.314ZM398.319 228.202C399.259 228.202 399.727 227.351 399.727 226.273C399.727 225.195 399.259 224.332 398.319 224.332C397.364 224.332 396.897 225.195 396.897 226.273C396.897 227.351 397.364 228.202 398.319 228.202ZM403.701 221.767V228.777C403.701 229.05 403.552 229.199 403.279 229.199H402.735C402.462 229.199 402.313 229.05 402.313 228.777V221.767C402.313 221.494 402.462 221.345 402.735 221.345H403.279C403.552 221.345 403.701 221.494 403.701 221.767ZM406.824 229.318C405.7 229.318 404.853 228.704 404.853 227.546C404.853 226.219 405.946 225.878 407.089 225.755C408.128 225.644 408.546 225.625 408.546 225.226V225.203C408.546 224.624 408.193 224.294 407.549 224.294C407.054 224.294 406.713 224.478 406.51 224.731C406.36 224.927 406.226 225.026 405.984 224.992L405.52 224.927C405.225 224.885 405.083 224.681 405.225 224.413C405.643 223.63 406.487 223.232 407.541 223.232C408.665 223.232 409.934 223.7 409.934 225.257V228.777C409.934 229.05 409.785 229.199 409.513 229.199H409.022C408.749 229.199 408.6 229.053 408.6 228.793V228.39H408.554C408.301 228.885 407.748 229.318 406.824 229.318ZM407.185 228.298C408.021 228.298 408.55 227.742 408.55 227.086V226.392C408.37 226.538 407.641 226.63 407.277 226.679C406.655 226.768 406.191 226.99 406.191 227.523C406.191 228.033 406.605 228.298 407.185 228.298ZM412.719 225.748V228.777C412.719 229.05 412.569 229.199 412.297 229.199H411.752C411.48 229.199 411.33 229.05 411.33 228.777V223.73C411.33 223.458 411.48 223.308 411.752 223.308H412.236C412.508 223.308 412.657 223.458 412.657 223.73V224.309H412.726C412.995 223.653 413.601 223.232 414.483 223.232C415.699 223.232 416.504 224.037 416.5 225.448V228.777C416.5 229.05 416.351 229.199 416.078 229.199H415.534C415.262 229.199 415.112 229.05 415.112 228.777V225.663C415.112 224.877 414.682 224.405 413.965 224.405C413.233 224.405 412.719 224.896 412.719 225.748ZM419.607 229.318C418.483 229.318 417.636 228.704 417.636 227.546C417.636 226.219 418.729 225.878 419.871 225.755C420.911 225.644 421.329 225.625 421.329 225.226V225.203C421.329 224.624 420.976 224.294 420.332 224.294C419.837 224.294 419.496 224.478 419.292 224.731C419.143 224.927 419.009 225.026 418.767 224.992L418.303 224.927C418.008 224.885 417.866 224.681 418.008 224.413C418.426 223.63 419.269 223.232 420.324 223.232C421.448 223.232 422.717 223.7 422.717 225.257V228.777C422.717 229.05 422.568 229.199 422.295 229.199H421.804C421.532 229.199 421.383 229.053 421.383 228.793V228.39H421.337C421.083 228.885 420.531 229.318 419.607 229.318ZM419.967 228.298C420.803 228.298 421.333 227.742 421.333 227.086V226.392C421.152 226.538 420.424 226.63 420.059 226.679C419.438 226.768 418.974 226.99 418.974 227.523C418.974 228.033 419.388 228.298 419.967 228.298Z" fill="#FAFAFA"/>
<path d="M341.341 270.21H341.057C340.781 270.21 340.616 270.057 340.643 269.773C340.746 268.673 341.394 268.12 342.242 268.12C342.737 268.12 343.124 268.308 343.688 268.803C344.006 269.083 344.175 269.217 344.447 269.217C344.735 269.217 344.961 269.052 345.049 268.719C345.118 268.454 345.23 268.312 345.49 268.312H345.774C346.05 268.312 346.219 268.465 346.188 268.749C346.081 269.85 345.425 270.398 344.593 270.398C344.079 270.398 343.684 270.195 343.139 269.72C342.802 269.424 342.652 269.305 342.384 269.305C342.1 269.305 341.87 269.451 341.782 269.804C341.713 270.069 341.602 270.21 341.341 270.21ZM350.652 272.55C348.757 272.55 347.626 271.054 347.626 268.481C347.63 265.915 348.765 264.438 350.652 264.438C352.539 264.438 353.678 265.919 353.678 268.481C353.678 271.058 352.546 272.554 350.652 272.55ZM350.652 271.35C351.634 271.35 352.243 270.368 352.243 268.481C352.24 266.609 351.63 265.624 350.652 265.624C349.678 265.624 349.068 266.609 349.064 268.481C349.06 270.368 349.674 271.35 350.652 271.35ZM355.517 272.485C355.049 272.485 354.669 272.109 354.673 271.641C354.669 271.181 355.049 270.805 355.517 270.805C355.969 270.805 356.357 271.181 356.36 271.641C356.357 272.109 355.969 272.485 355.517 272.485ZM360.376 272.55C358.481 272.55 357.35 271.054 357.35 268.481C357.354 265.915 358.489 264.438 360.376 264.438C362.263 264.438 363.402 265.919 363.402 268.481C363.402 271.058 362.271 272.554 360.376 272.55ZM360.376 271.35C361.358 271.35 361.968 270.368 361.968 268.481C361.964 266.609 361.354 265.624 360.376 265.624C359.402 265.624 358.792 266.609 358.788 268.481C358.784 270.368 359.398 271.35 360.376 271.35ZM367.579 272.55C365.685 272.55 364.553 271.054 364.553 268.481C364.557 265.915 365.693 264.438 367.579 264.438C369.466 264.438 370.605 265.919 370.605 268.481C370.605 271.058 369.474 272.554 367.579 272.55ZM367.579 271.35C368.561 271.35 369.171 270.368 369.171 268.481C369.167 266.609 368.557 265.624 367.579 265.624C366.605 265.624 365.996 266.609 365.992 268.481C365.988 270.368 366.601 271.35 367.579 271.35ZM374.783 272.55C372.888 272.55 371.757 271.054 371.757 268.481C371.761 265.915 372.896 264.438 374.783 264.438C376.67 264.438 377.809 265.919 377.809 268.481C377.809 271.058 376.678 272.554 374.783 272.55ZM374.783 271.35C375.765 271.35 376.375 270.368 376.375 268.481C376.371 266.609 375.761 265.624 374.783 265.624C373.809 265.624 373.199 266.609 373.195 268.481C373.191 270.368 373.805 271.35 374.783 271.35ZM381.986 272.55C380.092 272.55 378.96 271.054 378.96 268.481C378.964 265.915 380.1 264.438 381.986 264.438C383.873 264.438 385.012 265.919 385.012 268.481C385.012 271.058 383.881 272.554 381.986 272.55ZM381.986 271.35C382.968 271.35 383.578 270.368 383.578 268.481C383.574 266.609 382.964 265.624 381.986 265.624C381.012 265.624 380.403 266.609 380.399 268.481C380.395 270.368 381.008 271.35 381.986 271.35ZM389.19 272.55C387.295 272.55 386.164 271.054 386.164 268.481C386.168 265.915 387.303 264.438 389.19 264.438C391.077 264.438 392.216 265.919 392.216 268.481C392.216 271.058 391.085 272.554 389.19 272.55ZM389.19 271.35C390.172 271.35 390.782 270.368 390.782 268.481C390.778 266.609 390.168 265.624 389.19 265.624C388.216 265.624 387.606 266.609 387.602 268.481C387.598 270.368 388.212 271.35 389.19 271.35ZM396.221 272.508C394.867 272.508 393.824 271.775 393.567 270.709C393.502 270.429 393.678 270.264 393.962 270.264H394.514C394.764 270.264 394.879 270.391 394.978 270.625C395.174 271.07 395.653 271.357 396.221 271.357C397.061 271.357 397.667 270.732 397.663 269.854C397.667 268.964 397.046 268.327 396.183 268.324C395.83 268.32 395.462 268.431 395.189 268.607C395.001 268.73 394.856 268.791 394.637 268.757L394.066 268.661C393.801 268.619 393.678 268.454 393.705 268.189L394.031 264.945C394.058 264.684 394.211 264.546 394.476 264.546H398.208C398.48 264.546 398.629 264.695 398.629 264.968V265.313C398.629 265.585 398.48 265.735 398.208 265.735H395.251L395.024 267.817H395.07C395.362 267.472 395.926 267.219 396.562 267.219C397.989 267.219 399.04 268.308 399.04 269.819C399.04 271.38 397.882 272.508 396.221 272.508ZM408.269 266.705H407.721C407.472 266.705 407.357 266.582 407.253 266.348C407.05 265.9 406.551 265.643 405.868 265.643C404.979 265.643 404.449 266.076 404.446 266.667C404.438 267.323 405.136 267.595 405.78 267.748L406.517 267.932C407.698 268.212 408.822 268.834 408.825 270.195C408.822 271.58 407.729 272.519 405.845 272.519C404.196 272.519 403.092 271.806 402.846 270.525C402.793 270.241 402.961 270.08 403.245 270.08H403.817C404.07 270.08 404.185 270.21 404.273 270.452C404.488 271.024 405.09 271.304 405.834 271.304C406.762 271.304 407.399 270.855 407.403 270.184C407.399 269.574 406.839 269.309 405.991 269.094L405.098 268.864C403.805 268.531 403.004 267.882 403.004 266.755C403 265.367 404.238 264.438 405.888 264.438C407.368 264.438 408.423 265.175 408.664 266.26C408.726 266.54 408.553 266.705 408.269 266.705ZM417.112 268.473C417.112 271.012 415.563 272.508 413.503 272.508C411.44 272.508 409.894 271.008 409.894 268.473C409.894 265.934 411.44 264.438 413.503 264.438C415.563 264.438 417.112 265.934 417.112 268.473ZM415.682 268.473C415.682 266.686 414.784 265.716 413.503 265.716C412.226 265.716 411.325 266.686 411.325 268.473C411.325 270.26 412.226 271.231 413.503 271.231C414.784 271.231 415.682 270.26 415.682 268.473ZM418.458 271.979V264.968C418.458 264.695 418.607 264.546 418.879 264.546H419.459C419.731 264.546 419.88 264.695 419.88 264.968V271.208H422.918C423.19 271.208 423.34 271.357 423.34 271.63V271.979C423.34 272.251 423.19 272.4 422.918 272.4H418.879C418.607 272.4 418.458 272.251 418.458 271.979Z" fill="#FAFAFA"/>
<line x1="70.6001" y1="203.351" x2="423.4" y2="203.351" stroke="#2E2D35" stroke-width="0.9" stroke-dasharray="1.8 1.8"/>
<line x1="70.6001" y1="246.55" x2="423.4" y2="246.55" stroke="#2E2D35" stroke-width="0.9" stroke-dasharray="1.8 1.8"/>
<line x1="70.6001" y1="289.749" x2="423.4" y2="289.749" stroke="#2E2D35" stroke-width="0.9" stroke-dasharray="1.8 1.8"/>
<path d="M49 106.6C49 94.6707 58.6706 85 70.6 85H423.4C435.329 85 445 94.6706 445 106.6V128.2H49V106.6Z" fill="#1E1E1F"/>
<path d="M78.2849 101.983H79.0088C79.3492 101.983 79.5362 102.17 79.5362 102.51V108.397C79.5362 110.506 77.9446 111.949 75.5523 111.949C73.1505 111.949 71.5685 110.506 71.5685 108.397V102.51C71.5685 102.17 71.7555 101.983 72.0958 101.983H72.8197C73.1601 101.983 73.3471 102.17 73.3471 102.51V108.248C73.3471 109.48 74.2004 110.363 75.5523 110.363C76.8995 110.363 77.7576 109.48 77.7576 108.248V102.51C77.7576 102.17 77.9446 101.983 78.2849 101.983ZM83.1281 107.486V111.273C83.1281 111.614 82.9411 111.801 82.6008 111.801H81.92C81.5796 111.801 81.3927 111.614 81.3927 111.273V104.964C81.3927 104.624 81.5796 104.437 81.92 104.437H82.5241C82.8644 104.437 83.0514 104.624 83.0514 104.964V105.688H83.1377C83.4733 104.869 84.2307 104.341 85.3334 104.341C86.8531 104.341 87.8598 105.348 87.855 107.112V111.273C87.855 111.614 87.6681 111.801 87.3277 111.801H86.6469C86.3066 111.801 86.1196 111.614 86.1196 111.273V107.381C86.1196 106.398 85.5827 105.808 84.6862 105.808C83.7705 105.808 83.1281 106.422 83.1281 107.486ZM94.8591 106.446L94.3078 106.508C94.0058 106.542 93.8428 106.407 93.6654 106.153C93.4449 105.856 93.0661 105.636 92.5004 105.636C91.7765 105.636 91.2252 105.981 91.23 106.479C91.2252 106.906 91.5225 107.165 92.2703 107.333L93.5264 107.601C94.9166 107.903 95.5926 108.546 95.5974 109.596C95.5926 110.991 94.2934 111.945 92.4525 111.945C90.9088 111.945 89.8541 111.36 89.4466 110.343C89.3076 110.003 89.509 109.768 89.8685 109.735L90.5253 109.672C90.8321 109.643 90.9903 109.782 91.1581 110.051C91.4026 110.439 91.8437 110.636 92.4477 110.636C93.2723 110.636 93.8188 110.257 93.8188 109.754C93.8188 109.337 93.5024 109.063 92.8264 108.915L91.5704 108.651C90.1562 108.359 89.4946 107.649 89.4994 106.575C89.4946 105.214 90.7027 104.341 92.4765 104.341C93.9291 104.341 94.8687 104.907 95.2714 105.827C95.4152 106.168 95.2235 106.407 94.8591 106.446ZM100.705 104.964V105.252C100.705 105.593 100.518 105.779 100.178 105.779H99.2528V109.586C99.2528 110.286 99.6028 110.439 100.039 110.439H100.049C100.216 110.439 100.581 110.54 100.653 110.866L100.729 111.221C100.801 111.551 100.672 111.796 100.336 111.854C100.188 111.877 100.015 111.897 99.8185 111.901C98.5146 111.94 97.5078 111.259 97.5174 109.874V105.779H96.9996C96.6593 105.779 96.4723 105.593 96.4723 105.252V104.964C96.4723 104.624 96.6593 104.437 96.9949 104.437H97.5174V103.2C97.5174 102.86 97.7044 102.673 98.0447 102.673H98.7255C99.0659 102.673 99.2528 102.86 99.2528 103.2V104.437H100.178C100.518 104.437 100.705 104.624 100.705 104.964ZM104.276 111.949C102.871 111.949 101.812 111.182 101.812 109.735C101.812 108.076 103.178 107.649 104.607 107.496C105.906 107.357 106.428 107.333 106.428 106.834V106.805C106.428 106.081 105.987 105.669 105.182 105.669C104.563 105.669 104.137 105.899 103.883 106.216C103.696 106.46 103.528 106.585 103.226 106.542L102.646 106.46C102.277 106.407 102.099 106.153 102.277 105.818C102.799 104.84 103.854 104.341 105.172 104.341C106.577 104.341 108.164 104.926 108.164 106.873V111.273C108.164 111.614 107.977 111.801 107.636 111.801H107.023C106.682 111.801 106.495 111.619 106.495 111.293V110.789H106.438C106.121 111.408 105.431 111.949 104.276 111.949ZM104.726 110.674C105.772 110.674 106.433 109.979 106.433 109.159V108.292C106.208 108.474 105.297 108.589 104.841 108.651C104.065 108.761 103.485 109.039 103.485 109.706C103.485 110.343 104.003 110.674 104.726 110.674ZM109.909 111.273V102.51C109.909 102.17 110.096 101.983 110.436 101.983H111.117C111.457 101.983 111.644 102.17 111.644 102.51V107.395H111.764L114.152 104.725C114.334 104.519 114.525 104.437 114.799 104.437H115.566C116.026 104.437 116.165 104.739 115.858 105.084L113.586 107.616L116.141 111.158C116.395 111.513 116.251 111.801 115.815 111.801H114.933C114.65 111.801 114.458 111.7 114.295 111.47L112.277 108.651L111.644 109.327V111.273C111.644 111.614 111.457 111.801 111.117 111.801H110.436C110.096 111.801 109.909 111.614 109.909 111.273ZM120.552 111.945C118.332 111.945 116.975 110.473 116.975 108.162C116.975 105.89 118.351 104.341 120.46 104.341C122.273 104.341 123.826 105.477 123.826 108.061V108.066C123.826 108.407 123.639 108.594 123.299 108.594H118.696C118.711 109.854 119.454 110.593 120.576 110.593C121.151 110.593 121.625 110.401 121.918 110.027C122.105 109.782 122.277 109.658 122.575 109.691L123.159 109.759C123.529 109.802 123.72 110.003 123.601 110.276C123.15 111.297 122.057 111.945 120.552 111.945ZM118.701 107.424H122.162C122.153 106.422 121.482 105.693 120.484 105.693C119.449 105.693 118.754 106.484 118.701 107.424Z" fill="#F5F5F5"/>
<path d="M384.175 109.678V102.667C384.175 102.395 384.324 102.245 384.596 102.245H388.861C389.134 102.245 389.283 102.395 389.283 102.667V103.016C389.283 103.288 389.134 103.438 388.861 103.438H385.597V105.57H388.597C388.869 105.57 389.019 105.72 389.019 105.992V106.341C389.019 106.613 388.869 106.763 388.597 106.763H385.597V108.907H388.892C389.164 108.907 389.314 109.056 389.314 109.329V109.678C389.314 109.95 389.164 110.1 388.892 110.1H384.596C384.324 110.1 384.175 109.95 384.175 109.678ZM395.924 104.404H395.375C395.126 104.404 395.011 104.282 394.908 104.048C394.704 103.599 394.206 103.342 393.523 103.342C392.633 103.342 392.104 103.775 392.1 104.366C392.092 105.022 392.79 105.294 393.435 105.447L394.171 105.632C395.352 105.912 396.476 106.533 396.48 107.894C396.476 109.279 395.383 110.219 393.5 110.219C391.851 110.219 390.746 109.505 390.501 108.224C390.447 107.94 390.616 107.779 390.9 107.779H391.471C391.724 107.779 391.839 107.91 391.928 108.151C392.142 108.723 392.744 109.003 393.488 109.003C394.417 109.003 395.053 108.554 395.057 107.883C395.053 107.273 394.493 107.008 393.646 106.794L392.752 106.564C391.46 106.23 390.658 105.582 390.658 104.454C390.654 103.066 391.893 102.138 393.542 102.138C395.023 102.138 396.077 102.874 396.319 103.959C396.38 104.239 396.208 104.404 395.924 104.404ZM404 104.895H403.409C403.16 104.895 403.03 104.772 402.938 104.535C402.665 103.818 401.994 103.415 401.169 103.415C399.885 103.415 398.98 104.4 398.98 106.172C398.98 107.975 399.892 108.93 401.166 108.93C401.975 108.93 402.646 108.546 402.93 107.848C403.026 107.611 403.16 107.495 403.409 107.495L403.996 107.499C404.291 107.499 404.456 107.676 404.368 107.96C403.985 109.241 402.819 110.207 401.146 110.207C399.075 110.207 397.549 108.707 397.549 106.172C397.549 103.633 399.095 102.138 401.146 102.138C402.727 102.138 403.981 102.974 404.376 104.431C404.456 104.719 404.295 104.895 404 104.895Z" fill="#A5A3AC"/>
<g filter="url(#filter0_i_850_14510)">
<path d="M420.426 109.49C420.791 109.855 420.791 110.458 420.426 110.823C420.238 111.012 419.999 111.1 419.76 111.1C419.521 111.1 419.282 111.012 419.093 110.823L416.2 107.931L413.307 110.823C413.118 111.012 412.879 111.1 412.64 111.1C412.401 111.1 412.162 111.012 411.974 110.823C411.609 110.458 411.609 109.855 411.974 109.49L414.867 106.598L411.974 103.706C411.609 103.341 411.609 102.738 411.974 102.373C412.338 102.008 412.942 102.008 413.307 102.373L416.2 105.265L419.093 102.373C419.458 102.008 420.062 102.008 420.426 102.373C420.791 102.738 420.791 103.341 420.426 103.706L417.533 106.598L420.426 109.49Z" fill="#A5A3AC"/>
</g>
<g filter="url(#filter1_i_850_14510)">
<rect x="70.6001" y="311.801" width="352.8" height="39.6" rx="19.8" fill="#90F9FF"/>
<g filter="url(#filter2_i_850_14510)">
<path d="M227.784 327.182H228.508C228.848 327.182 229.035 327.369 229.035 327.709V333.596C229.035 335.706 227.443 337.149 225.051 337.149C222.649 337.149 221.067 335.706 221.067 333.596V327.709C221.067 327.369 221.254 327.182 221.595 327.182H222.319C222.659 327.182 222.846 327.369 222.846 327.709V333.448C222.846 334.68 223.699 335.562 225.051 335.562C226.398 335.562 227.256 334.68 227.256 333.448V327.709C227.256 327.369 227.443 327.182 227.784 327.182ZM232.627 332.685V336.473C232.627 336.813 232.44 337 232.1 337H231.419C231.078 337 230.891 336.813 230.891 336.473V330.164C230.891 329.823 231.078 329.636 231.419 329.636H232.023C232.363 329.636 232.55 329.823 232.55 330.164V330.888H232.636C232.972 330.068 233.73 329.54 234.832 329.54C236.352 329.54 237.359 330.547 237.354 332.311V336.473C237.354 336.813 237.167 337 236.826 337H236.146C235.805 337 235.618 336.813 235.618 336.473V332.58C235.618 331.597 235.081 331.007 234.185 331.007C233.269 331.007 232.627 331.621 232.627 332.685ZM244.358 331.645L243.807 331.707C243.505 331.741 243.342 331.607 243.164 331.353C242.944 331.055 242.565 330.835 241.999 330.835C241.275 330.835 240.724 331.18 240.729 331.679C240.724 332.105 241.021 332.364 241.769 332.532L243.025 332.8C244.415 333.102 245.091 333.745 245.096 334.795C245.091 336.19 243.792 337.144 241.951 337.144C240.408 337.144 239.353 336.559 238.945 335.543C238.806 335.202 239.008 334.967 239.367 334.934L240.024 334.871C240.331 334.843 240.489 334.982 240.657 335.25C240.901 335.638 241.342 335.835 241.946 335.835C242.771 335.835 243.318 335.456 243.318 334.953C243.318 334.536 243.001 334.263 242.325 334.114L241.069 333.85C239.655 333.558 238.993 332.848 238.998 331.775C238.993 330.413 240.201 329.54 241.975 329.54C243.428 329.54 244.367 330.106 244.77 331.027C244.914 331.367 244.722 331.607 244.358 331.645ZM250.204 330.164V330.451C250.204 330.792 250.017 330.979 249.677 330.979H248.752V334.785C248.752 335.485 249.102 335.638 249.538 335.638H249.547C249.715 335.638 250.08 335.739 250.151 336.065L250.228 336.42C250.3 336.751 250.171 336.995 249.835 337.053C249.686 337.077 249.514 337.096 249.317 337.101C248.013 337.139 247.007 336.458 247.016 335.073V330.979H246.498C246.158 330.979 245.971 330.792 245.971 330.451V330.164C245.971 329.823 246.158 329.636 246.494 329.636H247.016V328.4C247.016 328.059 247.203 327.872 247.544 327.872H248.224C248.565 327.872 248.752 328.059 248.752 328.4V329.636H249.677C250.017 329.636 250.204 329.823 250.204 330.164ZM253.775 337.149C252.37 337.149 251.31 336.382 251.31 334.934C251.31 333.275 252.677 332.848 254.105 332.695C255.405 332.556 255.927 332.532 255.927 332.033V332.005C255.927 331.281 255.486 330.868 254.681 330.868C254.062 330.868 253.636 331.099 253.381 331.415C253.194 331.659 253.027 331.784 252.725 331.741L252.145 331.659C251.775 331.607 251.598 331.353 251.775 331.017C252.298 330.039 253.353 329.54 254.671 329.54C256.076 329.54 257.663 330.125 257.663 332.072V336.473C257.663 336.813 257.476 337 257.135 337H256.522C256.181 337 255.994 336.818 255.994 336.492V335.988H255.937C255.62 336.607 254.93 337.149 253.775 337.149ZM254.225 335.873C255.27 335.873 255.932 335.178 255.932 334.358V333.491C255.707 333.673 254.796 333.788 254.34 333.85C253.564 333.961 252.984 334.239 252.984 334.905C252.984 335.543 253.501 335.873 254.225 335.873ZM259.408 336.473V327.709C259.408 327.369 259.595 327.182 259.935 327.182H260.616C260.956 327.182 261.143 327.369 261.143 327.709V332.594H261.263L263.65 329.924C263.832 329.718 264.024 329.636 264.297 329.636H265.065C265.525 329.636 265.664 329.938 265.357 330.284L263.085 332.815L265.64 336.358C265.894 336.712 265.75 337 265.314 337H264.432C264.149 337 263.957 336.899 263.794 336.669L261.776 333.85L261.143 334.526V336.473C261.143 336.813 260.956 337 260.616 337H259.935C259.595 337 259.408 336.813 259.408 336.473ZM270.05 337.144C267.831 337.144 266.474 335.672 266.474 333.361C266.474 331.089 267.85 329.54 269.959 329.54C271.771 329.54 273.325 330.677 273.325 333.261V333.265C273.325 333.606 273.138 333.793 272.797 333.793H268.195C268.209 335.054 268.952 335.792 270.074 335.792C270.65 335.792 271.124 335.6 271.417 335.226C271.604 334.982 271.776 334.857 272.073 334.891L272.658 334.958C273.027 335.001 273.219 335.202 273.099 335.475C272.649 336.497 271.556 337.144 270.05 337.144ZM268.2 332.623H271.661C271.652 331.621 270.98 330.892 269.983 330.892C268.948 330.892 268.253 331.683 268.2 332.623Z" fill="#0D0D0D"/>
</g>
</g>
<defs>
<filter id="filter0_i_850_14510" x="411.7" y="102.1" width="9" height="9.27" filterUnits="userSpaceOnUse" color-interpolation-filters="sRGB">
<feFlood flood-opacity="0" result="BackgroundImageFix"/>
<feBlend mode="normal" in="SourceGraphic" in2="BackgroundImageFix" result="shape"/>
<feColorMatrix in="SourceAlpha" type="matrix" values="0 0 0 0 0 0 0 0 0 0 0 0 0 0 0 0 0 0 127 0" result="hardAlpha"/>
<feOffset dy="0.45"/>
<feGaussianBlur stdDeviation="0.135"/>
<feComposite in2="hardAlpha" operator="arithmetic" k2="-1" k3="1"/>
<feColorMatrix type="matrix" values="0 0 0 0 0 0 0 0 0 0 0 0 0 0 0 0 0 0 0.3 0"/>
<feBlend mode="normal" in2="shape" result="effect1_innerShadow_850_14510"/>
</filter>
<filter id="filter1_i_850_14510" x="70.6001" y="311.801" width="352.8" height="40.4996" filterUnits="userSpaceOnUse" color-interpolation-filters="sRGB">
<feFlood flood-opacity="0" result="BackgroundImageFix"/>
<feBlend mode="normal" in="SourceGraphic" in2="BackgroundImageFix" result="shape"/>
<feColorMatrix in="SourceAlpha" type="matrix" values="0 0 0 0 0 0 0 0 0 0 0 0 0 0 0 0 0 0 127 0" result="hardAlpha"/>
<feMorphology radius="0.18" operator="erode" in="SourceAlpha" result="effect1_innerShadow_850_14510"/>
<feOffset dy="0.9"/>
<feGaussianBlur stdDeviation="0.45"/>
<feComposite in2="hardAlpha" operator="arithmetic" k2="-1" k3="1"/>
<feColorMatrix type="matrix" values="0 0 0 0 1 0 0 0 0 0.999947 0 0 0 0 0.99993 0 0 0 1 0"/>
<feBlend mode="normal" in2="shape" result="effect1_innerShadow_850_14510"/>
</filter>
<filter id="filter2_i_850_14510" x="221.067" y="327.182" width="52.2573" height="10.1468" filterUnits="userSpaceOnUse" color-interpolation-filters="sRGB">
<feFlood flood-opacity="0" result="BackgroundImageFix"/>
<feBlend mode="normal" in="SourceGraphic" in2="BackgroundImageFix" result="shape"/>
<feColorMatrix in="SourceAlpha" type="matrix" values="0 0 0 0 0 0 0 0 0 0 0 0 0 0 0 0 0 0 127 0" result="hardAlpha"/>
<feOffset dy="0.45"/>
<feGaussianBlur stdDeviation="0.09"/>
<feComposite in2="hardAlpha" operator="arithmetic" k2="-1" k3="1"/>
<feColorMatrix type="matrix" values="0 0 0 0 1 0 0 0 0 1 0 0 0 0 1 0 0 0 0.2 0"/>
<feBlend mode="normal" in2="shape" result="effect1_innerShadow_850_14510"/>
</filter>
</defs>
</svg>
