<svg width="62" height="32" viewBox="0 0 62 32" fill="none" xmlns="http://www.w3.org/2000/svg">
<g clip-path="url(#clip0_889_4635)">
<path fill-rule="evenodd" clip-rule="evenodd" d="M54.827 11.0929C55.0237 11.0929 55.2164 11.1443 55.4043 11.2476C55.5896 11.3489 55.742 11.5033 55.8429 11.6918C55.9473 11.884 56 12.0849 56 12.294C56 12.5007 55.9484 12.6997 55.845 12.8902C55.7449 13.0778 55.5944 13.2321 55.4112 13.3349C55.2332 13.4385 55.0319 13.4931 54.827 13.4934C54.6222 13.4931 54.4209 13.4384 54.2428 13.3349C54.0593 13.2321 53.9085 13.0778 53.808 12.8902C53.7065 12.7086 53.6529 12.5032 53.6524 12.294C53.6524 12.0849 53.7051 11.884 53.8101 11.6918C53.9114 11.5032 54.0643 11.3488 54.25 11.2476C54.4266 11.1474 54.6251 11.0942 54.827 11.0929ZM54.827 11.2917C54.6621 11.2917 54.5018 11.3351 54.3457 11.4215C54.1896 11.5079 54.0675 11.6317 53.9793 11.7919C53.8911 11.9526 53.8473 12.1199 53.8473 12.294C53.8473 12.4665 53.8906 12.6321 53.9772 12.7907C54.0632 12.9492 54.1843 13.073 54.3398 13.1616C54.4882 13.2481 54.656 13.2939 54.8268 13.2944C54.9975 13.2938 55.1653 13.248 55.3137 13.1616C55.4664 13.0758 55.592 12.9471 55.6756 12.7907C55.7616 12.6321 55.8044 12.4665 55.8044 12.294C55.8044 12.1196 55.7611 11.9523 55.6734 11.7919C55.5858 11.6317 55.4636 11.5079 55.307 11.4215C55.1504 11.3351 54.9906 11.2917 54.827 11.2917ZM54.3123 12.9571V11.6659H54.7455C54.8944 11.6659 55.0018 11.6773 55.0681 11.7011C55.1344 11.7249 55.187 11.7667 55.2268 11.826C55.2659 11.8859 55.2859 11.9488 55.2859 12.0155C55.2859 12.11 55.253 12.1921 55.1873 12.2618C55.121 12.332 55.0339 12.3708 54.9248 12.3798C54.9697 12.3987 55.0058 12.4214 55.0323 12.4482C55.0828 12.4993 55.1451 12.5846 55.2191 12.7046L55.373 12.9571H55.1239L55.0117 12.7535C54.9235 12.5939 54.8529 12.4935 54.7987 12.4534C54.7615 12.4236 54.7068 12.4088 54.6354 12.4088H54.5159V12.9571H54.3123ZM54.5159 12.2306H54.7634C54.8813 12.2306 54.9617 12.212 55.005 12.1762C55.0259 12.1591 55.0427 12.1373 55.0539 12.1124C55.0651 12.0875 55.0705 12.0603 55.0697 12.033C55.0698 11.9963 55.0589 11.9605 55.0384 11.9305C55.0168 11.8999 54.9869 11.8765 54.9524 11.8632C54.9152 11.8479 54.8473 11.8408 54.7471 11.8408H54.5159V12.2306ZM32.1992 11.0139H32.2382V13.7736H29.5122V11.0139H32.1992ZM20.3352 16.8498L26.64 17.2497C26.9022 17.2497 27.1165 17.4692 27.1165 17.7371C27.1165 18.005 26.9022 18.2245 26.64 18.2245H17.6547V14.6322C17.9307 15.7414 18.8811 16.6486 20.3352 16.8498ZM17.6547 20.9997H26.8407C28.1797 20.9997 29.304 20.0116 29.5518 18.7132C29.7704 20.0072 30.8771 20.9997 32.1994 20.9997H38.0686C39.3797 20.9997 40.4795 20.0233 40.7104 18.7446V20.9997H50.1207C51.6398 20.9997 52.8825 19.7287 52.8825 18.1744V17.7745C52.8825 16.2209 51.6398 14.9498 50.1207 14.9498L49.6043 14.9266C46.6766 14.7948 43.7576 14.6439 40.8336 14.4895C41.0613 15.663 42.0296 16.6399 43.5457 16.8498L49.9197 17.2497C50.046 17.2501 50.1671 17.3015 50.2565 17.3928C50.3458 17.4841 50.3963 17.6079 50.3968 17.7371C50.3963 17.8663 50.3458 17.9901 50.2565 18.0814C50.1671 18.1727 50.046 18.2241 49.9197 18.2245H40.7553V14.4854L38.0296 14.3416V17.5397C38.029 17.7554 37.945 17.962 37.7959 18.1145C37.6468 18.267 37.4448 18.3529 37.234 18.3535H33.0341C32.8232 18.353 32.6211 18.2671 32.472 18.1146C32.3229 17.9621 32.2389 17.7554 32.2385 17.5397V14.036L29.5122 13.8922V17.0625C29.2006 15.8633 28.1182 14.9987 26.8407 14.9987L14.8349 14.1959V21L17.6547 20.9997ZM29.079 13.775V11H20.3352C19.0444 11 17.9535 11.9176 17.6547 13.1468V11.0137H12.4355L10.6569 13.7736H17.5742L29.079 13.775ZM13.6835 14.1276L9.37248 20.9997H6L10.5481 13.9425L13.6835 14.1276ZM52.8822 13.775V11H43.5454C42.0432 11 40.8114 12.2434 40.7842 13.7736L52.8822 13.775ZM38.0293 13.7736V11.0139H40.755V13.7736H38.0293Z" fill="black"/>
</g>
<defs>
<clipPath id="clip0_889_4635">
<rect width="62" height="32" fill="white"/>
</clipPath>
</defs>
</svg>
