<svg preserveAspectRatio="none" width="100%" height="100%" overflow="visible" style="display: block;" viewBox="0 0 20 20" fill="none" xmlns="http://www.w3.org/2000/svg">
<g id="copy-success">
<path id="Vector" d="M14.25 1.66667H10.75C8.24655 1.66667 7.03841 2.53232 6.74595 4.61575C6.66853 5.16725 7.12999 5.625 7.6869 5.625H9.25C12.75 5.625 14.375 7.25 14.375 10.75V12.3131C14.375 12.87 14.8327 13.3315 15.3843 13.2541C17.4677 12.9616 18.3333 11.7535 18.3333 9.25V5.75C18.3333 2.83333 17.1667 1.66667 14.25 1.66667Z" fill="var(--fill-0, #58CCD2)"/>
<path id="Vector_2" d="M9.25 6.66667H5.75C2.83333 6.66667 1.66667 7.83333 1.66667 10.75V14.25C1.66667 17.1667 2.83333 18.3333 5.75 18.3333H9.25C12.1667 18.3333 13.3333 17.1667 13.3333 14.25V10.75C13.3333 7.83333 12.1667 6.66667 9.25 6.66667ZM10.2417 11.375L7.15 14.4667C7.03333 14.5833 6.88333 14.6417 6.725 14.6417C6.56667 14.6417 6.41667 14.5833 6.3 14.4667L4.75 12.9167C4.51667 12.6833 4.51667 12.3083 4.75 12.075C4.98333 11.8417 5.35833 11.8417 5.59167 12.075L6.71667 13.2L9.39167 10.525C9.625 10.2917 10 10.2917 10.2333 10.525C10.4667 10.7583 10.475 11.1417 10.2417 11.375Z" fill="var(--fill-0, #58CCD2)"/>
<g id="Vector_3" opacity="0">
</g>
</g>
</svg>
