<svg width="16" height="16" viewBox="0 0 16 16" fill="none" xmlns="http://www.w3.org/2000/svg">
<path d="M3.33325 12.6663C3.33325 12.0475 3.57908 11.454 4.01667 11.0164C4.45425 10.5788 5.04775 10.333 5.66658 10.333H7.99992V12.6663C7.99992 13.2852 7.75409 13.8787 7.3165 14.3163C6.87892 14.7538 6.28542 14.9997 5.66658 14.9997C5.04775 14.9997 4.45425 14.7538 4.01667 14.3163C3.57908 13.8787 3.33325 13.2852 3.33325 12.6663Z" fill="#24CB71"/>
<path d="M8 1V5.66667H10.3333C10.9522 5.66667 11.5457 5.42083 11.9832 4.98325C12.4208 4.54566 12.6667 3.95217 12.6667 3.33333C12.6667 2.71449 12.4208 2.121 11.9832 1.68342C11.5457 1.24583 10.9522 1 10.3333 1H8Z" fill="#FF7237"/>
<path d="M10.3143 10.3337C10.9331 10.3337 11.5266 10.0878 11.9642 9.65024C12.4018 9.21266 12.6476 8.61916 12.6476 8.00033C12.6476 7.38149 12.4018 6.78799 11.9642 6.35041C11.5266 5.91282 10.9331 5.66699 10.3143 5.66699C9.69545 5.66699 9.10196 5.91282 8.66437 6.35041C8.22679 6.78799 7.98096 7.38149 7.98096 8.00033C7.98096 8.61916 8.22679 9.21266 8.66437 9.65024C9.10196 10.0878 9.69545 10.3337 10.3143 10.3337Z" fill="#00B6FF"/>
<path d="M3.33325 3.33333C3.33325 3.95217 3.57908 4.54566 4.01667 4.98325C4.45425 5.42083 5.04775 5.66667 5.66658 5.66667H7.99992V1H5.66658C5.04775 1 4.45425 1.24583 4.01667 1.68342C3.57908 2.121 3.33325 2.71449 3.33325 3.33333Z" fill="#FF3737"/>
<path d="M3.33325 8.00033C3.33325 8.61916 3.57908 9.21266 4.01667 9.65024C4.45425 10.0878 5.04775 10.3337 5.66658 10.3337H7.99992V5.66699H5.66658C5.04775 5.66699 4.45425 5.91282 4.01667 6.35041C3.57908 6.78799 3.33325 7.38149 3.33325 8.00033Z" fill="#874FFF"/>
</svg>
