<svg width="16" height="16" viewBox="0 0 16 16" fill="none" xmlns="http://www.w3.org/2000/svg">
<g clip-path="url(#clip0_654_4248)">
<path fill-rule="evenodd" clip-rule="evenodd" d="M14.9127 11.7845C13.988 12.6238 12.7994 13.3698 11.358 14.0625C11.3874 14.0825 11.4154 14.1005 11.4447 14.1178L11.4567 14.1245L11.4694 14.1325C11.6134 14.2145 11.7494 14.2552 11.8967 14.2552C12.0447 14.2552 12.1807 14.2145 12.3247 14.1325L12.3367 14.1252L12.3494 14.1178C12.4427 14.0618 12.5267 13.9992 12.6774 13.8738L12.796 13.7752C12.982 13.6205 13.08 13.5471 13.2127 13.4711C13.4154 13.3552 13.6207 13.2938 13.8454 13.2938C14.07 13.2938 14.2754 13.3552 14.478 13.4711L14.4934 13.4805C14.6187 13.5531 14.716 13.6265 14.8947 13.7752L15.0134 13.8738C15.1607 13.9965 15.244 14.0592 15.3354 14.1138L15.354 14.1252L15.366 14.1318C15.506 14.2118 15.6374 14.2525 15.7794 14.2552H15.794C15.8225 14.2529 15.8511 14.2565 15.8781 14.2658C15.905 14.2751 15.9298 14.2899 15.9508 14.3093C15.9717 14.3286 15.9885 14.3521 15.9999 14.3782C16.0114 14.4044 16.0173 14.4326 16.0173 14.4612C16.0173 14.4897 16.0114 14.5179 15.9999 14.5441C15.9885 14.5702 15.9717 14.5937 15.9508 14.613C15.9298 14.6324 15.905 14.6472 15.8781 14.6565C15.8511 14.6658 15.8225 14.6694 15.794 14.6672C15.5694 14.6672 15.364 14.6058 15.1607 14.4898C15.1405 14.4782 15.1205 14.4662 15.1007 14.4538L15.086 14.4445L15.0714 14.4358L15.058 14.4265C14.9444 14.3491 14.8353 14.2651 14.7314 14.1751L14.6254 14.0871C14.5245 13.9988 14.4168 13.9186 14.3034 13.8472L14.2854 13.8358L14.2727 13.8292C14.144 13.7503 13.9963 13.7077 13.8454 13.7058C13.6974 13.7058 13.5614 13.7465 13.418 13.8285L13.4047 13.8358L13.3927 13.8432C13.2994 13.8992 13.2154 13.9618 13.0647 14.0871L12.9594 14.1751C12.8516 14.2688 12.738 14.3557 12.6194 14.4352L12.6047 14.4445L12.59 14.4538L12.53 14.4898C12.3386 14.6046 12.1199 14.6659 11.8967 14.6672C11.672 14.6672 11.4674 14.6058 11.264 14.4898C11.2438 14.4782 11.2238 14.4662 11.204 14.4538L11.1894 14.4445L11.1747 14.4358L11.1574 14.4245C11.059 14.3575 10.9644 14.2852 10.874 14.2078C10.8421 14.1928 10.8145 14.1699 10.794 14.1412L10.7287 14.0871C10.6278 13.9988 10.5202 13.9186 10.4067 13.8472L10.3887 13.8358L10.376 13.8292C10.2473 13.7503 10.0997 13.7077 9.94869 13.7058C9.80069 13.7058 9.66469 13.7465 9.52069 13.8285L9.50869 13.8358L9.49603 13.8432C9.40269 13.8992 9.31869 13.9618 9.16803 14.0871L9.06269 14.1751C8.9549 14.2688 8.84135 14.3557 8.72269 14.4352L8.70736 14.4445L8.69269 14.4538L8.63269 14.4898C8.44148 14.6045 8.22299 14.6657 8.00003 14.6672C7.77536 14.6672 7.57003 14.6058 7.36736 14.4898C7.34716 14.4782 7.32716 14.4662 7.30736 14.4538L7.29269 14.4445L7.27803 14.4358L7.26403 14.4265C7.15039 14.3491 7.04132 14.2651 6.93736 14.1751L6.83203 14.0871C6.73115 13.9988 6.62349 13.9186 6.51003 13.8472L6.49136 13.8358L6.47936 13.8292C6.35044 13.7502 6.20254 13.7075 6.05136 13.7058C5.90403 13.7058 5.76803 13.7465 5.62403 13.8285L5.61136 13.8358L5.59936 13.8432C5.50536 13.8992 5.42203 13.9618 5.27136 14.0871L5.16603 14.1751C5.05802 14.2689 4.94424 14.3557 4.82536 14.4352L4.81069 14.4445L4.79603 14.4538L4.73603 14.4898C4.5375 14.6084 4.30989 14.6693 4.07869 14.6658C3.58136 14.6058 3.19936 14.4125 2.81869 14.0885L2.79536 14.0685C2.76403 14.0411 2.71669 13.9978 2.66736 13.9525L2.53669 13.8318L2.46536 13.7651L2.45803 13.7585C2.39148 13.6922 2.3161 13.6355 2.23403 13.5898C2.21412 13.5798 2.19274 13.5731 2.17069 13.5698H2.16736C2.08803 13.5845 2.00869 13.6092 1.92669 13.6432C1.91187 13.6594 1.89454 13.6731 1.87536 13.6838L1.87003 13.6872C1.84396 13.7006 1.81532 13.7083 1.78603 13.7098C1.60483 13.8106 1.43225 13.9261 1.27003 14.0552L0.992693 14.2712L0.956027 14.2998C0.885651 14.3545 0.813617 14.4069 0.740027 14.4571C0.536694 14.5951 0.372027 14.6672 0.206694 14.6672C0.154796 14.6639 0.106031 14.6412 0.0701242 14.6036C0.0342173 14.566 0.0138078 14.5162 0.0129665 14.4642C0.0121252 14.4122 0.030914 14.3618 0.0655852 14.3231C0.100256 14.2843 0.148262 14.2601 0.200027 14.2552H0.206694C0.266694 14.2552 0.36336 14.2138 0.498694 14.1232L0.52536 14.1052C0.576693 14.0692 0.634027 14.0272 0.70536 13.9725L0.962027 13.7718L1.00203 13.7405C1.18069 13.6032 1.33936 13.4918 1.48869 13.4038L1.06669 12.5972C1.05088 12.5668 1.04289 12.5329 1.04345 12.4986C1.04402 12.4644 1.05312 12.4308 1.06994 12.401C1.08675 12.3711 1.11074 12.3459 1.13974 12.3277C1.16874 12.3094 1.20184 12.2987 1.23603 12.2965L14.7607 11.4265C14.8033 11.4237 14.8458 11.4342 14.8822 11.4566C14.9185 11.479 14.9471 11.5122 14.9638 11.5515C14.9804 11.5909 14.9845 11.6344 14.9754 11.6762C14.9662 11.7179 14.9443 11.7557 14.9127 11.7845ZM14.1674 11.8778L1.57936 12.6872L1.86136 13.2265C1.94669 13.1965 2.03203 13.1745 2.12003 13.1598C2.13147 13.1577 2.14306 13.1566 2.15469 13.1565C2.24269 13.1565 2.32803 13.1778 2.41203 13.2185C2.51403 13.2672 2.60803 13.3378 2.73403 13.4518L2.74469 13.4618L2.80603 13.5192L2.90203 13.6085L2.96669 13.6678C3.01003 13.7078 3.05003 13.7438 3.07336 13.7638C3.39669 14.0425 3.70536 14.2025 4.10936 14.2545H4.11669C4.25758 14.2507 4.3952 14.2112 4.51669 14.1398L4.53069 14.1325L4.54336 14.1252L4.55536 14.1178C4.64936 14.0618 4.73269 13.9992 4.88336 13.8738L5.00203 13.7752C5.18803 13.6205 5.28603 13.5471 5.41869 13.4711C5.62203 13.3552 5.82669 13.2938 6.05203 13.2938C6.27603 13.2938 6.48136 13.3552 6.68403 13.4711L6.69936 13.4805C6.82469 13.5531 6.92269 13.6265 7.10136 13.7752L7.21936 13.8738C7.36736 13.9965 7.45003 14.0592 7.54203 14.1138L7.56003 14.1252L7.57269 14.1318C7.71603 14.2145 7.85269 14.2552 8.00003 14.2552C8.14803 14.2552 8.28403 14.2145 8.42736 14.1325L8.44003 14.1252L8.45203 14.1178C8.54603 14.0618 8.63003 13.9992 8.78069 13.8738L8.89869 13.7752C9.08536 13.6205 9.18336 13.5471 9.31603 13.4711C9.51869 13.3552 9.72403 13.2938 9.94869 13.2938C10.1734 13.2938 10.378 13.3552 10.5814 13.4711L10.598 13.4812C10.7227 13.5538 10.8207 13.6278 11 13.7765C12.2447 13.1912 13.2987 12.5692 14.1534 11.8885L14.1674 11.8778ZM2.43536 1.35115C4.04869 2.04048 5.79336 3.29448 7.20003 4.83915C8.84003 6.63915 9.93936 8.72448 10.2914 10.9385C10.2969 10.9745 10.2928 11.0113 10.2795 11.0452C10.2662 11.079 10.2442 11.1088 10.2158 11.1315C10.1873 11.1542 10.1533 11.1689 10.1173 11.1742C10.0813 11.1796 10.0445 11.1753 10.0107 11.1618C8.44536 10.5318 6.98403 10.3232 5.61736 10.4818C4.45803 10.6152 3.39269 11.0098 2.40669 11.6172C2.21069 11.7385 1.99336 11.4958 2.13669 11.3145C3.37403 9.74448 3.85736 7.98782 3.69869 6.11848C3.56869 4.59048 3.01136 3.04515 2.17603 1.64582C2.15416 1.60836 2.14464 1.56498 2.14879 1.52181C2.15295 1.47865 2.17058 1.43788 2.19919 1.40529C2.2278 1.3727 2.26594 1.34993 2.30821 1.34021C2.35047 1.3305 2.39472 1.33432 2.43469 1.35115H2.43536ZM6.69336 2.96715C7.87869 3.32915 9.28803 4.36848 10.548 5.79582C11.8707 7.29448 12.916 9.08515 13.446 10.8505C13.4568 10.887 13.4573 10.9259 13.4474 10.9627C13.4375 10.9995 13.4177 11.0329 13.39 11.0591C13.3623 11.0853 13.3279 11.1033 13.2907 11.1112C13.2534 11.1191 13.2146 11.1166 13.1787 11.1038L13.164 11.0972L12.9067 10.9945C12.8424 10.9686 12.7777 10.9438 12.7127 10.9198L12.702 10.9158C12.2487 10.7512 11.9027 10.7218 11.406 10.8485C11.3536 10.8618 11.2981 10.854 11.2514 10.8268C11.2046 10.7997 11.1704 10.7553 11.156 10.7032C10.252 7.41582 8.71536 4.85115 6.51669 3.33382C6.32269 3.19982 6.46869 2.89848 6.69403 2.96715H6.69336ZM2.84869 1.99782L2.85403 2.00782C3.53936 3.30115 3.99269 4.69515 4.11069 6.08315C4.25269 7.75848 3.90403 9.35382 2.99536 10.8112L2.98203 10.8318L2.98403 10.8312C3.78269 10.4438 4.63069 10.1852 5.53403 10.0765L5.57069 10.0725C6.89136 9.91915 8.29269 10.0918 9.77669 10.6305L9.82069 10.6472L9.81603 10.6212C9.42069 8.65448 8.41069 6.79648 6.94269 5.16848L6.89603 5.11648C5.70603 3.80982 4.26669 2.71648 2.88669 2.01648L2.84869 1.99782ZM8.12869 4.15648L8.16069 4.18848C9.65203 5.71848 10.7507 7.80915 11.4767 10.3158L11.502 10.4038L11.5167 10.4012C11.99 10.3125 12.3727 10.3592 12.8254 10.5212L12.8434 10.5278L12.8874 10.5438L12.918 10.5558L12.9014 10.5072C12.3607 8.96915 11.4294 7.42715 10.2774 6.11115L10.2387 6.06782C9.55869 5.29782 8.83669 4.64648 8.13869 4.16382L8.12869 4.15648Z" fill="black"/>
</g>
<defs>
<clipPath id="clip0_654_4248">
<rect width="16" height="16" fill="white"/>
</clipPath>
</defs>
</svg>
