<svg width="16" height="16" viewBox="0 0 16 16" fill="none" xmlns="http://www.w3.org/2000/svg">
<g clip-path="url(#clip0_654_4232)">
<path d="M0.5 2.5C0.5 1.39543 1.39543 0.5 2.5 0.5H13.5C14.6046 0.5 15.5 1.39543 15.5 2.5V13.5C15.5 14.6046 14.6046 15.5 13.5 15.5H2.5C1.39543 15.5 0.5 14.6046 0.5 13.5V2.5Z" fill="#7A40ED"/>
<path d="M5.14687 5.17966C5.34749 5.17775 5.54813 5.17872 5.74871 5.18257L5.75308 7.78572C5.75303 8.26027 5.7499 8.75268 5.74801 9.22311C5.74379 10.2688 4.95797 10.8206 3.96346 10.7751C3.48824 10.7534 3.08595 10.6084 2.75552 10.2546C2.44549 9.90138 2.4005 9.59475 2.36328 9.1459C2.66482 9.14275 2.96637 9.14202 3.26791 9.14369C3.28578 9.34649 3.33985 9.5497 3.4866 9.6976C3.77653 9.98647 4.32216 10.0048 4.61696 9.71434C4.87238 9.46268 4.83415 9.05285 4.83433 8.7195L4.8345 7.95858L4.83547 5.18533L5.14687 5.17966Z" fill="#FAFCFA"/>
<path d="M8.82029 5.76134C9.10812 5.75879 9.39597 5.75934 9.68378 5.76298L9.68529 6.84172L10.7845 6.84372L10.784 7.61751C10.5226 7.59181 9.97144 7.60588 9.68264 7.60456L9.68317 8.72312C9.68251 8.94723 9.67319 9.17658 9.68667 9.39998C9.71967 9.94741 10.0508 9.99971 10.4946 9.97121C10.6265 9.95929 10.6683 9.95709 10.7959 9.92218C10.7879 10.1682 10.7933 10.4457 10.7925 10.6938C10.2407 10.8068 9.59255 10.8371 9.1627 10.4074C9.01327 10.2589 8.91048 10.07 8.86697 9.86394C8.79685 9.53638 8.81896 8.7121 8.81906 8.33984L8.82029 5.76134Z" fill="#FAFCFA"/>
<path d="M6.52686 5.76205C6.81301 5.76028 7.09918 5.76031 7.38534 5.76214C7.38566 6.116 7.3801 6.48959 7.39316 6.84184L8.32248 6.84289L8.3241 7.61808C8.11242 7.59549 7.62889 7.60594 7.38673 7.60355L7.38602 8.79434C7.38521 9.66246 7.30338 10.0743 8.36566 9.95373C8.41271 9.94529 8.45676 9.92997 8.4929 9.95062C8.51191 10.1117 8.49921 10.5136 8.49813 10.6924C7.95304 10.8104 7.31036 10.8352 6.87925 10.42C6.72373 10.2703 6.61666 10.0774 6.5719 9.86623C6.50501 9.55953 6.53526 8.81632 6.53182 8.45802C6.52321 7.56382 6.54427 6.65698 6.52686 5.76205Z" fill="#FAFCFA"/>
<path d="M13.2706 6.81972C13.3791 6.81101 13.5168 6.8285 13.6244 6.84197C13.629 7.14033 13.6294 7.43873 13.6255 7.73711C12.9928 7.55134 12.4937 7.76132 12.3248 8.4361C12.2395 8.77681 12.2694 9.20129 12.2696 9.55473L12.2665 10.7436L11.414 10.7459L11.4124 10.5551L11.4125 6.85939C11.6997 6.85639 11.9868 6.85595 12.274 6.85808L12.2681 7.51291C12.505 7.07701 12.7598 6.86639 13.2706 6.81972Z" fill="#FAFCFA"/>
</g>
<defs>
<clipPath id="clip0_654_4232">
<rect width="16" height="16" rx="2" fill="white"/>
</clipPath>
</defs>
</svg>
