<svg width="62" height="32" viewBox="0 0 62 32" fill="none" xmlns="http://www.w3.org/2000/svg">
<path d="M9.00004 19.1361C9.00004 19.5521 9.36418 19.9681 9.86074 19.9681H13.1728V23.1684C13.1728 23.5844 13.5369 24.0004 14.0335 24.0004H16.8653V16.4002H9L9.00004 19.1361ZM19.4982 8.0001C16.0374 8.0001 13.2725 10.656 13.2725 13.9356V15.2H16.7493V13.9356C16.7493 12.512 17.9582 11.3601 19.4981 11.3601C21.0214 11.3601 22.0815 12.3837 22.0815 13.9036C22.0815 15.408 20.9387 16.5119 19.4147 16.5119H18.1069V19.871H19.4147C22.8102 19.871 25.5591 17.1999 25.5591 13.9031C25.5591 10.48 22.9926 8 19.4981 8" fill="#4ACBD6"/>
<path d="M53.0008 19.9681L50.831 17.6006L52.7687 15.4723H51.5589L49.8211 17.4563V13.4412L48.7941 13.9368V19.7127C48.7941 19.8563 48.9097 19.9687 49.0426 19.9687H49.8211V17.7288L51.7416 19.9687H53.0009L53.0008 19.9681ZM45.5817 15.3438C44.7533 15.3438 43.8921 15.7606 43.4618 16.3682V19.7281C43.4618 19.8557 43.5783 19.9681 43.7103 19.9681H44.4888V16.7682C44.7365 16.4646 45.1346 16.2726 45.5817 16.2726C46.2936 16.2726 46.8066 16.8162 46.8066 17.5362V19.9681H47.8169V17.5042C47.8173 16.2726 46.8564 15.3439 45.5818 15.3439M41.9056 13.3447C41.5251 13.3447 41.21 13.6331 41.21 14.0007C41.21 14.1767 41.2758 14.3203 41.3919 14.4327H42.4189C42.5346 14.3203 42.6008 14.1767 42.6008 14.0007C42.6012 13.6327 42.2865 13.3447 41.9056 13.3447ZM42.4194 19.9681V15.4722H41.3923V19.7281C41.3923 19.8557 41.5088 19.9681 41.6408 19.9681H42.4194ZM39.3223 19.7281C39.3223 19.8557 39.4388 19.9681 39.5708 19.9681H40.3493V13.4411L39.3223 13.9367V19.7281ZM37.0206 18.2085H38.4118V17.2162H36.5236L37.0206 18.2085ZM33.3942 15.3926C32.5168 15.3926 31.5894 15.8406 31.1256 16.4966V21.4237C31.1256 21.5521 31.2413 21.6637 31.3741 21.6637H32.1518V16.8966C32.4003 16.5442 32.8642 16.3202 33.3775 16.3202C34.172 16.3202 34.752 16.8966 34.752 17.7122C34.752 18.5126 34.1721 19.1206 33.3775 19.1206H32.6488V19.9686H33.3943C34.7688 19.9686 35.7786 19.0246 35.7786 17.7127C35.7781 16.3843 34.7519 15.3928 33.3943 15.3928M28.7907 18.4639V16.3524H30.1153V15.4724H28.7907V14.1132L27.7637 14.6088V18.6731C27.7637 19.5047 28.277 19.9691 29.188 19.9691H30.5126V19.1211H29.4533C28.9559 19.1207 28.7907 18.9439 28.7907 18.4639Z" fill="black"/>
</svg>
