<svg preserveAspectRatio="none" width="100%" height="100%" overflow="visible" style="display: block;" viewBox="0 0 126 77" fill="none" xmlns="http://www.w3.org/2000/svg">
<path id="vector bg" d="M61.1445 0.574219C64.8977 0.263576 69.6844 0.95562 73.2578 2.09082V2.0918C78.7498 3.87283 83.6978 7.04625 87.6318 11.3076L88.0098 11.7236C93.5331 17.8957 96.5994 25.9139 96.9688 34.1992V34.2002C97.0386 37.2982 97.0129 40.4626 97.0166 43.5703C97.0337 57.9769 104.672 72.7881 119.619 76.1768C120.151 76.2974 120.672 76.4019 121.192 76.499L4.94238 76.4922C5.16113 76.4514 5.37977 76.4097 5.59766 76.3643H5.59863C21.1751 73.0734 28.7695 58.63 28.9707 43.7246C29.0156 40.399 28.8912 37.0697 29.0449 33.8027C29.4196 25.8378 32.5166 17.9185 37.7666 11.9639L37.7686 11.9619C43.7241 5.13568 52.1468 1.03097 61.1289 0.575195H61.1367L61.1445 0.574219Z" fill="var(--fill-0, #F5F5F5)" stroke="var(--stroke-0, #F2F2F2)"/>
</svg>
